  0
SECTION
  2
HEADER
  9
$ACADVER
  1
AC1014
  9
$HANDSEED
  5
FFFF
  9
$MEASUREMENT
 70
     1
  0
ENDSEC
  0
SECTION
  2
TABLES
  0
TABLE
  2
VPORT
  5
8
330
0
100
AcDbSymbolTable
 70
     4
  0
VPORT
  5
2E
330
8
100
AcDbSymbolTableRecord
100
AcDbViewportTableRecord
  2
*ACTIVE
 70
     0
 10
0.0
 20
0.0
 11
1.0
 21
1.0
 12
210.0
 22
148.5
 13
0.0
 23
0.0
 14
10.0
 24
10.0
 15
10.0
 25
10.0
 16
0.0
 26
0.0
 36
1.0
 17
0.0
 27
0.0
 37
0.0
 40
341.0
 41
1.24
 42
50.0
 43
0.0
 44
0.0
 50
0.0
 51
0.0
 71
     0
 72
   100
 73
     1
 74
     3
 75
     0
 76
     0
 77
     0
 78
     0
  0
ENDTAB
  0
TABLE
  2
LTYPE
  5
5
330
0
100
AcDbSymbolTable
 70
     1
  0
LTYPE
  5
14
330
5
100
AcDbSymbolTableRecord
100
AcDbLinetypeTableRecord
  2
BYBLOCK
 70
     0
  3

 72
    65
 73
     0
 40
0.0
  0
LTYPE
  5
15
330
5
100
AcDbSymbolTableRecord
100
AcDbLinetypeTableRecord
  2
BYLAYER
 70
     0
  3

 72
    65
 73
     0
 40
0.0
  0
LTYPE
  5
16
330
5
100
AcDbSymbolTableRecord
100
AcDbLinetypeTableRecord
  2
CONTINUOUS
 70
     0
  3
Solid line
 72
    65
 73
     0
 40
0.0
  0
ENDTAB
  0
TABLE
  2
LAYER
  5
2
100
AcDbSymbolTable
 70
2
  0
LAYER
  5
50
100
AcDbSymbolTableRecord
100
AcDbLayerTableRecord
  2
0
 70
0
  6
CONTINUOUS
  0
LAYER
  5
51
100
AcDbSymbolTableRecord
100
AcDbLayerTableRecord
  2
Body_Frame_3
 70
0
  6
CONTINUOUS
  0
ENDTAB
  0
TABLE
  2
STYLE
  5
3
330
0
100
AcDbSymbolTable
 70
     1
  0
STYLE
  5
11
330
3
100
AcDbSymbolTableRecord
100
AcDbTextStyleTableRecord
  2
STANDARD
 70
     0
 40
0.0
 41
1.0
 50
0.0
 71
     0
 42
2.5
  3
txt
  4

  0
ENDTAB
  0
TABLE
  2
VIEW
  5
6
330
0
100
AcDbSymbolTable
 70
     0
  0
ENDTAB
  0
TABLE
  2
UCS
  5
7
330
0
100
AcDbSymbolTable
 70
     0
  0
ENDTAB
  0
TABLE
  2
APPID
  5
9
330
0
100
AcDbSymbolTable
 70
     2
  0
APPID
  5
12
330
9
100
AcDbSymbolTableRecord
100
AcDbRegAppTableRecord
  2
ACAD
 70
     0
  0
ENDTAB
  0
TABLE
  2
DIMSTYLE
  5
A
330
0
100
AcDbSymbolTable
 70
     1
  0
DIMSTYLE
105
27
330
A
100
AcDbSymbolTableRecord
100
AcDbDimStyleTableRecord
  2
ISO-25
 70
     0
  3

  4

  5

  6

  7

 40
1.0
 41
2.5
 42
0.625
 43
3.75
 44
1.25
 45
0.0
 46
0.0
 47
0.0
 48
0.0
140
2.5
141
2.5
142
0.0
143
0.03937007874016
144
1.0
145
0.0
146
1.0
147
0.625
 71
     0
 72
     0
 73
     0
 74
     0
 75
     0
 76
     0
 77
     1
 78
     8
170
     0
171
     3
172
     1
173
     0
174
     0
175
     0
176
     0
177
     0
178
     0
270
     2
271
     2
272
     2
273
     2
274
     3
340
11
275
     0
280
     0
281
     0
282
     0
283
     0
284
     8
285
     0
286
     0
287
     3
288
     0
  0
ENDTAB
  0
TABLE
  2
BLOCK_RECORD
  5
1
330
0
100
AcDbSymbolTable
 70
     1
  0
BLOCK_RECORD
  5
1F
330
1
100
AcDbSymbolTableRecord
100
AcDbBlockTableRecord
  2
*MODEL_SPACE
  0
BLOCK_RECORD
  5
1B
330
1
100
AcDbSymbolTableRecord
100
AcDbBlockTableRecord
  2
*PAPER_SPACE
  0
ENDTAB
  0
ENDSEC
  0
SECTION
  2
BLOCKS
  0
BLOCK
  5
20
330
1F
100
AcDbEntity
  8
0
100
AcDbBlockBegin
  2
*MODEL_SPACE
 70
     0
 10
0.0
 20
0.0
 30
0.0
  3
*MODEL_SPACE
  1

  0
ENDBLK
  5
21
330
1F
100
AcDbEntity
  8
0
100
AcDbBlockEnd
  0
BLOCK
  5
1C
330
1B
100
AcDbEntity
 67
     1
  8
0
100
AcDbBlockBegin
  2
*PAPER_SPACE
  1

  0
ENDBLK
  5
1D
330
1B
100
AcDbEntity
 67
     1
  8
0
100
AcDbBlockEnd
  0
ENDSEC
  0
SECTION
  2
ENTITIES
  0
SPLINE
  5
100
100
AcDbEntity
  8
Body_Frame_3
 62
7
100
AcDbSpline
 70
8
 71
3
 72
8
 73
4
 74
0
 40
0
 40
0
 40
0
 40
0
 40
1
 40
1
 40
1
 40
1
 10
1311.119967
 20
1581.199960
 30
0.0
 10
1310.644967
 20
1847.327954
 30
0.0
 10
1095.960973
 20
2062.137948
 30
0.0
 10
829.799979
 20
2062.458948
 30
0.0
  0
SPLINE
  5
101
100
AcDbEntity
  8
Body_Frame_3
 62
7
100
AcDbSpline
 70
8
 71
3
 72
8
 73
4
 74
0
 40
0
 40
0
 40
0
 40
0
 40
1
 40
1
 40
1
 40
1
 10
829.799979
 20
2062.458948
 30
0.0
 10
563.661986
 20
2062.104948
 30
0.0
 10
349.013991
 20
1847.303954
 30
0.0
 10
348.539991
 20
1581.199960
 30
0.0
  0
SPLINE
  5
102
100
AcDbEntity
  8
Body_Frame_3
 62
7
100
AcDbSpline
 70
8
 71
3
 72
8
 73
4
 74
0
 40
0
 40
0
 40
0
 40
0
 40
1
 40
1
 40
1
 40
1
 10
348.539991
 20
1581.199960
 30
0.0
 10
349.170991
 20
1314.893967
 30
0.0
 10
563.553986
 20
1100.537972
 30
0.0
 10
829.859979
 20
1099.939973
 30
0.0
  0
SPLINE
  5
103
100
AcDbEntity
  8
Body_Frame_3
 62
7
100
AcDbSpline
 70
8
 71
3
 72
8
 73
4
 74
0
 40
0
 40
0
 40
0
 40
0
 40
1
 40
1
 40
1
 40
1
 10
829.859979
 20
1099.939973
 30
0.0
 10
1095.963973
 20
1100.446972
 30
0.0
 10
1310.737967
 20
1315.121967
 30
0.0
 10
1311.059967
 20
1581.259960
 30
0.0
  0
SPLINE
  5
104
100
AcDbEntity
  8
Body_Frame_3
 62
7
100
AcDbSpline
 70
8
 71
3
 72
8
 73
4
 74
0
 40
0
 40
0
 40
0
 40
0
 40
1
 40
1
 40
1
 40
1
 10
1096.019973
 20
2088.198948
 30
0.0
 10
1095.592973
 20
2087.727948
 30
0.0
 10
1095.442973
 20
2087.277948
 30
0.0
 10
1095.179973
 20
2086.759948
 30
0.0
  0
SPLINE
  5
105
100
AcDbEntity
  8
Body_Frame_3
 62
7
100
AcDbSpline
 70
8
 71
3
 72
8
 73
4
 74
0
 40
0
 40
0
 40
0
 40
0
 40
1
 40
1
 40
1
 40
1
 10
1094.519973
 20
2083.519948
 30
0.0
 10
1094.519973
 20
2083.239948
 30
0.0
 10
1094.519973
 20
2082.958948
 30
0.0
 10
1094.519973
 20
2082.678948
 30
0.0
  0
LWPOLYLINE
  5
106
100
AcDbEntity
  8
Body_Frame_3
 62
7
100
AcDbPolyline
 90
22
 70
0
 10
1095.179973
 20
2086.759948
 30
0.0
 10
1095.119973
 20
2086.698948
 30
0.0
 10
1095.119973
 20
2086.579948
 30
0.0
 10
1095.059973
 20
2086.458948
 30
0.0
 10
1095.059973
 20
2086.398948
 30
0.0
 10
1094.999973
 20
2086.279948
 30
0.0
 10
1094.939973
 20
2086.158948
 30
0.0
 10
1094.939973
 20
2086.099948
 30
0.0
 10
1094.879973
 20
2085.978948
 30
0.0
 10
1094.879973
 20
2085.858948
 30
0.0
 10
1094.819973
 20
2085.799948
 30
0.0
 10
1094.819973
 20
2085.678948
 30
0.0
 10
1094.759973
 20
2085.559948
 30
0.0
 10
1094.759973
 20
2085.378948
 30
0.0
 10
1094.699973
 20
2085.259948
 30
0.0
 10
1094.699973
 20
2085.198948
 30
0.0
 10
1094.639973
 20
2085.079948
 30
0.0
 10
1094.639973
 20
2084.779948
 30
0.0
 10
1094.579973
 20
2084.658948
 30
0.0
 10
1094.579973
 20
2084.358948
 30
0.0
 10
1094.519973
 20
2084.239948
 30
0.0
 10
1094.519973
 20
2083.519948
 30
0.0
  0
SPLINE
  5
107
100
AcDbEntity
  8
Body_Frame_3
 62
7
100
AcDbSpline
 70
8
 71
3
 72
8
 73
4
 74
0
 40
0
 40
0
 40
0
 40
0
 40
1
 40
1
 40
1
 40
1
 10
1095.479973
 20
2079.499948
 30
0.0
 10
1095.576973
 20
2079.208948
 30
0.0
 10
1095.714973
 20
2079.028948
 30
0.0
 10
1095.899973
 20
2078.779948
 30
0.0
  0
SPLINE
  5
108
100
AcDbEntity
  8
Body_Frame_3
 62
7
100
AcDbSpline
 70
8
 71
3
 72
8
 73
4
 74
0
 40
0
 40
0
 40
0
 40
0
 40
1
 40
1
 40
1
 40
1
 10
1095.899973
 20
2078.779948
 30
0.0
 10
1096.041973
 20
2078.633948
 30
0.0
 10
1096.219973
 20
2078.245948
 30
0.0
 10
1096.379973
 20
2078.119948
 30
0.0
  0
SPLINE
  5
109
100
AcDbEntity
  8
Body_Frame_3
 62
7
100
AcDbSpline
 70
8
 71
3
 72
8
 73
4
 74
0
 40
0
 40
0
 40
0
 40
0
 40
1
 40
1
 40
1
 40
1
 10
1096.379973
 20
2078.119948
 30
0.0
 10
1096.535973
 20
2077.769948
 30
0.0
 10
1096.852973
 20
2077.680948
 30
0.0
 10
1096.919973
 20
2077.458948
 30
0.0
  0
LWPOLYLINE
  5
10a
100
AcDbEntity
  8
Body_Frame_3
 62
7
100
AcDbPolyline
 90
28
 70
0
 10
1094.519973
 20
2082.678948
 30
0.0
 10
1094.519973
 20
2082.559948
 30
0.0
 10
1094.579973
 20
2082.499948
 30
0.0
 10
1094.579973
 20
2082.139948
 30
0.0
 10
1094.639973
 20
2082.079948
 30
0.0
 10
1094.639973
 20
2081.838948
 30
0.0
 10
1094.699973
 20
2081.779948
 30
0.0
 10
1094.699973
 20
2081.539948
 30
0.0
 10
1094.759973
 20
2081.478948
 30
0.0
 10
1094.759973
 20
2081.358948
 30
0.0
 10
1094.819973
 20
2081.239948
 30
0.0
 10
1094.819973
 20
2081.059948
 30
0.0
 10
1094.879973
 20
2080.938948
 30
0.0
 10
1094.879973
 20
2080.819948
 30
0.0
 10
1094.939973
 20
2080.759948
 30
0.0
 10
1094.999973
 20
2080.639948
 30
0.0
 10
1094.999973
 20
2080.579948
 30
0.0
 10
1095.059973
 20
2080.458948
 30
0.0
 10
1095.059973
 20
2080.338948
 30
0.0
 10
1095.119973
 20
2080.279948
 30
0.0
 10
1095.179973
 20
2080.158948
 30
0.0
 10
1095.179973
 20
2080.039948
 30
0.0
 10
1095.239973
 20
2079.978948
 30
0.0
 10
1095.299973
 20
2079.858948
 30
0.0
 10
1095.299973
 20
2079.799948
 30
0.0
 10
1095.359973
 20
2079.678948
 30
0.0
 10
1095.419973
 20
2079.619948
 30
0.0
 10
1095.479973
 20
2079.499948
 30
0.0
  0
SPLINE
  5
10b
100
AcDbEntity
  8
Body_Frame_3
 62
7
100
AcDbSpline
 70
8
 71
3
 72
8
 73
4
 74
0
 40
0
 40
0
 40
0
 40
0
 40
1
 40
1
 40
1
 40
1
 10
1097.519973
 20
2076.918948
 30
0.0
 10
1097.751973
 20
2076.822948
 30
0.0
 10
1098.073973
 20
2076.442948
 30
0.0
 10
1098.239973
 20
2076.378948
 30
0.0
  0
LWPOLYLINE
  5
10c
100
AcDbEntity
  8
Body_Frame_3
 62
7
100
AcDbPolyline
 90
9
 70
0
 10
1096.919973
 20
2077.458948
 30
0.0
 10
1096.979973
 20
2077.398948
 30
0.0
 10
1097.099973
 20
2077.338948
 30
0.0
 10
1097.159973
 20
2077.279948
 30
0.0
 10
1097.219973
 20
2077.218948
 30
0.0
 10
1097.279973
 20
2077.099948
 30
0.0
 10
1097.399973
 20
2077.039948
 30
0.0
 10
1097.459973
 20
2076.978948
 30
0.0
 10
1097.519973
 20
2076.918948
 30
0.0
  0
SPLINE
  5
10d
100
AcDbEntity
  8
Body_Frame_3
 62
7
100
AcDbSpline
 70
8
 71
3
 72
8
 73
4
 74
0
 40
0
 40
0
 40
0
 40
0
 40
1
 40
1
 40
1
 40
1
 10
1196.639970
 20
2008.759950
 30
0.0
 10
1196.916970
 20
2008.649950
 30
0.0
 10
1197.165970
 20
2008.532950
 30
0.0
 10
1197.419970
 20
2008.398950
 30
0.0
  0
LWPOLYLINE
  5
10e
100
AcDbEntity
  8
Body_Frame_3
 62
7
100
AcDbPolyline
 90
10
 70
0
 10
1098.239973
 20
2076.378948
 30
0.0
 10
1195.979970
 20
2009.178950
 30
0.0
 10
1196.039970
 20
2009.178950
 30
0.0
 10
1196.099970
 20
2009.119950
 30
0.0
 10
1196.219970
 20
2009.059950
 30
0.0
 10
1196.279970
 20
2008.999950
 30
0.0
 10
1196.399970
 20
2008.938950
 30
0.0
 10
1196.459970
 20
2008.879950
 30
0.0
 10
1196.579970
 20
2008.819950
 30
0.0
 10
1196.639970
 20
2008.759950
 30
0.0
  0
SPLINE
  5
10f
100
AcDbEntity
  8
Body_Frame_3
 62
7
100
AcDbSpline
 70
8
 71
3
 72
8
 73
4
 74
0
 40
0
 40
0
 40
0
 40
0
 40
1
 40
1
 40
1
 40
1
 10
1200.659970
 20
2007.739950
 30
0.0
 10
1200.939970
 20
2007.739950
 30
0.0
 10
1201.219970
 20
2007.739950
 30
0.0
 10
1201.499970
 20
2007.739950
 30
0.0
  0
LWPOLYLINE
  5
110
100
AcDbEntity
  8
Body_Frame_3
 62
7
100
AcDbPolyline
 90
21
 70
0
 10
1197.419970
 20
2008.398950
 30
0.0
 10
1197.479970
 20
2008.338950
 30
0.0
 10
1197.599970
 20
2008.338950
 30
0.0
 10
1197.719970
 20
2008.279950
 30
0.0
 10
1197.779970
 20
2008.279950
 30
0.0
 10
1198.019970
 20
2008.158950
 30
0.0
 10
1198.079970
 20
2008.158950
 30
0.0
 10
1198.199970
 20
2008.098950
 30
0.0
 10
1198.319970
 20
2008.098950
 30
0.0
 10
1198.379970
 20
2008.039950
 30
0.0
 10
1198.499970
 20
2008.039950
 30
0.0
 10
1198.619970
 20
2007.978950
 30
0.0
 10
1198.799970
 20
2007.978950
 30
0.0
 10
1198.919970
 20
2007.918950
 30
0.0
 10
1198.979970
 20
2007.918950
 30
0.0
 10
1199.099970
 20
2007.858950
 30
0.0
 10
1199.399970
 20
2007.858950
 30
0.0
 10
1199.519970
 20
2007.799950
 30
0.0
 10
1199.819970
 20
2007.799950
 30
0.0
 10
1199.939970
 20
2007.739950
 30
0.0
 10
1200.659970
 20
2007.739950
 30
0.0
  0
SPLINE
  5
111
100
AcDbEntity
  8
Body_Frame_3
 62
7
100
AcDbSpline
 70
8
 71
3
 72
8
 73
4
 74
0
 40
0
 40
0
 40
0
 40
0
 40
1
 40
1
 40
1
 40
1
 10
1204.679970
 20
2008.698950
 30
0.0
 10
1204.971970
 20
2008.796950
 30
0.0
 10
1205.148970
 20
2008.933950
 30
0.0
 10
1205.399970
 20
2009.119950
 30
0.0
  0
SPLINE
  5
112
100
AcDbEntity
  8
Body_Frame_3
 62
7
100
AcDbSpline
 70
8
 71
3
 72
8
 73
4
 74
0
 40
0
 40
0
 40
0
 40
0
 40
1
 40
1
 40
1
 40
1
 10
1205.399970
 20
2009.119950
 30
0.0
 10
1205.546970
 20
2009.261950
 30
0.0
 10
1205.932970
 20
2009.438950
 30
0.0
 10
1206.059970
 20
2009.598950
 30
0.0
  0
SPLINE
  5
113
100
AcDbEntity
  8
Body_Frame_3
 62
7
100
AcDbSpline
 70
8
 71
3
 72
8
 73
4
 74
0
 40
0
 40
0
 40
0
 40
0
 40
1
 40
1
 40
1
 40
1
 10
1206.059970
 20
2009.598950
 30
0.0
 10
1206.407970
 20
2009.753950
 30
0.0
 10
1206.499970
 20
2010.072950
 30
0.0
 10
1206.719970
 20
2010.139950
 30
0.0
  0
LWPOLYLINE
  5
114
100
AcDbEntity
  8
Body_Frame_3
 62
7
100
AcDbPolyline
 90
28
 70
0
 10
1201.499970
 20
2007.739950
 30
0.0
 10
1201.619970
 20
2007.739950
 30
0.0
 10
1201.679970
 20
2007.799950
 30
0.0
 10
1202.039970
 20
2007.799950
 30
0.0
 10
1202.099970
 20
2007.858950
 30
0.0
 10
1202.339970
 20
2007.858950
 30
0.0
 10
1202.399970
 20
2007.918950
 30
0.0
 10
1202.639970
 20
2007.918950
 30
0.0
 10
1202.699970
 20
2007.978950
 30
0.0
 10
1202.819970
 20
2007.978950
 30
0.0
 10
1202.939970
 20
2008.039950
 30
0.0
 10
1203.119970
 20
2008.039950
 30
0.0
 10
1203.239970
 20
2008.098950
 30
0.0
 10
1203.359970
 20
2008.098950
 30
0.0
 10
1203.419970
 20
2008.158950
 30
0.0
 10
1203.539970
 20
2008.218950
 30
0.0
 10
1203.599970
 20
2008.218950
 30
0.0
 10
1203.719970
 20
2008.279950
 30
0.0
 10
1203.839970
 20
2008.279950
 30
0.0
 10
1203.899970
 20
2008.338950
 30
0.0
 10
1204.019970
 20
2008.398950
 30
0.0
 10
1204.139970
 20
2008.398950
 30
0.0
 10
1204.199970
 20
2008.458950
 30
0.0
 10
1204.319970
 20
2008.519950
 30
0.0
 10
1204.379970
 20
2008.519950
 30
0.0
 10
1204.499970
 20
2008.579950
 30
0.0
 10
1204.559970
 20
2008.639950
 30
0.0
 10
1204.679970
 20
2008.698950
 30
0.0
  0
SPLINE
  5
115
100
AcDbEntity
  8
Body_Frame_3
 62
7
100
AcDbSpline
 70
8
 71
3
 72
8
 73
4
 74
0
 40
0
 40
0
 40
0
 40
0
 40
1
 40
1
 40
1
 40
1
 10
1207.259970
 20
2010.739950
 30
0.0
 10
1207.401970
 20
2010.980950
 30
0.0
 10
1207.588970
 20
2011.207950
 30
0.0
 10
1207.799970
 20
2011.398950
 30
0.0
  0
LWPOLYLINE
  5
116
100
AcDbEntity
  8
Body_Frame_3
 62
7
100
AcDbPolyline
 90
8
 70
0
 10
1206.719970
 20
2010.139950
 30
0.0
 10
1206.779970
 20
2010.198950
 30
0.0
 10
1206.839970
 20
2010.319950
 30
0.0
 10
1206.959970
 20
2010.438950
 30
0.0
 10
1207.079970
 20
2010.499950
 30
0.0
 10
1207.139970
 20
2010.619950
 30
0.0
 10
1207.199970
 20
2010.678950
 30
0.0
 10
1207.259970
 20
2010.739950
 30
0.0
  0
SPLINE
  5
117
100
AcDbEntity
  8
Body_Frame_3
 62
7
100
AcDbSpline
 70
8
 71
3
 72
8
 73
4
 74
0
 40
0
 40
0
 40
0
 40
0
 40
1
 40
1
 40
1
 40
1
 10
1139.399972
 20
2151.259946
 30
0.0
 10
837.598979
 20
2314.690942
 30
0.0
 10
462.119988
 20
2215.911945
 30
0.0
 10
279.839993
 20
1925.119952
 30
0.0
  0
SPLINE
  5
118
100
AcDbEntity
  8
Body_Frame_3
 62
7
100
AcDbSpline
 70
8
 71
3
 72
8
 73
4
 74
0
 40
0
 40
0
 40
0
 40
0
 40
1
 40
1
 40
1
 40
1
 10
279.839993
 20
1925.119952
 30
0.0
 10
96.608998
 20
1631.101959
 30
0.0
 10
175.322996
 20
1247.068969
 30
0.0
 10
459.359989
 20
1048.759974
 30
0.0
  0
SPLINE
  5
119
100
AcDbEntity
  8
Body_Frame_3
 62
7
100
AcDbSpline
 70
8
 71
3
 72
8
 73
4
 74
0
 40
0
 40
0
 40
0
 40
0
 40
1
 40
1
 40
1
 40
1
 10
459.359989
 20
1048.759974
 30
0.0
 10
743.969981
 20
851.371979
 30
0.0
 10
1131.553972
 20
911.105977
 30
0.0
 10
1343.459966
 20
1185.079970
 30
0.0
  0
SPLINE
  5
11a
100
AcDbEntity
  8
Body_Frame_3
 62
7
100
AcDbSpline
 70
8
 71
3
 72
8
 73
4
 74
0
 40
0
 40
0
 40
0
 40
0
 40
1
 40
1
 40
1
 40
1
 10
1343.459966
 20
1185.079970
 30
0.0
 10
1554.484961
 20
1459.345964
 30
0.0
 10
1513.981962
 20
1849.391954
 30
0.0
 10
1251.119969
 20
2074.458948
 30
0.0
  0
LWPOLYLINE
  5
11b
100
AcDbEntity
  8
Body_Frame_3
 62
7
100
AcDbPolyline
 90
2
 70
0
 10
1207.799970
 20
2011.398950
 30
0.0
 10
1251.179969
 20
2074.458948
 30
0.0
  0
LWPOLYLINE
  5
11c
100
AcDbEntity
  8
Body_Frame_3
 62
7
100
AcDbPolyline
 90
2
 70
0
 10
1139.399972
 20
2151.259946
 30
0.0
 10
1096.019973
 20
2088.198948
 30
0.0
  0
SPLINE
  5
11d
100
AcDbEntity
  8
Body_Frame_3
 62
7
100
AcDbSpline
 70
8
 71
3
 72
8
 73
4
 74
0
 40
0
 40
0
 40
0
 40
0
 40
1
 40
1
 40
1
 40
1
 10
1392.059965
 20
1856.359954
 30
0.0
 10
1391.899965
 20
1856.359954
 30
0.0
 10
1391.739965
 20
1856.359954
 30
0.0
 10
1391.579965
 20
1856.359954
 30
0.0
  0
SPLINE
  5
11e
100
AcDbEntity
  8
Body_Frame_3
 62
7
100
AcDbSpline
 70
8
 71
3
 72
8
 73
4
 74
0
 40
0
 40
0
 40
0
 40
0
 40
1
 40
1
 40
1
 40
1
 10
1391.579965
 20
1856.359954
 30
0.0
 10
1391.419965
 20
1856.359954
 30
0.0
 10
1391.259965
 20
1856.359954
 30
0.0
 10
1391.099965
 20
1856.359954
 30
0.0
  0
LWPOLYLINE
  5
11f
100
AcDbEntity
  8
Body_Frame_3
 62
7
100
AcDbPolyline
 90
65
 70
0
 10
1395.119965
 20
1852.819954
 30
0.0
 10
1395.059965
 20
1852.879954
 30
0.0
 10
1395.059965
 20
1853.478954
 30
0.0
 10
1394.999965
 20
1853.539954
 30
0.0
 10
1394.999965
 20
1853.779954
 30
0.0
 10
1394.939965
 20
1853.779954
 30
0.0
 10
1394.939965
 20
1853.958954
 30
0.0
 10
1394.879965
 20
1854.019954
 30
0.0
 10
1394.879965
 20
1854.139954
 30
0.0
 10
1394.819965
 20
1854.139954
 30
0.0
 10
1394.819965
 20
1854.259954
 30
0.0
 10
1394.759965
 20
1854.259954
 30
0.0
 10
1394.759965
 20
1854.379954
 30
0.0
 10
1394.699965
 20
1854.439954
 30
0.0
 10
1394.699965
 20
1854.499954
 30
0.0
 10
1394.639965
 20
1854.559954
 30
0.0
 10
1394.639965
 20
1854.619954
 30
0.0
 10
1394.579965
 20
1854.619954
 30
0.0
 10
1394.579965
 20
1854.679954
 30
0.0
 10
1394.519965
 20
1854.739954
 30
0.0
 10
1394.519965
 20
1854.799954
 30
0.0
 10
1394.459965
 20
1854.859954
 30
0.0
 10
1394.399965
 20
1854.919954
 30
0.0
 10
1394.399965
 20
1854.978954
 30
0.0
 10
1394.339965
 20
1854.978954
 30
0.0
 10
1394.339965
 20
1855.039954
 30
0.0
 10
1394.279965
 20
1855.099954
 30
0.0
 10
1394.219965
 20
1855.159954
 30
0.0
 10
1394.219965
 20
1855.218954
 30
0.0
 10
1394.159965
 20
1855.218954
 30
0.0
 10
1394.159965
 20
1855.279954
 30
0.0
 10
1394.099965
 20
1855.279954
 30
0.0
 10
1394.099965
 20
1855.339954
 30
0.0
 10
1394.039965
 20
1855.339954
 30
0.0
 10
1394.039965
 20
1855.399954
 30
0.0
 10
1393.979965
 20
1855.399954
 30
0.0
 10
1393.979965
 20
1855.458954
 30
0.0
 10
1393.919965
 20
1855.458954
 30
0.0
 10
1393.919965
 20
1855.519954
 30
0.0
 10
1393.859965
 20
1855.519954
 30
0.0
 10
1393.739965
 20
1855.639954
 30
0.0
 10
1393.679965
 20
1855.639954
 30
0.0
 10
1393.679965
 20
1855.699954
 30
0.0
 10
1393.619965
 20
1855.699954
 30
0.0
 10
1393.559965
 20
1855.759954
 30
0.0
 10
1393.499965
 20
1855.819954
 30
0.0
 10
1393.439965
 20
1855.819954
 30
0.0
 10
1393.379965
 20
1855.879954
 30
0.0
 10
1393.319965
 20
1855.879954
 30
0.0
 10
1393.319965
 20
1855.939954
 30
0.0
 10
1393.259965
 20
1855.939954
 30
0.0
 10
1393.199965
 20
1855.999954
 30
0.0
 10
1393.139965
 20
1855.999954
 30
0.0
 10
1393.079965
 20
1856.059954
 30
0.0
 10
1392.959965
 20
1856.059954
 30
0.0
 10
1392.959965
 20
1856.119954
 30
0.0
 10
1392.839965
 20
1856.119954
 30
0.0
 10
1392.839965
 20
1856.179954
 30
0.0
 10
1392.719965
 20
1856.179954
 30
0.0
 10
1392.659965
 20
1856.239954
 30
0.0
 10
1392.479965
 20
1856.239954
 30
0.0
 10
1392.479965
 20
1856.299954
 30
0.0
 10
1392.239965
 20
1856.299954
 30
0.0
 10
1392.179965
 20
1856.359954
 30
0.0
 10
1392.059965
 20
1856.359954
 30
0.0
  0
SPLINE
  5
120
100
AcDbEntity
  8
Body_Frame_3
 62
7
100
AcDbSpline
 70
8
 71
3
 72
8
 73
4
 74
0
 40
0
 40
0
 40
0
 40
0
 40
1
 40
1
 40
1
 40
1
 10
1388.039965
 20
1853.359954
 30
0.0
 10
1388.039965
 20
1853.199954
 30
0.0
 10
1388.039965
 20
1853.039954
 30
0.0
 10
1388.039965
 20
1852.879954
 30
0.0
  0
SPLINE
  5
121
100
AcDbEntity
  8
Body_Frame_3
 62
7
100
AcDbSpline
 70
8
 71
3
 72
8
 73
4
 74
0
 40
0
 40
0
 40
0
 40
0
 40
1
 40
1
 40
1
 40
1
 10
1388.039965
 20
1852.879954
 30
0.0
 10
1388.039965
 20
1852.719954
 30
0.0
 10
1388.039965
 20
1852.559954
 30
0.0
 10
1388.039965
 20
1852.399954
 30
0.0
  0
LWPOLYLINE
  5
122
100
AcDbEntity
  8
Body_Frame_3
 62
7
100
AcDbPolyline
 90
64
 70
0
 10
1391.099965
 20
1856.359954
 30
0.0
 10
1390.919965
 20
1856.359954
 30
0.0
 10
1390.859965
 20
1856.299954
 30
0.0
 10
1390.619965
 20
1856.299954
 30
0.0
 10
1390.619965
 20
1856.239954
 30
0.0
 10
1390.439965
 20
1856.239954
 30
0.0
 10
1390.379965
 20
1856.179954
 30
0.0
 10
1390.259965
 20
1856.179954
 30
0.0
 10
1390.259965
 20
1856.119954
 30
0.0
 10
1390.139965
 20
1856.119954
 30
0.0
 10
1390.139965
 20
1856.059954
 30
0.0
 10
1390.019965
 20
1856.059954
 30
0.0
 10
1389.959965
 20
1855.999954
 30
0.0
 10
1389.899965
 20
1855.999954
 30
0.0
 10
1389.839965
 20
1855.939954
 30
0.0
 10
1389.779965
 20
1855.939954
 30
0.0
 10
1389.779965
 20
1855.879954
 30
0.0
 10
1389.719965
 20
1855.879954
 30
0.0
 10
1389.659965
 20
1855.819954
 30
0.0
 10
1389.599965
 20
1855.819954
 30
0.0
 10
1389.539965
 20
1855.759954
 30
0.0
 10
1389.479965
 20
1855.699954
 30
0.0
 10
1389.419965
 20
1855.699954
 30
0.0
 10
1389.419965
 20
1855.639954
 30
0.0
 10
1389.359965
 20
1855.639954
 30
0.0
 10
1389.239965
 20
1855.519954
 30
0.0
 10
1389.179965
 20
1855.519954
 30
0.0
 10
1389.179965
 20
1855.458954
 30
0.0
 10
1389.119965
 20
1855.458954
 30
0.0
 10
1389.119965
 20
1855.399954
 30
0.0
 10
1389.059965
 20
1855.399954
 30
0.0
 10
1389.059965
 20
1855.339954
 30
0.0
 10
1388.999965
 20
1855.339954
 30
0.0
 10
1388.999965
 20
1855.279954
 30
0.0
 10
1388.939965
 20
1855.279954
 30
0.0
 10
1388.939965
 20
1855.218954
 30
0.0
 10
1388.879965
 20
1855.218954
 30
0.0
 10
1388.879965
 20
1855.159954
 30
0.0
 10
1388.819965
 20
1855.099954
 30
0.0
 10
1388.759965
 20
1855.039954
 30
0.0
 10
1388.759965
 20
1854.978954
 30
0.0
 10
1388.699965
 20
1854.978954
 30
0.0
 10
1388.699965
 20
1854.919954
 30
0.0
 10
1388.639965
 20
1854.859954
 30
0.0
 10
1388.579965
 20
1854.799954
 30
0.0
 10
1388.579965
 20
1854.739954
 30
0.0
 10
1388.519965
 20
1854.679954
 30
0.0
 10
1388.519965
 20
1854.619954
 30
0.0
 10
1388.459965
 20
1854.619954
 30
0.0
 10
1388.459965
 20
1854.559954
 30
0.0
 10
1388.399965
 20
1854.499954
 30
0.0
 10
1388.399965
 20
1854.439954
 30
0.0
 10
1388.339965
 20
1854.379954
 30
0.0
 10
1388.339965
 20
1854.259954
 30
0.0
 10
1388.279965
 20
1854.259954
 30
0.0
 10
1388.279965
 20
1854.139954
 30
0.0
 10
1388.219965
 20
1854.139954
 30
0.0
 10
1388.219965
 20
1854.019954
 30
0.0
 10
1388.159965
 20
1853.958954
 30
0.0
 10
1388.159965
 20
1853.779954
 30
0.0
 10
1388.099965
 20
1853.779954
 30
0.0
 10
1388.099965
 20
1853.539954
 30
0.0
 10
1388.039965
 20
1853.478954
 30
0.0
 10
1388.039965
 20
1853.359954
 30
0.0
  0
SPLINE
  5
123
100
AcDbEntity
  8
Body_Frame_3
 62
7
100
AcDbSpline
 70
8
 71
3
 72
8
 73
4
 74
0
 40
0
 40
0
 40
0
 40
0
 40
1
 40
1
 40
1
 40
1
 10
1391.579965
 20
1849.339954
 30
0.0
 10
1391.719965
 20
1849.339954
 30
0.0
 10
1391.859965
 20
1849.339954
 30
0.0
 10
1391.999965
 20
1849.339954
 30
0.0
  0
LWPOLYLINE
  5
124
100
AcDbEntity
  8
Body_Frame_3
 62
7
100
AcDbPolyline
 90
65
 70
0
 10
1388.039965
 20
1852.399954
 30
0.0
 10
1388.039965
 20
1852.218954
 30
0.0
 10
1388.099965
 20
1852.159954
 30
0.0
 10
1388.099965
 20
1851.919954
 30
0.0
 10
1388.159965
 20
1851.919954
 30
0.0
 10
1388.159965
 20
1851.739954
 30
0.0
 10
1388.219965
 20
1851.679954
 30
0.0
 10
1388.219965
 20
1851.559954
 30
0.0
 10
1388.279965
 20
1851.559954
 30
0.0
 10
1388.279965
 20
1851.439954
 30
0.0
 10
1388.339965
 20
1851.439954
 30
0.0
 10
1388.339965
 20
1851.319954
 30
0.0
 10
1388.399965
 20
1851.259954
 30
0.0
 10
1388.399965
 20
1851.199954
 30
0.0
 10
1388.459965
 20
1851.139954
 30
0.0
 10
1388.459965
 20
1851.079954
 30
0.0
 10
1388.519965
 20
1851.079954
 30
0.0
 10
1388.519965
 20
1851.019954
 30
0.0
 10
1388.579965
 20
1850.958954
 30
0.0
 10
1388.579965
 20
1850.899954
 30
0.0
 10
1388.639965
 20
1850.839954
 30
0.0
 10
1388.699965
 20
1850.779954
 30
0.0
 10
1388.699965
 20
1850.718954
 30
0.0
 10
1388.759965
 20
1850.718954
 30
0.0
 10
1388.759965
 20
1850.659954
 30
0.0
 10
1388.879965
 20
1850.539954
 30
0.0
 10
1388.879965
 20
1850.478954
 30
0.0
 10
1388.939965
 20
1850.478954
 30
0.0
 10
1388.939965
 20
1850.419954
 30
0.0
 10
1388.999965
 20
1850.419954
 30
0.0
 10
1388.999965
 20
1850.359954
 30
0.0
 10
1389.059965
 20
1850.359954
 30
0.0
 10
1389.059965
 20
1850.299954
 30
0.0
 10
1389.119965
 20
1850.299954
 30
0.0
 10
1389.119965
 20
1850.239954
 30
0.0
 10
1389.179965
 20
1850.239954
 30
0.0
 10
1389.179965
 20
1850.179954
 30
0.0
 10
1389.239965
 20
1850.179954
 30
0.0
 10
1389.299965
 20
1850.119954
 30
0.0
 10
1389.359965
 20
1850.059954
 30
0.0
 10
1389.419965
 20
1850.059954
 30
0.0
 10
1389.419965
 20
1849.999954
 30
0.0
 10
1389.479965
 20
1849.999954
 30
0.0
 10
1389.599965
 20
1849.879954
 30
0.0
 10
1389.659965
 20
1849.879954
 30
0.0
 10
1389.719965
 20
1849.819954
 30
0.0
 10
1389.779965
 20
1849.819954
 30
0.0
 10
1389.779965
 20
1849.759954
 30
0.0
 10
1389.839965
 20
1849.759954
 30
0.0
 10
1389.899965
 20
1849.699954
 30
0.0
 10
1389.959965
 20
1849.699954
 30
0.0
 10
1390.019965
 20
1849.639954
 30
0.0
 10
1390.139965
 20
1849.639954
 30
0.0
 10
1390.139965
 20
1849.579954
 30
0.0
 10
1390.259965
 20
1849.579954
 30
0.0
 10
1390.259965
 20
1849.519954
 30
0.0
 10
1390.379965
 20
1849.519954
 30
0.0
 10
1390.439965
 20
1849.458954
 30
0.0
 10
1390.619965
 20
1849.458954
 30
0.0
 10
1390.619965
 20
1849.399954
 30
0.0
 10
1390.859965
 20
1849.399954
 30
0.0
 10
1390.919965
 20
1849.339954
 30
0.0
 10
1391.519965
 20
1849.339954
 30
0.0
 10
1391.579965
 20
1849.279954
 30
0.0
 10
1391.579965
 20
1849.339954
 30
0.0
  0
SPLINE
  5
125
100
AcDbEntity
  8
Body_Frame_3
 62
7
100
AcDbSpline
 70
8
 71
3
 72
8
 73
4
 74
0
 40
0
 40
0
 40
0
 40
0
 40
1
 40
1
 40
1
 40
1
 10
1395.059965
 20
1852.339954
 30
0.0
 10
1395.059965
 20
1852.499954
 30
0.0
 10
1395.059965
 20
1852.659954
 30
0.0
 10
1395.059965
 20
1852.819954
 30
0.0
  0
LWPOLYLINE
  5
126
100
AcDbEntity
  8
Body_Frame_3
 62
7
100
AcDbPolyline
 90
63
 70
0
 10
1391.999965
 20
1849.339954
 30
0.0
 10
1392.179965
 20
1849.339954
 30
0.0
 10
1392.239965
 20
1849.399954
 30
0.0
 10
1392.479965
 20
1849.399954
 30
0.0
 10
1392.479965
 20
1849.458954
 30
0.0
 10
1392.659965
 20
1849.458954
 30
0.0
 10
1392.719965
 20
1849.519954
 30
0.0
 10
1392.839965
 20
1849.519954
 30
0.0
 10
1392.839965
 20
1849.579954
 30
0.0
 10
1392.959965
 20
1849.579954
 30
0.0
 10
1392.959965
 20
1849.639954
 30
0.0
 10
1393.079965
 20
1849.639954
 30
0.0
 10
1393.139965
 20
1849.699954
 30
0.0
 10
1393.199965
 20
1849.699954
 30
0.0
 10
1393.259965
 20
1849.759954
 30
0.0
 10
1393.319965
 20
1849.759954
 30
0.0
 10
1393.319965
 20
1849.819954
 30
0.0
 10
1393.379965
 20
1849.819954
 30
0.0
 10
1393.439965
 20
1849.879954
 30
0.0
 10
1393.499965
 20
1849.879954
 30
0.0
 10
1393.619965
 20
1849.999954
 30
0.0
 10
1393.679965
 20
1849.999954
 30
0.0
 10
1393.679965
 20
1850.059954
 30
0.0
 10
1393.739965
 20
1850.059954
 30
0.0
 10
1393.799965
 20
1850.119954
 30
0.0
 10
1393.859965
 20
1850.179954
 30
0.0
 10
1393.919965
 20
1850.179954
 30
0.0
 10
1393.919965
 20
1850.239954
 30
0.0
 10
1393.979965
 20
1850.239954
 30
0.0
 10
1393.979965
 20
1850.299954
 30
0.0
 10
1394.039965
 20
1850.299954
 30
0.0
 10
1394.039965
 20
1850.359954
 30
0.0
 10
1394.099965
 20
1850.359954
 30
0.0
 10
1394.099965
 20
1850.419954
 30
0.0
 10
1394.159965
 20
1850.419954
 30
0.0
 10
1394.159965
 20
1850.478954
 30
0.0
 10
1394.219965
 20
1850.478954
 30
0.0
 10
1394.219965
 20
1850.539954
 30
0.0
 10
1394.279965
 20
1850.599954
 30
0.0
 10
1394.339965
 20
1850.659954
 30
0.0
 10
1394.339965
 20
1850.718954
 30
0.0
 10
1394.399965
 20
1850.718954
 30
0.0
 10
1394.399965
 20
1850.779954
 30
0.0
 10
1394.519965
 20
1850.899954
 30
0.0
 10
1394.519965
 20
1850.958954
 30
0.0
 10
1394.579965
 20
1851.019954
 30
0.0
 10
1394.579965
 20
1851.079954
 30
0.0
 10
1394.639965
 20
1851.079954
 30
0.0
 10
1394.639965
 20
1851.139954
 30
0.0
 10
1394.699965
 20
1851.199954
 30
0.0
 10
1394.699965
 20
1851.259954
 30
0.0
 10
1394.759965
 20
1851.319954
 30
0.0
 10
1394.759965
 20
1851.439954
 30
0.0
 10
1394.819965
 20
1851.439954
 30
0.0
 10
1394.819965
 20
1851.559954
 30
0.0
 10
1394.879965
 20
1851.559954
 30
0.0
 10
1394.879965
 20
1851.679954
 30
0.0
 10
1394.939965
 20
1851.739954
 30
0.0
 10
1394.939965
 20
1851.919954
 30
0.0
 10
1394.999965
 20
1851.919954
 30
0.0
 10
1394.999965
 20
1852.159954
 30
0.0
 10
1395.059965
 20
1852.218954
 30
0.0
 10
1395.059965
 20
1852.339954
 30
0.0
  0
LWPOLYLINE
  5
127
100
AcDbEntity
  8
Body_Frame_3
 62
7
100
AcDbPolyline
 90
2
 70
0
 10
1395.059965
 20
1852.819954
 30
0.0
 10
1395.119965
 20
1852.819954
 30
0.0
  0
SPLINE
  5
128
100
AcDbEntity
  8
Body_Frame_3
 62
7
100
AcDbSpline
 70
8
 71
3
 72
8
 73
4
 74
0
 40
0
 40
0
 40
0
 40
0
 40
1
 40
1
 40
1
 40
1
 10
268.679993
 20
1856.359954
 30
0.0
 10
268.519993
 20
1856.359954
 30
0.0
 10
268.359993
 20
1856.359954
 30
0.0
 10
268.199993
 20
1856.359954
 30
0.0
  0
SPLINE
  5
129
100
AcDbEntity
  8
Body_Frame_3
 62
7
100
AcDbSpline
 70
8
 71
3
 72
8
 73
4
 74
0
 40
0
 40
0
 40
0
 40
0
 40
1
 40
1
 40
1
 40
1
 10
268.199993
 20
1856.359954
 30
0.0
 10
268.039993
 20
1856.359954
 30
0.0
 10
267.879993
 20
1856.359954
 30
0.0
 10
267.719993
 20
1856.359954
 30
0.0
  0
LWPOLYLINE
  5
12a
100
AcDbEntity
  8
Body_Frame_3
 62
7
100
AcDbPolyline
 90
65
 70
0
 10
271.739993
 20
1852.819954
 30
0.0
 10
271.679993
 20
1852.879954
 30
0.0
 10
271.679993
 20
1853.478954
 30
0.0
 10
271.619993
 20
1853.539954
 30
0.0
 10
271.619993
 20
1853.779954
 30
0.0
 10
271.559993
 20
1853.779954
 30
0.0
 10
271.559993
 20
1853.958954
 30
0.0
 10
271.499993
 20
1854.019954
 30
0.0
 10
271.499993
 20
1854.139954
 30
0.0
 10
271.439993
 20
1854.139954
 30
0.0
 10
271.439993
 20
1854.259954
 30
0.0
 10
271.379993
 20
1854.259954
 30
0.0
 10
271.379993
 20
1854.379954
 30
0.0
 10
271.319993
 20
1854.439954
 30
0.0
 10
271.319993
 20
1854.499954
 30
0.0
 10
271.259993
 20
1854.559954
 30
0.0
 10
271.259993
 20
1854.619954
 30
0.0
 10
271.199993
 20
1854.619954
 30
0.0
 10
271.199993
 20
1854.679954
 30
0.0
 10
271.139993
 20
1854.739954
 30
0.0
 10
271.139993
 20
1854.799954
 30
0.0
 10
271.079993
 20
1854.859954
 30
0.0
 10
271.019993
 20
1854.919954
 30
0.0
 10
271.019993
 20
1854.978954
 30
0.0
 10
270.959993
 20
1854.978954
 30
0.0
 10
270.959993
 20
1855.039954
 30
0.0
 10
270.899993
 20
1855.099954
 30
0.0
 10
270.839993
 20
1855.159954
 30
0.0
 10
270.839993
 20
1855.218954
 30
0.0
 10
270.779993
 20
1855.218954
 30
0.0
 10
270.779993
 20
1855.279954
 30
0.0
 10
270.719993
 20
1855.279954
 30
0.0
 10
270.719993
 20
1855.339954
 30
0.0
 10
270.659993
 20
1855.339954
 30
0.0
 10
270.659993
 20
1855.399954
 30
0.0
 10
270.599993
 20
1855.399954
 30
0.0
 10
270.599993
 20
1855.458954
 30
0.0
 10
270.539993
 20
1855.458954
 30
0.0
 10
270.539993
 20
1855.519954
 30
0.0
 10
270.479993
 20
1855.519954
 30
0.0
 10
270.359993
 20
1855.639954
 30
0.0
 10
270.299993
 20
1855.639954
 30
0.0
 10
270.299993
 20
1855.699954
 30
0.0
 10
270.239993
 20
1855.699954
 30
0.0
 10
270.179993
 20
1855.759954
 30
0.0
 10
270.119993
 20
1855.819954
 30
0.0
 10
270.059993
 20
1855.819954
 30
0.0
 10
269.999993
 20
1855.879954
 30
0.0
 10
269.939993
 20
1855.879954
 30
0.0
 10
269.939993
 20
1855.939954
 30
0.0
 10
269.879993
 20
1855.939954
 30
0.0
 10
269.819993
 20
1855.999954
 30
0.0
 10
269.759993
 20
1855.999954
 30
0.0
 10
269.699993
 20
1856.059954
 30
0.0
 10
269.579993
 20
1856.059954
 30
0.0
 10
269.579993
 20
1856.119954
 30
0.0
 10
269.459993
 20
1856.119954
 30
0.0
 10
269.459993
 20
1856.179954
 30
0.0
 10
269.339993
 20
1856.179954
 30
0.0
 10
269.279993
 20
1856.239954
 30
0.0
 10
269.099993
 20
1856.239954
 30
0.0
 10
269.099993
 20
1856.299954
 30
0.0
 10
268.859993
 20
1856.299954
 30
0.0
 10
268.799993
 20
1856.359954
 30
0.0
 10
268.679993
 20
1856.359954
 30
0.0
  0
SPLINE
  5
12b
100
AcDbEntity
  8
Body_Frame_3
 62
7
100
AcDbSpline
 70
8
 71
3
 72
8
 73
4
 74
0
 40
0
 40
0
 40
0
 40
0
 40
1
 40
1
 40
1
 40
1
 10
264.659993
 20
1853.359954
 30
0.0
 10
264.659993
 20
1853.199954
 30
0.0
 10
264.659993
 20
1853.039954
 30
0.0
 10
264.659993
 20
1852.879954
 30
0.0
  0
SPLINE
  5
12c
100
AcDbEntity
  8
Body_Frame_3
 62
7
100
AcDbSpline
 70
8
 71
3
 72
8
 73
4
 74
0
 40
0
 40
0
 40
0
 40
0
 40
1
 40
1
 40
1
 40
1
 10
264.659993
 20
1852.879954
 30
0.0
 10
264.659993
 20
1852.719954
 30
0.0
 10
264.659993
 20
1852.559954
 30
0.0
 10
264.659993
 20
1852.399954
 30
0.0
  0
LWPOLYLINE
  5
12d
100
AcDbEntity
  8
Body_Frame_3
 62
7
100
AcDbPolyline
 90
64
 70
0
 10
267.719993
 20
1856.359954
 30
0.0
 10
267.539993
 20
1856.359954
 30
0.0
 10
267.479993
 20
1856.299954
 30
0.0
 10
267.239993
 20
1856.299954
 30
0.0
 10
267.239993
 20
1856.239954
 30
0.0
 10
267.059993
 20
1856.239954
 30
0.0
 10
266.999993
 20
1856.179954
 30
0.0
 10
266.879993
 20
1856.179954
 30
0.0
 10
266.879993
 20
1856.119954
 30
0.0
 10
266.759993
 20
1856.119954
 30
0.0
 10
266.759993
 20
1856.059954
 30
0.0
 10
266.639993
 20
1856.059954
 30
0.0
 10
266.579993
 20
1855.999954
 30
0.0
 10
266.519993
 20
1855.999954
 30
0.0
 10
266.459993
 20
1855.939954
 30
0.0
 10
266.399993
 20
1855.939954
 30
0.0
 10
266.399993
 20
1855.879954
 30
0.0
 10
266.339993
 20
1855.879954
 30
0.0
 10
266.279993
 20
1855.819954
 30
0.0
 10
266.219993
 20
1855.819954
 30
0.0
 10
266.159993
 20
1855.759954
 30
0.0
 10
266.099993
 20
1855.699954
 30
0.0
 10
266.039993
 20
1855.699954
 30
0.0
 10
266.039993
 20
1855.639954
 30
0.0
 10
265.979993
 20
1855.639954
 30
0.0
 10
265.859993
 20
1855.519954
 30
0.0
 10
265.799993
 20
1855.519954
 30
0.0
 10
265.799993
 20
1855.458954
 30
0.0
 10
265.739993
 20
1855.458954
 30
0.0
 10
265.739993
 20
1855.399954
 30
0.0
 10
265.679993
 20
1855.399954
 30
0.0
 10
265.679993
 20
1855.339954
 30
0.0
 10
265.619993
 20
1855.339954
 30
0.0
 10
265.619993
 20
1855.279954
 30
0.0
 10
265.559993
 20
1855.279954
 30
0.0
 10
265.559993
 20
1855.218954
 30
0.0
 10
265.499993
 20
1855.218954
 30
0.0
 10
265.499993
 20
1855.159954
 30
0.0
 10
265.439993
 20
1855.099954
 30
0.0
 10
265.379993
 20
1855.039954
 30
0.0
 10
265.379993
 20
1854.978954
 30
0.0
 10
265.319993
 20
1854.978954
 30
0.0
 10
265.319993
 20
1854.919954
 30
0.0
 10
265.259993
 20
1854.859954
 30
0.0
 10
265.199993
 20
1854.799954
 30
0.0
 10
265.199993
 20
1854.739954
 30
0.0
 10
265.139993
 20
1854.679954
 30
0.0
 10
265.139993
 20
1854.619954
 30
0.0
 10
265.079993
 20
1854.619954
 30
0.0
 10
265.079993
 20
1854.559954
 30
0.0
 10
265.019993
 20
1854.499954
 30
0.0
 10
265.019993
 20
1854.439954
 30
0.0
 10
264.959993
 20
1854.379954
 30
0.0
 10
264.959993
 20
1854.259954
 30
0.0
 10
264.899993
 20
1854.259954
 30
0.0
 10
264.899993
 20
1854.139954
 30
0.0
 10
264.839993
 20
1854.139954
 30
0.0
 10
264.839993
 20
1854.019954
 30
0.0
 10
264.779993
 20
1853.958954
 30
0.0
 10
264.779993
 20
1853.779954
 30
0.0
 10
264.719993
 20
1853.779954
 30
0.0
 10
264.719993
 20
1853.539954
 30
0.0
 10
264.659993
 20
1853.478954
 30
0.0
 10
264.659993
 20
1853.359954
 30
0.0
  0
SPLINE
  5
12e
100
AcDbEntity
  8
Body_Frame_3
 62
7
100
AcDbSpline
 70
8
 71
3
 72
8
 73
4
 74
0
 40
0
 40
0
 40
0
 40
0
 40
1
 40
1
 40
1
 40
1
 10
268.199993
 20
1849.339954
 30
0.0
 10
268.339993
 20
1849.339954
 30
0.0
 10
268.479993
 20
1849.339954
 30
0.0
 10
268.619993
 20
1849.339954
 30
0.0
  0
LWPOLYLINE
  5
12f
100
AcDbEntity
  8
Body_Frame_3
 62
7
100
AcDbPolyline
 90
66
 70
0
 10
264.659993
 20
1852.399954
 30
0.0
 10
264.659993
 20
1852.218954
 30
0.0
 10
264.719993
 20
1852.159954
 30
0.0
 10
264.719993
 20
1851.919954
 30
0.0
 10
264.779993
 20
1851.919954
 30
0.0
 10
264.779993
 20
1851.739954
 30
0.0
 10
264.839993
 20
1851.679954
 30
0.0
 10
264.839993
 20
1851.559954
 30
0.0
 10
264.899993
 20
1851.559954
 30
0.0
 10
264.899993
 20
1851.439954
 30
0.0
 10
264.959993
 20
1851.439954
 30
0.0
 10
264.959993
 20
1851.319954
 30
0.0
 10
265.019993
 20
1851.259954
 30
0.0
 10
265.019993
 20
1851.199954
 30
0.0
 10
265.079993
 20
1851.139954
 30
0.0
 10
265.079993
 20
1851.079954
 30
0.0
 10
265.139993
 20
1851.079954
 30
0.0
 10
265.139993
 20
1851.019954
 30
0.0
 10
265.199993
 20
1850.958954
 30
0.0
 10
265.199993
 20
1850.899954
 30
0.0
 10
265.259993
 20
1850.839954
 30
0.0
 10
265.319993
 20
1850.779954
 30
0.0
 10
265.319993
 20
1850.718954
 30
0.0
 10
265.379993
 20
1850.718954
 30
0.0
 10
265.379993
 20
1850.659954
 30
0.0
 10
265.439993
 20
1850.599954
 30
0.0
 10
265.499993
 20
1850.539954
 30
0.0
 10
265.499993
 20
1850.478954
 30
0.0
 10
265.559993
 20
1850.478954
 30
0.0
 10
265.559993
 20
1850.419954
 30
0.0
 10
265.619993
 20
1850.419954
 30
0.0
 10
265.619993
 20
1850.359954
 30
0.0
 10
265.679993
 20
1850.359954
 30
0.0
 10
265.679993
 20
1850.299954
 30
0.0
 10
265.739993
 20
1850.299954
 30
0.0
 10
265.739993
 20
1850.239954
 30
0.0
 10
265.799993
 20
1850.239954
 30
0.0
 10
265.799993
 20
1850.179954
 30
0.0
 10
265.859993
 20
1850.179954
 30
0.0
 10
265.919993
 20
1850.119954
 30
0.0
 10
265.979993
 20
1850.059954
 30
0.0
 10
266.039993
 20
1850.059954
 30
0.0
 10
266.039993
 20
1849.999954
 30
0.0
 10
266.099993
 20
1849.999954
 30
0.0
 10
266.219993
 20
1849.879954
 30
0.0
 10
266.279993
 20
1849.879954
 30
0.0
 10
266.339993
 20
1849.819954
 30
0.0
 10
266.399993
 20
1849.819954
 30
0.0
 10
266.399993
 20
1849.759954
 30
0.0
 10
266.459993
 20
1849.759954
 30
0.0
 10
266.519993
 20
1849.699954
 30
0.0
 10
266.579993
 20
1849.699954
 30
0.0
 10
266.639993
 20
1849.639954
 30
0.0
 10
266.759993
 20
1849.639954
 30
0.0
 10
266.759993
 20
1849.579954
 30
0.0
 10
266.879993
 20
1849.579954
 30
0.0
 10
266.879993
 20
1849.519954
 30
0.0
 10
266.999993
 20
1849.519954
 30
0.0
 10
267.059993
 20
1849.458954
 30
0.0
 10
267.239993
 20
1849.458954
 30
0.0
 10
267.239993
 20
1849.399954
 30
0.0
 10
267.479993
 20
1849.399954
 30
0.0
 10
267.539993
 20
1849.339954
 30
0.0
 10
268.139993
 20
1849.339954
 30
0.0
 10
268.199993
 20
1849.279954
 30
0.0
 10
268.199993
 20
1849.339954
 30
0.0
  0
SPLINE
  5
130
100
AcDbEntity
  8
Body_Frame_3
 62
7
100
AcDbSpline
 70
8
 71
3
 72
8
 73
4
 74
0
 40
0
 40
0
 40
0
 40
0
 40
1
 40
1
 40
1
 40
1
 10
271.679993
 20
1852.339954
 30
0.0
 10
271.679993
 20
1852.499954
 30
0.0
 10
271.679993
 20
1852.659954
 30
0.0
 10
271.679993
 20
1852.819954
 30
0.0
  0
LWPOLYLINE
  5
131
100
AcDbEntity
  8
Body_Frame_3
 62
7
100
AcDbPolyline
 90
64
 70
0
 10
268.619993
 20
1849.339954
 30
0.0
 10
268.799993
 20
1849.339954
 30
0.0
 10
268.859993
 20
1849.399954
 30
0.0
 10
269.099993
 20
1849.399954
 30
0.0
 10
269.099993
 20
1849.458954
 30
0.0
 10
269.279993
 20
1849.458954
 30
0.0
 10
269.339993
 20
1849.519954
 30
0.0
 10
269.459993
 20
1849.519954
 30
0.0
 10
269.459993
 20
1849.579954
 30
0.0
 10
269.579993
 20
1849.579954
 30
0.0
 10
269.579993
 20
1849.639954
 30
0.0
 10
269.699993
 20
1849.639954
 30
0.0
 10
269.759993
 20
1849.699954
 30
0.0
 10
269.819993
 20
1849.699954
 30
0.0
 10
269.879993
 20
1849.759954
 30
0.0
 10
269.939993
 20
1849.759954
 30
0.0
 10
269.939993
 20
1849.819954
 30
0.0
 10
269.999993
 20
1849.819954
 30
0.0
 10
270.059993
 20
1849.879954
 30
0.0
 10
270.119993
 20
1849.879954
 30
0.0
 10
270.239993
 20
1849.999954
 30
0.0
 10
270.299993
 20
1849.999954
 30
0.0
 10
270.299993
 20
1850.059954
 30
0.0
 10
270.359993
 20
1850.059954
 30
0.0
 10
270.419993
 20
1850.119954
 30
0.0
 10
270.479993
 20
1850.179954
 30
0.0
 10
270.539993
 20
1850.179954
 30
0.0
 10
270.539993
 20
1850.239954
 30
0.0
 10
270.599993
 20
1850.239954
 30
0.0
 10
270.599993
 20
1850.299954
 30
0.0
 10
270.659993
 20
1850.299954
 30
0.0
 10
270.659993
 20
1850.359954
 30
0.0
 10
270.719993
 20
1850.359954
 30
0.0
 10
270.719993
 20
1850.419954
 30
0.0
 10
270.779993
 20
1850.419954
 30
0.0
 10
270.779993
 20
1850.478954
 30
0.0
 10
270.839993
 20
1850.478954
 30
0.0
 10
270.839993
 20
1850.539954
 30
0.0
 10
270.899993
 20
1850.599954
 30
0.0
 10
270.959993
 20
1850.659954
 30
0.0
 10
270.959993
 20
1850.718954
 30
0.0
 10
271.019993
 20
1850.718954
 30
0.0
 10
271.019993
 20
1850.779954
 30
0.0
 10
271.079993
 20
1850.839954
 30
0.0
 10
271.139993
 20
1850.899954
 30
0.0
 10
271.139993
 20
1850.958954
 30
0.0
 10
271.199993
 20
1851.019954
 30
0.0
 10
271.199993
 20
1851.079954
 30
0.0
 10
271.259993
 20
1851.079954
 30
0.0
 10
271.259993
 20
1851.139954
 30
0.0
 10
271.319993
 20
1851.199954
 30
0.0
 10
271.319993
 20
1851.259954
 30
0.0
 10
271.379993
 20
1851.319954
 30
0.0
 10
271.379993
 20
1851.439954
 30
0.0
 10
271.439993
 20
1851.439954
 30
0.0
 10
271.439993
 20
1851.559954
 30
0.0
 10
271.499993
 20
1851.559954
 30
0.0
 10
271.499993
 20
1851.679954
 30
0.0
 10
271.559993
 20
1851.739954
 30
0.0
 10
271.559993
 20
1851.919954
 30
0.0
 10
271.619993
 20
1851.919954
 30
0.0
 10
271.619993
 20
1852.159954
 30
0.0
 10
271.679993
 20
1852.218954
 30
0.0
 10
271.679993
 20
1852.339954
 30
0.0
  0
LWPOLYLINE
  5
132
100
AcDbEntity
  8
Body_Frame_3
 62
7
100
AcDbPolyline
 90
2
 70
0
 10
271.679993
 20
1852.819954
 30
0.0
 10
271.739993
 20
1852.819954
 30
0.0
  0
LWPOLYLINE
  5
133
100
AcDbEntity
  8
Body_Frame_3
 62
7
100
AcDbPolyline
 90
3
 70
0
 10
116.699997
 20
884.839978
 30
0.0
 10
116.699997
 20
728.899982
 30
0.0
 10
1107.539972
 20
728.899982
 30
0.0
  0
LWPOLYLINE
  5
134
100
AcDbEntity
  8
Body_Frame_3
 62
7
100
AcDbPolyline
 90
2
 70
0
 10
1107.539972
 20
884.839978
 30
0.0
 10
116.699997
 20
884.839978
 30
0.0
  0
LWPOLYLINE
  5
135
100
AcDbEntity
  8
Body_Frame_3
 62
7
100
AcDbPolyline
 90
2
 70
0
 10
1107.539972
 20
728.899982
 30
0.0
 10
1107.539972
 20
884.839978
 30
0.0
  0
LWPOLYLINE
  5
136
100
AcDbEntity
  8
Body_Frame_3
 62
7
100
AcDbPolyline
 90
4
 70
1
 10
1107.539972
 20
728.839982
 30
0.0
 10
1107.539972
 20
572.899986
 30
0.0
 10
116.699997
 20
572.899986
 30
0.0
 10
116.699997
 20
728.839982
 30
0.0
  0
LWPOLYLINE
  5
137
100
AcDbEntity
  8
Body_Frame_3
 62
7
100
AcDbPolyline
 90
3
 70
0
 10
116.699997
 20
572.959986
 30
0.0
 10
116.699997
 20
417.019990
 30
0.0
 10
1107.539972
 20
417.019990
 30
0.0
  0
LWPOLYLINE
  5
138
100
AcDbEntity
  8
Body_Frame_3
 62
7
100
AcDbPolyline
 90
2
 70
0
 10
1107.539972
 20
572.959986
 30
0.0
 10
116.699997
 20
572.959986
 30
0.0
  0
LWPOLYLINE
  5
139
100
AcDbEntity
  8
Body_Frame_3
 62
7
100
AcDbPolyline
 90
2
 70
0
 10
1107.539972
 20
417.019990
 30
0.0
 10
1107.539972
 20
572.959986
 30
0.0
  0
LWPOLYLINE
  5
13a
100
AcDbEntity
  8
Body_Frame_3
 62
7
100
AcDbPolyline
 90
4
 70
1
 10
1107.539972
 20
417.319990
 30
0.0
 10
1107.539972
 20
261.379993
 30
0.0
 10
116.699997
 20
261.379993
 30
0.0
 10
116.699997
 20
417.319990
 30
0.0
  0
LWPOLYLINE
  5
13b
100
AcDbEntity
  8
Body_Frame_3
 62
7
100
AcDbPolyline
 90
3
 70
0
 10
758.639981
 20
1865.059953
 30
0.0
 10
602.699985
 20
1865.059953
 30
0.0
 10
602.699985
 20
1337.719967
 30
0.0
  0
LWPOLYLINE
  5
13c
100
AcDbEntity
  8
Body_Frame_3
 62
7
100
AcDbPolyline
 90
2
 70
0
 10
758.639981
 20
1337.719967
 30
0.0
 10
758.639981
 20
1865.059953
 30
0.0
  0
LWPOLYLINE
  5
13d
100
AcDbEntity
  8
Body_Frame_3
 62
7
100
AcDbPolyline
 90
2
 70
0
 10
602.699985
 20
1337.719967
 30
0.0
 10
758.639981
 20
1337.719967
 30
0.0
  0
LWPOLYLINE
  5
13e
100
AcDbEntity
  8
Body_Frame_3
 62
7
100
AcDbPolyline
 90
3
 70
0
 10
1073.219973
 20
1865.059953
 30
0.0
 10
917.279977
 20
1865.059953
 30
0.0
 10
917.279977
 20
1337.719967
 30
0.0
  0
LWPOLYLINE
  5
13f
100
AcDbEntity
  8
Body_Frame_3
 62
7
100
AcDbPolyline
 90
2
 70
0
 10
1073.219973
 20
1337.719967
 30
0.0
 10
1073.219973
 20
1865.059953
 30
0.0
  0
SPLINE
  5
140
100
AcDbEntity
  8
Body_Frame_3
 62
7
100
AcDbSpline
 70
8
 71
3
 72
8
 73
4
 74
0
 40
0
 40
0
 40
0
 40
0
 40
1
 40
1
 40
1
 40
1
 10
1127.339972
 20
2096.119948
 30
0.0
 10
1122.777972
 20
2099.561948
 30
0.0
 10
1120.108972
 20
2104.428947
 30
0.0
 10
1119.899972
 20
2110.158947
 30
0.0
  0
SPLINE
  5
141
100
AcDbEntity
  8
Body_Frame_3
 62
7
100
AcDbSpline
 70
8
 71
3
 72
8
 73
4
 74
0
 40
0
 40
0
 40
0
 40
0
 40
1
 40
1
 40
1
 40
1
 10
1141.439971
 20
2121.559947
 30
0.0
 10
1145.970971
 20
2118.310947
 30
0.0
 10
1148.717971
 20
2113.155947
 30
0.0
 10
1148.879971
 20
2107.579947
 30
0.0
  0
LWPOLYLINE
  5
142
100
AcDbEntity
  8
Body_Frame_3
 62
7
100
AcDbPolyline
 90
2
 70
0
 10
917.279977
 20
1337.719967
 30
0.0
 10
1073.219973
 20
1337.719967
 30
0.0
  0
LWPOLYLINE
  5
143
100
AcDbEntity
  8
Body_Frame_3
 62
7
100
AcDbPolyline
 90
2
 70
0
 10
1095.539973
 20
2079.378948
 30
0.0
 10
1152.839971
 20
2109.678947
 30
0.0
  0
LWPOLYLINE
  5
144
100
AcDbEntity
  8
Body_Frame_3
 62
7
100
AcDbPolyline
 90
3
 70
1
 10
1095.539973
 20
2079.378948
 30
0.0
 10
1102.199972
 20
2081.898948
 30
0.0
 10
1101.419972
 20
2083.458948
 30
0.0
  0
LWPOLYLINE
  5
145
100
AcDbEntity
  8
Body_Frame_3
 62
7
100
AcDbPolyline
 90
2
 70
0
 10
829.859979
 20
2229.858944
 30
0.0
 10
829.859979
 20
2205.559945
 30
0.0
  0
LWPOLYLINE
  5
146
100
AcDbEntity
  8
Body_Frame_3
 62
7
100
AcDbPolyline
 90
2
 70
0
 10
829.859979
 20
2201.958945
 30
0.0
 10
829.859979
 20
2198.358945
 30
0.0
  0
LWPOLYLINE
  5
147
100
AcDbEntity
  8
Body_Frame_3
 62
7
100
AcDbPolyline
 90
2
 70
0
 10
829.859979
 20
2194.759945
 30
0.0
 10
829.859979
 20
2151.559946
 30
0.0
  0
LWPOLYLINE
  5
148
100
AcDbEntity
  8
Body_Frame_3
 62
7
100
AcDbPolyline
 90
2
 70
0
 10
829.859979
 20
2147.958946
 30
0.0
 10
829.859979
 20
2144.358946
 30
0.0
  0
LWPOLYLINE
  5
149
100
AcDbEntity
  8
Body_Frame_3
 62
7
100
AcDbPolyline
 90
2
 70
0
 10
829.859979
 20
2140.759946
 30
0.0
 10
829.859979
 20
2097.559948
 30
0.0
  0
LWPOLYLINE
  5
14a
100
AcDbEntity
  8
Body_Frame_3
 62
7
100
AcDbPolyline
 90
2
 70
0
 10
829.859979
 20
2093.958948
 30
0.0
 10
829.859979
 20
2090.358948
 30
0.0
  0
LWPOLYLINE
  5
14b
100
AcDbEntity
  8
Body_Frame_3
 62
7
100
AcDbPolyline
 90
2
 70
0
 10
829.859979
 20
2086.759948
 30
0.0
 10
829.859979
 20
2062.458948
 30
0.0
  0
LWPOLYLINE
  5
14c
100
AcDbEntity
  8
Body_Frame_3
 62
7
100
AcDbPolyline
 90
2
 70
0
 10
181.199995
 20
1581.199960
 30
0.0
 10
205.499995
 20
1581.199960
 30
0.0
  0
LWPOLYLINE
  5
14d
100
AcDbEntity
  8
Body_Frame_3
 62
7
100
AcDbPolyline
 90
2
 70
0
 10
209.099995
 20
1581.199960
 30
0.0
 10
212.699995
 20
1581.199960
 30
0.0
  0
LWPOLYLINE
  5
14e
100
AcDbEntity
  8
Body_Frame_3
 62
7
100
AcDbPolyline
 90
2
 70
0
 10
216.299995
 20
1581.199960
 30
0.0
 10
259.499994
 20
1581.199960
 30
0.0
  0
LWPOLYLINE
  5
14f
100
AcDbEntity
  8
Body_Frame_3
 62
7
100
AcDbPolyline
 90
2
 70
0
 10
263.099993
 20
1581.199960
 30
0.0
 10
266.699993
 20
1581.199960
 30
0.0
  0
LWPOLYLINE
  5
150
100
AcDbEntity
  8
Body_Frame_3
 62
7
100
AcDbPolyline
 90
2
 70
0
 10
270.299993
 20
1581.199960
 30
0.0
 10
313.499992
 20
1581.199960
 30
0.0
  0
LWPOLYLINE
  5
151
100
AcDbEntity
  8
Body_Frame_3
 62
7
100
AcDbPolyline
 90
2
 70
0
 10
317.099992
 20
1581.199960
 30
0.0
 10
320.699992
 20
1581.199960
 30
0.0
  0
LWPOLYLINE
  5
152
100
AcDbEntity
  8
Body_Frame_3
 62
7
100
AcDbPolyline
 90
2
 70
0
 10
324.299992
 20
1581.199960
 30
0.0
 10
348.659991
 20
1581.199960
 30
0.0
  0
LWPOLYLINE
  5
153
100
AcDbEntity
  8
Body_Frame_3
 62
7
100
AcDbPolyline
 90
2
 70
0
 10
359.519991
 20
1683.079958
 30
0.0
 10
335.759992
 20
1688.239958
 30
0.0
  0
LWPOLYLINE
  5
154
100
AcDbEntity
  8
Body_Frame_3
 62
7
100
AcDbPolyline
 90
2
 70
0
 10
332.219992
 20
1689.019958
 30
0.0
 10
328.679992
 20
1689.799958
 30
0.0
  0
LWPOLYLINE
  5
155
100
AcDbEntity
  8
Body_Frame_3
 62
7
100
AcDbPolyline
 90
2
 70
0
 10
325.199992
 20
1690.519958
 30
0.0
 10
282.959993
 20
1699.699958
 30
0.0
  0
LWPOLYLINE
  5
156
100
AcDbEntity
  8
Body_Frame_3
 62
7
100
AcDbPolyline
 90
2
 70
0
 10
279.419993
 20
1700.478957
 30
0.0
 10
275.939993
 20
1701.199957
 30
0.0
  0
LWPOLYLINE
  5
157
100
AcDbEntity
  8
Body_Frame_3
 62
7
100
AcDbPolyline
 90
2
 70
0
 10
272.399993
 20
1701.978957
 30
0.0
 10
230.159994
 20
1711.159957
 30
0.0
  0
LWPOLYLINE
  5
158
100
AcDbEntity
  8
Body_Frame_3
 62
7
100
AcDbPolyline
 90
2
 70
0
 10
226.679994
 20
1711.879957
 30
0.0
 10
223.139994
 20
1712.659957
 30
0.0
  0
LWPOLYLINE
  5
159
100
AcDbEntity
  8
Body_Frame_3
 62
7
100
AcDbPolyline
 90
2
 70
0
 10
219.599995
 20
1713.439957
 30
0.0
 10
195.839995
 20
1718.599957
 30
0.0
  0
LWPOLYLINE
  5
15a
100
AcDbEntity
  8
Body_Frame_3
 62
7
100
AcDbPolyline
 90
2
 70
0
 10
359.519991
 20
1479.379963
 30
0.0
 10
335.759992
 20
1474.279963
 30
0.0
  0
LWPOLYLINE
  5
15b
100
AcDbEntity
  8
Body_Frame_3
 62
7
100
AcDbPolyline
 90
2
 70
0
 10
332.219992
 20
1473.499963
 30
0.0
 10
328.679992
 20
1472.718963
 30
0.0
  0
LWPOLYLINE
  5
15c
100
AcDbEntity
  8
Body_Frame_3
 62
7
100
AcDbPolyline
 90
2
 70
0
 10
325.199992
 20
1471.999963
 30
0.0
 10
282.959993
 20
1462.819963
 30
0.0
  0
LWPOLYLINE
  5
15d
100
AcDbEntity
  8
Body_Frame_3
 62
7
100
AcDbPolyline
 90
2
 70
0
 10
279.419993
 20
1462.039963
 30
0.0
 10
275.939993
 20
1461.319963
 30
0.0
  0
LWPOLYLINE
  5
15e
100
AcDbEntity
  8
Body_Frame_3
 62
7
100
AcDbPolyline
 90
2
 70
0
 10
272.399993
 20
1460.539963
 30
0.0
 10
230.159994
 20
1451.358964
 30
0.0
  0
LWPOLYLINE
  5
15f
100
AcDbEntity
  8
Body_Frame_3
 62
7
100
AcDbPolyline
 90
2
 70
0
 10
226.679994
 20
1450.639964
 30
0.0
 10
223.139994
 20
1449.858964
 30
0.0
  0
LWPOLYLINE
  5
160
100
AcDbEntity
  8
Body_Frame_3
 62
7
100
AcDbPolyline
 90
2
 70
0
 10
219.599995
 20
1449.079964
 30
0.0
 10
195.839995
 20
1443.919964
 30
0.0
  0
LWPOLYLINE
  5
161
100
AcDbEntity
  8
Body_Frame_3
 62
7
100
AcDbPolyline
 90
2
 70
0
 10
1300.199967
 20
1683.079958
 30
0.0
 10
1323.899967
 20
1688.239958
 30
0.0
  0
LWPOLYLINE
  5
162
100
AcDbEntity
  8
Body_Frame_3
 62
7
100
AcDbPolyline
 90
2
 70
0
 10
1327.439967
 20
1689.019958
 30
0.0
 10
1330.979967
 20
1689.799958
 30
0.0
  0
LWPOLYLINE
  5
163
100
AcDbEntity
  8
Body_Frame_3
 62
7
100
AcDbPolyline
 90
2
 70
0
 10
1334.459967
 20
1690.519958
 30
0.0
 10
1376.699966
 20
1699.699958
 30
0.0
  0
LWPOLYLINE
  5
164
100
AcDbEntity
  8
Body_Frame_3
 62
7
100
AcDbPolyline
 90
2
 70
0
 10
1380.239965
 20
1700.478957
 30
0.0
 10
1383.719965
 20
1701.199957
 30
0.0
  0
LWPOLYLINE
  5
165
100
AcDbEntity
  8
Body_Frame_3
 62
7
100
AcDbPolyline
 90
2
 70
0
 10
1387.259965
 20
1701.978957
 30
0.0
 10
1429.499964
 20
1711.159957
 30
0.0
  0
LWPOLYLINE
  5
166
100
AcDbEntity
  8
Body_Frame_3
 62
7
100
AcDbPolyline
 90
2
 70
0
 10
1432.979964
 20
1711.879957
 30
0.0
 10
1436.519964
 20
1712.659957
 30
0.0
  0
LWPOLYLINE
  5
167
100
AcDbEntity
  8
Body_Frame_3
 62
7
100
AcDbPolyline
 90
2
 70
0
 10
1440.059964
 20
1713.439957
 30
0.0
 10
1463.759963
 20
1718.599957
 30
0.0
  0
LWPOLYLINE
  5
168
100
AcDbEntity
  8
Body_Frame_3
 62
7
100
AcDbPolyline
 90
2
 70
0
 10
1300.199967
 20
1479.379963
 30
0.0
 10
1323.899967
 20
1474.279963
 30
0.0
  0
LWPOLYLINE
  5
169
100
AcDbEntity
  8
Body_Frame_3
 62
7
100
AcDbPolyline
 90
2
 70
0
 10
1327.439967
 20
1473.499963
 30
0.0
 10
1330.979967
 20
1472.718963
 30
0.0
  0
LWPOLYLINE
  5
16a
100
AcDbEntity
  8
Body_Frame_3
 62
7
100
AcDbPolyline
 90
2
 70
0
 10
1334.459967
 20
1471.999963
 30
0.0
 10
1376.699966
 20
1462.819963
 30
0.0
  0
LWPOLYLINE
  5
16b
100
AcDbEntity
  8
Body_Frame_3
 62
7
100
AcDbPolyline
 90
2
 70
0
 10
1380.239965
 20
1462.039963
 30
0.0
 10
1383.719965
 20
1461.319963
 30
0.0
  0
LWPOLYLINE
  5
16c
100
AcDbEntity
  8
Body_Frame_3
 62
7
100
AcDbPolyline
 90
2
 70
0
 10
1387.259965
 20
1460.539963
 30
0.0
 10
1429.499964
 20
1451.358964
 30
0.0
  0
LWPOLYLINE
  5
16d
100
AcDbEntity
  8
Body_Frame_3
 62
7
100
AcDbPolyline
 90
2
 70
0
 10
1432.979964
 20
1450.639964
 30
0.0
 10
1436.519964
 20
1449.858964
 30
0.0
  0
LWPOLYLINE
  5
16e
100
AcDbEntity
  8
Body_Frame_3
 62
7
100
AcDbPolyline
 90
2
 70
0
 10
1440.059964
 20
1449.079964
 30
0.0
 10
1463.759963
 20
1443.919964
 30
0.0
  0
LWPOLYLINE
  5
16f
100
AcDbEntity
  8
Body_Frame_3
 62
7
100
AcDbPolyline
 90
2
 70
0
 10
520.559987
 20
1212.559970
 30
0.0
 10
504.899987
 20
1193.959970
 30
0.0
  0
LWPOLYLINE
  5
170
100
AcDbEntity
  8
Body_Frame_3
 62
7
100
AcDbPolyline
 90
2
 70
0
 10
502.559987
 20
1191.199970
 30
0.0
 10
500.279987
 20
1188.439970
 30
0.0
  0
LWPOLYLINE
  5
171
100
AcDbEntity
  8
Body_Frame_3
 62
7
100
AcDbPolyline
 90
2
 70
0
 10
497.939988
 20
1185.679970
 30
0.0
 10
470.159988
 20
1152.619971
 30
0.0
  0
LWPOLYLINE
  5
172
100
AcDbEntity
  8
Body_Frame_3
 62
7
100
AcDbPolyline
 90
2
 70
0
 10
467.879988
 20
1149.859971
 30
0.0
 10
465.539988
 20
1147.099971
 30
0.0
  0
LWPOLYLINE
  5
173
100
AcDbEntity
  8
Body_Frame_3
 62
7
100
AcDbPolyline
 90
2
 70
0
 10
463.259988
 20
1144.339971
 30
0.0
 10
435.479989
 20
1111.279972
 30
0.0
  0
LWPOLYLINE
  5
174
100
AcDbEntity
  8
Body_Frame_3
 62
7
100
AcDbPolyline
 90
2
 70
0
 10
433.139989
 20
1108.519972
 30
0.0
 10
430.859989
 20
1105.759972
 30
0.0
  0
LWPOLYLINE
  5
175
100
AcDbEntity
  8
Body_Frame_3
 62
7
100
AcDbPolyline
 90
2
 70
0
 10
428.519989
 20
1102.999972
 30
0.0
 10
412.919990
 20
1084.399973
 30
0.0
  0
LWPOLYLINE
  5
176
100
AcDbEntity
  8
Body_Frame_3
 62
7
100
AcDbPolyline
 90
2
 70
0
 10
713.459982
 20
1114.279972
 30
0.0
 10
707.579982
 20
1090.759973
 30
0.0
  0
LWPOLYLINE
  5
177
100
AcDbEntity
  8
Body_Frame_3
 62
7
100
AcDbPolyline
 90
2
 70
0
 10
706.679982
 20
1087.219973
 30
0.0
 10
705.779982
 20
1083.739973
 30
0.0
  0
LWPOLYLINE
  5
178
100
AcDbEntity
  8
Body_Frame_3
 62
7
100
AcDbPolyline
 90
2
 70
0
 10
704.939982
 20
1080.259973
 30
0.0
 10
694.499983
 20
1038.319974
 30
0.0
  0
LWPOLYLINE
  5
179
100
AcDbEntity
  8
Body_Frame_3
 62
7
100
AcDbPolyline
 90
2
 70
0
 10
693.599983
 20
1034.839974
 30
0.0
 10
692.759983
 20
1031.359974
 30
0.0
  0
LWPOLYLINE
  5
17a
100
AcDbEntity
  8
Body_Frame_3
 62
7
100
AcDbPolyline
 90
2
 70
0
 10
691.859983
 20
1027.879974
 30
0.0
 10
681.419983
 20
985.939975
 30
0.0
  0
LWPOLYLINE
  5
17b
100
AcDbEntity
  8
Body_Frame_3
 62
7
100
AcDbPolyline
 90
2
 70
0
 10
680.579983
 20
982.459975
 30
0.0
 10
679.679983
 20
978.979976
 30
0.0
  0
LWPOLYLINE
  5
17c
100
AcDbEntity
  8
Body_Frame_3
 62
7
100
AcDbPolyline
 90
2
 70
0
 10
678.779983
 20
975.439976
 30
0.0
 10
672.899983
 20
951.859976
 30
0.0
  0
LWPOLYLINE
  5
17d
100
AcDbEntity
  8
Body_Frame_3
 62
7
100
AcDbPolyline
 90
2
 70
0
 10
946.319976
 20
1114.279972
 30
0.0
 10
952.139976
 20
1090.759973
 30
0.0
  0
LWPOLYLINE
  5
17e
100
AcDbEntity
  8
Body_Frame_3
 62
7
100
AcDbPolyline
 90
2
 70
0
 10
953.039976
 20
1087.219973
 30
0.0
 10
953.939976
 20
1083.739973
 30
0.0
  0
LWPOLYLINE
  5
17f
100
AcDbEntity
  8
Body_Frame_3
 62
7
100
AcDbPolyline
 90
2
 70
0
 10
954.779976
 20
1080.259973
 30
0.0
 10
965.219976
 20
1038.319974
 30
0.0
  0
LWPOLYLINE
  5
180
100
AcDbEntity
  8
Body_Frame_3
 62
7
100
AcDbPolyline
 90
2
 70
0
 10
966.119976
 20
1034.839974
 30
0.0
 10
966.959976
 20
1031.359974
 30
0.0
  0
LWPOLYLINE
  5
181
100
AcDbEntity
  8
Body_Frame_3
 62
7
100
AcDbPolyline
 90
2
 70
0
 10
967.859976
 20
1027.879974
 30
0.0
 10
978.299976
 20
985.939975
 30
0.0
  0
LWPOLYLINE
  5
182
100
AcDbEntity
  8
Body_Frame_3
 62
7
100
AcDbPolyline
 90
2
 70
0
 10
979.139976
 20
982.459975
 30
0.0
 10
980.039975
 20
978.979976
 30
0.0
  0
LWPOLYLINE
  5
183
100
AcDbEntity
  8
Body_Frame_3
 62
7
100
AcDbPolyline
 90
2
 70
0
 10
980.939975
 20
975.439976
 30
0.0
 10
986.819975
 20
951.859976
 30
0.0
  0
LWPOLYLINE
  5
184
100
AcDbEntity
  8
Body_Frame_3
 62
7
100
AcDbPolyline
 90
2
 70
0
 10
1139.219972
 20
1212.559970
 30
0.0
 10
1154.819971
 20
1193.959970
 30
0.0
  0
LWPOLYLINE
  5
185
100
AcDbEntity
  8
Body_Frame_3
 62
7
100
AcDbPolyline
 90
2
 70
0
 10
1157.099971
 20
1191.199970
 30
0.0
 10
1159.439971
 20
1188.439970
 30
0.0
  0
LWPOLYLINE
  5
186
100
AcDbEntity
  8
Body_Frame_3
 62
7
100
AcDbPolyline
 90
2
 70
0
 10
1161.719971
 20
1185.739970
 30
0.0
 10
1189.499970
 20
1152.619971
 30
0.0
  0
LWPOLYLINE
  5
187
100
AcDbEntity
  8
Body_Frame_3
 62
7
100
AcDbPolyline
 90
2
 70
0
 10
1191.839970
 20
1149.859971
 30
0.0
 10
1194.119970
 20
1147.099971
 30
0.0
  0
LWPOLYLINE
  5
188
100
AcDbEntity
  8
Body_Frame_3
 62
7
100
AcDbPolyline
 90
2
 70
0
 10
1196.459970
 20
1144.339971
 30
0.0
 10
1224.239969
 20
1111.219972
 30
0.0
  0
LWPOLYLINE
  5
189
100
AcDbEntity
  8
Body_Frame_3
 62
7
100
AcDbPolyline
 90
2
 70
0
 10
1226.519969
 20
1108.519972
 30
0.0
 10
1228.859969
 20
1105.759972
 30
0.0
  0
LWPOLYLINE
  5
18a
100
AcDbEntity
  8
Body_Frame_3
 62
7
100
AcDbPolyline
 90
2
 70
0
 10
1231.139969
 20
1102.999972
 30
0.0
 10
1246.799969
 20
1084.339973
 30
0.0
  0
LWPOLYLINE
  5
18b
100
AcDbEntity
  8
Body_Frame_3
 62
7
100
AcDbPolyline
 90
2
 70
0
 10
406.739990
 20
1810.519955
 30
0.0
 10
399.359990
 20
1814.478955
 30
0.0
  0
LWPOLYLINE
  5
18c
100
AcDbEntity
  8
Body_Frame_3
 62
7
100
AcDbPolyline
 90
2
 70
0
 10
1253.039969
 20
1810.519955
 30
0.0
 10
1261.619968
 20
1815.139955
 30
0.0
  0
LWPOLYLINE
  5
18d
100
AcDbEntity
  8
Body_Frame_3
 62
7
100
AcDbPolyline
 90
2
 70
0
 10
1167.779971
 20
1923.858952
 30
0.0
 10
1174.619971
 20
1930.819952
 30
0.0
  0
LWPOLYLINE
  5
18e
100
AcDbEntity
  8
Body_Frame_3
 62
7
100
AcDbPolyline
 90
2
 70
0
 10
491.999988
 20
1923.858952
 30
0.0
 10
485.279988
 20
1930.698952
 30
0.0
  0
LWPOLYLINE
  5
18f
100
AcDbEntity
  8
Body_Frame_3
 62
7
100
AcDbPolyline
 90
2
 70
0
 10
374.399991
 20
2043.079949
 30
0.0
 10
352.919991
 20
2014.098950
 30
0.0
  0
LWPOLYLINE
  5
190
100
AcDbEntity
  8
Body_Frame_3
 62
7
100
AcDbPolyline
 90
2
 70
0
 10
350.819991
 20
2011.218950
 30
0.0
 10
348.659991
 20
2008.279950
 30
0.0
  0
LWPOLYLINE
  5
191
100
AcDbEntity
  8
Body_Frame_3
 62
7
100
AcDbPolyline
 90
2
 70
0
 10
346.499991
 20
2005.398950
 30
0.0
 10
320.819992
 20
1970.658951
 30
0.0
  0
LWPOLYLINE
  5
192
100
AcDbEntity
  8
Body_Frame_3
 62
7
100
AcDbPolyline
 90
2
 70
0
 10
318.719992
 20
1967.779951
 30
0.0
 10
316.559992
 20
1964.838951
 30
0.0
  0
LWPOLYLINE
  5
193
100
AcDbEntity
  8
Body_Frame_3
 62
7
100
AcDbPolyline
 90
2
 70
0
 10
314.459992
 20
1961.958951
 30
0.0
 10
288.779993
 20
1927.218952
 30
0.0
  0
LWPOLYLINE
  5
194
100
AcDbEntity
  8
Body_Frame_3
 62
7
100
AcDbPolyline
 90
2
 70
0
 10
286.619993
 20
1924.338952
 30
0.0
 10
284.459993
 20
1921.398952
 30
0.0
  0
LWPOLYLINE
  5
195
100
AcDbEntity
  8
Body_Frame_3
 62
7
100
AcDbPolyline
 90
2
 70
0
 10
282.359993
 20
1918.519952
 30
0.0
 10
260.939993
 20
1889.539953
 30
0.0
  0
LWPOLYLINE
  5
196
100
AcDbEntity
  8
Body_Frame_3
 62
7
100
AcDbPolyline
 90
2
 70
0
 10
954.419976
 20
2046.079949
 30
0.0
 10
960.659976
 20
2069.599948
 30
0.0
  0
LWPOLYLINE
  5
197
100
AcDbEntity
  8
Body_Frame_3
 62
7
100
AcDbPolyline
 90
2
 70
0
 10
961.619976
 20
2073.079948
 30
0.0
 10
962.519976
 20
2076.559948
 30
0.0
  0
LWPOLYLINE
  5
198
100
AcDbEntity
  8
Body_Frame_3
 62
7
100
AcDbPolyline
 90
2
 70
0
 10
963.479976
 20
2080.039948
 30
0.0
 10
974.639976
 20
2121.739947
 30
0.0
  0
LWPOLYLINE
  5
199
100
AcDbEntity
  8
Body_Frame_3
 62
7
100
AcDbPolyline
 90
2
 70
0
 10
975.599976
 20
2125.218947
 30
0.0
 10
976.499976
 20
2128.698947
 30
0.0
  0
LWPOLYLINE
  5
19a
100
AcDbEntity
  8
Body_Frame_3
 62
7
100
AcDbPolyline
 90
2
 70
0
 10
977.459976
 20
2132.178947
 30
0.0
 10
988.619975
 20
2173.878946
 30
0.0
  0
LWPOLYLINE
  5
19b
100
AcDbEntity
  8
Body_Frame_3
 62
7
100
AcDbPolyline
 90
2
 70
0
 10
989.579975
 20
2177.358946
 30
0.0
 10
990.479975
 20
2180.839945
 30
0.0
  0
LWPOLYLINE
  5
19c
100
AcDbEntity
  8
Body_Frame_3
 62
7
100
AcDbPolyline
 90
2
 70
0
 10
991.439975
 20
2184.319945
 30
0.0
 10
997.679975
 20
2207.839945
 30
0.0
  0
LWPOLYLINE
  5
19d
100
AcDbEntity
  8
Body_Frame_3
 62
7
100
AcDbPolyline
 90
2
 70
0
 10
705.299982
 20
2046.079949
 30
0.0
 10
698.999983
 20
2069.599948
 30
0.0
  0
LWPOLYLINE
  5
19e
100
AcDbEntity
  8
Body_Frame_3
 62
7
100
AcDbPolyline
 90
2
 70
0
 10
698.039983
 20
2073.079948
 30
0.0
 10
697.139983
 20
2076.559948
 30
0.0
  0
LWPOLYLINE
  5
19f
100
AcDbEntity
  8
Body_Frame_3
 62
7
100
AcDbPolyline
 90
2
 70
0
 10
696.179983
 20
2080.039948
 30
0.0
 10
685.019983
 20
2121.739947
 30
0.0
  0
LWPOLYLINE
  5
1a0
100
AcDbEntity
  8
Body_Frame_3
 62
7
100
AcDbPolyline
 90
2
 70
0
 10
684.059983
 20
2125.218947
 30
0.0
 10
683.159983
 20
2128.698947
 30
0.0
  0
LWPOLYLINE
  5
1a1
100
AcDbEntity
  8
Body_Frame_3
 62
7
100
AcDbPolyline
 90
2
 70
0
 10
682.199983
 20
2132.178947
 30
0.0
 10
671.039983
 20
2173.878946
 30
0.0
  0
LWPOLYLINE
  5
1a2
100
AcDbEntity
  8
Body_Frame_3
 62
7
100
AcDbPolyline
 90
2
 70
0
 10
670.079983
 20
2177.358946
 30
0.0
 10
669.179983
 20
2180.839945
 30
0.0
  0
LWPOLYLINE
  5
1a3
100
AcDbEntity
  8
Body_Frame_3
 62
7
100
AcDbPolyline
 90
2
 70
0
 10
668.219983
 20
2184.319945
 30
0.0
 10
661.979983
 20
2207.839945
 30
0.0
  0
LWPOLYLINE
  5
1a4
100
AcDbEntity
  8
Body_Frame_3
 62
7
100
AcDbPolyline
 90
2
 70
0
 10
1405.319965
 20
1883.419953
 30
0.0
 10
1368.839966
 20
1856.059954
 30
0.0
  0
LWPOLYLINE
  5
1a5
100
AcDbEntity
  8
Body_Frame_3
 62
7
100
AcDbPolyline
 90
2
 70
0
 10
1365.959966
 20
1853.899954
 30
0.0
 10
1363.079966
 20
1851.739954
 30
0.0
  0
LWPOLYLINE
  5
1a6
100
AcDbEntity
  8
Body_Frame_3
 62
7
100
AcDbPolyline
 90
2
 70
0
 10
1360.199966
 20
1849.579954
 30
0.0
 10
1325.699967
 20
1823.659954
 30
0.0
  0
LWPOLYLINE
  5
1a7
100
AcDbEntity
  8
Body_Frame_3
 62
7
100
AcDbPolyline
 90
2
 70
0
 10
1322.819967
 20
1821.499954
 30
0.0
 10
1319.939967
 20
1819.339955
 30
0.0
  0
LWPOLYLINE
  5
1a8
100
AcDbEntity
  8
Body_Frame_3
 62
7
100
AcDbPolyline
 90
3
 70
0
 10
1317.059967
 20
1817.179955
 30
0.0
 10
1282.499968
 20
1791.199955
 30
0.0
 10
1280.639968
 20
1789.819955
 30
0.0
  0
LWPOLYLINE
  5
1a9
100
AcDbEntity
  8
Body_Frame_3
 62
7
100
AcDbPolyline
 90
2
 70
0
 10
1311.119967
 20
1581.199960
 30
0.0
 10
1335.419967
 20
1581.199960
 30
0.0
  0
LWPOLYLINE
  5
1aa
100
AcDbEntity
  8
Body_Frame_3
 62
7
100
AcDbPolyline
 90
2
 70
0
 10
1339.019967
 20
1581.199960
 30
0.0
 10
1342.619966
 20
1581.199960
 30
0.0
  0
LWPOLYLINE
  5
1ab
100
AcDbEntity
  8
Body_Frame_3
 62
7
100
AcDbPolyline
 90
2
 70
0
 10
1346.219966
 20
1581.199960
 30
0.0
 10
1389.419965
 20
1581.199960
 30
0.0
  0
LWPOLYLINE
  5
1ac
100
AcDbEntity
  8
Body_Frame_3
 62
7
100
AcDbPolyline
 90
2
 70
0
 10
1393.019965
 20
1581.199960
 30
0.0
 10
1396.619965
 20
1581.199960
 30
0.0
  0
LWPOLYLINE
  5
1ad
100
AcDbEntity
  8
Body_Frame_3
 62
7
100
AcDbPolyline
 90
2
 70
0
 10
1400.219965
 20
1581.199960
 30
0.0
 10
1443.419964
 20
1581.199960
 30
0.0
  0
LWPOLYLINE
  5
1ae
100
AcDbEntity
  8
Body_Frame_3
 62
7
100
AcDbPolyline
 90
2
 70
0
 10
1447.019964
 20
1581.199960
 30
0.0
 10
1450.619964
 20
1581.199960
 30
0.0
  0
LWPOLYLINE
  5
1af
100
AcDbEntity
  8
Body_Frame_3
 62
7
100
AcDbPolyline
 90
2
 70
0
 10
1454.219964
 20
1581.199960
 30
0.0
 10
1478.519963
 20
1581.199960
 30
0.0
  0
LWPOLYLINE
  5
1b0
100
AcDbEntity
  8
Body_Frame_3
 62
7
100
AcDbPolyline
 90
2
 70
0
 10
829.859979
 20
1099.999973
 30
0.0
 10
829.859979
 20
1075.699973
 30
0.0
  0
LWPOLYLINE
  5
1b1
100
AcDbEntity
  8
Body_Frame_3
 62
7
100
AcDbPolyline
 90
2
 70
0
 10
829.859979
 20
1072.099973
 30
0.0
 10
829.859979
 20
1068.499973
 30
0.0
  0
LWPOLYLINE
  5
1b2
100
AcDbEntity
  8
Body_Frame_3
 62
7
100
AcDbPolyline
 90
2
 70
0
 10
829.859979
 20
1064.899973
 30
0.0
 10
829.859979
 20
1021.699974
 30
0.0
  0
LWPOLYLINE
  5
1b3
100
AcDbEntity
  8
Body_Frame_3
 62
7
100
AcDbPolyline
 90
2
 70
0
 10
829.859979
 20
1018.099975
 30
0.0
 10
829.859979
 20
1014.499975
 30
0.0
  0
LWPOLYLINE
  5
1b4
100
AcDbEntity
  8
Body_Frame_3
 62
7
100
AcDbPolyline
 90
2
 70
0
 10
829.859979
 20
1010.899975
 30
0.0
 10
829.859979
 20
967.699976
 30
0.0
  0
LWPOLYLINE
  5
1b5
100
AcDbEntity
  8
Body_Frame_3
 62
7
100
AcDbPolyline
 90
2
 70
0
 10
829.859979
 20
964.099976
 30
0.0
 10
829.859979
 20
960.499976
 30
0.0
  0
LWPOLYLINE
  5
1b6
100
AcDbEntity
  8
Body_Frame_3
 62
7
100
AcDbPolyline
 90
2
 70
0
 10
829.859979
 20
956.899976
 30
0.0
 10
829.859979
 20
932.599977
 30
0.0
  0
LWPOLYLINE
  5
1b7
100
AcDbEntity
  8
Body_Frame_3
 62
7
100
AcDbPolyline
 90
2
 70
0
 10
499.799988
 20
1950.438951
 30
0.0
 10
478.319988
 20
1921.458952
 30
0.0
  0
LWPOLYLINE
  5
1b8
100
AcDbEntity
  8
Body_Frame_3
 62
7
100
AcDbPolyline
 90
2
 70
0
 10
476.219988
 20
1918.579952
 30
0.0
 10
474.059988
 20
1915.639952
 30
0.0
  0
LWPOLYLINE
  5
1b9
100
AcDbEntity
  8
Body_Frame_3
 62
7
100
AcDbPolyline
 90
2
 70
0
 10
471.899988
 20
1912.759952
 30
0.0
 10
446.219989
 20
1878.019953
 30
0.0
  0
LWPOLYLINE
  5
1ba
100
AcDbEntity
  8
Body_Frame_3
 62
7
100
AcDbPolyline
 90
2
 70
0
 10
444.119989
 20
1875.139953
 30
0.0
 10
441.959989
 20
1872.199953
 30
0.0
  0
LWPOLYLINE
  5
1bb
100
AcDbEntity
  8
Body_Frame_3
 62
7
100
AcDbPolyline
 90
2
 70
0
 10
439.859989
 20
1869.319953
 30
0.0
 10
414.179990
 20
1834.579954
 30
0.0
  0
LWPOLYLINE
  5
1bc
100
AcDbEntity
  8
Body_Frame_3
 62
7
100
AcDbPolyline
 90
2
 70
0
 10
412.019990
 20
1831.699954
 30
0.0
 10
409.859990
 20
1828.759954
 30
0.0
  0
LWPOLYLINE
  5
1bd
100
AcDbEntity
  8
Body_Frame_3
 62
7
100
AcDbPolyline
 90
2
 70
0
 10
407.759990
 20
1825.879954
 30
0.0
 10
386.339990
 20
1796.839955
 30
0.0
  0
LWPOLYLINE
  5
1be
100
AcDbEntity
  8
Body_Frame_3
 62
7
100
AcDbPolyline
 90
2
 70
0
 10
260.939993
 20
1889.478953
 30
0.0
 10
297.539993
 20
1862.419953
 30
0.0
  0
LWPOLYLINE
  5
1bf
100
AcDbEntity
  8
Body_Frame_3
 62
7
100
AcDbPolyline
 90
2
 70
0
 10
300.419992
 20
1860.319953
 30
0.0
 10
303.359992
 20
1858.159954
 30
0.0
  0
LWPOLYLINE
  5
1c0
100
AcDbEntity
  8
Body_Frame_3
 62
7
100
AcDbPolyline
 90
2
 70
0
 10
306.239992
 20
1855.999954
 30
0.0
 10
340.979991
 20
1830.379954
 30
0.0
  0
LWPOLYLINE
  5
1c1
100
AcDbEntity
  8
Body_Frame_3
 62
7
100
AcDbPolyline
 90
2
 70
0
 10
343.859991
 20
1828.218954
 30
0.0
 10
346.799991
 20
1826.059954
 30
0.0
  0
LWPOLYLINE
  5
1c2
100
AcDbEntity
  8
Body_Frame_3
 62
7
100
AcDbPolyline
 90
3
 70
0
 10
349.679991
 20
1823.958954
 30
0.0
 10
384.419990
 20
1798.279955
 30
0.0
 10
386.339990
 20
1796.839955
 30
0.0
  0
LWPOLYLINE
  5
1c3
100
AcDbEntity
  8
Body_Frame_3
 62
7
100
AcDbPolyline
 90
2
 70
0
 10
374.399991
 20
2043.079949
 30
0.0
 10
410.999990
 20
2016.019950
 30
0.0
  0
LWPOLYLINE
  5
1c4
100
AcDbEntity
  8
Body_Frame_3
 62
7
100
AcDbPolyline
 90
2
 70
0
 10
413.879990
 20
2013.918950
 30
0.0
 10
416.819990
 20
2011.759950
 30
0.0
  0
LWPOLYLINE
  5
1c5
100
AcDbEntity
  8
Body_Frame_3
 62
7
100
AcDbPolyline
 90
2
 70
0
 10
419.699990
 20
2009.598950
 30
0.0
 10
454.439989
 20
1983.978950
 30
0.0
  0
LWPOLYLINE
  5
1c6
100
AcDbEntity
  8
Body_Frame_3
 62
7
100
AcDbPolyline
 90
2
 70
0
 10
457.319989
 20
1981.819950
 30
0.0
 10
460.259988
 20
1979.658951
 30
0.0
  0
LWPOLYLINE
  5
1c7
100
AcDbEntity
  8
Body_Frame_3
 62
7
100
AcDbPolyline
 90
3
 70
0
 10
463.139988
 20
1977.559951
 30
0.0
 10
497.879988
 20
1951.879951
 30
0.0
 10
499.799988
 20
1950.499951
 30
0.0
  0
LWPOLYLINE
  5
1c8
100
AcDbEntity
  8
Body_Frame_3
 62
7
100
AcDbPolyline
 90
2
 70
0
 10
1285.319968
 20
2043.079949
 30
0.0
 10
1307.039967
 20
2014.158950
 30
0.0
  0
LWPOLYLINE
  5
1c9
100
AcDbEntity
  8
Body_Frame_3
 62
7
100
AcDbPolyline
 90
2
 70
0
 10
1309.199967
 20
2011.279950
 30
0.0
 10
1311.359967
 20
2008.398950
 30
0.0
  0
LWPOLYLINE
  5
1ca
100
AcDbEntity
  8
Body_Frame_3
 62
7
100
AcDbPolyline
 90
2
 70
0
 10
1313.519967
 20
2005.519950
 30
0.0
 10
1339.499967
 20
1971.019951
 30
0.0
  0
LWPOLYLINE
  5
1cb
100
AcDbEntity
  8
Body_Frame_3
 62
7
100
AcDbPolyline
 90
2
 70
0
 10
1341.659966
 20
1968.139951
 30
0.0
 10
1343.819966
 20
1965.259951
 30
0.0
  0
LWPOLYLINE
  5
1cc
100
AcDbEntity
  8
Body_Frame_3
 62
7
100
AcDbPolyline
 90
2
 70
0
 10
1345.979966
 20
1962.379951
 30
0.0
 10
1371.959966
 20
1927.879952
 30
0.0
  0
LWPOLYLINE
  5
1cd
100
AcDbEntity
  8
Body_Frame_3
 62
7
100
AcDbPolyline
 90
2
 70
0
 10
1374.119966
 20
1924.999952
 30
0.0
 10
1376.279966
 20
1922.119952
 30
0.0
  0
LWPOLYLINE
  5
1ce
100
AcDbEntity
  8
Body_Frame_3
 62
7
100
AcDbPolyline
 90
2
 70
0
 10
1378.439966
 20
1919.239952
 30
0.0
 10
1400.219965
 20
1890.259953
 30
0.0
  0
LWPOLYLINE
  5
1cf
100
AcDbEntity
  8
Body_Frame_3
 62
7
100
AcDbPolyline
 90
2
 70
0
 10
1160.699971
 20
1949.418951
 30
0.0
 10
1182.419970
 20
1920.499952
 30
0.0
  0
LWPOLYLINE
  5
1d0
100
AcDbEntity
  8
Body_Frame_3
 62
7
100
AcDbPolyline
 90
2
 70
0
 10
1184.579970
 20
1917.619952
 30
0.0
 10
1186.739970
 20
1914.739952
 30
0.0
  0
LWPOLYLINE
  5
1d1
100
AcDbEntity
  8
Body_Frame_3
 62
7
100
AcDbPolyline
 90
2
 70
0
 10
1188.899970
 20
1911.858952
 30
0.0
 10
1214.819970
 20
1877.299953
 30
0.0
  0
LWPOLYLINE
  5
1d2
100
AcDbEntity
  8
Body_Frame_3
 62
7
100
AcDbPolyline
 90
2
 70
0
 10
1216.979970
 20
1874.419953
 30
0.0
 10
1219.199970
 20
1871.599953
 30
0.0
  0
LWPOLYLINE
  5
1d3
100
AcDbEntity
  8
Body_Frame_3
 62
7
100
AcDbPolyline
 90
2
 70
0
 10
1221.359969
 20
1868.718953
 30
0.0
 10
1247.279969
 20
1834.159954
 30
0.0
  0
LWPOLYLINE
  5
1d4
100
AcDbEntity
  8
Body_Frame_3
 62
7
100
AcDbPolyline
 90
2
 70
0
 10
1249.439969
 20
1831.279954
 30
0.0
 10
1251.599969
 20
1828.399954
 30
0.0
  0
LWPOLYLINE
  5
1d5
100
AcDbEntity
  8
Body_Frame_3
 62
7
100
AcDbPolyline
 90
2
 70
0
 10
1253.759969
 20
1825.519954
 30
0.0
 10
1275.479968
 20
1796.539955
 30
0.0
  0
LWPOLYLINE
  5
1d6
100
AcDbEntity
  8
Body_Frame_3
 62
7
100
AcDbPolyline
 90
2
 70
0
 10
1285.319968
 20
2043.079949
 30
0.0
 10
1248.899969
 20
2015.718950
 30
0.0
  0
LWPOLYLINE
  5
1d7
100
AcDbEntity
  8
Body_Frame_3
 62
7
100
AcDbPolyline
 90
2
 70
0
 10
1246.019969
 20
2013.559950
 30
0.0
 10
1243.139969
 20
2011.398950
 30
0.0
  0
LWPOLYLINE
  5
1d8
100
AcDbEntity
  8
Body_Frame_3
 62
7
100
AcDbPolyline
 90
2
 70
0
 10
1240.259969
 20
2009.239950
 30
0.0
 10
1205.699970
 20
1983.319950
 30
0.0
  0
LWPOLYLINE
  5
1d9
100
AcDbEntity
  8
Body_Frame_3
 62
7
100
AcDbPolyline
 90
2
 70
0
 10
1202.819970
 20
1981.158950
 30
0.0
 10
1199.939970
 20
1978.999951
 30
0.0
  0
LWPOLYLINE
  5
1da
100
AcDbEntity
  8
Body_Frame_3
 62
7
100
AcDbPolyline
 90
3
 70
0
 10
1197.059970
 20
1976.838951
 30
0.0
 10
1162.559971
 20
1950.858951
 30
0.0
 10
1160.699971
 20
1949.418951
 30
0.0
  0
LWPOLYLINE
  5
1db
100
AcDbEntity
  8
Body_Frame_3
 62
7
100
AcDbPolyline
 90
2
 70
0
 10
1400.219965
 20
1890.259953
 30
0.0
 10
1363.739966
 20
1862.899953
 30
0.0
  0
LWPOLYLINE
  5
1dc
100
AcDbEntity
  8
Body_Frame_3
 62
7
100
AcDbPolyline
 90
2
 70
0
 10
1360.859966
 20
1860.739953
 30
0.0
 10
1357.979966
 20
1858.579954
 30
0.0
  0
LWPOLYLINE
  5
1dd
100
AcDbEntity
  8
Body_Frame_3
 62
7
100
AcDbPolyline
 90
2
 70
0
 10
1355.099966
 20
1856.419954
 30
0.0
 10
1320.599967
 20
1830.439954
 30
0.0
  0
LWPOLYLINE
  5
1de
100
AcDbEntity
  8
Body_Frame_3
 62
7
100
AcDbPolyline
 90
2
 70
0
 10
1317.719967
 20
1828.279954
 30
0.0
 10
1314.839967
 20
1826.119954
 30
0.0
  0
LWPOLYLINE
  5
1df
100
AcDbEntity
  8
Body_Frame_3
 62
7
100
AcDbPolyline
 90
3
 70
0
 10
1311.959967
 20
1823.958954
 30
0.0
 10
1277.399968
 20
1797.978955
 30
0.0
 10
1275.479968
 20
1796.599955
 30
0.0
  0
LWPOLYLINE
  5
1e0
100
AcDbEntity
  8
Body_Frame_3
 62
7
100
AcDbPolyline
 90
2
 70
0
 10
713.519982
 20
2048.299949
 30
0.0
 10
707.219982
 20
2071.819948
 30
0.0
  0
LWPOLYLINE
  5
1e1
100
AcDbEntity
  8
Body_Frame_3
 62
7
100
AcDbPolyline
 90
2
 70
0
 10
706.259982
 20
2075.299948
 30
0.0
 10
705.359982
 20
2078.779948
 30
0.0
  0
LWPOLYLINE
  5
1e2
100
AcDbEntity
  8
Body_Frame_3
 62
7
100
AcDbPolyline
 90
2
 70
0
 10
704.399982
 20
2082.259948
 30
0.0
 10
693.239983
 20
2123.958947
 30
0.0
  0
LWPOLYLINE
  5
1e3
100
AcDbEntity
  8
Body_Frame_3
 62
7
100
AcDbPolyline
 90
2
 70
0
 10
692.279983
 20
2127.438947
 30
0.0
 10
691.379983
 20
2130.918947
 30
0.0
  0
LWPOLYLINE
  5
1e4
100
AcDbEntity
  8
Body_Frame_3
 62
7
100
AcDbPolyline
 90
2
 70
0
 10
690.419983
 20
2134.398947
 30
0.0
 10
679.259983
 20
2176.099946
 30
0.0
  0
LWPOLYLINE
  5
1e5
100
AcDbEntity
  8
Body_Frame_3
 62
7
100
AcDbPolyline
 90
2
 70
0
 10
678.299983
 20
2179.579946
 30
0.0
 10
677.399983
 20
2183.059945
 30
0.0
  0
LWPOLYLINE
  5
1e6
100
AcDbEntity
  8
Body_Frame_3
 62
7
100
AcDbPolyline
 90
2
 70
0
 10
676.439983
 20
2186.539945
 30
0.0
 10
670.199983
 20
2210.059945
 30
0.0
  0
LWPOLYLINE
  5
1e7
100
AcDbEntity
  8
Body_Frame_3
 62
7
100
AcDbPolyline
 90
2
 70
0
 10
946.199976
 20
2048.299949
 30
0.0
 10
952.439976
 20
2071.819948
 30
0.0
  0
LWPOLYLINE
  5
1e8
100
AcDbEntity
  8
Body_Frame_3
 62
7
100
AcDbPolyline
 90
2
 70
0
 10
953.399976
 20
2075.299948
 30
0.0
 10
954.359976
 20
2078.779948
 30
0.0
  0
LWPOLYLINE
  5
1e9
100
AcDbEntity
  8
Body_Frame_3
 62
7
100
AcDbPolyline
 90
2
 70
0
 10
955.259976
 20
2082.259948
 30
0.0
 10
966.479976
 20
2123.958947
 30
0.0
  0
LWPOLYLINE
  5
1ea
100
AcDbEntity
  8
Body_Frame_3
 62
7
100
AcDbPolyline
 90
2
 70
0
 10
967.379976
 20
2127.438947
 30
0.0
 10
968.339976
 20
2130.918947
 30
0.0
  0
LWPOLYLINE
  5
1eb
100
AcDbEntity
  8
Body_Frame_3
 62
7
100
AcDbPolyline
 90
2
 70
0
 10
969.239976
 20
2134.398947
 30
0.0
 10
980.459975
 20
2176.099946
 30
0.0
  0
LWPOLYLINE
  5
1ec
100
AcDbEntity
  8
Body_Frame_3
 62
7
100
AcDbPolyline
 90
2
 70
0
 10
981.359975
 20
2179.579946
 30
0.0
 10
982.319975
 20
2183.059945
 30
0.0
  0
LWPOLYLINE
  5
1ed
100
AcDbEntity
  8
Body_Frame_3
 62
7
100
AcDbPolyline
 90
2
 70
0
 10
983.279975
 20
2186.539945
 30
0.0
 10
989.579975
 20
2209.999945
 30
0.0
  0
LWPOLYLINE
  5
1ee
100
AcDbEntity
  8
Body_Frame_3
 62
7
100
AcDbPolyline
 90
2
 70
0
 10
1280.219968
 20
2049.858949
 30
0.0
 10
1243.799969
 20
2022.499949
 30
0.0
  0
LWPOLYLINE
  5
1ef
100
AcDbEntity
  8
Body_Frame_3
 62
7
100
AcDbPolyline
 90
2
 70
0
 10
1240.919969
 20
2020.338949
 30
0.0
 10
1238.039969
 20
2018.178950
 30
0.0
  0
LWPOLYLINE
  5
1f0
100
AcDbEntity
  8
Body_Frame_3
 62
7
100
AcDbPolyline
 90
2
 70
0
 10
1235.159969
 20
2016.019950
 30
0.0
 10
1200.599970
 20
1990.098950
 30
0.0
  0
LWPOLYLINE
  5
1f1
100
AcDbEntity
  8
Body_Frame_3
 62
7
100
AcDbPolyline
 90
2
 70
0
 10
1197.719970
 20
1987.938950
 30
0.0
 10
1194.839970
 20
1985.779950
 30
0.0
  0
LWPOLYLINE
  5
1f2
100
AcDbEntity
  8
Body_Frame_3
 62
7
100
AcDbPolyline
 90
3
 70
0
 10
1191.959970
 20
1983.619950
 30
0.0
 10
1157.459971
 20
1957.639951
 30
0.0
 10
1155.599971
 20
1956.198951
 30
0.0
  0
LWPOLYLINE
  5
1f3
100
AcDbEntity
  8
Body_Frame_3
 62
7
100
AcDbPolyline
 90
2
 70
0
 10
379.499991
 20
2049.918949
 30
0.0
 10
416.099990
 20
2022.858949
 30
0.0
  0
LWPOLYLINE
  5
1f4
100
AcDbEntity
  8
Body_Frame_3
 62
7
100
AcDbPolyline
 90
2
 70
0
 10
418.979990
 20
2020.759949
 30
0.0
 10
421.919989
 20
2018.598950
 30
0.0
  0
LWPOLYLINE
  5
1f5
100
AcDbEntity
  8
Body_Frame_3
 62
7
100
AcDbPolyline
 90
2
 70
0
 10
424.799989
 20
2016.438950
 30
0.0
 10
459.539989
 20
1990.819950
 30
0.0
  0
LWPOLYLINE
  5
1f6
100
AcDbEntity
  8
Body_Frame_3
 62
7
100
AcDbPolyline
 90
2
 70
0
 10
462.419988
 20
1988.658950
 30
0.0
 10
465.359988
 20
1986.499950
 30
0.0
  0
LWPOLYLINE
  5
1f7
100
AcDbEntity
  8
Body_Frame_3
 62
7
100
AcDbPolyline
 90
3
 70
0
 10
468.239988
 20
1984.398950
 30
0.0
 10
502.979987
 20
1958.718951
 30
0.0
 10
504.899987
 20
1957.338951
 30
0.0
  0
LWPOLYLINE
  5
1f8
100
AcDbEntity
  8
Body_Frame_3
 62
7
100
AcDbPolyline
 90
2
 70
0
 10
255.899994
 20
1882.639953
 30
0.0
 10
292.499993
 20
1855.579954
 30
0.0
  0
LWPOLYLINE
  5
1f9
100
AcDbEntity
  8
Body_Frame_3
 62
7
100
AcDbPolyline
 90
2
 70
0
 10
295.379993
 20
1853.478954
 30
0.0
 10
298.319993
 20
1851.319954
 30
0.0
  0
LWPOLYLINE
  5
1fa
100
AcDbEntity
  8
Body_Frame_3
 62
7
100
AcDbPolyline
 90
2
 70
0
 10
301.199992
 20
1849.159954
 30
0.0
 10
335.939992
 20
1823.539954
 30
0.0
  0
LWPOLYLINE
  5
1fb
100
AcDbEntity
  8
Body_Frame_3
 62
7
100
AcDbPolyline
 90
2
 70
0
 10
338.819992
 20
1821.379954
 30
0.0
 10
341.759991
 20
1819.218955
 30
0.0
  0
LWPOLYLINE
  5
1fc
100
AcDbEntity
  8
Body_Frame_3
 62
7
100
AcDbPolyline
 90
3
 70
0
 10
344.639991
 20
1817.119955
 30
0.0
 10
379.379991
 20
1791.439955
 30
0.0
 10
381.299990
 20
1789.999955
 30
0.0
  0
LWPOLYLINE
  5
1fd
100
AcDbEntity
  8
Body_Frame_3
 62
7
100
AcDbPolyline
 90
2
 70
0
 10
361.319991
 20
1691.419958
 30
0.0
 10
337.559992
 20
1696.579958
 30
0.0
  0
LWPOLYLINE
  5
1fe
100
AcDbEntity
  8
Body_Frame_3
 62
7
100
AcDbPolyline
 90
2
 70
0
 10
334.019992
 20
1697.359958
 30
0.0
 10
330.479992
 20
1698.139958
 30
0.0
  0
LWPOLYLINE
  5
1ff
100
AcDbEntity
  8
Body_Frame_3
 62
7
100
AcDbPolyline
 90
2
 70
0
 10
326.999992
 20
1698.859958
 30
0.0
 10
284.759993
 20
1707.978957
 30
0.0
  0
LWPOLYLINE
  5
200
100
AcDbEntity
  8
Body_Frame_3
 62
7
100
AcDbPolyline
 90
2
 70
0
 10
281.219993
 20
1708.759957
 30
0.0
 10
277.739993
 20
1709.539957
 30
0.0
  0
LWPOLYLINE
  5
201
100
AcDbEntity
  8
Body_Frame_3
 62
7
100
AcDbPolyline
 90
2
 70
0
 10
274.199993
 20
1710.319957
 30
0.0
 10
231.959994
 20
1719.439957
 30
0.0
  0
LWPOLYLINE
  5
202
100
AcDbEntity
  8
Body_Frame_3
 62
7
100
AcDbPolyline
 90
2
 70
0
 10
228.479994
 20
1720.159957
 30
0.0
 10
224.939994
 20
1720.939957
 30
0.0
  0
LWPOLYLINE
  5
203
100
AcDbEntity
  8
Body_Frame_3
 62
7
100
AcDbPolyline
 90
2
 70
0
 10
221.399994
 20
1721.718957
 30
0.0
 10
197.639995
 20
1726.819957
 30
0.0
  0
LWPOLYLINE
  5
204
100
AcDbEntity
  8
Body_Frame_3
 62
7
100
AcDbPolyline
 90
2
 70
0
 10
1298.399968
 20
1471.039963
 30
0.0
 10
1322.099967
 20
1465.939963
 30
0.0
  0
LWPOLYLINE
  5
205
100
AcDbEntity
  8
Body_Frame_3
 62
7
100
AcDbPolyline
 90
2
 70
0
 10
1325.639967
 20
1465.159963
 30
0.0
 10
1329.179967
 20
1464.379963
 30
0.0
  0
LWPOLYLINE
  5
206
100
AcDbEntity
  8
Body_Frame_3
 62
7
100
AcDbPolyline
 90
2
 70
0
 10
1332.659967
 20
1463.659963
 30
0.0
 10
1374.899966
 20
1454.539964
 30
0.0
  0
LWPOLYLINE
  5
207
100
AcDbEntity
  8
Body_Frame_3
 62
7
100
AcDbPolyline
 90
2
 70
0
 10
1378.439966
 20
1453.759964
 30
0.0
 10
1381.919965
 20
1452.978964
 30
0.0
  0
LWPOLYLINE
  5
208
100
AcDbEntity
  8
Body_Frame_3
 62
7
100
AcDbPolyline
 90
2
 70
0
 10
1385.459965
 20
1452.199964
 30
0.0
 10
1427.699964
 20
1443.079964
 30
0.0
  0
LWPOLYLINE
  5
209
100
AcDbEntity
  8
Body_Frame_3
 62
7
100
AcDbPolyline
 90
2
 70
0
 10
1431.179964
 20
1442.358964
 30
0.0
 10
1434.719964
 20
1441.579964
 30
0.0
  0
LWPOLYLINE
  5
20a
100
AcDbEntity
  8
Body_Frame_3
 62
7
100
AcDbPolyline
 90
2
 70
0
 10
1438.259964
 20
1440.799964
 30
0.0
 10
1462.019963
 20
1435.699964
 30
0.0
  0
LWPOLYLINE
  5
20b
100
AcDbEntity
  8
Body_Frame_3
 62
7
100
AcDbPolyline
 90
2
 70
0
 10
361.319991
 20
1471.039963
 30
0.0
 10
337.559992
 20
1465.939963
 30
0.0
  0
LWPOLYLINE
  5
20c
100
AcDbEntity
  8
Body_Frame_3
 62
7
100
AcDbPolyline
 90
2
 70
0
 10
334.019992
 20
1465.159963
 30
0.0
 10
330.479992
 20
1464.379963
 30
0.0
  0
LWPOLYLINE
  5
20d
100
AcDbEntity
  8
Body_Frame_3
 62
7
100
AcDbPolyline
 90
2
 70
0
 10
326.999992
 20
1463.659963
 30
0.0
 10
284.759993
 20
1454.539964
 30
0.0
  0
LWPOLYLINE
  5
20e
100
AcDbEntity
  8
Body_Frame_3
 62
7
100
AcDbPolyline
 90
2
 70
0
 10
281.219993
 20
1453.759964
 30
0.0
 10
277.739993
 20
1452.978964
 30
0.0
  0
LWPOLYLINE
  5
20f
100
AcDbEntity
  8
Body_Frame_3
 62
7
100
AcDbPolyline
 90
2
 70
0
 10
274.199993
 20
1452.199964
 30
0.0
 10
231.959994
 20
1443.079964
 30
0.0
  0
LWPOLYLINE
  5
210
100
AcDbEntity
  8
Body_Frame_3
 62
7
100
AcDbPolyline
 90
2
 70
0
 10
228.479994
 20
1442.358964
 30
0.0
 10
224.939994
 20
1441.579964
 30
0.0
  0
LWPOLYLINE
  5
211
100
AcDbEntity
  8
Body_Frame_3
 62
7
100
AcDbPolyline
 90
2
 70
0
 10
221.399994
 20
1440.799964
 30
0.0
 10
197.639995
 20
1435.699964
 30
0.0
  0
LWPOLYLINE
  5
212
100
AcDbEntity
  8
Body_Frame_3
 62
7
100
AcDbPolyline
 90
2
 70
0
 10
1298.399968
 20
1691.419958
 30
0.0
 10
1322.099967
 20
1696.579958
 30
0.0
  0
LWPOLYLINE
  5
213
100
AcDbEntity
  8
Body_Frame_3
 62
7
100
AcDbPolyline
 90
2
 70
0
 10
1325.639967
 20
1697.359958
 30
0.0
 10
1329.179967
 20
1698.139958
 30
0.0
  0
LWPOLYLINE
  5
214
100
AcDbEntity
  8
Body_Frame_3
 62
7
100
AcDbPolyline
 90
2
 70
0
 10
1332.659967
 20
1698.859958
 30
0.0
 10
1374.899966
 20
1707.978957
 30
0.0
  0
LWPOLYLINE
  5
215
100
AcDbEntity
  8
Body_Frame_3
 62
7
100
AcDbPolyline
 90
2
 70
0
 10
1378.439966
 20
1708.759957
 30
0.0
 10
1381.919965
 20
1709.539957
 30
0.0
  0
LWPOLYLINE
  5
216
100
AcDbEntity
  8
Body_Frame_3
 62
7
100
AcDbPolyline
 90
2
 70
0
 10
1385.459965
 20
1710.319957
 30
0.0
 10
1427.699964
 20
1719.439957
 30
0.0
  0
LWPOLYLINE
  5
217
100
AcDbEntity
  8
Body_Frame_3
 62
7
100
AcDbPolyline
 90
2
 70
0
 10
1431.179964
 20
1720.159957
 30
0.0
 10
1434.719964
 20
1720.939957
 30
0.0
  0
LWPOLYLINE
  5
218
100
AcDbEntity
  8
Body_Frame_3
 62
7
100
AcDbPolyline
 90
2
 70
0
 10
1438.259964
 20
1721.718957
 30
0.0
 10
1462.019963
 20
1726.819957
 30
0.0
  0
LWPOLYLINE
  5
219
100
AcDbEntity
  8
Body_Frame_3
 62
7
100
AcDbPolyline
 90
2
 70
0
 10
514.019987
 20
1218.019970
 30
0.0
 10
498.359988
 20
1199.419970
 30
0.0
  0
LWPOLYLINE
  5
21a
100
AcDbEntity
  8
Body_Frame_3
 62
7
100
AcDbPolyline
 90
2
 70
0
 10
496.079988
 20
1196.659970
 30
0.0
 10
493.739988
 20
1193.899970
 30
0.0
  0
LWPOLYLINE
  5
21b
100
AcDbEntity
  8
Body_Frame_3
 62
7
100
AcDbPolyline
 90
2
 70
0
 10
491.459988
 20
1191.199970
 30
0.0
 10
463.679988
 20
1158.079971
 30
0.0
  0
LWPOLYLINE
  5
21c
100
AcDbEntity
  8
Body_Frame_3
 62
7
100
AcDbPolyline
 90
2
 70
0
 10
461.339988
 20
1155.319971
 30
0.0
 10
459.059989
 20
1152.559971
 30
0.0
  0
LWPOLYLINE
  5
21d
100
AcDbEntity
  8
Body_Frame_3
 62
7
100
AcDbPolyline
 90
2
 70
0
 10
456.719989
 20
1149.799971
 30
0.0
 10
428.939989
 20
1116.679972
 30
0.0
  0
LWPOLYLINE
  5
21e
100
AcDbEntity
  8
Body_Frame_3
 62
7
100
AcDbPolyline
 90
2
 70
0
 10
426.659989
 20
1113.979972
 30
0.0
 10
424.319989
 20
1111.219972
 30
0.0
  0
LWPOLYLINE
  5
21f
100
AcDbEntity
  8
Body_Frame_3
 62
7
100
AcDbPolyline
 90
2
 70
0
 10
422.039989
 20
1108.459972
 30
0.0
 10
406.439990
 20
1089.799973
 30
0.0
  0
LWPOLYLINE
  5
220
100
AcDbEntity
  8
Body_Frame_3
 62
7
100
AcDbPolyline
 90
2
 70
0
 10
705.179982
 20
1116.319972
 30
0.0
 10
699.299983
 20
1092.799973
 30
0.0
  0
LWPOLYLINE
  5
221
100
AcDbEntity
  8
Body_Frame_3
 62
7
100
AcDbPolyline
 90
2
 70
0
 10
698.399983
 20
1089.259973
 30
0.0
 10
697.499983
 20
1085.779973
 30
0.0
  0
LWPOLYLINE
  5
222
100
AcDbEntity
  8
Body_Frame_3
 62
7
100
AcDbPolyline
 90
2
 70
0
 10
696.659983
 20
1082.299973
 30
0.0
 10
686.219983
 20
1040.359974
 30
0.0
  0
LWPOLYLINE
  5
223
100
AcDbEntity
  8
Body_Frame_3
 62
7
100
AcDbPolyline
 90
2
 70
0
 10
685.319983
 20
1036.879974
 30
0.0
 10
684.479983
 20
1033.399974
 30
0.0
  0
LWPOLYLINE
  5
224
100
AcDbEntity
  8
Body_Frame_3
 62
7
100
AcDbPolyline
 90
2
 70
0
 10
683.579983
 20
1029.919974
 30
0.0
 10
673.139983
 20
987.979975
 30
0.0
  0
LWPOLYLINE
  5
225
100
AcDbEntity
  8
Body_Frame_3
 62
7
100
AcDbPolyline
 90
2
 70
0
 10
672.299983
 20
984.499975
 30
0.0
 10
671.399983
 20
981.019975
 30
0.0
  0
LWPOLYLINE
  5
226
100
AcDbEntity
  8
Body_Frame_3
 62
7
100
AcDbPolyline
 90
2
 70
0
 10
670.499983
 20
977.479976
 30
0.0
 10
664.619983
 20
953.899976
 30
0.0
  0
LWPOLYLINE
  5
227
100
AcDbEntity
  8
Body_Frame_3
 62
7
100
AcDbPolyline
 90
2
 70
0
 10
954.539976
 20
1116.319972
 30
0.0
 10
960.359976
 20
1092.799973
 30
0.0
  0
LWPOLYLINE
  5
228
100
AcDbEntity
  8
Body_Frame_3
 62
7
100
AcDbPolyline
 90
2
 70
0
 10
961.259976
 20
1089.259973
 30
0.0
 10
962.159976
 20
1085.779973
 30
0.0
  0
LWPOLYLINE
  5
229
100
AcDbEntity
  8
Body_Frame_3
 62
7
100
AcDbPolyline
 90
2
 70
0
 10
962.999976
 20
1082.299973
 30
0.0
 10
973.439976
 20
1040.359974
 30
0.0
  0
LWPOLYLINE
  5
22a
100
AcDbEntity
  8
Body_Frame_3
 62
7
100
AcDbPolyline
 90
2
 70
0
 10
974.339976
 20
1036.879974
 30
0.0
 10
975.179976
 20
1033.399974
 30
0.0
  0
LWPOLYLINE
  5
22b
100
AcDbEntity
  8
Body_Frame_3
 62
7
100
AcDbPolyline
 90
2
 70
0
 10
976.079976
 20
1029.919974
 30
0.0
 10
986.519975
 20
987.979975
 30
0.0
  0
LWPOLYLINE
  5
22c
100
AcDbEntity
  8
Body_Frame_3
 62
7
100
AcDbPolyline
 90
2
 70
0
 10
987.359975
 20
984.499975
 30
0.0
 10
988.259975
 20
981.019975
 30
0.0
  0
LWPOLYLINE
  5
22d
100
AcDbEntity
  8
Body_Frame_3
 62
7
100
AcDbPolyline
 90
2
 70
0
 10
989.159975
 20
977.479976
 30
0.0
 10
995.039975
 20
953.899976
 30
0.0
  0
LWPOLYLINE
  5
22e
100
AcDbEntity
  8
Body_Frame_3
 62
7
100
AcDbPolyline
 90
2
 70
0
 10
1145.759971
 20
1218.019970
 30
0.0
 10
1161.359971
 20
1199.419970
 30
0.0
  0
LWPOLYLINE
  5
22f
100
AcDbEntity
  8
Body_Frame_3
 62
7
100
AcDbPolyline
 90
2
 70
0
 10
1163.639971
 20
1196.659970
 30
0.0
 10
1165.979971
 20
1193.899970
 30
0.0
  0
LWPOLYLINE
  5
230
100
AcDbEntity
  8
Body_Frame_3
 62
7
100
AcDbPolyline
 90
2
 70
0
 10
1168.259971
 20
1191.199970
 30
0.0
 10
1196.039970
 20
1158.079971
 30
0.0
  0
LWPOLYLINE
  5
231
100
AcDbEntity
  8
Body_Frame_3
 62
7
100
AcDbPolyline
 90
2
 70
0
 10
1198.379970
 20
1155.319971
 30
0.0
 10
1200.659970
 20
1152.559971
 30
0.0
  0
LWPOLYLINE
  5
232
100
AcDbEntity
  8
Body_Frame_3
 62
7
100
AcDbPolyline
 90
2
 70
0
 10
1202.999970
 20
1149.799971
 30
0.0
 10
1230.779969
 20
1116.679972
 30
0.0
  0
LWPOLYLINE
  5
233
100
AcDbEntity
  8
Body_Frame_3
 62
7
100
AcDbPolyline
 90
2
 70
0
 10
1233.059969
 20
1113.979972
 30
0.0
 10
1235.399969
 20
1111.219972
 30
0.0
  0
LWPOLYLINE
  5
234
100
AcDbEntity
  8
Body_Frame_3
 62
7
100
AcDbPolyline
 90
2
 70
0
 10
1237.679969
 20
1108.459972
 30
0.0
 10
1253.339969
 20
1089.799973
 30
0.0
  0
LWPOLYLINE
  5
235
100
AcDbEntity
  8
Body_Frame_3
 62
7
100
AcDbPolyline
 90
2
 70
0
 10
1098.239973
 20
2076.378948
 30
0.0
 10
1195.979970
 20
2009.178950
 30
0.0
  0
LWPOLYLINE
  5
236
100
AcDbEntity
  8
Body_Frame_3
 62
7
100
AcDbPolyline
 90
2
 70
0
 10
1139.399972
 20
2151.259946
 30
0.0
 10
1096.019973
 20
2088.198948
 30
0.0
  0
SPLINE
  5
237
100
AcDbEntity
  8
Body_Frame_3
 62
7
100
AcDbSpline
 70
8
 71
3
 72
8
 73
4
 74
0
 40
0
 40
0
 40
0
 40
0
 40
1
 40
1
 40
1
 40
1
 10
1098.239973
 20
2076.378948
 30
0.0
 10
1094.357973
 20
2079.043948
 30
0.0
 10
1093.416973
 20
2084.304948
 30
0.0
 10
1096.019973
 20
2088.198948
 30
0.0
  0
SPLINE
  5
238
100
AcDbEntity
  8
Body_Frame_3
 62
7
100
AcDbSpline
 70
8
 71
3
 72
8
 73
4
 74
0
 40
0
 40
0
 40
0
 40
0
 40
1
 40
1
 40
1
 40
1
 10
1207.799970
 20
2011.398950
 30
0.0
 10
1204.998970
 20
2007.481950
 30
0.0
 10
1199.993970
 20
2006.554950
 30
0.0
 10
1195.979970
 20
2009.178950
 30
0.0
  0
SPLINE
  5
239
100
AcDbEntity
  8
Body_Frame_3
 62
7
100
AcDbSpline
 70
8
 71
3
 72
8
 73
4
 74
0
 40
0
 40
0
 40
0
 40
0
 40
1
 40
1
 40
1
 40
1
 10
1251.179969
 20
2074.458948
 30
0.0
 10
1216.661970
 20
2103.883947
 30
0.0
 10
1179.282971
 20
2129.648947
 30
0.0
 10
1139.399972
 20
2151.259946
 30
0.0
  0
LWPOLYLINE
  5
23a
100
AcDbEntity
  8
Body_Frame_3
 62
7
100
AcDbPolyline
 90
2
 70
0
 10
1251.179969
 20
2074.458948
 30
0.0
 10
1207.799970
 20
2011.398950
 30
0.0
  0
LWPOLYLINE
  5
23b
100
AcDbEntity
  8
Body_Frame_3
 62
7
100
AcDbPolyline
 90
5
 70
0
 10
1390.499965
 20
1848.739954
 30
0.0
 10
1391.519965
 20
1848.619954
 30
0.0
 10
1392.599965
 20
1848.679954
 30
0.0
 10
1393.559965
 20
1849.099954
 30
0.0
 10
1393.919965
 20
1849.399954
 30
0.0
  0
LWPOLYLINE
  5
23c
100
AcDbEntity
  8
Body_Frame_3
 62
7
100
AcDbPolyline
 90
5
 70
0
 10
1395.179965
 20
1850.659954
 30
0.0
 10
1395.599965
 20
1851.439954
 30
0.0
 10
1395.839965
 20
1852.458954
 30
0.0
 10
1395.779965
 20
1853.539954
 30
0.0
 10
1395.599965
 20
1854.079954
 30
0.0
  0
LWPOLYLINE
  5
23d
100
AcDbEntity
  8
Body_Frame_3
 62
7
100
AcDbPolyline
 90
5
 70
0
 10
1394.759965
 20
1855.639954
 30
0.0
 10
1394.219965
 20
1856.179954
 30
0.0
 10
1393.319965
 20
1856.718954
 30
0.0
 10
1392.299965
 20
1857.019954
 30
0.0
 10
1391.579965
 20
1857.079954
 30
0.0
  0
LWPOLYLINE
  5
23e
100
AcDbEntity
  8
Body_Frame_3
 62
7
100
AcDbPolyline
 90
5
 70
0
 10
1389.839965
 20
1856.718954
 30
0.0
 10
1389.239965
 20
1856.359954
 30
0.0
 10
1388.459965
 20
1855.699954
 30
0.0
 10
1387.859965
 20
1854.799954
 30
0.0
 10
1387.499965
 20
1854.079954
 30
0.0
  0
LWPOLYLINE
  5
23f
100
AcDbEntity
  8
Body_Frame_3
 62
7
100
AcDbPolyline
 90
2
 70
0
 10
1387.379965
 20
1852.339954
 30
0.0
 10
1387.499965
 20
1851.739954
 30
0.0
  0
LWPOLYLINE
  5
240
100
AcDbEntity
  8
Body_Frame_3
 62
7
100
AcDbPolyline
 90
5
 70
0
 10
267.119993
 20
1848.739954
 30
0.0
 10
268.139993
 20
1848.619954
 30
0.0
 10
269.219993
 20
1848.679954
 30
0.0
 10
270.179993
 20
1849.099954
 30
0.0
 10
270.539993
 20
1849.399954
 30
0.0
  0
LWPOLYLINE
  5
241
100
AcDbEntity
  8
Body_Frame_3
 62
7
100
AcDbPolyline
 90
5
 70
0
 10
271.799993
 20
1850.659954
 30
0.0
 10
272.219993
 20
1851.439954
 30
0.0
 10
272.459993
 20
1852.458954
 30
0.0
 10
272.399993
 20
1853.539954
 30
0.0
 10
272.219993
 20
1854.079954
 30
0.0
  0
LWPOLYLINE
  5
242
100
AcDbEntity
  8
Body_Frame_3
 62
7
100
AcDbPolyline
 90
5
 70
0
 10
271.379993
 20
1855.639954
 30
0.0
 10
270.779993
 20
1856.179954
 30
0.0
 10
269.879993
 20
1856.718954
 30
0.0
 10
268.859993
 20
1857.019954
 30
0.0
 10
268.199993
 20
1857.079954
 30
0.0
  0
LWPOLYLINE
  5
243
100
AcDbEntity
  8
Body_Frame_3
 62
7
100
AcDbPolyline
 90
5
 70
0
 10
266.459993
 20
1856.718954
 30
0.0
 10
265.859993
 20
1856.359954
 30
0.0
 10
265.019993
 20
1855.699954
 30
0.0
 10
264.419993
 20
1854.799954
 30
0.0
 10
264.119993
 20
1854.139954
 30
0.0
  0
LWPOLYLINE
  5
244
100
AcDbEntity
  8
Body_Frame_3
 62
7
100
AcDbPolyline
 90
2
 70
0
 10
263.939993
 20
1852.339954
 30
0.0
 10
264.059993
 20
1851.739954
 30
0.0
  0
LWPOLYLINE
  5
245
100
AcDbEntity
  8
Body_Frame_3
 62
7
100
AcDbPolyline
 90
2
 70
0
 10
829.859979
 20
1581.199960
 30
0.0
 10
829.859979
 20
1588.339960
 30
0.0
  0
LWPOLYLINE
  5
246
100
AcDbEntity
  8
Body_Frame_3
 62
7
100
AcDbPolyline
 90
2
 70
0
 10
829.859979
 20
1581.199960
 30
0.0
 10
822.779979
 20
1581.199960
 30
0.0
  0
LWPOLYLINE
  5
247
100
AcDbEntity
  8
Body_Frame_3
 62
7
100
AcDbPolyline
 90
2
 70
0
 10
829.859979
 20
1581.199960
 30
0.0
 10
829.859979
 20
1574.119961
 30
0.0
  0
LWPOLYLINE
  5
248
100
AcDbEntity
  8
Body_Frame_3
 62
7
100
AcDbPolyline
 90
2
 70
0
 10
829.859979
 20
1581.199960
 30
0.0
 10
836.939979
 20
1581.199960
 30
0.0
  0
LWPOLYLINE
  5
249
100
AcDbEntity
  8
Body_Frame_3
 62
7
100
AcDbPolyline
 90
2
 70
0
 10
829.859979
 20
1595.419960
 30
0.0
 10
829.859979
 20
1640.839959
 30
0.0
  0
LWPOLYLINE
  5
24a
100
AcDbEntity
  8
Body_Frame_3
 62
7
100
AcDbPolyline
 90
2
 70
0
 10
829.859979
 20
1644.439959
 30
0.0
 10
829.859979
 20
1648.039959
 30
0.0
  0
LWPOLYLINE
  5
24b
100
AcDbEntity
  8
Body_Frame_3
 62
7
100
AcDbPolyline
 90
2
 70
0
 10
829.859979
 20
1651.639959
 30
0.0
 10
829.859979
 20
1694.839958
 30
0.0
  0
LWPOLYLINE
  5
24c
100
AcDbEntity
  8
Body_Frame_3
 62
7
100
AcDbPolyline
 90
2
 70
0
 10
829.859979
 20
1698.439958
 30
0.0
 10
829.859979
 20
1702.039957
 30
0.0
  0
LWPOLYLINE
  5
24d
100
AcDbEntity
  8
Body_Frame_3
 62
7
100
AcDbPolyline
 90
2
 70
0
 10
829.859979
 20
1705.639957
 30
0.0
 10
829.859979
 20
1748.839956
 30
0.0
  0
LWPOLYLINE
  5
24e
100
AcDbEntity
  8
Body_Frame_3
 62
7
100
AcDbPolyline
 90
2
 70
0
 10
829.859979
 20
1752.439956
 30
0.0
 10
829.859979
 20
1756.039956
 30
0.0
  0
LWPOLYLINE
  5
24f
100
AcDbEntity
  8
Body_Frame_3
 62
7
100
AcDbPolyline
 90
2
 70
0
 10
829.859979
 20
1759.639956
 30
0.0
 10
829.859979
 20
1802.839955
 30
0.0
  0
LWPOLYLINE
  5
250
100
AcDbEntity
  8
Body_Frame_3
 62
7
100
AcDbPolyline
 90
2
 70
0
 10
829.859979
 20
1806.439955
 30
0.0
 10
829.859979
 20
1810.039955
 30
0.0
  0
LWPOLYLINE
  5
251
100
AcDbEntity
  8
Body_Frame_3
 62
7
100
AcDbPolyline
 90
2
 70
0
 10
829.859979
 20
1813.639955
 30
0.0
 10
829.859979
 20
1856.839954
 30
0.0
  0
LWPOLYLINE
  5
252
100
AcDbEntity
  8
Body_Frame_3
 62
7
100
AcDbPolyline
 90
2
 70
0
 10
829.859979
 20
1860.439953
 30
0.0
 10
829.859979
 20
1864.039953
 30
0.0
  0
LWPOLYLINE
  5
253
100
AcDbEntity
  8
Body_Frame_3
 62
7
100
AcDbPolyline
 90
2
 70
0
 10
829.859979
 20
1867.639953
 30
0.0
 10
829.859979
 20
1910.838952
 30
0.0
  0
LWPOLYLINE
  5
254
100
AcDbEntity
  8
Body_Frame_3
 62
7
100
AcDbPolyline
 90
2
 70
0
 10
829.859979
 20
1914.438952
 30
0.0
 10
829.859979
 20
1918.039952
 30
0.0
  0
LWPOLYLINE
  5
255
100
AcDbEntity
  8
Body_Frame_3
 62
7
100
AcDbPolyline
 90
2
 70
0
 10
829.859979
 20
1921.639952
 30
0.0
 10
829.859979
 20
1964.838951
 30
0.0
  0
LWPOLYLINE
  5
256
100
AcDbEntity
  8
Body_Frame_3
 62
7
100
AcDbPolyline
 90
2
 70
0
 10
829.859979
 20
1968.438951
 30
0.0
 10
829.859979
 20
1972.039951
 30
0.0
  0
LWPOLYLINE
  5
257
100
AcDbEntity
  8
Body_Frame_3
 62
7
100
AcDbPolyline
 90
2
 70
0
 10
829.859979
 20
1975.639951
 30
0.0
 10
829.859979
 20
2018.838950
 30
0.0
  0
LWPOLYLINE
  5
258
100
AcDbEntity
  8
Body_Frame_3
 62
7
100
AcDbPolyline
 90
2
 70
0
 10
829.859979
 20
2022.438949
 30
0.0
 10
829.859979
 20
2026.039949
 30
0.0
  0
LWPOLYLINE
  5
259
100
AcDbEntity
  8
Body_Frame_3
 62
7
100
AcDbPolyline
 90
2
 70
0
 10
829.859979
 20
2029.639949
 30
0.0
 10
829.859979
 20
2072.838948
 30
0.0
  0
LWPOLYLINE
  5
25a
100
AcDbEntity
  8
Body_Frame_3
 62
7
100
AcDbPolyline
 90
2
 70
0
 10
829.859979
 20
2076.438948
 30
0.0
 10
829.859979
 20
2080.039948
 30
0.0
  0
LWPOLYLINE
  5
25b
100
AcDbEntity
  8
Body_Frame_3
 62
7
100
AcDbPolyline
 90
2
 70
0
 10
829.859979
 20
2083.639948
 30
0.0
 10
829.859979
 20
2126.839947
 30
0.0
  0
LWPOLYLINE
  5
25c
100
AcDbEntity
  8
Body_Frame_3
 62
7
100
AcDbPolyline
 90
2
 70
0
 10
829.859979
 20
2130.438947
 30
0.0
 10
829.859979
 20
2134.039947
 30
0.0
  0
LWPOLYLINE
  5
25d
100
AcDbEntity
  8
Body_Frame_3
 62
7
100
AcDbPolyline
 90
2
 70
0
 10
829.859979
 20
2137.639947
 30
0.0
 10
829.859979
 20
2180.839945
 30
0.0
  0
LWPOLYLINE
  5
25e
100
AcDbEntity
  8
Body_Frame_3
 62
7
100
AcDbPolyline
 90
2
 70
0
 10
829.859979
 20
2184.438945
 30
0.0
 10
829.859979
 20
2188.039945
 30
0.0
  0
LWPOLYLINE
  5
25f
100
AcDbEntity
  8
Body_Frame_3
 62
7
100
AcDbPolyline
 90
3
 70
0
 10
829.859979
 20
2191.639945
 30
0.0
 10
829.859979
 20
2234.838944
 30
0.0
 10
829.859979
 20
2236.999944
 30
0.0
  0
LWPOLYLINE
  5
260
100
AcDbEntity
  8
Body_Frame_3
 62
7
100
AcDbPolyline
 90
2
 70
0
 10
815.699980
 20
1581.199960
 30
0.0
 10
770.279981
 20
1581.199960
 30
0.0
  0
LWPOLYLINE
  5
261
100
AcDbEntity
  8
Body_Frame_3
 62
7
100
AcDbPolyline
 90
2
 70
0
 10
766.679981
 20
1581.199960
 30
0.0
 10
763.079981
 20
1581.199960
 30
0.0
  0
LWPOLYLINE
  5
262
100
AcDbEntity
  8
Body_Frame_3
 62
7
100
AcDbPolyline
 90
2
 70
0
 10
759.479981
 20
1581.199960
 30
0.0
 10
716.279982
 20
1581.199960
 30
0.0
  0
LWPOLYLINE
  5
263
100
AcDbEntity
  8
Body_Frame_3
 62
7
100
AcDbPolyline
 90
2
 70
0
 10
712.679982
 20
1581.199960
 30
0.0
 10
709.079982
 20
1581.199960
 30
0.0
  0
LWPOLYLINE
  5
264
100
AcDbEntity
  8
Body_Frame_3
 62
7
100
AcDbPolyline
 90
2
 70
0
 10
705.479982
 20
1581.199960
 30
0.0
 10
662.279983
 20
1581.199960
 30
0.0
  0
LWPOLYLINE
  5
265
100
AcDbEntity
  8
Body_Frame_3
 62
7
100
AcDbPolyline
 90
2
 70
0
 10
658.679984
 20
1581.199960
 30
0.0
 10
655.079984
 20
1581.199960
 30
0.0
  0
LWPOLYLINE
  5
266
100
AcDbEntity
  8
Body_Frame_3
 62
7
100
AcDbPolyline
 90
2
 70
0
 10
651.479984
 20
1581.199960
 30
0.0
 10
608.279985
 20
1581.199960
 30
0.0
  0
LWPOLYLINE
  5
267
100
AcDbEntity
  8
Body_Frame_3
 62
7
100
AcDbPolyline
 90
2
 70
0
 10
604.679985
 20
1581.199960
 30
0.0
 10
601.079985
 20
1581.199960
 30
0.0
  0
LWPOLYLINE
  5
268
100
AcDbEntity
  8
Body_Frame_3
 62
7
100
AcDbPolyline
 90
2
 70
0
 10
597.479985
 20
1581.199960
 30
0.0
 10
554.279986
 20
1581.199960
 30
0.0
  0
LWPOLYLINE
  5
269
100
AcDbEntity
  8
Body_Frame_3
 62
7
100
AcDbPolyline
 90
2
 70
0
 10
550.679986
 20
1581.199960
 30
0.0
 10
547.079986
 20
1581.199960
 30
0.0
  0
LWPOLYLINE
  5
26a
100
AcDbEntity
  8
Body_Frame_3
 62
7
100
AcDbPolyline
 90
2
 70
0
 10
543.479986
 20
1581.199960
 30
0.0
 10
500.279987
 20
1581.199960
 30
0.0
  0
LWPOLYLINE
  5
26b
100
AcDbEntity
  8
Body_Frame_3
 62
7
100
AcDbPolyline
 90
2
 70
0
 10
496.679988
 20
1581.199960
 30
0.0
 10
493.079988
 20
1581.199960
 30
0.0
  0
LWPOLYLINE
  5
26c
100
AcDbEntity
  8
Body_Frame_3
 62
7
100
AcDbPolyline
 90
2
 70
0
 10
489.479988
 20
1581.199960
 30
0.0
 10
446.279989
 20
1581.199960
 30
0.0
  0
LWPOLYLINE
  5
26d
100
AcDbEntity
  8
Body_Frame_3
 62
7
100
AcDbPolyline
 90
2
 70
0
 10
442.679989
 20
1581.199960
 30
0.0
 10
439.079989
 20
1581.199960
 30
0.0
  0
LWPOLYLINE
  5
26e
100
AcDbEntity
  8
Body_Frame_3
 62
7
100
AcDbPolyline
 90
2
 70
0
 10
435.479989
 20
1581.199960
 30
0.0
 10
392.279990
 20
1581.199960
 30
0.0
  0
LWPOLYLINE
  5
26f
100
AcDbEntity
  8
Body_Frame_3
 62
7
100
AcDbPolyline
 90
2
 70
0
 10
388.679990
 20
1581.199960
 30
0.0
 10
385.079990
 20
1581.199960
 30
0.0
  0
LWPOLYLINE
  5
270
100
AcDbEntity
  8
Body_Frame_3
 62
7
100
AcDbPolyline
 90
2
 70
0
 10
381.479990
 20
1581.199960
 30
0.0
 10
338.279992
 20
1581.199960
 30
0.0
  0
LWPOLYLINE
  5
271
100
AcDbEntity
  8
Body_Frame_3
 62
7
100
AcDbPolyline
 90
2
 70
0
 10
334.679992
 20
1581.199960
 30
0.0
 10
331.079992
 20
1581.199960
 30
0.0
  0
LWPOLYLINE
  5
272
100
AcDbEntity
  8
Body_Frame_3
 62
7
100
AcDbPolyline
 90
2
 70
0
 10
327.479992
 20
1581.199960
 30
0.0
 10
284.279993
 20
1581.199960
 30
0.0
  0
LWPOLYLINE
  5
273
100
AcDbEntity
  8
Body_Frame_3
 62
7
100
AcDbPolyline
 90
2
 70
0
 10
280.679993
 20
1581.199960
 30
0.0
 10
277.079993
 20
1581.199960
 30
0.0
  0
LWPOLYLINE
  5
274
100
AcDbEntity
  8
Body_Frame_3
 62
7
100
AcDbPolyline
 90
2
 70
0
 10
273.479993
 20
1581.199960
 30
0.0
 10
230.279994
 20
1581.199960
 30
0.0
  0
LWPOLYLINE
  5
275
100
AcDbEntity
  8
Body_Frame_3
 62
7
100
AcDbPolyline
 90
2
 70
0
 10
226.679994
 20
1581.199960
 30
0.0
 10
223.079994
 20
1581.199960
 30
0.0
  0
LWPOLYLINE
  5
276
100
AcDbEntity
  8
Body_Frame_3
 62
7
100
AcDbPolyline
 90
3
 70
0
 10
219.479995
 20
1581.199960
 30
0.0
 10
176.279996
 20
1581.199960
 30
0.0
 10
174.119996
 20
1581.199960
 30
0.0
  0
LWPOLYLINE
  5
277
100
AcDbEntity
  8
Body_Frame_3
 62
7
100
AcDbPolyline
 90
2
 70
0
 10
829.859979
 20
1567.039961
 30
0.0
 10
829.859979
 20
1521.679962
 30
0.0
  0
LWPOLYLINE
  5
278
100
AcDbEntity
  8
Body_Frame_3
 62
7
100
AcDbPolyline
 90
2
 70
0
 10
829.859979
 20
1518.079962
 30
0.0
 10
829.859979
 20
1514.478962
 30
0.0
  0
LWPOLYLINE
  5
279
100
AcDbEntity
  8
Body_Frame_3
 62
7
100
AcDbPolyline
 90
2
 70
0
 10
829.859979
 20
1510.879962
 30
0.0
 10
829.859979
 20
1467.679963
 30
0.0
  0
LWPOLYLINE
  5
27a
100
AcDbEntity
  8
Body_Frame_3
 62
7
100
AcDbPolyline
 90
2
 70
0
 10
829.859979
 20
1464.079963
 30
0.0
 10
829.859979
 20
1460.478963
 30
0.0
  0
LWPOLYLINE
  5
27b
100
AcDbEntity
  8
Body_Frame_3
 62
7
100
AcDbPolyline
 90
2
 70
0
 10
829.859979
 20
1456.879964
 30
0.0
 10
829.859979
 20
1413.679965
 30
0.0
  0
LWPOLYLINE
  5
27c
100
AcDbEntity
  8
Body_Frame_3
 62
7
100
AcDbPolyline
 90
2
 70
0
 10
829.859979
 20
1410.079965
 30
0.0
 10
829.859979
 20
1406.478965
 30
0.0
  0
LWPOLYLINE
  5
27d
100
AcDbEntity
  8
Body_Frame_3
 62
7
100
AcDbPolyline
 90
2
 70
0
 10
829.859979
 20
1402.879965
 30
0.0
 10
829.859979
 20
1359.679966
 30
0.0
  0
LWPOLYLINE
  5
27e
100
AcDbEntity
  8
Body_Frame_3
 62
7
100
AcDbPolyline
 90
2
 70
0
 10
829.859979
 20
1356.079966
 30
0.0
 10
829.859979
 20
1352.479966
 30
0.0
  0
LWPOLYLINE
  5
27f
100
AcDbEntity
  8
Body_Frame_3
 62
7
100
AcDbPolyline
 90
2
 70
0
 10
829.859979
 20
1348.879966
 30
0.0
 10
829.859979
 20
1305.679967
 30
0.0
  0
LWPOLYLINE
  5
280
100
AcDbEntity
  8
Body_Frame_3
 62
7
100
AcDbPolyline
 90
2
 70
0
 10
829.859979
 20
1302.079967
 30
0.0
 10
829.859979
 20
1298.479968
 30
0.0
  0
LWPOLYLINE
  5
281
100
AcDbEntity
  8
Body_Frame_3
 62
7
100
AcDbPolyline
 90
2
 70
0
 10
829.859979
 20
1294.879968
 30
0.0
 10
829.859979
 20
1251.679969
 30
0.0
  0
LWPOLYLINE
  5
282
100
AcDbEntity
  8
Body_Frame_3
 62
7
100
AcDbPolyline
 90
2
 70
0
 10
829.859979
 20
1248.079969
 30
0.0
 10
829.859979
 20
1244.479969
 30
0.0
  0
LWPOLYLINE
  5
283
100
AcDbEntity
  8
Body_Frame_3
 62
7
100
AcDbPolyline
 90
2
 70
0
 10
829.859979
 20
1240.879969
 30
0.0
 10
829.859979
 20
1197.679970
 30
0.0
  0
LWPOLYLINE
  5
284
100
AcDbEntity
  8
Body_Frame_3
 62
7
100
AcDbPolyline
 90
2
 70
0
 10
829.859979
 20
1194.079970
 30
0.0
 10
829.859979
 20
1190.479970
 30
0.0
  0
LWPOLYLINE
  5
285
100
AcDbEntity
  8
Body_Frame_3
 62
7
100
AcDbPolyline
 90
2
 70
0
 10
829.859979
 20
1186.879970
 30
0.0
 10
829.859979
 20
1143.679971
 30
0.0
  0
LWPOLYLINE
  5
286
100
AcDbEntity
  8
Body_Frame_3
 62
7
100
AcDbPolyline
 90
2
 70
0
 10
829.859979
 20
1140.079971
 30
0.0
 10
829.859979
 20
1136.479972
 30
0.0
  0
LWPOLYLINE
  5
287
100
AcDbEntity
  8
Body_Frame_3
 62
7
100
AcDbPolyline
 90
2
 70
0
 10
829.859979
 20
1132.879972
 30
0.0
 10
829.859979
 20
1089.679973
 30
0.0
  0
LWPOLYLINE
  5
288
100
AcDbEntity
  8
Body_Frame_3
 62
7
100
AcDbPolyline
 90
2
 70
0
 10
829.859979
 20
1086.079973
 30
0.0
 10
829.859979
 20
1082.479973
 30
0.0
  0
LWPOLYLINE
  5
289
100
AcDbEntity
  8
Body_Frame_3
 62
7
100
AcDbPolyline
 90
2
 70
0
 10
829.859979
 20
1078.879973
 30
0.0
 10
829.859979
 20
1035.679974
 30
0.0
  0
LWPOLYLINE
  5
28a
100
AcDbEntity
  8
Body_Frame_3
 62
7
100
AcDbPolyline
 90
2
 70
0
 10
829.859979
 20
1032.079974
 30
0.0
 10
829.859979
 20
1028.479974
 30
0.0
  0
LWPOLYLINE
  5
28b
100
AcDbEntity
  8
Body_Frame_3
 62
7
100
AcDbPolyline
 90
2
 70
0
 10
829.859979
 20
1024.879974
 30
0.0
 10
829.859979
 20
981.679975
 30
0.0
  0
LWPOLYLINE
  5
28c
100
AcDbEntity
  8
Body_Frame_3
 62
7
100
AcDbPolyline
 90
2
 70
0
 10
829.859979
 20
978.079976
 30
0.0
 10
829.859979
 20
974.479976
 30
0.0
  0
LWPOLYLINE
  5
28d
100
AcDbEntity
  8
Body_Frame_3
 62
7
100
AcDbPolyline
 90
3
 70
0
 10
829.859979
 20
970.879976
 30
0.0
 10
829.859979
 20
927.679977
 30
0.0
 10
829.859979
 20
925.459977
 30
0.0
  0
LWPOLYLINE
  5
28e
100
AcDbEntity
  8
Body_Frame_3
 62
7
100
AcDbPolyline
 90
2
 70
0
 10
844.079979
 20
1581.199960
 30
0.0
 10
889.439978
 20
1581.199960
 30
0.0
  0
LWPOLYLINE
  5
28f
100
AcDbEntity
  8
Body_Frame_3
 62
7
100
AcDbPolyline
 90
2
 70
0
 10
893.039978
 20
1581.199960
 30
0.0
 10
896.639978
 20
1581.199960
 30
0.0
  0
LWPOLYLINE
  5
290
100
AcDbEntity
  8
Body_Frame_3
 62
7
100
AcDbPolyline
 90
2
 70
0
 10
900.239977
 20
1581.199960
 30
0.0
 10
943.439976
 20
1581.199960
 30
0.0
  0
LWPOLYLINE
  5
291
100
AcDbEntity
  8
Body_Frame_3
 62
7
100
AcDbPolyline
 90
2
 70
0
 10
947.039976
 20
1581.199960
 30
0.0
 10
950.639976
 20
1581.199960
 30
0.0
  0
LWPOLYLINE
  5
292
100
AcDbEntity
  8
Body_Frame_3
 62
7
100
AcDbPolyline
 90
2
 70
0
 10
954.239976
 20
1581.199960
 30
0.0
 10
997.439975
 20
1581.199960
 30
0.0
  0
LWPOLYLINE
  5
293
100
AcDbEntity
  8
Body_Frame_3
 62
7
100
AcDbPolyline
 90
2
 70
0
 10
1001.039975
 20
1581.199960
 30
0.0
 10
1004.639975
 20
1581.199960
 30
0.0
  0
LWPOLYLINE
  5
294
100
AcDbEntity
  8
Body_Frame_3
 62
7
100
AcDbPolyline
 90
2
 70
0
 10
1008.239975
 20
1581.199960
 30
0.0
 10
1051.439974
 20
1581.199960
 30
0.0
  0
LWPOLYLINE
  5
295
100
AcDbEntity
  8
Body_Frame_3
 62
7
100
AcDbPolyline
 90
2
 70
0
 10
1055.039974
 20
1581.199960
 30
0.0
 10
1058.639974
 20
1581.199960
 30
0.0
  0
LWPOLYLINE
  5
296
100
AcDbEntity
  8
Body_Frame_3
 62
7
100
AcDbPolyline
 90
2
 70
0
 10
1062.239973
 20
1581.199960
 30
0.0
 10
1105.439972
 20
1581.199960
 30
0.0
  0
LWPOLYLINE
  5
297
100
AcDbEntity
  8
Body_Frame_3
 62
7
100
AcDbPolyline
 90
2
 70
0
 10
1109.039972
 20
1581.199960
 30
0.0
 10
1112.639972
 20
1581.199960
 30
0.0
  0
LWPOLYLINE
  5
298
100
AcDbEntity
  8
Body_Frame_3
 62
7
100
AcDbPolyline
 90
2
 70
0
 10
1116.239972
 20
1581.199960
 30
0.0
 10
1159.439971
 20
1581.199960
 30
0.0
  0
LWPOLYLINE
  5
299
100
AcDbEntity
  8
Body_Frame_3
 62
7
100
AcDbPolyline
 90
2
 70
0
 10
1163.039971
 20
1581.199960
 30
0.0
 10
1166.639971
 20
1581.199960
 30
0.0
  0
LWPOLYLINE
  5
29a
100
AcDbEntity
  8
Body_Frame_3
 62
7
100
AcDbPolyline
 90
2
 70
0
 10
1170.239971
 20
1581.199960
 30
0.0
 10
1213.439970
 20
1581.199960
 30
0.0
  0
LWPOLYLINE
  5
29b
100
AcDbEntity
  8
Body_Frame_3
 62
7
100
AcDbPolyline
 90
2
 70
0
 10
1217.039970
 20
1581.199960
 30
0.0
 10
1220.639969
 20
1581.199960
 30
0.0
  0
LWPOLYLINE
  5
29c
100
AcDbEntity
  8
Body_Frame_3
 62
7
100
AcDbPolyline
 90
2
 70
0
 10
1224.239969
 20
1581.199960
 30
0.0
 10
1267.439968
 20
1581.199960
 30
0.0
  0
LWPOLYLINE
  5
29d
100
AcDbEntity
  8
Body_Frame_3
 62
7
100
AcDbPolyline
 90
2
 70
0
 10
1271.039968
 20
1581.199960
 30
0.0
 10
1274.639968
 20
1581.199960
 30
0.0
  0
LWPOLYLINE
  5
29e
100
AcDbEntity
  8
Body_Frame_3
 62
7
100
AcDbPolyline
 90
2
 70
0
 10
1278.239968
 20
1581.199960
 30
0.0
 10
1321.439967
 20
1581.199960
 30
0.0
  0
LWPOLYLINE
  5
29f
100
AcDbEntity
  8
Body_Frame_3
 62
7
100
AcDbPolyline
 90
2
 70
0
 10
1325.039967
 20
1581.199960
 30
0.0
 10
1328.639967
 20
1581.199960
 30
0.0
  0
LWPOLYLINE
  5
2a0
100
AcDbEntity
  8
Body_Frame_3
 62
7
100
AcDbPolyline
 90
2
 70
0
 10
1332.239967
 20
1581.199960
 30
0.0
 10
1375.439966
 20
1581.199960
 30
0.0
  0
LWPOLYLINE
  5
2a1
100
AcDbEntity
  8
Body_Frame_3
 62
7
100
AcDbPolyline
 90
2
 70
0
 10
1379.039966
 20
1581.199960
 30
0.0
 10
1382.639965
 20
1581.199960
 30
0.0
  0
LWPOLYLINE
  5
2a2
100
AcDbEntity
  8
Body_Frame_3
 62
7
100
AcDbPolyline
 90
2
 70
0
 10
1386.239965
 20
1581.199960
 30
0.0
 10
1429.439964
 20
1581.199960
 30
0.0
  0
LWPOLYLINE
  5
2a3
100
AcDbEntity
  8
Body_Frame_3
 62
7
100
AcDbPolyline
 90
2
 70
0
 10
1433.039964
 20
1581.199960
 30
0.0
 10
1436.639964
 20
1581.199960
 30
0.0
  0
LWPOLYLINE
  5
2a4
100
AcDbEntity
  8
Body_Frame_3
 62
7
100
AcDbPolyline
 90
3
 70
0
 10
1440.239964
 20
1581.199960
 30
0.0
 10
1483.439963
 20
1581.199960
 30
0.0
 10
1485.599963
 20
1581.199960
 30
0.0
  0
LWPOLYLINE
  5
2a5
100
AcDbEntity
  8
Body_Frame_3
 62
7
100
AcDbPolyline
 90
2
 70
0
 10
268.199993
 20
1852.819954
 30
0.0
 10
268.199993
 20
1859.958954
 30
0.0
  0
LWPOLYLINE
  5
2a6
100
AcDbEntity
  8
Body_Frame_3
 62
7
100
AcDbPolyline
 90
2
 70
0
 10
268.199993
 20
1852.819954
 30
0.0
 10
261.119993
 20
1852.819954
 30
0.0
  0
LWPOLYLINE
  5
2a7
100
AcDbEntity
  8
Body_Frame_3
 62
7
100
AcDbPolyline
 90
2
 70
0
 10
268.199993
 20
1852.819954
 30
0.0
 10
268.199993
 20
1845.739954
 30
0.0
  0
LWPOLYLINE
  5
2a8
100
AcDbEntity
  8
Body_Frame_3
 62
7
100
AcDbPolyline
 90
2
 70
0
 10
268.199993
 20
1852.819954
 30
0.0
 10
275.279993
 20
1852.819954
 30
0.0
  0
LWPOLYLINE
  5
2a9
100
AcDbEntity
  8
Body_Frame_3
 62
7
100
AcDbPolyline
 90
2
 70
0
 10
268.199993
 20
1859.958954
 30
0.0
 10
268.199993
 20
1863.499953
 30
0.0
  0
LWPOLYLINE
  5
2aa
100
AcDbEntity
  8
Body_Frame_3
 62
7
100
AcDbPolyline
 90
2
 70
0
 10
261.119993
 20
1852.819954
 30
0.0
 10
257.579994
 20
1852.819954
 30
0.0
  0
LWPOLYLINE
  5
2ab
100
AcDbEntity
  8
Body_Frame_3
 62
7
100
AcDbPolyline
 90
2
 70
0
 10
268.199993
 20
1845.739954
 30
0.0
 10
268.199993
 20
1842.199954
 30
0.0
  0
LWPOLYLINE
  5
2ac
100
AcDbEntity
  8
Body_Frame_3
 62
7
100
AcDbPolyline
 90
2
 70
0
 10
275.279993
 20
1852.819954
 30
0.0
 10
278.819993
 20
1852.819954
 30
0.0
  0
LWPOLYLINE
  5
2ad
100
AcDbEntity
  8
Body_Frame_3
 62
7
100
AcDbPolyline
 90
2
 70
0
 10
1391.579965
 20
1852.819954
 30
0.0
 10
1391.579965
 20
1859.958954
 30
0.0
  0
LWPOLYLINE
  5
2ae
100
AcDbEntity
  8
Body_Frame_3
 62
7
100
AcDbPolyline
 90
2
 70
0
 10
1391.579965
 20
1852.819954
 30
0.0
 10
1384.499965
 20
1852.819954
 30
0.0
  0
LWPOLYLINE
  5
2af
100
AcDbEntity
  8
Body_Frame_3
 62
7
100
AcDbPolyline
 90
2
 70
0
 10
1391.579965
 20
1852.819954
 30
0.0
 10
1391.579965
 20
1845.739954
 30
0.0
  0
LWPOLYLINE
  5
2b0
100
AcDbEntity
  8
Body_Frame_3
 62
7
100
AcDbPolyline
 90
2
 70
0
 10
1391.579965
 20
1852.819954
 30
0.0
 10
1398.659965
 20
1852.819954
 30
0.0
  0
LWPOLYLINE
  5
2b1
100
AcDbEntity
  8
Body_Frame_3
 62
7
100
AcDbPolyline
 90
2
 70
0
 10
1391.579965
 20
1859.958954
 30
0.0
 10
1391.579965
 20
1863.499953
 30
0.0
  0
LWPOLYLINE
  5
2b2
100
AcDbEntity
  8
Body_Frame_3
 62
7
100
AcDbPolyline
 90
2
 70
0
 10
1384.499965
 20
1852.819954
 30
0.0
 10
1380.959965
 20
1852.819954
 30
0.0
  0
LWPOLYLINE
  5
2b3
100
AcDbEntity
  8
Body_Frame_3
 62
7
100
AcDbPolyline
 90
2
 70
0
 10
1391.579965
 20
1845.739954
 30
0.0
 10
1391.579965
 20
1842.199954
 30
0.0
  0
LWPOLYLINE
  5
2b4
100
AcDbEntity
  8
Body_Frame_3
 62
7
100
AcDbPolyline
 90
2
 70
0
 10
1398.659965
 20
1852.819954
 30
0.0
 10
1402.199965
 20
1852.819954
 30
0.0
  0
LWPOLYLINE
  5
2b5
100
AcDbEntity
  8
Body_Frame_3
 62
7
100
AcDbPolyline
 90
2
 70
0
 10
1103.039972
 20
2083.398948
 30
0.0
 10
1103.039972
 20
2090.478948
 30
0.0
  0
LWPOLYLINE
  5
2b6
100
AcDbEntity
  8
Body_Frame_3
 62
7
100
AcDbPolyline
 90
2
 70
0
 10
1103.039972
 20
2083.398948
 30
0.0
 10
1095.959973
 20
2083.398948
 30
0.0
  0
LWPOLYLINE
  5
2b7
100
AcDbEntity
  8
Body_Frame_3
 62
7
100
AcDbPolyline
 90
2
 70
0
 10
1103.039972
 20
2083.398948
 30
0.0
 10
1103.039972
 20
2076.319948
 30
0.0
  0
LWPOLYLINE
  5
2b8
100
AcDbEntity
  8
Body_Frame_3
 62
7
100
AcDbPolyline
 90
2
 70
0
 10
1103.039972
 20
2083.398948
 30
0.0
 10
1110.119972
 20
2083.398948
 30
0.0
  0
LWPOLYLINE
  5
2b9
100
AcDbEntity
  8
Body_Frame_3
 62
7
100
AcDbPolyline
 90
2
 70
0
 10
1103.039972
 20
2097.559948
 30
0.0
 10
1103.039972
 20
2098.999948
 30
0.0
  0
LWPOLYLINE
  5
2ba
100
AcDbEntity
  8
Body_Frame_3
 62
7
100
AcDbPolyline
 90
2
 70
0
 10
1088.879973
 20
2083.398948
 30
0.0
 10
1087.439973
 20
2083.398948
 30
0.0
  0
LWPOLYLINE
  5
2bb
100
AcDbEntity
  8
Body_Frame_3
 62
7
100
AcDbPolyline
 90
2
 70
0
 10
1103.039972
 20
2069.178948
 30
0.0
 10
1103.039972
 20
2067.799948
 30
0.0
  0
LWPOLYLINE
  5
2bc
100
AcDbEntity
  8
Body_Frame_3
 62
7
100
AcDbPolyline
 90
2
 70
0
 10
1117.199972
 20
2083.398948
 30
0.0
 10
1118.639972
 20
2083.398948
 30
0.0
  0
LWPOLYLINE
  5
2bd
100
AcDbEntity
  8
Body_Frame_3
 62
7
100
AcDbPolyline
 90
2
 70
0
 10
1200.779970
 20
2016.198950
 30
0.0
 10
1200.779970
 20
2023.279949
 30
0.0
  0
LWPOLYLINE
  5
2be
100
AcDbEntity
  8
Body_Frame_3
 62
7
100
AcDbPolyline
 90
2
 70
0
 10
1200.779970
 20
2016.198950
 30
0.0
 10
1193.699970
 20
2016.198950
 30
0.0
  0
LWPOLYLINE
  5
2bf
100
AcDbEntity
  8
Body_Frame_3
 62
7
100
AcDbPolyline
 90
2
 70
0
 10
1200.779970
 20
2016.198950
 30
0.0
 10
1200.779970
 20
2009.119950
 30
0.0
  0
LWPOLYLINE
  5
2c0
100
AcDbEntity
  8
Body_Frame_3
 62
7
100
AcDbPolyline
 90
2
 70
0
 10
1200.779970
 20
2016.198950
 30
0.0
 10
1207.859970
 20
2016.198950
 30
0.0
  0
LWPOLYLINE
  5
2c1
100
AcDbEntity
  8
Body_Frame_3
 62
7
100
AcDbPolyline
 90
2
 70
0
 10
1200.779970
 20
2030.358949
 30
0.0
 10
1200.779970
 20
2031.799949
 30
0.0
  0
LWPOLYLINE
  5
2c2
100
AcDbEntity
  8
Body_Frame_3
 62
7
100
AcDbPolyline
 90
2
 70
0
 10
1186.619970
 20
2016.198950
 30
0.0
 10
1185.179970
 20
2016.198950
 30
0.0
  0
LWPOLYLINE
  5
2c3
100
AcDbEntity
  8
Body_Frame_3
 62
7
100
AcDbPolyline
 90
2
 70
0
 10
1200.779970
 20
2002.039950
 30
0.0
 10
1200.779970
 20
2000.598950
 30
0.0
  0
LWPOLYLINE
  5
2c4
100
AcDbEntity
  8
Body_Frame_3
 62
7
100
AcDbPolyline
 90
2
 70
0
 10
1214.939970
 20
2016.198950
 30
0.0
 10
1216.379970
 20
2016.198950
 30
0.0
  0
LWPOLYLINE
  5
2c5
100
AcDbEntity
  8
Body_Frame_3
 62
7
100
AcDbPolyline
 90
18
 70
1
 10
1130.159972
 20
2086.099948
 30
0.0
 10
1129.979972
 20
2085.978948
 30
0.0
 10
1129.859972
 20
2085.739948
 30
0.0
 10
1129.859972
 20
2085.559948
 30
0.0
 10
1129.919972
 20
2085.319948
 30
0.0
 10
1130.039972
 20
2085.139948
 30
0.0
 10
1130.279972
 20
2085.019948
 30
0.0
 10
1130.519972
 20
2085.019948
 30
0.0
 10
1130.699972
 20
2085.079948
 30
0.0
 10
1130.879972
 20
2085.259948
 30
0.0
 10
1130.999972
 20
2085.438948
 30
0.0
 10
1130.999972
 20
2085.678948
 30
0.0
 10
1130.939972
 20
2085.858948
 30
0.0
 10
1130.819972
 20
2086.039948
 30
0.0
 10
1130.579972
 20
2086.158948
 30
0.0
 10
1130.339972
 20
2086.158948
 30
0.0
 10
1130.159972
 20
2086.099948
 30
0.0
 10
1130.459972
 20
2085.619948
 30
0.0
  0
LWPOLYLINE
  5
2c6
100
AcDbEntity
  8
Body_Frame_3
 62
7
100
AcDbPolyline
 90
2
 70
0
 10
1134.419972
 20
2078.299948
 30
0.0
 10
1130.459972
 20
2085.619948
 30
0.0
  0
LWPOLYLINE
  5
2c7
100
AcDbEntity
  8
Body_Frame_3
 62
7
100
AcDbPolyline
 90
2
 70
0
 10
747.479981
 20
728.899982
 30
0.0
 10
747.479981
 20
774.499981
 30
0.0
  0
LWPOLYLINE
  5
2c8
100
AcDbEntity
  8
Body_Frame_3
 62
7
100
AcDbPolyline
 90
2
 70
0
 10
747.479981
 20
778.099981
 30
0.0
 10
747.479981
 20
781.699980
 30
0.0
  0
LWPOLYLINE
  5
2c9
100
AcDbEntity
  8
Body_Frame_3
 62
7
100
AcDbPolyline
 90
2
 70
0
 10
747.479981
 20
785.299980
 30
0.0
 10
747.479981
 20
828.499979
 30
0.0
  0
LWPOLYLINE
  5
2ca
100
AcDbEntity
  8
Body_Frame_3
 62
7
100
AcDbPolyline
 90
2
 70
0
 10
747.479981
 20
832.099979
 30
0.0
 10
747.479981
 20
835.699979
 30
0.0
  0
LWPOLYLINE
  5
2cb
100
AcDbEntity
  8
Body_Frame_3
 62
7
100
AcDbPolyline
 90
3
 70
0
 10
747.479981
 20
839.299979
 30
0.0
 10
747.479981
 20
882.499978
 30
0.0
 10
747.479981
 20
884.839978
 30
0.0
  0
LWPOLYLINE
  5
2cc
100
AcDbEntity
  8
Body_Frame_3
 62
7
100
AcDbPolyline
 90
2
 70
0
 10
738.959982
 20
728.899982
 30
0.0
 10
738.959982
 20
774.499981
 30
0.0
  0
LWPOLYLINE
  5
2cd
100
AcDbEntity
  8
Body_Frame_3
 62
7
100
AcDbPolyline
 90
2
 70
0
 10
738.959982
 20
778.099981
 30
0.0
 10
738.959982
 20
781.699980
 30
0.0
  0
LWPOLYLINE
  5
2ce
100
AcDbEntity
  8
Body_Frame_3
 62
7
100
AcDbPolyline
 90
2
 70
0
 10
738.959982
 20
785.299980
 30
0.0
 10
738.959982
 20
828.499979
 30
0.0
  0
LWPOLYLINE
  5
2cf
100
AcDbEntity
  8
Body_Frame_3
 62
7
100
AcDbPolyline
 90
2
 70
0
 10
738.959982
 20
832.099979
 30
0.0
 10
738.959982
 20
835.699979
 30
0.0
  0
LWPOLYLINE
  5
2d0
100
AcDbEntity
  8
Body_Frame_3
 62
7
100
AcDbPolyline
 90
3
 70
0
 10
738.959982
 20
839.299979
 30
0.0
 10
738.959982
 20
882.499978
 30
0.0
 10
738.959982
 20
884.839978
 30
0.0
  0
LWPOLYLINE
  5
2d1
100
AcDbEntity
  8
Body_Frame_3
 62
7
100
AcDbPolyline
 90
2
 70
0
 10
659.579984
 20
728.899982
 30
0.0
 10
659.579984
 20
774.499981
 30
0.0
  0
LWPOLYLINE
  5
2d2
100
AcDbEntity
  8
Body_Frame_3
 62
7
100
AcDbPolyline
 90
2
 70
0
 10
659.579984
 20
778.099981
 30
0.0
 10
659.579984
 20
781.699980
 30
0.0
  0
LWPOLYLINE
  5
2d3
100
AcDbEntity
  8
Body_Frame_3
 62
7
100
AcDbPolyline
 90
2
 70
0
 10
659.579984
 20
785.299980
 30
0.0
 10
659.579984
 20
828.499979
 30
0.0
  0
LWPOLYLINE
  5
2d4
100
AcDbEntity
  8
Body_Frame_3
 62
7
100
AcDbPolyline
 90
2
 70
0
 10
659.579984
 20
832.099979
 30
0.0
 10
659.579984
 20
835.699979
 30
0.0
  0
LWPOLYLINE
  5
2d5
100
AcDbEntity
  8
Body_Frame_3
 62
7
100
AcDbPolyline
 90
3
 70
0
 10
659.579984
 20
839.299979
 30
0.0
 10
659.579984
 20
882.499978
 30
0.0
 10
659.579984
 20
884.839978
 30
0.0
  0
LWPOLYLINE
  5
2d6
100
AcDbEntity
  8
Body_Frame_3
 62
7
100
AcDbPolyline
 90
2
 70
0
 10
668.099983
 20
728.899982
 30
0.0
 10
668.099983
 20
774.499981
 30
0.0
  0
LWPOLYLINE
  5
2d7
100
AcDbEntity
  8
Body_Frame_3
 62
7
100
AcDbPolyline
 90
2
 70
0
 10
668.099983
 20
778.099981
 30
0.0
 10
668.099983
 20
781.699980
 30
0.0
  0
LWPOLYLINE
  5
2d8
100
AcDbEntity
  8
Body_Frame_3
 62
7
100
AcDbPolyline
 90
2
 70
0
 10
668.099983
 20
785.299980
 30
0.0
 10
668.099983
 20
828.499979
 30
0.0
  0
LWPOLYLINE
  5
2d9
100
AcDbEntity
  8
Body_Frame_3
 62
7
100
AcDbPolyline
 90
2
 70
0
 10
668.099983
 20
832.099979
 30
0.0
 10
668.099983
 20
835.699979
 30
0.0
  0
LWPOLYLINE
  5
2da
100
AcDbEntity
  8
Body_Frame_3
 62
7
100
AcDbPolyline
 90
3
 70
0
 10
668.099983
 20
839.299979
 30
0.0
 10
668.099983
 20
882.499978
 30
0.0
 10
668.099983
 20
884.839978
 30
0.0
  0
LWPOLYLINE
  5
2db
100
AcDbEntity
  8
Body_Frame_3
 62
7
100
AcDbPolyline
 90
2
 70
0
 10
571.679986
 20
728.899982
 30
0.0
 10
571.679986
 20
774.499981
 30
0.0
  0
LWPOLYLINE
  5
2dc
100
AcDbEntity
  8
Body_Frame_3
 62
7
100
AcDbPolyline
 90
2
 70
0
 10
571.679986
 20
778.099981
 30
0.0
 10
571.679986
 20
781.699980
 30
0.0
  0
LWPOLYLINE
  5
2dd
100
AcDbEntity
  8
Body_Frame_3
 62
7
100
AcDbPolyline
 90
2
 70
0
 10
571.679986
 20
785.299980
 30
0.0
 10
571.679986
 20
828.499979
 30
0.0
  0
LWPOLYLINE
  5
2de
100
AcDbEntity
  8
Body_Frame_3
 62
7
100
AcDbPolyline
 90
2
 70
0
 10
571.679986
 20
832.099979
 30
0.0
 10
571.679986
 20
835.699979
 30
0.0
  0
LWPOLYLINE
  5
2df
100
AcDbEntity
  8
Body_Frame_3
 62
7
100
AcDbPolyline
 90
3
 70
0
 10
571.679986
 20
839.299979
 30
0.0
 10
571.679986
 20
882.499978
 30
0.0
 10
571.679986
 20
884.839978
 30
0.0
  0
LWPOLYLINE
  5
2e0
100
AcDbEntity
  8
Body_Frame_3
 62
7
100
AcDbPolyline
 90
2
 70
0
 10
580.199985
 20
728.899982
 30
0.0
 10
580.199985
 20
774.499981
 30
0.0
  0
LWPOLYLINE
  5
2e1
100
AcDbEntity
  8
Body_Frame_3
 62
7
100
AcDbPolyline
 90
2
 70
0
 10
580.199985
 20
778.099981
 30
0.0
 10
580.199985
 20
781.699980
 30
0.0
  0
LWPOLYLINE
  5
2e2
100
AcDbEntity
  8
Body_Frame_3
 62
7
100
AcDbPolyline
 90
2
 70
0
 10
580.199985
 20
785.299980
 30
0.0
 10
580.199985
 20
828.499979
 30
0.0
  0
LWPOLYLINE
  5
2e3
100
AcDbEntity
  8
Body_Frame_3
 62
7
100
AcDbPolyline
 90
2
 70
0
 10
580.199985
 20
832.099979
 30
0.0
 10
580.199985
 20
835.699979
 30
0.0
  0
LWPOLYLINE
  5
2e4
100
AcDbEntity
  8
Body_Frame_3
 62
7
100
AcDbPolyline
 90
3
 70
0
 10
580.199985
 20
839.299979
 30
0.0
 10
580.199985
 20
882.499978
 30
0.0
 10
580.199985
 20
884.839978
 30
0.0
  0
LWPOLYLINE
  5
2e5
100
AcDbEntity
  8
Body_Frame_3
 62
7
100
AcDbPolyline
 90
2
 70
0
 10
219.479995
 20
884.839978
 30
0.0
 10
219.479995
 20
857.719979
 30
0.0
  0
LWPOLYLINE
  5
2e6
100
AcDbEntity
  8
Body_Frame_3
 62
7
100
AcDbPolyline
 90
2
 70
0
 10
219.479995
 20
854.119979
 30
0.0
 10
219.479995
 20
850.519979
 30
0.0
  0
LWPOLYLINE
  5
2e7
100
AcDbEntity
  8
Body_Frame_3
 62
7
100
AcDbPolyline
 90
2
 70
0
 10
219.479995
 20
846.919979
 30
0.0
 10
219.479995
 20
803.719980
 30
0.0
  0
LWPOLYLINE
  5
2e8
100
AcDbEntity
  8
Body_Frame_3
 62
7
100
AcDbPolyline
 90
2
 70
0
 10
219.479995
 20
800.119980
 30
0.0
 10
219.479995
 20
796.519980
 30
0.0
  0
LWPOLYLINE
  5
2e9
100
AcDbEntity
  8
Body_Frame_3
 62
7
100
AcDbPolyline
 90
3
 70
0
 10
219.479995
 20
792.919980
 30
0.0
 10
219.479995
 20
765.799981
 30
0.0
 10
209.579995
 20
765.799981
 30
0.0
  0
LWPOLYLINE
  5
2ea
100
AcDbEntity
  8
Body_Frame_3
 62
7
100
AcDbPolyline
 90
2
 70
0
 10
209.579995
 20
884.839978
 30
0.0
 10
209.579995
 20
857.719979
 30
0.0
  0
LWPOLYLINE
  5
2eb
100
AcDbEntity
  8
Body_Frame_3
 62
7
100
AcDbPolyline
 90
2
 70
0
 10
209.579995
 20
854.119979
 30
0.0
 10
209.579995
 20
850.519979
 30
0.0
  0
LWPOLYLINE
  5
2ec
100
AcDbEntity
  8
Body_Frame_3
 62
7
100
AcDbPolyline
 90
2
 70
0
 10
209.579995
 20
846.919979
 30
0.0
 10
209.579995
 20
803.719980
 30
0.0
  0
LWPOLYLINE
  5
2ed
100
AcDbEntity
  8
Body_Frame_3
 62
7
100
AcDbPolyline
 90
2
 70
0
 10
209.579995
 20
800.119980
 30
0.0
 10
209.579995
 20
796.519980
 30
0.0
  0
LWPOLYLINE
  5
2ee
100
AcDbEntity
  8
Body_Frame_3
 62
7
100
AcDbPolyline
 90
2
 70
0
 10
209.579995
 20
792.919980
 30
0.0
 10
209.579995
 20
765.799981
 30
0.0
  0
LWPOLYLINE
  5
2ef
100
AcDbEntity
  8
Body_Frame_3
 62
7
100
AcDbPolyline
 90
2
 70
0
 10
1107.539972
 20
765.799981
 30
0.0
 10
1107.539972
 20
792.919980
 30
0.0
  0
LWPOLYLINE
  5
2f0
100
AcDbEntity
  8
Body_Frame_3
 62
7
100
AcDbPolyline
 90
2
 70
0
 10
1107.539972
 20
796.519980
 30
0.0
 10
1107.539972
 20
800.119980
 30
0.0
  0
LWPOLYLINE
  5
2f1
100
AcDbEntity
  8
Body_Frame_3
 62
7
100
AcDbPolyline
 90
2
 70
0
 10
1107.539972
 20
803.719980
 30
0.0
 10
1107.539972
 20
846.919979
 30
0.0
  0
LWPOLYLINE
  5
2f2
100
AcDbEntity
  8
Body_Frame_3
 62
7
100
AcDbPolyline
 90
2
 70
0
 10
1107.539972
 20
850.519979
 30
0.0
 10
1107.539972
 20
854.119979
 30
0.0
  0
LWPOLYLINE
  5
2f3
100
AcDbEntity
  8
Body_Frame_3
 62
7
100
AcDbPolyline
 90
2
 70
0
 10
1107.539972
 20
857.719979
 30
0.0
 10
1107.539972
 20
884.839978
 30
0.0
  0
LWPOLYLINE
  5
2f4
100
AcDbEntity
  8
Body_Frame_3
 62
7
100
AcDbPolyline
 90
2
 70
0
 10
1107.539972
 20
765.799981
 30
0.0
 10
1106.519972
 20
765.799981
 30
0.0
  0
LWPOLYLINE
  5
2f5
100
AcDbEntity
  8
Body_Frame_3
 62
7
100
AcDbPolyline
 90
2
 70
0
 10
1102.919972
 20
765.799981
 30
0.0
 10
1099.319973
 20
765.799981
 30
0.0
  0
LWPOLYLINE
  5
2f6
100
AcDbEntity
  8
Body_Frame_3
 62
7
100
AcDbPolyline
 90
3
 70
0
 10
1095.719973
 20
765.799981
 30
0.0
 10
1094.759973
 20
765.799981
 30
0.0
 10
1094.759973
 20
792.919980
 30
0.0
  0
LWPOLYLINE
  5
2f7
100
AcDbEntity
  8
Body_Frame_3
 62
7
100
AcDbPolyline
 90
2
 70
0
 10
1094.759973
 20
796.519980
 30
0.0
 10
1094.759973
 20
800.119980
 30
0.0
  0
LWPOLYLINE
  5
2f8
100
AcDbEntity
  8
Body_Frame_3
 62
7
100
AcDbPolyline
 90
2
 70
0
 10
1094.759973
 20
803.719980
 30
0.0
 10
1094.759973
 20
846.919979
 30
0.0
  0
LWPOLYLINE
  5
2f9
100
AcDbEntity
  8
Body_Frame_3
 62
7
100
AcDbPolyline
 90
2
 70
0
 10
1094.759973
 20
850.519979
 30
0.0
 10
1094.759973
 20
854.119979
 30
0.0
  0
LWPOLYLINE
  5
2fa
100
AcDbEntity
  8
Body_Frame_3
 62
7
100
AcDbPolyline
 90
2
 70
0
 10
1094.759973
 20
857.719979
 30
0.0
 10
1094.759973
 20
884.839978
 30
0.0
  0
LWPOLYLINE
  5
2fb
100
AcDbEntity
  8
Body_Frame_3
 62
7
100
AcDbPolyline
 90
2
 70
0
 10
955.859976
 20
884.839978
 30
0.0
 10
999.299975
 20
884.839978
 30
0.0
  0
LWPOLYLINE
  5
2fc
100
AcDbEntity
  8
Body_Frame_3
 62
7
100
AcDbPolyline
 90
2
 70
0
 10
1002.899975
 20
884.839978
 30
0.0
 10
1006.499975
 20
884.839978
 30
0.0
  0
LWPOLYLINE
  5
2fd
100
AcDbEntity
  8
Body_Frame_3
 62
7
100
AcDbPolyline
 90
2
 70
0
 10
1010.099975
 20
884.839978
 30
0.0
 10
1053.299974
 20
884.839978
 30
0.0
  0
LWPOLYLINE
  5
2fe
100
AcDbEntity
  8
Body_Frame_3
 62
7
100
AcDbPolyline
 90
2
 70
0
 10
1056.899974
 20
884.839978
 30
0.0
 10
1060.499973
 20
884.839978
 30
0.0
  0
LWPOLYLINE
  5
2ff
100
AcDbEntity
  8
Body_Frame_3
 62
7
100
AcDbPolyline
 90
3
 70
0
 10
1064.099973
 20
884.839978
 30
0.0
 10
1107.299972
 20
884.839978
 30
0.0
 10
1107.539972
 20
884.839978
 30
0.0
  0
LWPOLYLINE
  5
300
100
AcDbEntity
  8
Body_Frame_3
 62
7
100
AcDbPolyline
 90
2
 70
0
 10
747.479981
 20
728.839982
 30
0.0
 10
747.479981
 20
683.299983
 30
0.0
  0
LWPOLYLINE
  5
301
100
AcDbEntity
  8
Body_Frame_3
 62
7
100
AcDbPolyline
 90
2
 70
0
 10
747.479981
 20
679.699983
 30
0.0
 10
747.479981
 20
676.099983
 30
0.0
  0
LWPOLYLINE
  5
302
100
AcDbEntity
  8
Body_Frame_3
 62
7
100
AcDbPolyline
 90
2
 70
0
 10
747.479981
 20
672.499983
 30
0.0
 10
747.479981
 20
629.299984
 30
0.0
  0
LWPOLYLINE
  5
303
100
AcDbEntity
  8
Body_Frame_3
 62
7
100
AcDbPolyline
 90
2
 70
0
 10
747.479981
 20
625.699984
 30
0.0
 10
747.479981
 20
622.099984
 30
0.0
  0
LWPOLYLINE
  5
304
100
AcDbEntity
  8
Body_Frame_3
 62
7
100
AcDbPolyline
 90
3
 70
0
 10
747.479981
 20
618.499985
 30
0.0
 10
747.479981
 20
575.299986
 30
0.0
 10
747.479981
 20
572.899986
 30
0.0
  0
LWPOLYLINE
  5
305
100
AcDbEntity
  8
Body_Frame_3
 62
7
100
AcDbPolyline
 90
2
 70
0
 10
738.959982
 20
728.839982
 30
0.0
 10
738.959982
 20
683.299983
 30
0.0
  0
LWPOLYLINE
  5
306
100
AcDbEntity
  8
Body_Frame_3
 62
7
100
AcDbPolyline
 90
2
 70
0
 10
738.959982
 20
679.699983
 30
0.0
 10
738.959982
 20
676.099983
 30
0.0
  0
LWPOLYLINE
  5
307
100
AcDbEntity
  8
Body_Frame_3
 62
7
100
AcDbPolyline
 90
2
 70
0
 10
738.959982
 20
672.499983
 30
0.0
 10
738.959982
 20
629.299984
 30
0.0
  0
LWPOLYLINE
  5
308
100
AcDbEntity
  8
Body_Frame_3
 62
7
100
AcDbPolyline
 90
2
 70
0
 10
738.959982
 20
625.699984
 30
0.0
 10
738.959982
 20
622.099984
 30
0.0
  0
LWPOLYLINE
  5
309
100
AcDbEntity
  8
Body_Frame_3
 62
7
100
AcDbPolyline
 90
3
 70
0
 10
738.959982
 20
618.499985
 30
0.0
 10
738.959982
 20
575.299986
 30
0.0
 10
738.959982
 20
572.899986
 30
0.0
  0
LWPOLYLINE
  5
30a
100
AcDbEntity
  8
Body_Frame_3
 62
7
100
AcDbPolyline
 90
2
 70
0
 10
659.579984
 20
728.839982
 30
0.0
 10
659.579984
 20
683.299983
 30
0.0
  0
LWPOLYLINE
  5
30b
100
AcDbEntity
  8
Body_Frame_3
 62
7
100
AcDbPolyline
 90
2
 70
0
 10
659.579984
 20
679.699983
 30
0.0
 10
659.579984
 20
676.099983
 30
0.0
  0
LWPOLYLINE
  5
30c
100
AcDbEntity
  8
Body_Frame_3
 62
7
100
AcDbPolyline
 90
2
 70
0
 10
659.579984
 20
672.499983
 30
0.0
 10
659.579984
 20
629.299984
 30
0.0
  0
LWPOLYLINE
  5
30d
100
AcDbEntity
  8
Body_Frame_3
 62
7
100
AcDbPolyline
 90
2
 70
0
 10
659.579984
 20
625.699984
 30
0.0
 10
659.579984
 20
622.099984
 30
0.0
  0
LWPOLYLINE
  5
30e
100
AcDbEntity
  8
Body_Frame_3
 62
7
100
AcDbPolyline
 90
3
 70
0
 10
659.579984
 20
618.499985
 30
0.0
 10
659.579984
 20
575.299986
 30
0.0
 10
659.579984
 20
572.899986
 30
0.0
  0
LWPOLYLINE
  5
30f
100
AcDbEntity
  8
Body_Frame_3
 62
7
100
AcDbPolyline
 90
2
 70
0
 10
668.099983
 20
728.839982
 30
0.0
 10
668.099983
 20
683.299983
 30
0.0
  0
LWPOLYLINE
  5
310
100
AcDbEntity
  8
Body_Frame_3
 62
7
100
AcDbPolyline
 90
2
 70
0
 10
668.099983
 20
679.699983
 30
0.0
 10
668.099983
 20
676.099983
 30
0.0
  0
LWPOLYLINE
  5
311
100
AcDbEntity
  8
Body_Frame_3
 62
7
100
AcDbPolyline
 90
2
 70
0
 10
668.099983
 20
672.499983
 30
0.0
 10
668.099983
 20
629.299984
 30
0.0
  0
LWPOLYLINE
  5
312
100
AcDbEntity
  8
Body_Frame_3
 62
7
100
AcDbPolyline
 90
2
 70
0
 10
668.099983
 20
625.699984
 30
0.0
 10
668.099983
 20
622.099984
 30
0.0
  0
LWPOLYLINE
  5
313
100
AcDbEntity
  8
Body_Frame_3
 62
7
100
AcDbPolyline
 90
3
 70
0
 10
668.099983
 20
618.499985
 30
0.0
 10
668.099983
 20
575.299986
 30
0.0
 10
668.099983
 20
572.899986
 30
0.0
  0
LWPOLYLINE
  5
314
100
AcDbEntity
  8
Body_Frame_3
 62
7
100
AcDbPolyline
 90
2
 70
0
 10
571.679986
 20
728.839982
 30
0.0
 10
571.679986
 20
683.299983
 30
0.0
  0
LWPOLYLINE
  5
315
100
AcDbEntity
  8
Body_Frame_3
 62
7
100
AcDbPolyline
 90
2
 70
0
 10
571.679986
 20
679.699983
 30
0.0
 10
571.679986
 20
676.099983
 30
0.0
  0
LWPOLYLINE
  5
316
100
AcDbEntity
  8
Body_Frame_3
 62
7
100
AcDbPolyline
 90
2
 70
0
 10
571.679986
 20
672.499983
 30
0.0
 10
571.679986
 20
629.299984
 30
0.0
  0
LWPOLYLINE
  5
317
100
AcDbEntity
  8
Body_Frame_3
 62
7
100
AcDbPolyline
 90
2
 70
0
 10
571.679986
 20
625.699984
 30
0.0
 10
571.679986
 20
622.099984
 30
0.0
  0
LWPOLYLINE
  5
318
100
AcDbEntity
  8
Body_Frame_3
 62
7
100
AcDbPolyline
 90
3
 70
0
 10
571.679986
 20
618.499985
 30
0.0
 10
571.679986
 20
575.299986
 30
0.0
 10
571.679986
 20
572.899986
 30
0.0
  0
LWPOLYLINE
  5
319
100
AcDbEntity
  8
Body_Frame_3
 62
7
100
AcDbPolyline
 90
2
 70
0
 10
580.199985
 20
728.839982
 30
0.0
 10
580.199985
 20
683.299983
 30
0.0
  0
LWPOLYLINE
  5
31a
100
AcDbEntity
  8
Body_Frame_3
 62
7
100
AcDbPolyline
 90
2
 70
0
 10
580.199985
 20
679.699983
 30
0.0
 10
580.199985
 20
676.099983
 30
0.0
  0
LWPOLYLINE
  5
31b
100
AcDbEntity
  8
Body_Frame_3
 62
7
100
AcDbPolyline
 90
2
 70
0
 10
580.199985
 20
672.499983
 30
0.0
 10
580.199985
 20
629.299984
 30
0.0
  0
LWPOLYLINE
  5
31c
100
AcDbEntity
  8
Body_Frame_3
 62
7
100
AcDbPolyline
 90
2
 70
0
 10
580.199985
 20
625.699984
 30
0.0
 10
580.199985
 20
622.099984
 30
0.0
  0
LWPOLYLINE
  5
31d
100
AcDbEntity
  8
Body_Frame_3
 62
7
100
AcDbPolyline
 90
3
 70
0
 10
580.199985
 20
618.499985
 30
0.0
 10
580.199985
 20
575.299986
 30
0.0
 10
580.199985
 20
572.899986
 30
0.0
  0
LWPOLYLINE
  5
31e
100
AcDbEntity
  8
Body_Frame_3
 62
7
100
AcDbPolyline
 90
2
 70
0
 10
219.479995
 20
572.899986
 30
0.0
 10
219.479995
 20
600.079985
 30
0.0
  0
LWPOLYLINE
  5
31f
100
AcDbEntity
  8
Body_Frame_3
 62
7
100
AcDbPolyline
 90
2
 70
0
 10
219.479995
 20
603.679985
 30
0.0
 10
219.479995
 20
607.279985
 30
0.0
  0
LWPOLYLINE
  5
320
100
AcDbEntity
  8
Body_Frame_3
 62
7
100
AcDbPolyline
 90
2
 70
0
 10
219.479995
 20
610.879985
 30
0.0
 10
219.479995
 20
654.079984
 30
0.0
  0
LWPOLYLINE
  5
321
100
AcDbEntity
  8
Body_Frame_3
 62
7
100
AcDbPolyline
 90
2
 70
0
 10
219.479995
 20
657.679984
 30
0.0
 10
219.479995
 20
661.279983
 30
0.0
  0
LWPOLYLINE
  5
322
100
AcDbEntity
  8
Body_Frame_3
 62
7
100
AcDbPolyline
 90
3
 70
0
 10
219.479995
 20
664.879983
 30
0.0
 10
219.479995
 20
691.999983
 30
0.0
 10
209.579995
 20
691.999983
 30
0.0
  0
LWPOLYLINE
  5
323
100
AcDbEntity
  8
Body_Frame_3
 62
7
100
AcDbPolyline
 90
2
 70
0
 10
209.579995
 20
572.899986
 30
0.0
 10
209.579995
 20
600.079985
 30
0.0
  0
LWPOLYLINE
  5
324
100
AcDbEntity
  8
Body_Frame_3
 62
7
100
AcDbPolyline
 90
2
 70
0
 10
209.579995
 20
603.679985
 30
0.0
 10
209.579995
 20
607.279985
 30
0.0
  0
LWPOLYLINE
  5
325
100
AcDbEntity
  8
Body_Frame_3
 62
7
100
AcDbPolyline
 90
2
 70
0
 10
209.579995
 20
610.879985
 30
0.0
 10
209.579995
 20
654.079984
 30
0.0
  0
LWPOLYLINE
  5
326
100
AcDbEntity
  8
Body_Frame_3
 62
7
100
AcDbPolyline
 90
2
 70
0
 10
209.579995
 20
657.679984
 30
0.0
 10
209.579995
 20
661.279983
 30
0.0
  0
LWPOLYLINE
  5
327
100
AcDbEntity
  8
Body_Frame_3
 62
7
100
AcDbPolyline
 90
2
 70
0
 10
209.579995
 20
664.879983
 30
0.0
 10
209.579995
 20
691.999983
 30
0.0
  0
LWPOLYLINE
  5
328
100
AcDbEntity
  8
Body_Frame_3
 62
7
100
AcDbPolyline
 90
2
 70
0
 10
1107.539972
 20
691.999983
 30
0.0
 10
1107.539972
 20
664.879983
 30
0.0
  0
LWPOLYLINE
  5
329
100
AcDbEntity
  8
Body_Frame_3
 62
7
100
AcDbPolyline
 90
2
 70
0
 10
1107.539972
 20
661.279983
 30
0.0
 10
1107.539972
 20
657.679984
 30
0.0
  0
LWPOLYLINE
  5
32a
100
AcDbEntity
  8
Body_Frame_3
 62
7
100
AcDbPolyline
 90
2
 70
0
 10
1107.539972
 20
654.079984
 30
0.0
 10
1107.539972
 20
610.879985
 30
0.0
  0
LWPOLYLINE
  5
32b
100
AcDbEntity
  8
Body_Frame_3
 62
7
100
AcDbPolyline
 90
2
 70
0
 10
1107.539972
 20
607.279985
 30
0.0
 10
1107.539972
 20
603.679985
 30
0.0
  0
LWPOLYLINE
  5
32c
100
AcDbEntity
  8
Body_Frame_3
 62
7
100
AcDbPolyline
 90
2
 70
0
 10
1107.539972
 20
600.079985
 30
0.0
 10
1107.539972
 20
572.899986
 30
0.0
  0
LWPOLYLINE
  5
32d
100
AcDbEntity
  8
Body_Frame_3
 62
7
100
AcDbPolyline
 90
2
 70
0
 10
1107.539972
 20
691.999983
 30
0.0
 10
1106.519972
 20
691.999983
 30
0.0
  0
LWPOLYLINE
  5
32e
100
AcDbEntity
  8
Body_Frame_3
 62
7
100
AcDbPolyline
 90
2
 70
0
 10
1102.919972
 20
691.999983
 30
0.0
 10
1099.319973
 20
691.999983
 30
0.0
  0
LWPOLYLINE
  5
32f
100
AcDbEntity
  8
Body_Frame_3
 62
7
100
AcDbPolyline
 90
3
 70
0
 10
1095.719973
 20
691.999983
 30
0.0
 10
1094.759973
 20
691.999983
 30
0.0
 10
1094.759973
 20
664.879983
 30
0.0
  0
LWPOLYLINE
  5
330
100
AcDbEntity
  8
Body_Frame_3
 62
7
100
AcDbPolyline
 90
2
 70
0
 10
1094.759973
 20
661.279983
 30
0.0
 10
1094.759973
 20
657.679984
 30
0.0
  0
LWPOLYLINE
  5
331
100
AcDbEntity
  8
Body_Frame_3
 62
7
100
AcDbPolyline
 90
2
 70
0
 10
1094.759973
 20
654.079984
 30
0.0
 10
1094.759973
 20
610.879985
 30
0.0
  0
LWPOLYLINE
  5
332
100
AcDbEntity
  8
Body_Frame_3
 62
7
100
AcDbPolyline
 90
2
 70
0
 10
1094.759973
 20
607.279985
 30
0.0
 10
1094.759973
 20
603.679985
 30
0.0
  0
LWPOLYLINE
  5
333
100
AcDbEntity
  8
Body_Frame_3
 62
7
100
AcDbPolyline
 90
2
 70
0
 10
1094.759973
 20
600.079985
 30
0.0
 10
1094.759973
 20
572.899986
 30
0.0
  0
LWPOLYLINE
  5
334
100
AcDbEntity
  8
Body_Frame_3
 62
7
100
AcDbPolyline
 90
2
 70
0
 10
955.859976
 20
572.899986
 30
0.0
 10
999.299975
 20
572.899986
 30
0.0
  0
LWPOLYLINE
  5
335
100
AcDbEntity
  8
Body_Frame_3
 62
7
100
AcDbPolyline
 90
2
 70
0
 10
1002.899975
 20
572.899986
 30
0.0
 10
1006.499975
 20
572.899986
 30
0.0
  0
LWPOLYLINE
  5
336
100
AcDbEntity
  8
Body_Frame_3
 62
7
100
AcDbPolyline
 90
2
 70
0
 10
1010.099975
 20
572.899986
 30
0.0
 10
1053.299974
 20
572.899986
 30
0.0
  0
LWPOLYLINE
  5
337
100
AcDbEntity
  8
Body_Frame_3
 62
7
100
AcDbPolyline
 90
2
 70
0
 10
1056.899974
 20
572.899986
 30
0.0
 10
1060.499973
 20
572.899986
 30
0.0
  0
LWPOLYLINE
  5
338
100
AcDbEntity
  8
Body_Frame_3
 62
7
100
AcDbPolyline
 90
3
 70
0
 10
1064.099973
 20
572.899986
 30
0.0
 10
1107.299972
 20
572.899986
 30
0.0
 10
1107.539972
 20
572.899986
 30
0.0
  0
LWPOLYLINE
  5
339
100
AcDbEntity
  8
Body_Frame_3
 62
7
100
AcDbPolyline
 90
2
 70
0
 10
747.479981
 20
417.019990
 30
0.0
 10
747.479981
 20
462.619988
 30
0.0
  0
LWPOLYLINE
  5
33a
100
AcDbEntity
  8
Body_Frame_3
 62
7
100
AcDbPolyline
 90
2
 70
0
 10
747.479981
 20
466.219988
 30
0.0
 10
747.479981
 20
469.819988
 30
0.0
  0
LWPOLYLINE
  5
33b
100
AcDbEntity
  8
Body_Frame_3
 62
7
100
AcDbPolyline
 90
2
 70
0
 10
747.479981
 20
473.419988
 30
0.0
 10
747.479981
 20
516.619987
 30
0.0
  0
LWPOLYLINE
  5
33c
100
AcDbEntity
  8
Body_Frame_3
 62
7
100
AcDbPolyline
 90
2
 70
0
 10
747.479981
 20
520.219987
 30
0.0
 10
747.479981
 20
523.819987
 30
0.0
  0
LWPOLYLINE
  5
33d
100
AcDbEntity
  8
Body_Frame_3
 62
7
100
AcDbPolyline
 90
3
 70
0
 10
747.479981
 20
527.419987
 30
0.0
 10
747.479981
 20
570.619986
 30
0.0
 10
747.479981
 20
572.959986
 30
0.0
  0
LWPOLYLINE
  5
33e
100
AcDbEntity
  8
Body_Frame_3
 62
7
100
AcDbPolyline
 90
2
 70
0
 10
738.959982
 20
417.019990
 30
0.0
 10
738.959982
 20
462.619988
 30
0.0
  0
LWPOLYLINE
  5
33f
100
AcDbEntity
  8
Body_Frame_3
 62
7
100
AcDbPolyline
 90
2
 70
0
 10
738.959982
 20
466.219988
 30
0.0
 10
738.959982
 20
469.819988
 30
0.0
  0
LWPOLYLINE
  5
340
100
AcDbEntity
  8
Body_Frame_3
 62
7
100
AcDbPolyline
 90
2
 70
0
 10
738.959982
 20
473.419988
 30
0.0
 10
738.959982
 20
516.619987
 30
0.0
  0
LWPOLYLINE
  5
341
100
AcDbEntity
  8
Body_Frame_3
 62
7
100
AcDbPolyline
 90
2
 70
0
 10
738.959982
 20
520.219987
 30
0.0
 10
738.959982
 20
523.819987
 30
0.0
  0
LWPOLYLINE
  5
342
100
AcDbEntity
  8
Body_Frame_3
 62
7
100
AcDbPolyline
 90
3
 70
0
 10
738.959982
 20
527.419987
 30
0.0
 10
738.959982
 20
570.619986
 30
0.0
 10
738.959982
 20
572.959986
 30
0.0
  0
LWPOLYLINE
  5
343
100
AcDbEntity
  8
Body_Frame_3
 62
7
100
AcDbPolyline
 90
2
 70
0
 10
659.579984
 20
417.019990
 30
0.0
 10
659.579984
 20
462.619988
 30
0.0
  0
LWPOLYLINE
  5
344
100
AcDbEntity
  8
Body_Frame_3
 62
7
100
AcDbPolyline
 90
2
 70
0
 10
659.579984
 20
466.219988
 30
0.0
 10
659.579984
 20
469.819988
 30
0.0
  0
LWPOLYLINE
  5
345
100
AcDbEntity
  8
Body_Frame_3
 62
7
100
AcDbPolyline
 90
2
 70
0
 10
659.579984
 20
473.419988
 30
0.0
 10
659.579984
 20
516.619987
 30
0.0
  0
LWPOLYLINE
  5
346
100
AcDbEntity
  8
Body_Frame_3
 62
7
100
AcDbPolyline
 90
2
 70
0
 10
659.579984
 20
520.219987
 30
0.0
 10
659.579984
 20
523.819987
 30
0.0
  0
LWPOLYLINE
  5
347
100
AcDbEntity
  8
Body_Frame_3
 62
7
100
AcDbPolyline
 90
3
 70
0
 10
659.579984
 20
527.419987
 30
0.0
 10
659.579984
 20
570.619986
 30
0.0
 10
659.579984
 20
572.959986
 30
0.0
  0
LWPOLYLINE
  5
348
100
AcDbEntity
  8
Body_Frame_3
 62
7
100
AcDbPolyline
 90
2
 70
0
 10
668.099983
 20
417.019990
 30
0.0
 10
668.099983
 20
462.619988
 30
0.0
  0
LWPOLYLINE
  5
349
100
AcDbEntity
  8
Body_Frame_3
 62
7
100
AcDbPolyline
 90
2
 70
0
 10
668.099983
 20
466.219988
 30
0.0
 10
668.099983
 20
469.819988
 30
0.0
  0
LWPOLYLINE
  5
34a
100
AcDbEntity
  8
Body_Frame_3
 62
7
100
AcDbPolyline
 90
2
 70
0
 10
668.099983
 20
473.419988
 30
0.0
 10
668.099983
 20
516.619987
 30
0.0
  0
LWPOLYLINE
  5
34b
100
AcDbEntity
  8
Body_Frame_3
 62
7
100
AcDbPolyline
 90
2
 70
0
 10
668.099983
 20
520.219987
 30
0.0
 10
668.099983
 20
523.819987
 30
0.0
  0
LWPOLYLINE
  5
34c
100
AcDbEntity
  8
Body_Frame_3
 62
7
100
AcDbPolyline
 90
3
 70
0
 10
668.099983
 20
527.419987
 30
0.0
 10
668.099983
 20
570.619986
 30
0.0
 10
668.099983
 20
572.959986
 30
0.0
  0
LWPOLYLINE
  5
34d
100
AcDbEntity
  8
Body_Frame_3
 62
7
100
AcDbPolyline
 90
2
 70
0
 10
571.679986
 20
417.019990
 30
0.0
 10
571.679986
 20
462.619988
 30
0.0
  0
LWPOLYLINE
  5
34e
100
AcDbEntity
  8
Body_Frame_3
 62
7
100
AcDbPolyline
 90
2
 70
0
 10
571.679986
 20
466.219988
 30
0.0
 10
571.679986
 20
469.819988
 30
0.0
  0
LWPOLYLINE
  5
34f
100
AcDbEntity
  8
Body_Frame_3
 62
7
100
AcDbPolyline
 90
2
 70
0
 10
571.679986
 20
473.419988
 30
0.0
 10
571.679986
 20
516.619987
 30
0.0
  0
LWPOLYLINE
  5
350
100
AcDbEntity
  8
Body_Frame_3
 62
7
100
AcDbPolyline
 90
2
 70
0
 10
571.679986
 20
520.219987
 30
0.0
 10
571.679986
 20
523.819987
 30
0.0
  0
LWPOLYLINE
  5
351
100
AcDbEntity
  8
Body_Frame_3
 62
7
100
AcDbPolyline
 90
3
 70
0
 10
571.679986
 20
527.419987
 30
0.0
 10
571.679986
 20
570.619986
 30
0.0
 10
571.679986
 20
572.959986
 30
0.0
  0
LWPOLYLINE
  5
352
100
AcDbEntity
  8
Body_Frame_3
 62
7
100
AcDbPolyline
 90
2
 70
0
 10
580.199985
 20
417.019990
 30
0.0
 10
580.199985
 20
462.619988
 30
0.0
  0
LWPOLYLINE
  5
353
100
AcDbEntity
  8
Body_Frame_3
 62
7
100
AcDbPolyline
 90
2
 70
0
 10
580.199985
 20
466.219988
 30
0.0
 10
580.199985
 20
469.819988
 30
0.0
  0
LWPOLYLINE
  5
354
100
AcDbEntity
  8
Body_Frame_3
 62
7
100
AcDbPolyline
 90
2
 70
0
 10
580.199985
 20
473.419988
 30
0.0
 10
580.199985
 20
516.619987
 30
0.0
  0
LWPOLYLINE
  5
355
100
AcDbEntity
  8
Body_Frame_3
 62
7
100
AcDbPolyline
 90
2
 70
0
 10
580.199985
 20
520.219987
 30
0.0
 10
580.199985
 20
523.819987
 30
0.0
  0
LWPOLYLINE
  5
356
100
AcDbEntity
  8
Body_Frame_3
 62
7
100
AcDbPolyline
 90
3
 70
0
 10
580.199985
 20
527.419987
 30
0.0
 10
580.199985
 20
570.619986
 30
0.0
 10
580.199985
 20
572.959986
 30
0.0
  0
LWPOLYLINE
  5
357
100
AcDbEntity
  8
Body_Frame_3
 62
7
100
AcDbPolyline
 90
2
 70
0
 10
219.479995
 20
572.959986
 30
0.0
 10
219.479995
 20
545.839986
 30
0.0
  0
LWPOLYLINE
  5
358
100
AcDbEntity
  8
Body_Frame_3
 62
7
100
AcDbPolyline
 90
2
 70
0
 10
219.479995
 20
542.239986
 30
0.0
 10
219.479995
 20
538.639987
 30
0.0
  0
LWPOLYLINE
  5
359
100
AcDbEntity
  8
Body_Frame_3
 62
7
100
AcDbPolyline
 90
2
 70
0
 10
219.479995
 20
535.039987
 30
0.0
 10
219.479995
 20
491.839988
 30
0.0
  0
LWPOLYLINE
  5
35a
100
AcDbEntity
  8
Body_Frame_3
 62
7
100
AcDbPolyline
 90
2
 70
0
 10
219.479995
 20
488.239988
 30
0.0
 10
219.479995
 20
484.639988
 30
0.0
  0
LWPOLYLINE
  5
35b
100
AcDbEntity
  8
Body_Frame_3
 62
7
100
AcDbPolyline
 90
3
 70
0
 10
219.479995
 20
481.039988
 30
0.0
 10
219.479995
 20
453.859989
 30
0.0
 10
209.579995
 20
453.859989
 30
0.0
  0
LWPOLYLINE
  5
35c
100
AcDbEntity
  8
Body_Frame_3
 62
7
100
AcDbPolyline
 90
2
 70
0
 10
209.579995
 20
572.959986
 30
0.0
 10
209.579995
 20
545.839986
 30
0.0
  0
LWPOLYLINE
  5
35d
100
AcDbEntity
  8
Body_Frame_3
 62
7
100
AcDbPolyline
 90
2
 70
0
 10
209.579995
 20
542.239986
 30
0.0
 10
209.579995
 20
538.639987
 30
0.0
  0
LWPOLYLINE
  5
35e
100
AcDbEntity
  8
Body_Frame_3
 62
7
100
AcDbPolyline
 90
2
 70
0
 10
209.579995
 20
535.039987
 30
0.0
 10
209.579995
 20
491.839988
 30
0.0
  0
LWPOLYLINE
  5
35f
100
AcDbEntity
  8
Body_Frame_3
 62
7
100
AcDbPolyline
 90
2
 70
0
 10
209.579995
 20
488.239988
 30
0.0
 10
209.579995
 20
484.639988
 30
0.0
  0
LWPOLYLINE
  5
360
100
AcDbEntity
  8
Body_Frame_3
 62
7
100
AcDbPolyline
 90
2
 70
0
 10
209.579995
 20
481.039988
 30
0.0
 10
209.579995
 20
453.859989
 30
0.0
  0
LWPOLYLINE
  5
361
100
AcDbEntity
  8
Body_Frame_3
 62
7
100
AcDbPolyline
 90
2
 70
0
 10
1107.539972
 20
453.859989
 30
0.0
 10
1107.539972
 20
481.039988
 30
0.0
  0
LWPOLYLINE
  5
362
100
AcDbEntity
  8
Body_Frame_3
 62
7
100
AcDbPolyline
 90
2
 70
0
 10
1107.539972
 20
484.639988
 30
0.0
 10
1107.539972
 20
488.239988
 30
0.0
  0
LWPOLYLINE
  5
363
100
AcDbEntity
  8
Body_Frame_3
 62
7
100
AcDbPolyline
 90
2
 70
0
 10
1107.539972
 20
491.839988
 30
0.0
 10
1107.539972
 20
535.039987
 30
0.0
  0
LWPOLYLINE
  5
364
100
AcDbEntity
  8
Body_Frame_3
 62
7
100
AcDbPolyline
 90
2
 70
0
 10
1107.539972
 20
538.639987
 30
0.0
 10
1107.539972
 20
542.239986
 30
0.0
  0
LWPOLYLINE
  5
365
100
AcDbEntity
  8
Body_Frame_3
 62
7
100
AcDbPolyline
 90
2
 70
0
 10
1107.539972
 20
545.839986
 30
0.0
 10
1107.539972
 20
572.959986
 30
0.0
  0
LWPOLYLINE
  5
366
100
AcDbEntity
  8
Body_Frame_3
 62
7
100
AcDbPolyline
 90
2
 70
0
 10
1107.539972
 20
453.859989
 30
0.0
 10
1106.519972
 20
453.859989
 30
0.0
  0
LWPOLYLINE
  5
367
100
AcDbEntity
  8
Body_Frame_3
 62
7
100
AcDbPolyline
 90
2
 70
0
 10
1102.919972
 20
453.859989
 30
0.0
 10
1099.319973
 20
453.859989
 30
0.0
  0
LWPOLYLINE
  5
368
100
AcDbEntity
  8
Body_Frame_3
 62
7
100
AcDbPolyline
 90
3
 70
0
 10
1095.719973
 20
453.859989
 30
0.0
 10
1094.759973
 20
453.859989
 30
0.0
 10
1094.759973
 20
481.039988
 30
0.0
  0
LWPOLYLINE
  5
369
100
AcDbEntity
  8
Body_Frame_3
 62
7
100
AcDbPolyline
 90
2
 70
0
 10
1094.759973
 20
484.639988
 30
0.0
 10
1094.759973
 20
488.239988
 30
0.0
  0
LWPOLYLINE
  5
36a
100
AcDbEntity
  8
Body_Frame_3
 62
7
100
AcDbPolyline
 90
2
 70
0
 10
1094.759973
 20
491.839988
 30
0.0
 10
1094.759973
 20
535.039987
 30
0.0
  0
LWPOLYLINE
  5
36b
100
AcDbEntity
  8
Body_Frame_3
 62
7
100
AcDbPolyline
 90
2
 70
0
 10
1094.759973
 20
538.639987
 30
0.0
 10
1094.759973
 20
542.239986
 30
0.0
  0
LWPOLYLINE
  5
36c
100
AcDbEntity
  8
Body_Frame_3
 62
7
100
AcDbPolyline
 90
2
 70
0
 10
1094.759973
 20
545.839986
 30
0.0
 10
1094.759973
 20
572.959986
 30
0.0
  0
LWPOLYLINE
  5
36d
100
AcDbEntity
  8
Body_Frame_3
 62
7
100
AcDbPolyline
 90
2
 70
0
 10
955.859976
 20
572.959986
 30
0.0
 10
999.299975
 20
572.959986
 30
0.0
  0
LWPOLYLINE
  5
36e
100
AcDbEntity
  8
Body_Frame_3
 62
7
100
AcDbPolyline
 90
2
 70
0
 10
1002.899975
 20
572.959986
 30
0.0
 10
1006.499975
 20
572.959986
 30
0.0
  0
LWPOLYLINE
  5
36f
100
AcDbEntity
  8
Body_Frame_3
 62
7
100
AcDbPolyline
 90
2
 70
0
 10
1010.099975
 20
572.959986
 30
0.0
 10
1053.299974
 20
572.959986
 30
0.0
  0
LWPOLYLINE
  5
370
100
AcDbEntity
  8
Body_Frame_3
 62
7
100
AcDbPolyline
 90
2
 70
0
 10
1056.899974
 20
572.959986
 30
0.0
 10
1060.499973
 20
572.959986
 30
0.0
  0
LWPOLYLINE
  5
371
100
AcDbEntity
  8
Body_Frame_3
 62
7
100
AcDbPolyline
 90
3
 70
0
 10
1064.099973
 20
572.959986
 30
0.0
 10
1107.299972
 20
572.959986
 30
0.0
 10
1107.539972
 20
572.959986
 30
0.0
  0
LWPOLYLINE
  5
372
100
AcDbEntity
  8
Body_Frame_3
 62
7
100
AcDbPolyline
 90
2
 70
0
 10
747.479981
 20
417.319990
 30
0.0
 10
747.479981
 20
371.779991
 30
0.0
  0
LWPOLYLINE
  5
373
100
AcDbEntity
  8
Body_Frame_3
 62
7
100
AcDbPolyline
 90
2
 70
0
 10
747.479981
 20
368.179991
 30
0.0
 10
747.479981
 20
364.579991
 30
0.0
  0
LWPOLYLINE
  5
374
100
AcDbEntity
  8
Body_Frame_3
 62
7
100
AcDbPolyline
 90
2
 70
0
 10
747.479981
 20
360.979991
 30
0.0
 10
747.479981
 20
317.779992
 30
0.0
  0
LWPOLYLINE
  5
375
100
AcDbEntity
  8
Body_Frame_3
 62
7
100
AcDbPolyline
 90
2
 70
0
 10
747.479981
 20
314.179992
 30
0.0
 10
747.479981
 20
310.579992
 30
0.0
  0
LWPOLYLINE
  5
376
100
AcDbEntity
  8
Body_Frame_3
 62
7
100
AcDbPolyline
 90
3
 70
0
 10
747.479981
 20
306.979992
 30
0.0
 10
747.479981
 20
263.779993
 30
0.0
 10
747.479981
 20
261.379993
 30
0.0
  0
LWPOLYLINE
  5
377
100
AcDbEntity
  8
Body_Frame_3
 62
7
100
AcDbPolyline
 90
2
 70
0
 10
738.959982
 20
417.319990
 30
0.0
 10
738.959982
 20
371.779991
 30
0.0
  0
LWPOLYLINE
  5
378
100
AcDbEntity
  8
Body_Frame_3
 62
7
100
AcDbPolyline
 90
2
 70
0
 10
738.959982
 20
368.179991
 30
0.0
 10
738.959982
 20
364.579991
 30
0.0
  0
LWPOLYLINE
  5
379
100
AcDbEntity
  8
Body_Frame_3
 62
7
100
AcDbPolyline
 90
2
 70
0
 10
738.959982
 20
360.979991
 30
0.0
 10
738.959982
 20
317.779992
 30
0.0
  0
LWPOLYLINE
  5
37a
100
AcDbEntity
  8
Body_Frame_3
 62
7
100
AcDbPolyline
 90
2
 70
0
 10
738.959982
 20
314.179992
 30
0.0
 10
738.959982
 20
310.579992
 30
0.0
  0
LWPOLYLINE
  5
37b
100
AcDbEntity
  8
Body_Frame_3
 62
7
100
AcDbPolyline
 90
3
 70
0
 10
738.959982
 20
306.979992
 30
0.0
 10
738.959982
 20
263.779993
 30
0.0
 10
738.959982
 20
261.379993
 30
0.0
  0
LWPOLYLINE
  5
37c
100
AcDbEntity
  8
Body_Frame_3
 62
7
100
AcDbPolyline
 90
2
 70
0
 10
659.579984
 20
417.319990
 30
0.0
 10
659.579984
 20
371.779991
 30
0.0
  0
LWPOLYLINE
  5
37d
100
AcDbEntity
  8
Body_Frame_3
 62
7
100
AcDbPolyline
 90
2
 70
0
 10
659.579984
 20
368.179991
 30
0.0
 10
659.579984
 20
364.579991
 30
0.0
  0
LWPOLYLINE
  5
37e
100
AcDbEntity
  8
Body_Frame_3
 62
7
100
AcDbPolyline
 90
2
 70
0
 10
659.579984
 20
360.979991
 30
0.0
 10
659.579984
 20
317.779992
 30
0.0
  0
LWPOLYLINE
  5
37f
100
AcDbEntity
  8
Body_Frame_3
 62
7
100
AcDbPolyline
 90
2
 70
0
 10
659.579984
 20
314.179992
 30
0.0
 10
659.579984
 20
310.579992
 30
0.0
  0
LWPOLYLINE
  5
380
100
AcDbEntity
  8
Body_Frame_3
 62
7
100
AcDbPolyline
 90
3
 70
0
 10
659.579984
 20
306.979992
 30
0.0
 10
659.579984
 20
263.779993
 30
0.0
 10
659.579984
 20
261.379993
 30
0.0
  0
LWPOLYLINE
  5
381
100
AcDbEntity
  8
Body_Frame_3
 62
7
100
AcDbPolyline
 90
2
 70
0
 10
668.099983
 20
417.319990
 30
0.0
 10
668.099983
 20
371.779991
 30
0.0
  0
LWPOLYLINE
  5
382
100
AcDbEntity
  8
Body_Frame_3
 62
7
100
AcDbPolyline
 90
2
 70
0
 10
668.099983
 20
368.179991
 30
0.0
 10
668.099983
 20
364.579991
 30
0.0
  0
LWPOLYLINE
  5
383
100
AcDbEntity
  8
Body_Frame_3
 62
7
100
AcDbPolyline
 90
2
 70
0
 10
668.099983
 20
360.979991
 30
0.0
 10
668.099983
 20
317.779992
 30
0.0
  0
LWPOLYLINE
  5
384
100
AcDbEntity
  8
Body_Frame_3
 62
7
100
AcDbPolyline
 90
2
 70
0
 10
668.099983
 20
314.179992
 30
0.0
 10
668.099983
 20
310.579992
 30
0.0
  0
LWPOLYLINE
  5
385
100
AcDbEntity
  8
Body_Frame_3
 62
7
100
AcDbPolyline
 90
3
 70
0
 10
668.099983
 20
306.979992
 30
0.0
 10
668.099983
 20
263.779993
 30
0.0
 10
668.099983
 20
261.379993
 30
0.0
  0
LWPOLYLINE
  5
386
100
AcDbEntity
  8
Body_Frame_3
 62
7
100
AcDbPolyline
 90
2
 70
0
 10
571.679986
 20
417.319990
 30
0.0
 10
571.679986
 20
371.779991
 30
0.0
  0
LWPOLYLINE
  5
387
100
AcDbEntity
  8
Body_Frame_3
 62
7
100
AcDbPolyline
 90
2
 70
0
 10
571.679986
 20
368.179991
 30
0.0
 10
571.679986
 20
364.579991
 30
0.0
  0
LWPOLYLINE
  5
388
100
AcDbEntity
  8
Body_Frame_3
 62
7
100
AcDbPolyline
 90
2
 70
0
 10
571.679986
 20
360.979991
 30
0.0
 10
571.679986
 20
317.779992
 30
0.0
  0
LWPOLYLINE
  5
389
100
AcDbEntity
  8
Body_Frame_3
 62
7
100
AcDbPolyline
 90
2
 70
0
 10
571.679986
 20
314.179992
 30
0.0
 10
571.679986
 20
310.579992
 30
0.0
  0
LWPOLYLINE
  5
38a
100
AcDbEntity
  8
Body_Frame_3
 62
7
100
AcDbPolyline
 90
3
 70
0
 10
571.679986
 20
306.979992
 30
0.0
 10
571.679986
 20
263.779993
 30
0.0
 10
571.679986
 20
261.379993
 30
0.0
  0
LWPOLYLINE
  5
38b
100
AcDbEntity
  8
Body_Frame_3
 62
7
100
AcDbPolyline
 90
2
 70
0
 10
580.199985
 20
417.319990
 30
0.0
 10
580.199985
 20
371.779991
 30
0.0
  0
LWPOLYLINE
  5
38c
100
AcDbEntity
  8
Body_Frame_3
 62
7
100
AcDbPolyline
 90
2
 70
0
 10
580.199985
 20
368.179991
 30
0.0
 10
580.199985
 20
364.579991
 30
0.0
  0
LWPOLYLINE
  5
38d
100
AcDbEntity
  8
Body_Frame_3
 62
7
100
AcDbPolyline
 90
2
 70
0
 10
580.199985
 20
360.979991
 30
0.0
 10
580.199985
 20
317.779992
 30
0.0
  0
LWPOLYLINE
  5
38e
100
AcDbEntity
  8
Body_Frame_3
 62
7
100
AcDbPolyline
 90
2
 70
0
 10
580.199985
 20
314.179992
 30
0.0
 10
580.199985
 20
310.579992
 30
0.0
  0
LWPOLYLINE
  5
38f
100
AcDbEntity
  8
Body_Frame_3
 62
7
100
AcDbPolyline
 90
3
 70
0
 10
580.199985
 20
306.979992
 30
0.0
 10
580.199985
 20
263.779993
 30
0.0
 10
580.199985
 20
261.379993
 30
0.0
  0
LWPOLYLINE
  5
390
100
AcDbEntity
  8
Body_Frame_3
 62
7
100
AcDbPolyline
 90
2
 70
0
 10
219.479995
 20
261.379993
 30
0.0
 10
219.479995
 20
288.559993
 30
0.0
  0
LWPOLYLINE
  5
391
100
AcDbEntity
  8
Body_Frame_3
 62
7
100
AcDbPolyline
 90
2
 70
0
 10
219.479995
 20
292.159993
 30
0.0
 10
219.479995
 20
295.759993
 30
0.0
  0
LWPOLYLINE
  5
392
100
AcDbEntity
  8
Body_Frame_3
 62
7
100
AcDbPolyline
 90
2
 70
0
 10
219.479995
 20
299.359993
 30
0.0
 10
219.479995
 20
342.559991
 30
0.0
  0
LWPOLYLINE
  5
393
100
AcDbEntity
  8
Body_Frame_3
 62
7
100
AcDbPolyline
 90
2
 70
0
 10
219.479995
 20
346.159991
 30
0.0
 10
219.479995
 20
349.759991
 30
0.0
  0
LWPOLYLINE
  5
394
100
AcDbEntity
  8
Body_Frame_3
 62
7
100
AcDbPolyline
 90
3
 70
0
 10
219.479995
 20
353.359991
 30
0.0
 10
219.479995
 20
380.479990
 30
0.0
 10
209.579995
 20
380.479990
 30
0.0
  0
LWPOLYLINE
  5
395
100
AcDbEntity
  8
Body_Frame_3
 62
7
100
AcDbPolyline
 90
2
 70
0
 10
209.579995
 20
261.379993
 30
0.0
 10
209.579995
 20
288.559993
 30
0.0
  0
LWPOLYLINE
  5
396
100
AcDbEntity
  8
Body_Frame_3
 62
7
100
AcDbPolyline
 90
2
 70
0
 10
209.579995
 20
292.159993
 30
0.0
 10
209.579995
 20
295.759993
 30
0.0
  0
LWPOLYLINE
  5
397
100
AcDbEntity
  8
Body_Frame_3
 62
7
100
AcDbPolyline
 90
2
 70
0
 10
209.579995
 20
299.359993
 30
0.0
 10
209.579995
 20
342.559991
 30
0.0
  0
LWPOLYLINE
  5
398
100
AcDbEntity
  8
Body_Frame_3
 62
7
100
AcDbPolyline
 90
2
 70
0
 10
209.579995
 20
346.159991
 30
0.0
 10
209.579995
 20
349.759991
 30
0.0
  0
LWPOLYLINE
  5
399
100
AcDbEntity
  8
Body_Frame_3
 62
7
100
AcDbPolyline
 90
2
 70
0
 10
209.579995
 20
353.359991
 30
0.0
 10
209.579995
 20
380.479990
 30
0.0
  0
LWPOLYLINE
  5
39a
100
AcDbEntity
  8
Body_Frame_3
 62
7
100
AcDbPolyline
 90
2
 70
0
 10
1107.539972
 20
380.479990
 30
0.0
 10
1107.539972
 20
353.359991
 30
0.0
  0
LWPOLYLINE
  5
39b
100
AcDbEntity
  8
Body_Frame_3
 62
7
100
AcDbPolyline
 90
2
 70
0
 10
1107.539972
 20
349.759991
 30
0.0
 10
1107.539972
 20
346.159991
 30
0.0
  0
LWPOLYLINE
  5
39c
100
AcDbEntity
  8
Body_Frame_3
 62
7
100
AcDbPolyline
 90
2
 70
0
 10
1107.539972
 20
342.559991
 30
0.0
 10
1107.539972
 20
299.359993
 30
0.0
  0
LWPOLYLINE
  5
39d
100
AcDbEntity
  8
Body_Frame_3
 62
7
100
AcDbPolyline
 90
2
 70
0
 10
1107.539972
 20
295.759993
 30
0.0
 10
1107.539972
 20
292.159993
 30
0.0
  0
LWPOLYLINE
  5
39e
100
AcDbEntity
  8
Body_Frame_3
 62
7
100
AcDbPolyline
 90
2
 70
0
 10
1107.539972
 20
288.559993
 30
0.0
 10
1107.539972
 20
261.379993
 30
0.0
  0
LWPOLYLINE
  5
39f
100
AcDbEntity
  8
Body_Frame_3
 62
7
100
AcDbPolyline
 90
2
 70
0
 10
1107.539972
 20
380.479990
 30
0.0
 10
1106.519972
 20
380.479990
 30
0.0
  0
LWPOLYLINE
  5
3a0
100
AcDbEntity
  8
Body_Frame_3
 62
7
100
AcDbPolyline
 90
2
 70
0
 10
1102.919972
 20
380.479990
 30
0.0
 10
1099.319973
 20
380.479990
 30
0.0
  0
LWPOLYLINE
  5
3a1
100
AcDbEntity
  8
Body_Frame_3
 62
7
100
AcDbPolyline
 90
3
 70
0
 10
1095.719973
 20
380.479990
 30
0.0
 10
1094.759973
 20
380.479990
 30
0.0
 10
1094.759973
 20
353.359991
 30
0.0
  0
LWPOLYLINE
  5
3a2
100
AcDbEntity
  8
Body_Frame_3
 62
7
100
AcDbPolyline
 90
2
 70
0
 10
1094.759973
 20
349.759991
 30
0.0
 10
1094.759973
 20
346.159991
 30
0.0
  0
LWPOLYLINE
  5
3a3
100
AcDbEntity
  8
Body_Frame_3
 62
7
100
AcDbPolyline
 90
2
 70
0
 10
1094.759973
 20
342.559991
 30
0.0
 10
1094.759973
 20
299.359993
 30
0.0
  0
LWPOLYLINE
  5
3a4
100
AcDbEntity
  8
Body_Frame_3
 62
7
100
AcDbPolyline
 90
2
 70
0
 10
1094.759973
 20
295.759993
 30
0.0
 10
1094.759973
 20
292.159993
 30
0.0
  0
LWPOLYLINE
  5
3a5
100
AcDbEntity
  8
Body_Frame_3
 62
7
100
AcDbPolyline
 90
2
 70
0
 10
1094.759973
 20
288.559993
 30
0.0
 10
1094.759973
 20
261.379993
 30
0.0
  0
LWPOLYLINE
  5
3a6
100
AcDbEntity
  8
Body_Frame_3
 62
7
100
AcDbPolyline
 90
2
 70
0
 10
955.859976
 20
261.379993
 30
0.0
 10
999.299975
 20
261.379993
 30
0.0
  0
LWPOLYLINE
  5
3a7
100
AcDbEntity
  8
Body_Frame_3
 62
7
100
AcDbPolyline
 90
2
 70
0
 10
1002.899975
 20
261.379993
 30
0.0
 10
1006.499975
 20
261.379993
 30
0.0
  0
LWPOLYLINE
  5
3a8
100
AcDbEntity
  8
Body_Frame_3
 62
7
100
AcDbPolyline
 90
2
 70
0
 10
1010.099975
 20
261.379993
 30
0.0
 10
1053.299974
 20
261.379993
 30
0.0
  0
LWPOLYLINE
  5
3a9
100
AcDbEntity
  8
Body_Frame_3
 62
7
100
AcDbPolyline
 90
2
 70
0
 10
1056.899974
 20
261.379993
 30
0.0
 10
1060.499973
 20
261.379993
 30
0.0
  0
LWPOLYLINE
  5
3aa
100
AcDbEntity
  8
Body_Frame_3
 62
7
100
AcDbPolyline
 90
3
 70
0
 10
1064.099973
 20
261.379993
 30
0.0
 10
1107.299972
 20
261.379993
 30
0.0
 10
1107.539972
 20
261.379993
 30
0.0
  0
LWPOLYLINE
  5
3ab
100
AcDbEntity
  8
Body_Frame_3
 62
7
100
AcDbPolyline
 90
2
 70
0
 10
602.699985
 20
1697.779958
 30
0.0
 10
648.239984
 20
1697.779958
 30
0.0
  0
LWPOLYLINE
  5
3ac
100
AcDbEntity
  8
Body_Frame_3
 62
7
100
AcDbPolyline
 90
2
 70
0
 10
651.839984
 20
1697.779958
 30
0.0
 10
655.439984
 20
1697.779958
 30
0.0
  0
LWPOLYLINE
  5
3ad
100
AcDbEntity
  8
Body_Frame_3
 62
7
100
AcDbPolyline
 90
2
 70
0
 10
659.039984
 20
1697.779958
 30
0.0
 10
702.239982
 20
1697.779958
 30
0.0
  0
LWPOLYLINE
  5
3ae
100
AcDbEntity
  8
Body_Frame_3
 62
7
100
AcDbPolyline
 90
2
 70
0
 10
705.839982
 20
1697.779958
 30
0.0
 10
709.439982
 20
1697.779958
 30
0.0
  0
LWPOLYLINE
  5
3af
100
AcDbEntity
  8
Body_Frame_3
 62
7
100
AcDbPolyline
 90
3
 70
0
 10
713.039982
 20
1697.779958
 30
0.0
 10
756.239981
 20
1697.779958
 30
0.0
 10
758.639981
 20
1697.779958
 30
0.0
  0
LWPOLYLINE
  5
3b0
100
AcDbEntity
  8
Body_Frame_3
 62
7
100
AcDbPolyline
 90
2
 70
0
 10
602.699985
 20
1706.299957
 30
0.0
 10
648.239984
 20
1706.299957
 30
0.0
  0
LWPOLYLINE
  5
3b1
100
AcDbEntity
  8
Body_Frame_3
 62
7
100
AcDbPolyline
 90
2
 70
0
 10
651.839984
 20
1706.299957
 30
0.0
 10
655.439984
 20
1706.299957
 30
0.0
  0
LWPOLYLINE
  5
3b2
100
AcDbEntity
  8
Body_Frame_3
 62
7
100
AcDbPolyline
 90
2
 70
0
 10
659.039984
 20
1706.299957
 30
0.0
 10
702.239982
 20
1706.299957
 30
0.0
  0
LWPOLYLINE
  5
3b3
100
AcDbEntity
  8
Body_Frame_3
 62
7
100
AcDbPolyline
 90
2
 70
0
 10
705.839982
 20
1706.299957
 30
0.0
 10
709.439982
 20
1706.299957
 30
0.0
  0
LWPOLYLINE
  5
3b4
100
AcDbEntity
  8
Body_Frame_3
 62
7
100
AcDbPolyline
 90
3
 70
0
 10
713.039982
 20
1706.299957
 30
0.0
 10
756.239981
 20
1706.299957
 30
0.0
 10
758.639981
 20
1706.299957
 30
0.0
  0
LWPOLYLINE
  5
3b5
100
AcDbEntity
  8
Body_Frame_3
 62
7
100
AcDbPolyline
 90
2
 70
0
 10
602.699985
 20
1602.499960
 30
0.0
 10
648.239984
 20
1602.499960
 30
0.0
  0
LWPOLYLINE
  5
3b6
100
AcDbEntity
  8
Body_Frame_3
 62
7
100
AcDbPolyline
 90
2
 70
0
 10
651.839984
 20
1602.499960
 30
0.0
 10
655.439984
 20
1602.499960
 30
0.0
  0
LWPOLYLINE
  5
3b7
100
AcDbEntity
  8
Body_Frame_3
 62
7
100
AcDbPolyline
 90
2
 70
0
 10
659.039984
 20
1602.499960
 30
0.0
 10
702.239982
 20
1602.499960
 30
0.0
  0
LWPOLYLINE
  5
3b8
100
AcDbEntity
  8
Body_Frame_3
 62
7
100
AcDbPolyline
 90
2
 70
0
 10
705.839982
 20
1602.499960
 30
0.0
 10
709.439982
 20
1602.499960
 30
0.0
  0
LWPOLYLINE
  5
3b9
100
AcDbEntity
  8
Body_Frame_3
 62
7
100
AcDbPolyline
 90
3
 70
0
 10
713.039982
 20
1602.499960
 30
0.0
 10
756.239981
 20
1602.499960
 30
0.0
 10
758.639981
 20
1602.499960
 30
0.0
  0
LWPOLYLINE
  5
3ba
100
AcDbEntity
  8
Body_Frame_3
 62
7
100
AcDbPolyline
 90
2
 70
0
 10
602.699985
 20
1611.019960
 30
0.0
 10
648.239984
 20
1611.019960
 30
0.0
  0
LWPOLYLINE
  5
3bb
100
AcDbEntity
  8
Body_Frame_3
 62
7
100
AcDbPolyline
 90
2
 70
0
 10
651.839984
 20
1611.019960
 30
0.0
 10
655.439984
 20
1611.019960
 30
0.0
  0
LWPOLYLINE
  5
3bc
100
AcDbEntity
  8
Body_Frame_3
 62
7
100
AcDbPolyline
 90
2
 70
0
 10
659.039984
 20
1611.019960
 30
0.0
 10
702.239982
 20
1611.019960
 30
0.0
  0
LWPOLYLINE
  5
3bd
100
AcDbEntity
  8
Body_Frame_3
 62
7
100
AcDbPolyline
 90
2
 70
0
 10
705.839982
 20
1611.019960
 30
0.0
 10
709.439982
 20
1611.019960
 30
0.0
  0
LWPOLYLINE
  5
3be
100
AcDbEntity
  8
Body_Frame_3
 62
7
100
AcDbPolyline
 90
3
 70
0
 10
713.039982
 20
1611.019960
 30
0.0
 10
756.239981
 20
1611.019960
 30
0.0
 10
758.639981
 20
1611.019960
 30
0.0
  0
LWPOLYLINE
  5
3bf
100
AcDbEntity
  8
Body_Frame_3
 62
7
100
AcDbPolyline
 90
2
 70
0
 10
917.279977
 20
1697.779958
 30
0.0
 10
962.819976
 20
1697.779958
 30
0.0
  0
LWPOLYLINE
  5
3c0
100
AcDbEntity
  8
Body_Frame_3
 62
7
100
AcDbPolyline
 90
2
 70
0
 10
966.419976
 20
1697.779958
 30
0.0
 10
970.019976
 20
1697.779958
 30
0.0
  0
LWPOLYLINE
  5
3c1
100
AcDbEntity
  8
Body_Frame_3
 62
7
100
AcDbPolyline
 90
2
 70
0
 10
973.619976
 20
1697.779958
 30
0.0
 10
1016.819975
 20
1697.779958
 30
0.0
  0
LWPOLYLINE
  5
3c2
100
AcDbEntity
  8
Body_Frame_3
 62
7
100
AcDbPolyline
 90
2
 70
0
 10
1020.419974
 20
1697.779958
 30
0.0
 10
1024.019974
 20
1697.779958
 30
0.0
  0
LWPOLYLINE
  5
3c3
100
AcDbEntity
  8
Body_Frame_3
 62
7
100
AcDbPolyline
 90
3
 70
0
 10
1027.619974
 20
1697.779958
 30
0.0
 10
1070.819973
 20
1697.779958
 30
0.0
 10
1073.219973
 20
1697.779958
 30
0.0
  0
LWPOLYLINE
  5
3c4
100
AcDbEntity
  8
Body_Frame_3
 62
7
100
AcDbPolyline
 90
2
 70
0
 10
917.279977
 20
1706.299957
 30
0.0
 10
962.819976
 20
1706.299957
 30
0.0
  0
LWPOLYLINE
  5
3c5
100
AcDbEntity
  8
Body_Frame_3
 62
7
100
AcDbPolyline
 90
2
 70
0
 10
966.419976
 20
1706.299957
 30
0.0
 10
970.019976
 20
1706.299957
 30
0.0
  0
LWPOLYLINE
  5
3c6
100
AcDbEntity
  8
Body_Frame_3
 62
7
100
AcDbPolyline
 90
2
 70
0
 10
973.619976
 20
1706.299957
 30
0.0
 10
1016.819975
 20
1706.299957
 30
0.0
  0
LWPOLYLINE
  5
3c7
100
AcDbEntity
  8
Body_Frame_3
 62
7
100
AcDbPolyline
 90
2
 70
0
 10
1020.419974
 20
1706.299957
 30
0.0
 10
1024.019974
 20
1706.299957
 30
0.0
  0
LWPOLYLINE
  5
3c8
100
AcDbEntity
  8
Body_Frame_3
 62
7
100
AcDbPolyline
 90
3
 70
0
 10
1027.619974
 20
1706.299957
 30
0.0
 10
1070.819973
 20
1706.299957
 30
0.0
 10
1073.219973
 20
1706.299957
 30
0.0
  0
LWPOLYLINE
  5
3c9
100
AcDbEntity
  8
Body_Frame_3
 62
7
100
AcDbPolyline
 90
2
 70
0
 10
917.279977
 20
1602.499960
 30
0.0
 10
962.819976
 20
1602.499960
 30
0.0
  0
LWPOLYLINE
  5
3ca
100
AcDbEntity
  8
Body_Frame_3
 62
7
100
AcDbPolyline
 90
2
 70
0
 10
966.419976
 20
1602.499960
 30
0.0
 10
970.019976
 20
1602.499960
 30
0.0
  0
LWPOLYLINE
  5
3cb
100
AcDbEntity
  8
Body_Frame_3
 62
7
100
AcDbPolyline
 90
2
 70
0
 10
973.619976
 20
1602.499960
 30
0.0
 10
1016.819975
 20
1602.499960
 30
0.0
  0
LWPOLYLINE
  5
3cc
100
AcDbEntity
  8
Body_Frame_3
 62
7
100
AcDbPolyline
 90
2
 70
0
 10
1020.419974
 20
1602.499960
 30
0.0
 10
1024.019974
 20
1602.499960
 30
0.0
  0
LWPOLYLINE
  5
3cd
100
AcDbEntity
  8
Body_Frame_3
 62
7
100
AcDbPolyline
 90
3
 70
0
 10
1027.619974
 20
1602.499960
 30
0.0
 10
1070.819973
 20
1602.499960
 30
0.0
 10
1073.219973
 20
1602.499960
 30
0.0
  0
LWPOLYLINE
  5
3ce
100
AcDbEntity
  8
Body_Frame_3
 62
7
100
AcDbPolyline
 90
2
 70
0
 10
917.279977
 20
1611.019960
 30
0.0
 10
962.819976
 20
1611.019960
 30
0.0
  0
LWPOLYLINE
  5
3cf
100
AcDbEntity
  8
Body_Frame_3
 62
7
100
AcDbPolyline
 90
2
 70
0
 10
966.419976
 20
1611.019960
 30
0.0
 10
970.019976
 20
1611.019960
 30
0.0
  0
LWPOLYLINE
  5
3d0
100
AcDbEntity
  8
Body_Frame_3
 62
7
100
AcDbPolyline
 90
2
 70
0
 10
973.619976
 20
1611.019960
 30
0.0
 10
1016.819975
 20
1611.019960
 30
0.0
  0
LWPOLYLINE
  5
3d1
100
AcDbEntity
  8
Body_Frame_3
 62
7
100
AcDbPolyline
 90
2
 70
0
 10
1020.419974
 20
1611.019960
 30
0.0
 10
1024.019974
 20
1611.019960
 30
0.0
  0
LWPOLYLINE
  5
3d2
100
AcDbEntity
  8
Body_Frame_3
 62
7
100
AcDbPolyline
 90
3
 70
0
 10
1027.619974
 20
1611.019960
 30
0.0
 10
1070.819973
 20
1611.019960
 30
0.0
 10
1073.219973
 20
1611.019960
 30
0.0
  0
ENDSEC
  0
SECTION
  2
OBJECTS
  0
DICTIONARY
  5
C
330
0
100
AcDbDictionary
  3
ACAD_GROUP
350
D
  3
ACAD_MLINESTYLE
350
17
  0
DICTIONARY
  5
D
330
C
100
AcDbDictionary
  0
DICTIONARY
  5
1A
330
C
100
AcDbDictionary
  0
DICTIONARY
  5
17
330
C
100
AcDbDictionary
  3
STANDARD
350
18
  0
DICTIONARY
  5
19
330
C
100
AcDbDictionary
  0
ENDSEC
  0
EOF
