<?xml version="1.0" encoding="utf-8"?>
<!-- Generator: Adobe Illustrator 16.0.0, SVG Export Plug-In . SVG Version: 6.00 Build 0)  -->
<!DOCTYPE svg PUBLIC "-//W3C//DTD SVG 1.1//EN" "http://www.w3.org/Graphics/SVG/1.1/DTD/svg11.dtd">
<svg version="1.1" id="图层_1" xmlns="http://www.w3.org/2000/svg" xmlns:xlink="http://www.w3.org/1999/xlink" x="0px" y="0px"
	 width="500px" height="500px" viewBox="0 0 500 500" enable-background="new 0 0 500 500" xml:space="preserve">
<g id="XMLID_1_">
	<g>
		<polygon fill="#444444" points="300.197,71.1 324.807,113.732 321.327,119.77 321.289,119.744 293.2,71.1 		"/>
		<polygon points="321.327,119.77 279.258,192.627 279.155,192.563 222.875,192.563 222.683,192.678 180.614,119.783 208.715,71.1 
			293.2,71.1 321.289,119.744 		"/>
		<polygon fill="#444444" points="279.258,192.627 275.574,198.997 226.342,199.01 222.683,192.678 222.875,192.563 
			279.155,192.563 		"/>
		<polygon fill="#444444" points="208.715,71.1 180.614,119.783 177.122,113.732 201.731,71.1 		"/>
	</g>
	<g>
	</g>
</g>
<g id="XMLID_2_">
	<g>
		<polygon fill="#444444" points="298.196,428.925 322.807,386.293 319.327,380.256 319.289,380.281 291.2,428.925 		"/>
		<polygon points="319.327,380.256 277.258,307.397 277.155,307.462 220.875,307.462 220.683,307.347 178.613,380.242 
			206.715,428.925 291.2,428.925 319.289,380.281 		"/>
		<polygon fill="#444444" points="277.258,307.397 273.574,301.028 224.341,301.015 220.683,307.347 220.875,307.462 
			277.155,307.462 		"/>
		<polygon fill="#444444" points="206.715,428.925 178.613,380.242 175.122,386.293 199.731,428.925 		"/>
	</g>
	<g>
	</g>
</g>
</svg>
