  0
SECTION
  2
HEADER
  9
$ACADVER
  1
AC1014
  9
$HANDSEED
  5
FFFF
  9
$MEASUREMENT
 70
     1
  0
ENDSEC
  0
SECTION
  2
TABLES
  0
TABLE
  2
VPORT
  5
8
330
0
100
AcDbSymbolTable
 70
     4
  0
VPORT
  5
2E
330
8
100
AcDbSymbolTableRecord
100
AcDbViewportTableRecord
  2
*ACTIVE
 70
     0
 10
0.0
 20
0.0
 11
1.0
 21
1.0
 12
210.0
 22
148.5
 13
0.0
 23
0.0
 14
10.0
 24
10.0
 15
10.0
 25
10.0
 16
0.0
 26
0.0
 36
1.0
 17
0.0
 27
0.0
 37
0.0
 40
341.0
 41
1.24
 42
50.0
 43
0.0
 44
0.0
 50
0.0
 51
0.0
 71
     0
 72
   100
 73
     1
 74
     3
 75
     0
 76
     0
 77
     0
 78
     0
  0
ENDTAB
  0
TABLE
  2
LTYPE
  5
5
330
0
100
AcDbSymbolTable
 70
     1
  0
LTYPE
  5
14
330
5
100
AcDbSymbolTableRecord
100
AcDbLinetypeTableRecord
  2
BYBLOCK
 70
     0
  3

 72
    65
 73
     0
 40
0.0
  0
LTYPE
  5
15
330
5
100
AcDbSymbolTableRecord
100
AcDbLinetypeTableRecord
  2
BYLAYER
 70
     0
  3

 72
    65
 73
     0
 40
0.0
  0
LTYPE
  5
16
330
5
100
AcDbSymbolTableRecord
100
AcDbLinetypeTableRecord
  2
CONTINUOUS
 70
     0
  3
Solid line
 72
    65
 73
     0
 40
0.0
  0
ENDTAB
  0
TABLE
  2
LAYER
  5
2
100
AcDbSymbolTable
 70
2
  0
LAYER
  5
50
100
AcDbSymbolTableRecord
100
AcDbLayerTableRecord
  2
0
 70
0
  6
CONTINUOUS
  0
LAYER
  5
51
100
AcDbSymbolTableRecord
100
AcDbLayerTableRecord
  2
R5_DOME_SHEET_1
 70
0
  6
CONTINUOUS
  0
ENDTAB
  0
TABLE
  2
STYLE
  5
3
330
0
100
AcDbSymbolTable
 70
     1
  0
STYLE
  5
11
330
3
100
AcDbSymbolTableRecord
100
AcDbTextStyleTableRecord
  2
STANDARD
 70
     0
 40
0.0
 41
1.0
 50
0.0
 71
     0
 42
2.5
  3
txt
  4

  0
ENDTAB
  0
TABLE
  2
VIEW
  5
6
330
0
100
AcDbSymbolTable
 70
     0
  0
ENDTAB
  0
TABLE
  2
UCS
  5
7
330
0
100
AcDbSymbolTable
 70
     0
  0
ENDTAB
  0
TABLE
  2
APPID
  5
9
330
0
100
AcDbSymbolTable
 70
     2
  0
APPID
  5
12
330
9
100
AcDbSymbolTableRecord
100
AcDbRegAppTableRecord
  2
ACAD
 70
     0
  0
ENDTAB
  0
TABLE
  2
DIMSTYLE
  5
A
330
0
100
AcDbSymbolTable
 70
     1
  0
DIMSTYLE
105
27
330
A
100
AcDbSymbolTableRecord
100
AcDbDimStyleTableRecord
  2
ISO-25
 70
     0
  3

  4

  5

  6

  7

 40
1.0
 41
2.5
 42
0.625
 43
3.75
 44
1.25
 45
0.0
 46
0.0
 47
0.0
 48
0.0
140
2.5
141
2.5
142
0.0
143
0.03937007874016
144
1.0
145
0.0
146
1.0
147
0.625
 71
     0
 72
     0
 73
     0
 74
     0
 75
     0
 76
     0
 77
     1
 78
     8
170
     0
171
     3
172
     1
173
     0
174
     0
175
     0
176
     0
177
     0
178
     0
270
     2
271
     2
272
     2
273
     2
274
     3
340
11
275
     0
280
     0
281
     0
282
     0
283
     0
284
     8
285
     0
286
     0
287
     3
288
     0
  0
ENDTAB
  0
TABLE
  2
BLOCK_RECORD
  5
1
330
0
100
AcDbSymbolTable
 70
     1
  0
BLOCK_RECORD
  5
1F
330
1
100
AcDbSymbolTableRecord
100
AcDbBlockTableRecord
  2
*MODEL_SPACE
  0
BLOCK_RECORD
  5
1B
330
1
100
AcDbSymbolTableRecord
100
AcDbBlockTableRecord
  2
*PAPER_SPACE
  0
ENDTAB
  0
ENDSEC
  0
SECTION
  2
BLOCKS
  0
BLOCK
  5
20
330
1F
100
AcDbEntity
  8
0
100
AcDbBlockBegin
  2
*MODEL_SPACE
 70
     0
 10
0.0
 20
0.0
 30
0.0
  3
*MODEL_SPACE
  1

  0
ENDBLK
  5
21
330
1F
100
AcDbEntity
  8
0
100
AcDbBlockEnd
  0
BLOCK
  5
1C
330
1B
100
AcDbEntity
 67
     1
  8
0
100
AcDbBlockBegin
  2
*PAPER_SPACE
  1

  0
ENDBLK
  5
1D
330
1B
100
AcDbEntity
 67
     1
  8
0
100
AcDbBlockEnd
  0
ENDSEC
  0
SECTION
  2
ENTITIES
  0
SPLINE
  5
100
100
AcDbEntity
  8
R5_DOME_SHEET_1
 62
7
100
AcDbSpline
 70
8
 71
3
 72
8
 73
4
 74
0
 40
0
 40
0
 40
0
 40
0
 40
1
 40
1
 40
1
 40
1
 10
1359.059966
 20
1605.439960
 30
0.0
 10
1358.298966
 20
1902.853952
 30
0.0
 10
1119.174972
 20
2141.978946
 30
0.0
 10
821.759979
 20
2142.739946
 30
0.0
  0
SPLINE
  5
101
100
AcDbEntity
  8
R5_DOME_SHEET_1
 62
7
100
AcDbSpline
 70
8
 71
3
 72
8
 73
4
 74
0
 40
0
 40
0
 40
0
 40
0
 40
1
 40
1
 40
1
 40
1
 10
821.759979
 20
2142.739946
 30
0.0
 10
524.368987
 20
2141.945946
 30
0.0
 10
285.279993
 20
1902.830952
 30
0.0
 10
284.519993
 20
1605.439960
 30
0.0
  0
SPLINE
  5
102
100
AcDbEntity
  8
R5_DOME_SHEET_1
 62
7
100
AcDbSpline
 70
8
 71
3
 72
8
 73
4
 74
0
 40
0
 40
0
 40
0
 40
0
 40
1
 40
1
 40
1
 40
1
 10
284.519993
 20
1605.439960
 30
0.0
 10
285.313993
 20
1308.047967
 30
0.0
 10
524.428987
 20
1068.959973
 30
0.0
 10
821.819979
 20
1068.199973
 30
0.0
  0
SPLINE
  5
103
100
AcDbEntity
  8
R5_DOME_SHEET_1
 62
7
100
AcDbSpline
 70
8
 71
3
 72
8
 73
4
 74
0
 40
0
 40
0
 40
0
 40
0
 40
1
 40
1
 40
1
 40
1
 10
821.819979
 20
1068.199973
 30
0.0
 10
1119.210972
 20
1068.992973
 30
0.0
 10
1358.299966
 20
1308.107967
 30
0.0
 10
1359.059966
 20
1605.499960
 30
0.0
  0
LWPOLYLINE
  5
104
100
AcDbEntity
  8
R5_DOME_SHEET_1
 62
7
100
AcDbPolyline
 90
160
 70
1
 10
1473.239963
 20
1605.439960
 30
0.0
 10
1472.759963
 20
1630.999959
 30
0.0
 10
1471.259963
 20
1656.559959
 30
0.0
 10
1468.739963
 20
1681.999958
 30
0.0
 10
1465.199963
 20
1707.319957
 30
0.0
 10
1460.699963
 20
1732.519957
 30
0.0
 10
1455.239964
 20
1757.478956
 30
0.0
 10
1448.759964
 20
1782.259955
 30
0.0
 10
1441.379964
 20
1806.739955
 30
0.0
 10
1432.979964
 20
1830.919954
 30
0.0
 10
1423.679964
 20
1854.739954
 30
0.0
 10
1413.419965
 20
1878.139953
 30
0.0
 10
1402.259965
 20
1901.178952
 30
0.0
 10
1390.199965
 20
1923.739952
 30
0.0
 10
1377.239966
 20
1945.819951
 30
0.0
 10
1363.439966
 20
1967.358951
 30
0.0
 10
1348.799966
 20
1988.299950
 30
0.0
 10
1333.379967
 20
2008.698950
 30
0.0
 10
1317.179967
 20
2028.499949
 30
0.0
 10
1300.199967
 20
2047.639949
 30
0.0
 10
1282.439968
 20
2066.059948
 30
0.0
 10
1264.019968
 20
2083.759948
 30
0.0
 10
1244.879969
 20
2100.799947
 30
0.0
 10
1225.079969
 20
2116.999947
 30
0.0
 10
1204.739970
 20
2132.418947
 30
0.0
 10
1183.739970
 20
2147.059946
 30
0.0
 10
1162.199971
 20
2160.858946
 30
0.0
 10
1140.119971
 20
2173.819946
 30
0.0
 10
1117.559972
 20
2185.878945
 30
0.0
 10
1094.519973
 20
2197.039945
 30
0.0
 10
1071.119973
 20
2207.239945
 30
0.0
 10
1047.299974
 20
2216.599945
 30
0.0
 10
1023.119974
 20
2224.938944
 30
0.0
 10
998.639975
 20
2232.378944
 30
0.0
 10
973.859976
 20
2238.858944
 30
0.0
 10
948.899976
 20
2244.318944
 30
0.0
 10
923.699977
 20
2248.818944
 30
0.0
 10
898.379978
 20
2252.358944
 30
0.0
 10
872.939978
 20
2254.818944
 30
0.0
 10
847.379979
 20
2256.318944
 30
0.0
 10
821.819979
 20
2256.858944
 30
0.0
 10
796.259980
 20
2256.318944
 30
0.0
 10
770.699981
 20
2254.818944
 30
0.0
 10
745.259981
 20
2252.358944
 30
0.0
 10
719.879982
 20
2248.818944
 30
0.0
 10
694.739983
 20
2244.318944
 30
0.0
 10
669.719983
 20
2238.858944
 30
0.0
 10
644.999984
 20
2232.378944
 30
0.0
 10
620.519984
 20
2224.938944
 30
0.0
 10
596.339985
 20
2216.599945
 30
0.0
 10
572.519986
 20
2207.239945
 30
0.0
 10
549.059986
 20
2197.039945
 30
0.0
 10
526.079987
 20
2185.878945
 30
0.0
 10
503.519987
 20
2173.819946
 30
0.0
 10
481.439988
 20
2160.858946
 30
0.0
 10
459.899989
 20
2147.059946
 30
0.0
 10
438.899989
 20
2132.418947
 30
0.0
 10
418.499990
 20
2116.999947
 30
0.0
 10
398.759990
 20
2100.799947
 30
0.0
 10
379.619991
 20
2083.759948
 30
0.0
 10
361.199991
 20
2066.059948
 30
0.0
 10
343.439991
 20
2047.639949
 30
0.0
 10
326.459992
 20
2028.499949
 30
0.0
 10
310.259992
 20
2008.698950
 30
0.0
 10
294.779993
 20
1988.299950
 30
0.0
 10
280.199993
 20
1967.358951
 30
0.0
 10
266.399993
 20
1945.819951
 30
0.0
 10
253.439994
 20
1923.739952
 30
0.0
 10
241.379994
 20
1901.178952
 30
0.0
 10
230.219994
 20
1878.139953
 30
0.0
 10
219.959995
 20
1854.739954
 30
0.0
 10
210.659995
 20
1830.919954
 30
0.0
 10
202.259995
 20
1806.739955
 30
0.0
 10
194.819995
 20
1782.259955
 30
0.0
 10
188.399995
 20
1757.478956
 30
0.0
 10
182.879995
 20
1732.519957
 30
0.0
 10
178.379996
 20
1707.319957
 30
0.0
 10
174.899996
 20
1681.999958
 30
0.0
 10
172.379996
 20
1656.559959
 30
0.0
 10
170.879996
 20
1630.999959
 30
0.0
 10
170.399996
 20
1605.439960
 30
0.0
 10
170.879996
 20
1579.879961
 30
0.0
 10
172.379996
 20
1554.319961
 30
0.0
 10
174.899996
 20
1528.879962
 30
0.0
 10
178.379996
 20
1503.499962
 30
0.0
 10
182.879995
 20
1478.358963
 30
0.0
 10
188.399995
 20
1453.339964
 30
0.0
 10
194.819995
 20
1428.619964
 30
0.0
 10
202.259995
 20
1404.139965
 30
0.0
 10
210.659995
 20
1379.959966
 30
0.0
 10
219.959995
 20
1356.139966
 30
0.0
 10
230.219994
 20
1332.679967
 30
0.0
 10
241.379994
 20
1309.699967
 30
0.0
 10
253.439994
 20
1287.139968
 30
0.0
 10
266.399993
 20
1265.059968
 30
0.0
 10
280.199993
 20
1243.519969
 30
0.0
 10
294.779993
 20
1222.519969
 30
0.0
 10
310.259992
 20
1202.119970
 30
0.0
 10
326.459992
 20
1182.379970
 30
0.0
 10
343.439991
 20
1163.239971
 30
0.0
 10
361.199991
 20
1144.819971
 30
0.0
 10
379.619991
 20
1127.059972
 30
0.0
 10
398.759990
 20
1110.079972
 30
0.0
 10
418.499990
 20
1093.819973
 30
0.0
 10
438.899989
 20
1078.399973
 30
0.0
 10
459.899989
 20
1063.759973
 30
0.0
 10
481.439988
 20
1050.019974
 30
0.0
 10
503.519987
 20
1037.059974
 30
0.0
 10
526.079987
 20
1024.999974
 30
0.0
 10
549.059986
 20
1013.839975
 30
0.0
 10
572.519986
 20
1003.579975
 30
0.0
 10
596.339985
 20
994.279975
 30
0.0
 10
620.519984
 20
985.879975
 30
0.0
 10
644.999984
 20
978.439976
 30
0.0
 10
669.719983
 20
972.019976
 30
0.0
 10
694.739983
 20
966.499976
 30
0.0
 10
719.879982
 20
961.999976
 30
0.0
 10
745.259981
 20
958.519976
 30
0.0
 10
770.699981
 20
955.999976
 30
0.0
 10
796.259980
 20
954.499976
 30
0.0
 10
821.819979
 20
954.019976
 30
0.0
 10
847.379979
 20
954.499976
 30
0.0
 10
872.939978
 20
955.999976
 30
0.0
 10
898.379978
 20
958.519976
 30
0.0
 10
923.699977
 20
961.999976
 30
0.0
 10
948.899976
 20
966.499976
 30
0.0
 10
973.859976
 20
972.019976
 30
0.0
 10
998.639975
 20
978.439976
 30
0.0
 10
1023.119974
 20
985.879975
 30
0.0
 10
1047.299974
 20
994.279975
 30
0.0
 10
1071.119973
 20
1003.579975
 30
0.0
 10
1094.519973
 20
1013.839975
 30
0.0
 10
1117.559972
 20
1024.999974
 30
0.0
 10
1140.119971
 20
1037.059974
 30
0.0
 10
1162.199971
 20
1050.019974
 30
0.0
 10
1183.739970
 20
1063.759973
 30
0.0
 10
1204.739970
 20
1078.399973
 30
0.0
 10
1225.079969
 20
1093.819973
 30
0.0
 10
1244.879969
 20
1110.079972
 30
0.0
 10
1264.019968
 20
1127.059972
 30
0.0
 10
1282.439968
 20
1144.819971
 30
0.0
 10
1300.199967
 20
1163.239971
 30
0.0
 10
1317.179967
 20
1182.379970
 30
0.0
 10
1333.379967
 20
1202.119970
 30
0.0
 10
1348.799966
 20
1222.519969
 30
0.0
 10
1363.439966
 20
1243.519969
 30
0.0
 10
1377.239966
 20
1265.059968
 30
0.0
 10
1390.199965
 20
1287.139968
 30
0.0
 10
1402.259965
 20
1309.699967
 30
0.0
 10
1413.419965
 20
1332.679967
 30
0.0
 10
1423.679964
 20
1356.139966
 30
0.0
 10
1432.979964
 20
1379.959966
 30
0.0
 10
1441.379964
 20
1404.139965
 30
0.0
 10
1448.759964
 20
1428.619964
 30
0.0
 10
1455.239964
 20
1453.339964
 30
0.0
 10
1460.699963
 20
1478.358963
 30
0.0
 10
1465.199963
 20
1503.499962
 30
0.0
 10
1468.739963
 20
1528.879962
 30
0.0
 10
1471.259963
 20
1554.319961
 30
0.0
 10
1472.759963
 20
1579.879961
 30
0.0
  0
SPLINE
  5
105
100
AcDbEntity
  8
R5_DOME_SHEET_1
 62
7
100
AcDbSpline
 70
8
 71
3
 72
8
 73
4
 74
0
 40
0
 40
0
 40
0
 40
0
 40
1
 40
1
 40
1
 40
1
 10
284.519993
 20
1500.259962
 30
0.0
 10
284.421993
 20
1500.379962
 30
0.0
 10
284.387993
 20
1500.564962
 30
0.0
 10
284.279993
 20
1500.679962
 30
0.0
  0
LWPOLYLINE
  5
106
100
AcDbEntity
  8
R5_DOME_SHEET_1
 62
7
100
AcDbPolyline
 90
22
 70
0
 10
285.179993
 20
1497.379963
 30
0.0
 10
285.119993
 20
1497.499963
 30
0.0
 10
285.119993
 20
1498.218963
 30
0.0
 10
285.059993
 20
1498.279963
 30
0.0
 10
285.059993
 20
1498.639963
 30
0.0
 10
284.999993
 20
1498.699963
 30
0.0
 10
284.999993
 20
1498.879963
 30
0.0
 10
284.939993
 20
1498.939963
 30
0.0
 10
284.939993
 20
1499.119963
 30
0.0
 10
284.879993
 20
1499.179963
 30
0.0
 10
284.879993
 20
1499.359963
 30
0.0
 10
284.819993
 20
1499.419963
 30
0.0
 10
284.819993
 20
1499.478963
 30
0.0
 10
284.759993
 20
1499.599963
 30
0.0
 10
284.759993
 20
1499.718963
 30
0.0
 10
284.699993
 20
1499.779963
 30
0.0
 10
284.699993
 20
1499.899963
 30
0.0
 10
284.639993
 20
1499.958963
 30
0.0
 10
284.639993
 20
1500.019962
 30
0.0
 10
284.579993
 20
1500.079962
 30
0.0
 10
284.519993
 20
1500.199962
 30
0.0
 10
284.519993
 20
1500.259962
 30
0.0
  0
SPLINE
  5
107
100
AcDbEntity
  8
R5_DOME_SHEET_1
 62
7
100
AcDbSpline
 70
8
 71
3
 72
8
 73
4
 74
0
 40
0
 40
0
 40
0
 40
0
 40
1
 40
1
 40
1
 40
1
 10
283.739993
 20
1501.519962
 30
0.0
 10
283.366993
 20
1501.862962
 30
0.0
 10
283.728993
 20
1501.614962
 30
0.0
 10
283.439993
 20
1501.879962
 30
0.0
  0
SPLINE
  5
108
100
AcDbEntity
  8
R5_DOME_SHEET_1
 62
7
100
AcDbSpline
 70
8
 71
3
 72
8
 73
4
 74
0
 40
0
 40
0
 40
0
 40
0
 40
1
 40
1
 40
1
 40
1
 10
283.439993
 20
1501.879962
 30
0.0
 10
283.319993
 20
1501.999962
 30
0.0
 10
283.199993
 20
1502.119962
 30
0.0
 10
283.079993
 20
1502.239962
 30
0.0
  0
LWPOLYLINE
  5
109
100
AcDbEntity
  8
R5_DOME_SHEET_1
 62
7
100
AcDbPolyline
 90
11
 70
0
 10
284.279993
 20
1500.679962
 30
0.0
 10
284.219993
 20
1500.739962
 30
0.0
 10
284.219993
 20
1500.859962
 30
0.0
 10
284.099993
 20
1500.978962
 30
0.0
 10
284.099993
 20
1501.039962
 30
0.0
 10
284.039993
 20
1501.099962
 30
0.0
 10
283.919993
 20
1501.218962
 30
0.0
 10
283.859993
 20
1501.339962
 30
0.0
 10
283.859993
 20
1501.399962
 30
0.0
 10
283.799993
 20
1501.458962
 30
0.0
 10
283.739993
 20
1501.519962
 30
0.0
  0
SPLINE
  5
10a
100
AcDbEntity
  8
R5_DOME_SHEET_1
 62
7
100
AcDbSpline
 70
8
 71
3
 72
8
 73
4
 74
0
 40
0
 40
0
 40
0
 40
0
 40
1
 40
1
 40
1
 40
1
 10
282.719993
 20
1502.539962
 30
0.0
 10
282.460993
 20
1502.783962
 30
0.0
 10
282.607993
 20
1502.717962
 30
0.0
 10
282.299993
 20
1502.839962
 30
0.0
  0
SPLINE
  5
10b
100
AcDbEntity
  8
R5_DOME_SHEET_1
 62
7
100
AcDbSpline
 70
8
 71
3
 72
8
 73
4
 74
0
 40
0
 40
0
 40
0
 40
0
 40
1
 40
1
 40
1
 40
1
 10
282.299993
 20
1502.839962
 30
0.0
 10
281.956993
 20
1503.211962
 30
0.0
 10
282.203993
 20
1502.850962
 30
0.0
 10
281.939993
 20
1503.139962
 30
0.0
  0
LWPOLYLINE
  5
10c
100
AcDbEntity
  8
R5_DOME_SHEET_1
 62
7
100
AcDbPolyline
 90
6
 70
0
 10
283.079993
 20
1502.239962
 30
0.0
 10
283.019993
 20
1502.299962
 30
0.0
 10
282.959993
 20
1502.359962
 30
0.0
 10
282.839993
 20
1502.478962
 30
0.0
 10
282.779993
 20
1502.478962
 30
0.0
 10
282.719993
 20
1502.539962
 30
0.0
  0
SPLINE
  5
10d
100
AcDbEntity
  8
R5_DOME_SHEET_1
 62
7
100
AcDbSpline
 70
8
 71
3
 72
8
 73
4
 74
0
 40
0
 40
0
 40
0
 40
0
 40
1
 40
1
 40
1
 40
1
 10
279.119993
 20
1504.039962
 30
0.0
 10
278.799993
 20
1504.039962
 30
0.0
 10
278.479993
 20
1504.039962
 30
0.0
 10
278.159993
 20
1504.039962
 30
0.0
  0
SPLINE
  5
10e
100
AcDbEntity
  8
R5_DOME_SHEET_1
 62
7
100
AcDbSpline
 70
8
 71
3
 72
8
 73
4
 74
0
 40
0
 40
0
 40
0
 40
0
 40
1
 40
1
 40
1
 40
1
 10
278.159993
 20
1504.039962
 30
0.0
 10
277.999993
 20
1504.039962
 30
0.0
 10
277.839993
 20
1504.039962
 30
0.0
 10
277.679993
 20
1504.039962
 30
0.0
  0
LWPOLYLINE
  5
10f
100
AcDbEntity
  8
R5_DOME_SHEET_1
 62
7
100
AcDbPolyline
 90
29
 70
0
 10
281.939993
 20
1503.139962
 30
0.0
 10
281.819993
 20
1503.139962
 30
0.0
 10
281.759993
 20
1503.199962
 30
0.0
 10
281.699993
 20
1503.259962
 30
0.0
 10
281.639993
 20
1503.259962
 30
0.0
 10
281.579993
 20
1503.319962
 30
0.0
 10
281.459993
 20
1503.379962
 30
0.0
 10
281.399993
 20
1503.379962
 30
0.0
 10
281.339993
 20
1503.439962
 30
0.0
 10
281.279993
 20
1503.439962
 30
0.0
 10
281.159993
 20
1503.499962
 30
0.0
 10
281.099993
 20
1503.559962
 30
0.0
 10
281.039993
 20
1503.559962
 30
0.0
 10
280.979993
 20
1503.619962
 30
0.0
 10
280.859993
 20
1503.619962
 30
0.0
 10
280.799993
 20
1503.679962
 30
0.0
 10
280.679993
 20
1503.679962
 30
0.0
 10
280.559993
 20
1503.739962
 30
0.0
 10
280.499993
 20
1503.739962
 30
0.0
 10
280.439993
 20
1503.799962
 30
0.0
 10
280.259993
 20
1503.799962
 30
0.0
 10
280.199993
 20
1503.859962
 30
0.0
 10
280.019993
 20
1503.859962
 30
0.0
 10
279.959993
 20
1503.919962
 30
0.0
 10
279.779993
 20
1503.919962
 30
0.0
 10
279.719993
 20
1503.978962
 30
0.0
 10
279.359993
 20
1503.978962
 30
0.0
 10
279.299993
 20
1504.039962
 30
0.0
 10
279.119993
 20
1504.039962
 30
0.0
  0
SPLINE
  5
110
100
AcDbEntity
  8
R5_DOME_SHEET_1
 62
7
100
AcDbSpline
 70
8
 71
3
 72
8
 73
4
 74
0
 40
0
 40
0
 40
0
 40
0
 40
1
 40
1
 40
1
 40
1
 10
274.139993
 20
1502.478962
 30
0.0
 10
274.019993
 20
1502.359962
 30
0.0
 10
273.899993
 20
1502.239962
 30
0.0
 10
273.779993
 20
1502.119962
 30
0.0
  0
SPLINE
  5
111
100
AcDbEntity
  8
R5_DOME_SHEET_1
 62
7
100
AcDbSpline
 70
8
 71
3
 72
8
 73
4
 74
0
 40
0
 40
0
 40
0
 40
0
 40
1
 40
1
 40
1
 40
1
 10
273.779993
 20
1502.119962
 30
0.0
 10
273.659993
 20
1501.999962
 30
0.0
 10
273.539993
 20
1501.879962
 30
0.0
 10
273.419993
 20
1501.759962
 30
0.0
  0
LWPOLYLINE
  5
112
100
AcDbEntity
  8
R5_DOME_SHEET_1
 62
7
100
AcDbPolyline
 90
39
 70
0
 10
277.679993
 20
1504.039962
 30
0.0
 10
277.619993
 20
1503.978962
 30
0.0
 10
277.259993
 20
1503.978962
 30
0.0
 10
277.199993
 20
1503.919962
 30
0.0
 10
277.019993
 20
1503.919962
 30
0.0
 10
276.959993
 20
1503.859962
 30
0.0
 10
276.779993
 20
1503.859962
 30
0.0
 10
276.719993
 20
1503.799962
 30
0.0
 10
276.539993
 20
1503.799962
 30
0.0
 10
276.479993
 20
1503.739962
 30
0.0
 10
276.419993
 20
1503.739962
 30
0.0
 10
276.299993
 20
1503.679962
 30
0.0
 10
276.179993
 20
1503.679962
 30
0.0
 10
276.119993
 20
1503.619962
 30
0.0
 10
275.999993
 20
1503.619962
 30
0.0
 10
275.939993
 20
1503.559962
 30
0.0
 10
275.879993
 20
1503.559962
 30
0.0
 10
275.819993
 20
1503.499962
 30
0.0
 10
275.699993
 20
1503.439962
 30
0.0
 10
275.639993
 20
1503.439962
 30
0.0
 10
275.579993
 20
1503.379962
 30
0.0
 10
275.519993
 20
1503.379962
 30
0.0
 10
275.399993
 20
1503.319962
 30
0.0
 10
275.339993
 20
1503.259962
 30
0.0
 10
275.279993
 20
1503.259962
 30
0.0
 10
275.219993
 20
1503.199962
 30
0.0
 10
275.159993
 20
1503.139962
 30
0.0
 10
275.039993
 20
1503.139962
 30
0.0
 10
274.979993
 20
1503.079962
 30
0.0
 10
274.919993
 20
1503.019962
 30
0.0
 10
274.859993
 20
1503.019962
 30
0.0
 10
274.799993
 20
1502.958962
 30
0.0
 10
274.679993
 20
1502.839962
 30
0.0
 10
274.559993
 20
1502.779962
 30
0.0
 10
274.499993
 20
1502.779962
 30
0.0
 10
274.439993
 20
1502.718962
 30
0.0
 10
274.319993
 20
1502.599962
 30
0.0
 10
274.199993
 20
1502.478962
 30
0.0
 10
274.139993
 20
1502.478962
 30
0.0
  0
SPLINE
  5
113
100
AcDbEntity
  8
R5_DOME_SHEET_1
 62
7
100
AcDbSpline
 70
8
 71
3
 72
8
 73
4
 74
0
 40
0
 40
0
 40
0
 40
0
 40
1
 40
1
 40
1
 40
1
 10
271.859993
 20
1498.218963
 30
0.0
 10
271.859993
 20
1498.058963
 30
0.0
 10
271.859993
 20
1497.899963
 30
0.0
 10
271.859993
 20
1497.739963
 30
0.0
  0
SPLINE
  5
114
100
AcDbEntity
  8
R5_DOME_SHEET_1
 62
7
100
AcDbSpline
 70
8
 71
3
 72
8
 73
4
 74
0
 40
0
 40
0
 40
0
 40
0
 40
1
 40
1
 40
1
 40
1
 10
271.859993
 20
1497.739963
 30
0.0
 10
271.859993
 20
1497.419963
 30
0.0
 10
271.859993
 20
1497.098963
 30
0.0
 10
271.859993
 20
1496.779963
 30
0.0
  0
LWPOLYLINE
  5
115
100
AcDbEntity
  8
R5_DOME_SHEET_1
 62
7
100
AcDbPolyline
 90
39
 70
0
 10
273.419993
 20
1501.759962
 30
0.0
 10
273.419993
 20
1501.699962
 30
0.0
 10
273.359993
 20
1501.639962
 30
0.0
 10
273.299993
 20
1501.579962
 30
0.0
 10
273.179993
 20
1501.458962
 30
0.0
 10
273.119993
 20
1501.399962
 30
0.0
 10
273.119993
 20
1501.339962
 30
0.0
 10
273.059993
 20
1501.218962
 30
0.0
 10
272.939993
 20
1501.099962
 30
0.0
 10
272.879993
 20
1501.039962
 30
0.0
 10
272.879993
 20
1500.978962
 30
0.0
 10
272.759993
 20
1500.859962
 30
0.0
 10
272.759993
 20
1500.739962
 30
0.0
 10
272.699993
 20
1500.679962
 30
0.0
 10
272.639993
 20
1500.619962
 30
0.0
 10
272.639993
 20
1500.559962
 30
0.0
 10
272.579993
 20
1500.499962
 30
0.0
 10
272.519993
 20
1500.379962
 30
0.0
 10
272.519993
 20
1500.319962
 30
0.0
 10
272.459993
 20
1500.259962
 30
0.0
 10
272.459993
 20
1500.199962
 30
0.0
 10
272.399993
 20
1500.079962
 30
0.0
 10
272.339993
 20
1500.019962
 30
0.0
 10
272.339993
 20
1499.958963
 30
0.0
 10
272.279993
 20
1499.899963
 30
0.0
 10
272.279993
 20
1499.779963
 30
0.0
 10
272.219993
 20
1499.718963
 30
0.0
 10
272.219993
 20
1499.599963
 30
0.0
 10
272.159993
 20
1499.478963
 30
0.0
 10
272.159993
 20
1499.419963
 30
0.0
 10
272.099993
 20
1499.359963
 30
0.0
 10
272.099993
 20
1499.179963
 30
0.0
 10
272.039993
 20
1499.119963
 30
0.0
 10
272.039993
 20
1498.939963
 30
0.0
 10
271.979993
 20
1498.879963
 30
0.0
 10
271.979993
 20
1498.699963
 30
0.0
 10
271.919993
 20
1498.639963
 30
0.0
 10
271.919993
 20
1498.279963
 30
0.0
 10
271.859993
 20
1498.218963
 30
0.0
  0
SPLINE
  5
116
100
AcDbEntity
  8
R5_DOME_SHEET_1
 62
7
100
AcDbSpline
 70
8
 71
3
 72
8
 73
4
 74
0
 40
0
 40
0
 40
0
 40
0
 40
1
 40
1
 40
1
 40
1
 10
272.759993
 20
1493.958963
 30
0.0
 10
273.048993
 20
1493.694963
 30
0.0
 10
272.686993
 20
1493.942963
 30
0.0
 10
273.059993
 20
1493.599963
 30
0.0
  0
SPLINE
  5
117
100
AcDbEntity
  8
R5_DOME_SHEET_1
 62
7
100
AcDbSpline
 70
8
 71
3
 72
8
 73
4
 74
0
 40
0
 40
0
 40
0
 40
0
 40
1
 40
1
 40
1
 40
1
 10
273.059993
 20
1493.599963
 30
0.0
 10
273.180993
 20
1493.291963
 30
0.0
 10
273.115993
 20
1493.438963
 30
0.0
 10
273.359993
 20
1493.179963
 30
0.0
  0
LWPOLYLINE
  5
118
100
AcDbEntity
  8
R5_DOME_SHEET_1
 62
7
100
AcDbPolyline
 90
29
 70
0
 10
271.859993
 20
1496.779963
 30
0.0
 10
271.859993
 20
1496.599963
 30
0.0
 10
271.919993
 20
1496.539963
 30
0.0
 10
271.919993
 20
1496.179963
 30
0.0
 10
271.979993
 20
1496.119963
 30
0.0
 10
271.979993
 20
1495.939963
 30
0.0
 10
272.039993
 20
1495.879963
 30
0.0
 10
272.039993
 20
1495.699963
 30
0.0
 10
272.099993
 20
1495.639963
 30
0.0
 10
272.099993
 20
1495.458963
 30
0.0
 10
272.159993
 20
1495.399963
 30
0.0
 10
272.159993
 20
1495.339963
 30
0.0
 10
272.219993
 20
1495.218963
 30
0.0
 10
272.219993
 20
1495.099963
 30
0.0
 10
272.279993
 20
1495.039963
 30
0.0
 10
272.279993
 20
1494.919963
 30
0.0
 10
272.339993
 20
1494.859963
 30
0.0
 10
272.339993
 20
1494.799963
 30
0.0
 10
272.399993
 20
1494.739963
 30
0.0
 10
272.459993
 20
1494.619963
 30
0.0
 10
272.459993
 20
1494.559963
 30
0.0
 10
272.519993
 20
1494.499963
 30
0.0
 10
272.519993
 20
1494.439963
 30
0.0
 10
272.579993
 20
1494.319963
 30
0.0
 10
272.639993
 20
1494.259963
 30
0.0
 10
272.639993
 20
1494.199963
 30
0.0
 10
272.699993
 20
1494.139963
 30
0.0
 10
272.759993
 20
1494.079963
 30
0.0
 10
272.759993
 20
1493.958963
 30
0.0
  0
SPLINE
  5
119
100
AcDbEntity
  8
R5_DOME_SHEET_1
 62
7
100
AcDbSpline
 70
8
 71
3
 72
8
 73
4
 74
0
 40
0
 40
0
 40
0
 40
0
 40
1
 40
1
 40
1
 40
1
 10
273.659993
 20
1492.819963
 30
0.0
 10
273.779993
 20
1492.698963
 30
0.0
 10
273.899993
 20
1492.579963
 30
0.0
 10
274.019993
 20
1492.458963
 30
0.0
  0
SPLINE
  5
11a
100
AcDbEntity
  8
R5_DOME_SHEET_1
 62
7
100
AcDbSpline
 70
8
 71
3
 72
8
 73
4
 74
0
 40
0
 40
0
 40
0
 40
0
 40
1
 40
1
 40
1
 40
1
 10
274.019993
 20
1492.458963
 30
0.0
 10
274.284993
 20
1492.170963
 30
0.0
 10
274.036993
 20
1492.531963
 30
0.0
 10
274.379993
 20
1492.159963
 30
0.0
  0
LWPOLYLINE
  5
11b
100
AcDbEntity
  8
R5_DOME_SHEET_1
 62
7
100
AcDbPolyline
 90
7
 70
0
 10
273.359993
 20
1493.179963
 30
0.0
 10
273.419993
 20
1493.119963
 30
0.0
 10
273.419993
 20
1493.059963
 30
0.0
 10
273.479993
 20
1492.999963
 30
0.0
 10
273.539993
 20
1492.939963
 30
0.0
 10
273.599993
 20
1492.879963
 30
0.0
 10
273.659993
 20
1492.819963
 30
0.0
  0
SPLINE
  5
11c
100
AcDbEntity
  8
R5_DOME_SHEET_1
 62
7
100
AcDbSpline
 70
8
 71
3
 72
8
 73
4
 74
0
 40
0
 40
0
 40
0
 40
0
 40
1
 40
1
 40
1
 40
1
 10
275.219993
 20
1491.619963
 30
0.0
 10
275.334993
 20
1491.511963
 30
0.0
 10
275.518993
 20
1491.477963
 30
0.0
 10
275.639993
 20
1491.379963
 30
0.0
  0
LWPOLYLINE
  5
11d
100
AcDbEntity
  8
R5_DOME_SHEET_1
 62
7
100
AcDbPolyline
 90
12
 70
0
 10
274.379993
 20
1492.159963
 30
0.0
 10
274.439993
 20
1492.099963
 30
0.0
 10
274.499993
 20
1492.039963
 30
0.0
 10
274.559993
 20
1492.039963
 30
0.0
 10
274.679993
 20
1491.978963
 30
0.0
 10
274.799993
 20
1491.859963
 30
0.0
 10
274.859993
 20
1491.799963
 30
0.0
 10
274.919993
 20
1491.799963
 30
0.0
 10
274.979993
 20
1491.739963
 30
0.0
 10
275.039993
 20
1491.679963
 30
0.0
 10
275.159993
 20
1491.679963
 30
0.0
 10
275.219993
 20
1491.619963
 30
0.0
  0
LWPOLYLINE
  5
11e
100
AcDbEntity
  8
R5_DOME_SHEET_1
 62
7
100
AcDbPolyline
 90
113
 70
0
 10
275.639993
 20
1491.379963
 30
0.0
 10
275.699993
 20
1491.379963
 30
0.0
 10
275.819993
 20
1491.319963
 30
0.0
 10
275.879993
 20
1491.259963
 30
0.0
 10
275.939993
 20
1491.259963
 30
0.0
 10
275.999993
 20
1491.199963
 30
0.0
 10
276.119993
 20
1491.199963
 30
0.0
 10
276.179993
 20
1491.139963
 30
0.0
 10
276.299993
 20
1491.139963
 30
0.0
 10
276.419993
 20
1491.079963
 30
0.0
 10
276.479993
 20
1491.079963
 30
0.0
 10
276.539993
 20
1491.019963
 30
0.0
 10
276.719993
 20
1491.019963
 30
0.0
 10
276.779993
 20
1490.958963
 30
0.0
 10
276.959993
 20
1490.958963
 30
0.0
 10
277.019993
 20
1490.899963
 30
0.0
 10
277.199993
 20
1490.899963
 30
0.0
 10
277.259993
 20
1490.839963
 30
0.0
 10
277.619993
 20
1490.839963
 30
0.0
 10
277.679993
 20
1490.779963
 30
0.0
 10
278.399993
 20
1490.779963
 30
0.0
 10
278.519993
 20
1490.718963
 30
0.0
 10
278.579993
 20
1490.779963
 30
0.0
 10
279.299993
 20
1490.779963
 30
0.0
 10
279.359993
 20
1490.839963
 30
0.0
 10
279.719993
 20
1490.839963
 30
0.0
 10
279.779993
 20
1490.899963
 30
0.0
 10
279.959993
 20
1490.899963
 30
0.0
 10
280.019993
 20
1490.958963
 30
0.0
 10
280.199993
 20
1490.958963
 30
0.0
 10
280.259993
 20
1491.019963
 30
0.0
 10
280.439993
 20
1491.019963
 30
0.0
 10
280.499993
 20
1491.079963
 30
0.0
 10
280.559993
 20
1491.079963
 30
0.0
 10
280.679993
 20
1491.139963
 30
0.0
 10
280.799993
 20
1491.139963
 30
0.0
 10
280.859993
 20
1491.199963
 30
0.0
 10
280.979993
 20
1491.199963
 30
0.0
 10
281.039993
 20
1491.259963
 30
0.0
 10
281.099993
 20
1491.259963
 30
0.0
 10
281.159993
 20
1491.319963
 30
0.0
 10
281.279993
 20
1491.379963
 30
0.0
 10
281.339993
 20
1491.379963
 30
0.0
 10
281.399993
 20
1491.439963
 30
0.0
 10
281.459993
 20
1491.439963
 30
0.0
 10
281.579993
 20
1491.499963
 30
0.0
 10
281.639993
 20
1491.559963
 30
0.0
 10
281.699993
 20
1491.559963
 30
0.0
 10
281.759993
 20
1491.619963
 30
0.0
 10
281.819993
 20
1491.679963
 30
0.0
 10
281.939993
 20
1491.679963
 30
0.0
 10
281.999993
 20
1491.739963
 30
0.0
 10
282.059993
 20
1491.799963
 30
0.0
 10
282.119993
 20
1491.799963
 30
0.0
 10
282.179993
 20
1491.859963
 30
0.0
 10
282.299993
 20
1491.978963
 30
0.0
 10
282.419993
 20
1492.039963
 30
0.0
 10
282.479993
 20
1492.039963
 30
0.0
 10
282.539993
 20
1492.099963
 30
0.0
 10
282.659993
 20
1492.218963
 30
0.0
 10
282.779993
 20
1492.339963
 30
0.0
 10
282.839993
 20
1492.339963
 30
0.0
 10
282.959993
 20
1492.458963
 30
0.0
 10
283.019993
 20
1492.519963
 30
0.0
 10
283.079993
 20
1492.579963
 30
0.0
 10
283.139993
 20
1492.639963
 30
0.0
 10
283.199993
 20
1492.699963
 30
0.0
 10
283.259993
 20
1492.759963
 30
0.0
 10
283.319993
 20
1492.819963
 30
0.0
 10
283.379993
 20
1492.879963
 30
0.0
 10
283.439993
 20
1492.939963
 30
0.0
 10
283.499993
 20
1492.999963
 30
0.0
 10
283.559993
 20
1493.059963
 30
0.0
 10
283.559993
 20
1493.119963
 30
0.0
 10
283.619993
 20
1493.179963
 30
0.0
 10
283.679993
 20
1493.239963
 30
0.0
 10
283.799993
 20
1493.359963
 30
0.0
 10
283.859993
 20
1493.419963
 30
0.0
 10
283.859993
 20
1493.478963
 30
0.0
 10
283.919993
 20
1493.599963
 30
0.0
 10
284.039993
 20
1493.718963
 30
0.0
 10
284.099993
 20
1493.779963
 30
0.0
 10
284.099993
 20
1493.839963
 30
0.0
 10
284.219993
 20
1493.958963
 30
0.0
 10
284.219993
 20
1494.079963
 30
0.0
 10
284.279993
 20
1494.139963
 30
0.0
 10
284.339993
 20
1494.199963
 30
0.0
 10
284.339993
 20
1494.259963
 30
0.0
 10
284.399993
 20
1494.319963
 30
0.0
 10
284.459993
 20
1494.439963
 30
0.0
 10
284.459993
 20
1494.499963
 30
0.0
 10
284.519993
 20
1494.559963
 30
0.0
 10
284.519993
 20
1494.619963
 30
0.0
 10
284.579993
 20
1494.739963
 30
0.0
 10
284.639993
 20
1494.799963
 30
0.0
 10
284.639993
 20
1494.859963
 30
0.0
 10
284.699993
 20
1494.919963
 30
0.0
 10
284.699993
 20
1495.039963
 30
0.0
 10
284.759993
 20
1495.099963
 30
0.0
 10
284.759993
 20
1495.218963
 30
0.0
 10
284.819993
 20
1495.339963
 30
0.0
 10
284.819993
 20
1495.399963
 30
0.0
 10
284.879993
 20
1495.458963
 30
0.0
 10
284.879993
 20
1495.639963
 30
0.0
 10
284.939993
 20
1495.699963
 30
0.0
 10
284.939993
 20
1495.879963
 30
0.0
 10
284.999993
 20
1495.939963
 30
0.0
 10
284.999993
 20
1496.119963
 30
0.0
 10
285.059993
 20
1496.179963
 30
0.0
 10
285.059993
 20
1496.539963
 30
0.0
 10
285.119993
 20
1496.599963
 30
0.0
 10
285.119993
 20
1497.319963
 30
0.0
 10
285.179993
 20
1497.439963
 30
0.0
  0
SPLINE
  5
11f
100
AcDbEntity
  8
R5_DOME_SHEET_1
 62
7
100
AcDbSpline
 70
8
 71
3
 72
8
 73
4
 74
0
 40
0
 40
0
 40
0
 40
0
 40
1
 40
1
 40
1
 40
1
 10
719.759982
 20
2151.499946
 30
0.0
 10
719.661982
 20
2151.619946
 30
0.0
 10
719.627982
 20
2151.804946
 30
0.0
 10
719.519982
 20
2151.918946
 30
0.0
  0
LWPOLYLINE
  5
120
100
AcDbEntity
  8
R5_DOME_SHEET_1
 62
7
100
AcDbPolyline
 90
22
 70
0
 10
720.419982
 20
2148.619946
 30
0.0
 10
720.359982
 20
2148.739946
 30
0.0
 10
720.359982
 20
2149.458946
 30
0.0
 10
720.299982
 20
2149.519946
 30
0.0
 10
720.299982
 20
2149.878946
 30
0.0
 10
720.239982
 20
2149.938946
 30
0.0
 10
720.239982
 20
2150.119946
 30
0.0
 10
720.179982
 20
2150.178946
 30
0.0
 10
720.179982
 20
2150.358946
 30
0.0
 10
720.119982
 20
2150.418946
 30
0.0
 10
720.119982
 20
2150.599946
 30
0.0
 10
720.059982
 20
2150.658946
 30
0.0
 10
720.059982
 20
2150.718946
 30
0.0
 10
719.999982
 20
2150.839946
 30
0.0
 10
719.999982
 20
2150.958946
 30
0.0
 10
719.939982
 20
2151.019946
 30
0.0
 10
719.939982
 20
2151.139946
 30
0.0
 10
719.879982
 20
2151.198946
 30
0.0
 10
719.879982
 20
2151.259946
 30
0.0
 10
719.819982
 20
2151.319946
 30
0.0
 10
719.759982
 20
2151.438946
 30
0.0
 10
719.759982
 20
2151.499946
 30
0.0
  0
SPLINE
  5
121
100
AcDbEntity
  8
R5_DOME_SHEET_1
 62
7
100
AcDbSpline
 70
8
 71
3
 72
8
 73
4
 74
0
 40
0
 40
0
 40
0
 40
0
 40
1
 40
1
 40
1
 40
1
 10
718.979982
 20
2152.759946
 30
0.0
 10
718.606982
 20
2153.102946
 30
0.0
 10
718.968982
 20
2152.853946
 30
0.0
 10
718.679982
 20
2153.119946
 30
0.0
  0
SPLINE
  5
122
100
AcDbEntity
  8
R5_DOME_SHEET_1
 62
7
100
AcDbSpline
 70
8
 71
3
 72
8
 73
4
 74
0
 40
0
 40
0
 40
0
 40
0
 40
1
 40
1
 40
1
 40
1
 10
718.679982
 20
2153.119946
 30
0.0
 10
718.559982
 20
2153.239946
 30
0.0
 10
718.439982
 20
2153.358946
 30
0.0
 10
718.319982
 20
2153.478946
 30
0.0
  0
LWPOLYLINE
  5
123
100
AcDbEntity
  8
R5_DOME_SHEET_1
 62
7
100
AcDbPolyline
 90
13
 70
0
 10
719.519982
 20
2151.918946
 30
0.0
 10
719.459982
 20
2151.978946
 30
0.0
 10
719.459982
 20
2152.099946
 30
0.0
 10
719.399982
 20
2152.158946
 30
0.0
 10
719.339982
 20
2152.218946
 30
0.0
 10
719.339982
 20
2152.279946
 30
0.0
 10
719.279982
 20
2152.339946
 30
0.0
 10
719.219982
 20
2152.398946
 30
0.0
 10
719.159982
 20
2152.458946
 30
0.0
 10
719.099982
 20
2152.579946
 30
0.0
 10
719.099982
 20
2152.639946
 30
0.0
 10
719.039982
 20
2152.698946
 30
0.0
 10
718.979982
 20
2152.759946
 30
0.0
  0
SPLINE
  5
124
100
AcDbEntity
  8
R5_DOME_SHEET_1
 62
7
100
AcDbSpline
 70
8
 71
3
 72
8
 73
4
 74
0
 40
0
 40
0
 40
0
 40
0
 40
1
 40
1
 40
1
 40
1
 10
717.959982
 20
2153.779946
 30
0.0
 10
717.699982
 20
2154.023946
 30
0.0
 10
717.847982
 20
2153.957946
 30
0.0
 10
717.539982
 20
2154.079946
 30
0.0
  0
SPLINE
  5
125
100
AcDbEntity
  8
R5_DOME_SHEET_1
 62
7
100
AcDbSpline
 70
8
 71
3
 72
8
 73
4
 74
0
 40
0
 40
0
 40
0
 40
0
 40
1
 40
1
 40
1
 40
1
 10
717.539982
 20
2154.079946
 30
0.0
 10
717.196982
 20
2154.451946
 30
0.0
 10
717.443982
 20
2154.090946
 30
0.0
 10
717.179982
 20
2154.378946
 30
0.0
  0
LWPOLYLINE
  5
126
100
AcDbEntity
  8
R5_DOME_SHEET_1
 62
7
100
AcDbPolyline
 90
6
 70
0
 10
718.319982
 20
2153.478946
 30
0.0
 10
718.199982
 20
2153.599946
 30
0.0
 10
718.139982
 20
2153.658946
 30
0.0
 10
718.079982
 20
2153.718946
 30
0.0
 10
718.019982
 20
2153.718946
 30
0.0
 10
717.959982
 20
2153.779946
 30
0.0
  0
SPLINE
  5
127
100
AcDbEntity
  8
R5_DOME_SHEET_1
 62
7
100
AcDbSpline
 70
8
 71
3
 72
8
 73
4
 74
0
 40
0
 40
0
 40
0
 40
0
 40
1
 40
1
 40
1
 40
1
 10
714.359982
 20
2155.279946
 30
0.0
 10
714.039982
 20
2155.279946
 30
0.0
 10
713.719982
 20
2155.279946
 30
0.0
 10
713.399982
 20
2155.279946
 30
0.0
  0
SPLINE
  5
128
100
AcDbEntity
  8
R5_DOME_SHEET_1
 62
7
100
AcDbSpline
 70
8
 71
3
 72
8
 73
4
 74
0
 40
0
 40
0
 40
0
 40
0
 40
1
 40
1
 40
1
 40
1
 10
713.399982
 20
2155.279946
 30
0.0
 10
713.239982
 20
2155.279946
 30
0.0
 10
713.079982
 20
2155.279946
 30
0.0
 10
712.919982
 20
2155.279946
 30
0.0
  0
LWPOLYLINE
  5
129
100
AcDbEntity
  8
R5_DOME_SHEET_1
 62
7
100
AcDbPolyline
 90
28
 70
0
 10
717.179982
 20
2154.378946
 30
0.0
 10
717.059982
 20
2154.378946
 30
0.0
 10
716.939982
 20
2154.499946
 30
0.0
 10
716.879982
 20
2154.499946
 30
0.0
 10
716.819982
 20
2154.559946
 30
0.0
 10
716.699982
 20
2154.619946
 30
0.0
 10
716.639982
 20
2154.619946
 30
0.0
 10
716.579982
 20
2154.678946
 30
0.0
 10
716.519982
 20
2154.678946
 30
0.0
 10
716.399982
 20
2154.739946
 30
0.0
 10
716.339982
 20
2154.799946
 30
0.0
 10
716.279982
 20
2154.799946
 30
0.0
 10
716.219982
 20
2154.858946
 30
0.0
 10
716.099982
 20
2154.858946
 30
0.0
 10
716.039982
 20
2154.918946
 30
0.0
 10
715.919982
 20
2154.918946
 30
0.0
 10
715.799982
 20
2154.978946
 30
0.0
 10
715.739982
 20
2154.978946
 30
0.0
 10
715.679982
 20
2155.039946
 30
0.0
 10
715.499982
 20
2155.039946
 30
0.0
 10
715.439982
 20
2155.099946
 30
0.0
 10
715.259982
 20
2155.099946
 30
0.0
 10
715.199982
 20
2155.158946
 30
0.0
 10
715.019982
 20
2155.158946
 30
0.0
 10
714.959982
 20
2155.218946
 30
0.0
 10
714.599982
 20
2155.218946
 30
0.0
 10
714.539982
 20
2155.279946
 30
0.0
 10
714.359982
 20
2155.279946
 30
0.0
  0
SPLINE
  5
12a
100
AcDbEntity
  8
R5_DOME_SHEET_1
 62
7
100
AcDbSpline
 70
8
 71
3
 72
8
 73
4
 74
0
 40
0
 40
0
 40
0
 40
0
 40
1
 40
1
 40
1
 40
1
 10
709.379982
 20
2153.718946
 30
0.0
 10
709.259982
 20
2153.599946
 30
0.0
 10
709.139982
 20
2153.478946
 30
0.0
 10
709.019982
 20
2153.358946
 30
0.0
  0
SPLINE
  5
12b
100
AcDbEntity
  8
R5_DOME_SHEET_1
 62
7
100
AcDbSpline
 70
8
 71
3
 72
8
 73
4
 74
0
 40
0
 40
0
 40
0
 40
0
 40
1
 40
1
 40
1
 40
1
 10
709.019982
 20
2153.358946
 30
0.0
 10
708.899982
 20
2153.239946
 30
0.0
 10
708.779982
 20
2153.118946
 30
0.0
 10
708.659982
 20
2152.999946
 30
0.0
  0
LWPOLYLINE
  5
12c
100
AcDbEntity
  8
R5_DOME_SHEET_1
 62
7
100
AcDbPolyline
 90
39
 70
0
 10
712.919982
 20
2155.279946
 30
0.0
 10
712.859982
 20
2155.218946
 30
0.0
 10
712.499982
 20
2155.218946
 30
0.0
 10
712.439982
 20
2155.158946
 30
0.0
 10
712.259982
 20
2155.158946
 30
0.0
 10
712.199982
 20
2155.099946
 30
0.0
 10
712.019982
 20
2155.099946
 30
0.0
 10
711.959982
 20
2155.039946
 30
0.0
 10
711.779982
 20
2155.039946
 30
0.0
 10
711.719982
 20
2154.978946
 30
0.0
 10
711.659982
 20
2154.978946
 30
0.0
 10
711.539982
 20
2154.918946
 30
0.0
 10
711.419982
 20
2154.918946
 30
0.0
 10
711.359982
 20
2154.858946
 30
0.0
 10
711.239982
 20
2154.858946
 30
0.0
 10
711.179982
 20
2154.799946
 30
0.0
 10
711.119982
 20
2154.799946
 30
0.0
 10
711.059982
 20
2154.739946
 30
0.0
 10
710.939982
 20
2154.678946
 30
0.0
 10
710.879982
 20
2154.678946
 30
0.0
 10
710.819982
 20
2154.619946
 30
0.0
 10
710.759982
 20
2154.619946
 30
0.0
 10
710.639982
 20
2154.559946
 30
0.0
 10
710.579982
 20
2154.499946
 30
0.0
 10
710.519982
 20
2154.499946
 30
0.0
 10
710.399982
 20
2154.378946
 30
0.0
 10
710.279982
 20
2154.378946
 30
0.0
 10
710.219982
 20
2154.319946
 30
0.0
 10
710.159982
 20
2154.259946
 30
0.0
 10
710.099982
 20
2154.259946
 30
0.0
 10
710.039982
 20
2154.198946
 30
0.0
 10
709.979982
 20
2154.139946
 30
0.0
 10
709.919982
 20
2154.079946
 30
0.0
 10
709.799982
 20
2154.019946
 30
0.0
 10
709.739982
 20
2154.019946
 30
0.0
 10
709.619982
 20
2153.898946
 30
0.0
 10
709.559982
 20
2153.839946
 30
0.0
 10
709.439982
 20
2153.718946
 30
0.0
 10
709.379982
 20
2153.718946
 30
0.0
  0
SPLINE
  5
12d
100
AcDbEntity
  8
R5_DOME_SHEET_1
 62
7
100
AcDbSpline
 70
8
 71
3
 72
8
 73
4
 74
0
 40
0
 40
0
 40
0
 40
0
 40
1
 40
1
 40
1
 40
1
 10
707.099982
 20
2149.458946
 30
0.0
 10
707.099982
 20
2149.299946
 30
0.0
 10
707.099982
 20
2149.138946
 30
0.0
 10
707.099982
 20
2148.978946
 30
0.0
  0
SPLINE
  5
12e
100
AcDbEntity
  8
R5_DOME_SHEET_1
 62
7
100
AcDbSpline
 70
8
 71
3
 72
8
 73
4
 74
0
 40
0
 40
0
 40
0
 40
0
 40
1
 40
1
 40
1
 40
1
 10
707.099982
 20
2148.978946
 30
0.0
 10
707.099982
 20
2148.658946
 30
0.0
 10
707.099982
 20
2148.339946
 30
0.0
 10
707.099982
 20
2148.019946
 30
0.0
  0
LWPOLYLINE
  5
12f
100
AcDbEntity
  8
R5_DOME_SHEET_1
 62
7
100
AcDbPolyline
 90
41
 70
0
 10
708.659982
 20
2152.999946
 30
0.0
 10
708.659982
 20
2152.938946
 30
0.0
 10
708.599982
 20
2152.878946
 30
0.0
 10
708.539982
 20
2152.819946
 30
0.0
 10
708.479982
 20
2152.759946
 30
0.0
 10
708.419982
 20
2152.698946
 30
0.0
 10
708.359982
 20
2152.639946
 30
0.0
 10
708.359982
 20
2152.579946
 30
0.0
 10
708.299982
 20
2152.458946
 30
0.0
 10
708.239982
 20
2152.398946
 30
0.0
 10
708.179982
 20
2152.339946
 30
0.0
 10
708.119982
 20
2152.279946
 30
0.0
 10
708.119982
 20
2152.218946
 30
0.0
 10
708.059982
 20
2152.158946
 30
0.0
 10
707.999982
 20
2152.099946
 30
0.0
 10
707.999982
 20
2151.978946
 30
0.0
 10
707.879982
 20
2151.858946
 30
0.0
 10
707.879982
 20
2151.799946
 30
0.0
 10
707.819982
 20
2151.739946
 30
0.0
 10
707.759982
 20
2151.619946
 30
0.0
 10
707.759982
 20
2151.559946
 30
0.0
 10
707.699982
 20
2151.499946
 30
0.0
 10
707.699982
 20
2151.438946
 30
0.0
 10
707.639982
 20
2151.319946
 30
0.0
 10
707.579982
 20
2151.259946
 30
0.0
 10
707.579982
 20
2151.198946
 30
0.0
 10
707.519982
 20
2151.139946
 30
0.0
 10
707.519982
 20
2151.019946
 30
0.0
 10
707.459982
 20
2150.958946
 30
0.0
 10
707.459982
 20
2150.839946
 30
0.0
 10
707.399982
 20
2150.718946
 30
0.0
 10
707.399982
 20
2150.658946
 30
0.0
 10
707.339982
 20
2150.599946
 30
0.0
 10
707.339982
 20
2150.418946
 30
0.0
 10
707.279982
 20
2150.358946
 30
0.0
 10
707.279982
 20
2150.178946
 30
0.0
 10
707.219982
 20
2150.119946
 30
0.0
 10
707.219982
 20
2149.938946
 30
0.0
 10
707.159982
 20
2149.878946
 30
0.0
 10
707.159982
 20
2149.519946
 30
0.0
 10
707.099982
 20
2149.458946
 30
0.0
  0
SPLINE
  5
130
100
AcDbEntity
  8
R5_DOME_SHEET_1
 62
7
100
AcDbSpline
 70
8
 71
3
 72
8
 73
4
 74
0
 40
0
 40
0
 40
0
 40
0
 40
1
 40
1
 40
1
 40
1
 10
707.999982
 20
2145.198946
 30
0.0
 10
708.288982
 20
2144.935946
 30
0.0
 10
707.926982
 20
2145.182946
 30
0.0
 10
708.299982
 20
2144.839946
 30
0.0
  0
SPLINE
  5
131
100
AcDbEntity
  8
R5_DOME_SHEET_1
 62
7
100
AcDbSpline
 70
8
 71
3
 72
8
 73
4
 74
0
 40
0
 40
0
 40
0
 40
0
 40
1
 40
1
 40
1
 40
1
 10
708.299982
 20
2144.839946
 30
0.0
 10
708.420982
 20
2144.530946
 30
0.0
 10
708.354982
 20
2144.678946
 30
0.0
 10
708.599982
 20
2144.418946
 30
0.0
  0
LWPOLYLINE
  5
132
100
AcDbEntity
  8
R5_DOME_SHEET_1
 62
7
100
AcDbPolyline
 90
29
 70
0
 10
707.099982
 20
2148.019946
 30
0.0
 10
707.099982
 20
2147.839946
 30
0.0
 10
707.159982
 20
2147.779946
 30
0.0
 10
707.159982
 20
2147.418946
 30
0.0
 10
707.219982
 20
2147.358946
 30
0.0
 10
707.219982
 20
2147.178946
 30
0.0
 10
707.279982
 20
2147.119946
 30
0.0
 10
707.279982
 20
2146.938946
 30
0.0
 10
707.339982
 20
2146.878946
 30
0.0
 10
707.339982
 20
2146.698946
 30
0.0
 10
707.399982
 20
2146.639946
 30
0.0
 10
707.399982
 20
2146.579946
 30
0.0
 10
707.459982
 20
2146.458946
 30
0.0
 10
707.459982
 20
2146.339946
 30
0.0
 10
707.519982
 20
2146.279946
 30
0.0
 10
707.519982
 20
2146.158946
 30
0.0
 10
707.579982
 20
2146.099946
 30
0.0
 10
707.579982
 20
2146.039946
 30
0.0
 10
707.639982
 20
2145.978946
 30
0.0
 10
707.699982
 20
2145.858946
 30
0.0
 10
707.699982
 20
2145.799946
 30
0.0
 10
707.759982
 20
2145.739946
 30
0.0
 10
707.759982
 20
2145.678946
 30
0.0
 10
707.819982
 20
2145.559946
 30
0.0
 10
707.879982
 20
2145.499946
 30
0.0
 10
707.879982
 20
2145.438946
 30
0.0
 10
707.939982
 20
2145.378946
 30
0.0
 10
707.999982
 20
2145.319946
 30
0.0
 10
707.999982
 20
2145.198946
 30
0.0
  0
SPLINE
  5
133
100
AcDbEntity
  8
R5_DOME_SHEET_1
 62
7
100
AcDbSpline
 70
8
 71
3
 72
8
 73
4
 74
0
 40
0
 40
0
 40
0
 40
0
 40
1
 40
1
 40
1
 40
1
 10
708.899982
 20
2144.059946
 30
0.0
 10
709.019982
 20
2143.938946
 30
0.0
 10
709.139982
 20
2143.819946
 30
0.0
 10
709.259982
 20
2143.698946
 30
0.0
  0
SPLINE
  5
134
100
AcDbEntity
  8
R5_DOME_SHEET_1
 62
7
100
AcDbSpline
 70
8
 71
3
 72
8
 73
4
 74
0
 40
0
 40
0
 40
0
 40
0
 40
1
 40
1
 40
1
 40
1
 10
709.259982
 20
2143.698946
 30
0.0
 10
709.524982
 20
2143.409946
 30
0.0
 10
709.276982
 20
2143.771946
 30
0.0
 10
709.619982
 20
2143.398946
 30
0.0
  0
LWPOLYLINE
  5
135
100
AcDbEntity
  8
R5_DOME_SHEET_1
 62
7
100
AcDbPolyline
 90
7
 70
0
 10
708.599982
 20
2144.418946
 30
0.0
 10
708.659982
 20
2144.358946
 30
0.0
 10
708.659982
 20
2144.299946
 30
0.0
 10
708.719982
 20
2144.239946
 30
0.0
 10
708.779982
 20
2144.178946
 30
0.0
 10
708.839982
 20
2144.119946
 30
0.0
 10
708.899982
 20
2144.059946
 30
0.0
  0
SPLINE
  5
136
100
AcDbEntity
  8
R5_DOME_SHEET_1
 62
7
100
AcDbSpline
 70
8
 71
3
 72
8
 73
4
 74
0
 40
0
 40
0
 40
0
 40
0
 40
1
 40
1
 40
1
 40
1
 10
710.459982
 20
2142.858946
 30
0.0
 10
710.574982
 20
2142.751946
 30
0.0
 10
710.758982
 20
2142.717946
 30
0.0
 10
710.879982
 20
2142.619946
 30
0.0
  0
LWPOLYLINE
  5
137
100
AcDbEntity
  8
R5_DOME_SHEET_1
 62
7
100
AcDbPolyline
 90
13
 70
0
 10
709.619982
 20
2143.398946
 30
0.0
 10
709.679982
 20
2143.339946
 30
0.0
 10
709.739982
 20
2143.279946
 30
0.0
 10
709.799982
 20
2143.279946
 30
0.0
 10
709.919982
 20
2143.218946
 30
0.0
 10
709.979982
 20
2143.158946
 30
0.0
 10
710.039982
 20
2143.099946
 30
0.0
 10
710.099982
 20
2143.039946
 30
0.0
 10
710.159982
 20
2143.039946
 30
0.0
 10
710.219982
 20
2142.978946
 30
0.0
 10
710.279982
 20
2142.918946
 30
0.0
 10
710.399982
 20
2142.918946
 30
0.0
 10
710.459982
 20
2142.858946
 30
0.0
  0
LWPOLYLINE
  5
138
100
AcDbEntity
  8
R5_DOME_SHEET_1
 62
7
100
AcDbPolyline
 90
110
 70
0
 10
710.879982
 20
2142.619946
 30
0.0
 10
710.939982
 20
2142.619946
 30
0.0
 10
711.059982
 20
2142.559946
 30
0.0
 10
711.119982
 20
2142.499946
 30
0.0
 10
711.179982
 20
2142.499946
 30
0.0
 10
711.239982
 20
2142.438946
 30
0.0
 10
711.359982
 20
2142.438946
 30
0.0
 10
711.419982
 20
2142.378946
 30
0.0
 10
711.539982
 20
2142.378946
 30
0.0
 10
711.659982
 20
2142.319946
 30
0.0
 10
711.719982
 20
2142.319946
 30
0.0
 10
711.779982
 20
2142.259946
 30
0.0
 10
711.959982
 20
2142.259946
 30
0.0
 10
712.019982
 20
2142.198946
 30
0.0
 10
712.199982
 20
2142.198946
 30
0.0
 10
712.259982
 20
2142.139946
 30
0.0
 10
712.439982
 20
2142.139946
 30
0.0
 10
712.499982
 20
2142.079946
 30
0.0
 10
712.859982
 20
2142.079946
 30
0.0
 10
712.919982
 20
2142.019946
 30
0.0
 10
713.639982
 20
2142.019946
 30
0.0
 10
713.759982
 20
2141.958946
 30
0.0
 10
713.819982
 20
2142.019946
 30
0.0
 10
714.539982
 20
2142.019946
 30
0.0
 10
714.599982
 20
2142.079946
 30
0.0
 10
714.959982
 20
2142.079946
 30
0.0
 10
715.019982
 20
2142.139946
 30
0.0
 10
715.199982
 20
2142.139946
 30
0.0
 10
715.259982
 20
2142.198946
 30
0.0
 10
715.439982
 20
2142.198946
 30
0.0
 10
715.499982
 20
2142.259946
 30
0.0
 10
715.679982
 20
2142.259946
 30
0.0
 10
715.739982
 20
2142.319946
 30
0.0
 10
715.799982
 20
2142.319946
 30
0.0
 10
715.919982
 20
2142.378946
 30
0.0
 10
716.039982
 20
2142.378946
 30
0.0
 10
716.099982
 20
2142.438946
 30
0.0
 10
716.219982
 20
2142.438946
 30
0.0
 10
716.279982
 20
2142.499946
 30
0.0
 10
716.339982
 20
2142.499946
 30
0.0
 10
716.399982
 20
2142.559946
 30
0.0
 10
716.519982
 20
2142.619946
 30
0.0
 10
716.579982
 20
2142.619946
 30
0.0
 10
716.639982
 20
2142.678946
 30
0.0
 10
716.699982
 20
2142.678946
 30
0.0
 10
716.819982
 20
2142.739946
 30
0.0
 10
716.879982
 20
2142.799946
 30
0.0
 10
716.939982
 20
2142.799946
 30
0.0
 10
716.999982
 20
2142.858946
 30
0.0
 10
717.059982
 20
2142.918946
 30
0.0
 10
717.179982
 20
2142.918946
 30
0.0
 10
717.299982
 20
2143.039946
 30
0.0
 10
717.359982
 20
2143.039946
 30
0.0
 10
717.419982
 20
2143.099946
 30
0.0
 10
717.479982
 20
2143.158946
 30
0.0
 10
717.539982
 20
2143.218946
 30
0.0
 10
717.659982
 20
2143.279946
 30
0.0
 10
717.719982
 20
2143.279946
 30
0.0
 10
717.779982
 20
2143.339946
 30
0.0
 10
717.839982
 20
2143.398946
 30
0.0
 10
718.019982
 20
2143.579946
 30
0.0
 10
718.079982
 20
2143.579946
 30
0.0
 10
718.139982
 20
2143.639946
 30
0.0
 10
718.199982
 20
2143.698946
 30
0.0
 10
718.319982
 20
2143.819946
 30
0.0
 10
718.379982
 20
2143.878946
 30
0.0
 10
718.619982
 20
2144.119946
 30
0.0
 10
718.679982
 20
2144.178946
 30
0.0
 10
718.799982
 20
2144.299946
 30
0.0
 10
718.799982
 20
2144.358946
 30
0.0
 10
718.919982
 20
2144.478946
 30
0.0
 10
718.979982
 20
2144.539946
 30
0.0
 10
719.039982
 20
2144.599946
 30
0.0
 10
719.099982
 20
2144.658946
 30
0.0
 10
719.099982
 20
2144.718946
 30
0.0
 10
719.159982
 20
2144.839946
 30
0.0
 10
719.219982
 20
2144.898946
 30
0.0
 10
719.339982
 20
2145.019946
 30
0.0
 10
719.339982
 20
2145.079946
 30
0.0
 10
719.399982
 20
2145.139946
 30
0.0
 10
719.459982
 20
2145.198946
 30
0.0
 10
719.459982
 20
2145.319946
 30
0.0
 10
719.519982
 20
2145.378946
 30
0.0
 10
719.579982
 20
2145.438946
 30
0.0
 10
719.579982
 20
2145.499946
 30
0.0
 10
719.639982
 20
2145.559946
 30
0.0
 10
719.699982
 20
2145.678946
 30
0.0
 10
719.699982
 20
2145.739946
 30
0.0
 10
719.759982
 20
2145.799946
 30
0.0
 10
719.759982
 20
2145.858946
 30
0.0
 10
719.819982
 20
2145.978946
 30
0.0
 10
719.879982
 20
2146.039946
 30
0.0
 10
719.879982
 20
2146.099946
 30
0.0
 10
719.939982
 20
2146.158946
 30
0.0
 10
719.939982
 20
2146.279946
 30
0.0
 10
719.999982
 20
2146.339946
 30
0.0
 10
719.999982
 20
2146.458946
 30
0.0
 10
720.059982
 20
2146.579946
 30
0.0
 10
720.059982
 20
2146.639946
 30
0.0
 10
720.119982
 20
2146.698946
 30
0.0
 10
720.119982
 20
2146.878946
 30
0.0
 10
720.179982
 20
2146.938946
 30
0.0
 10
720.179982
 20
2147.119946
 30
0.0
 10
720.239982
 20
2147.178946
 30
0.0
 10
720.239982
 20
2147.358946
 30
0.0
 10
720.299982
 20
2147.418946
 30
0.0
 10
720.299982
 20
2147.779946
 30
0.0
 10
720.359982
 20
2147.839946
 30
0.0
 10
720.359982
 20
2148.559946
 30
0.0
 10
720.419982
 20
2148.678946
 30
0.0
  0
SPLINE
  5
139
100
AcDbEntity
  8
R5_DOME_SHEET_1
 62
7
100
AcDbSpline
 70
8
 71
3
 72
8
 73
4
 74
0
 40
0
 40
0
 40
0
 40
0
 40
1
 40
1
 40
1
 40
1
 10
935.879977
 20
1065.199973
 30
0.0
 10
935.781977
 20
1065.319973
 30
0.0
 10
935.747977
 20
1065.504973
 30
0.0
 10
935.639977
 20
1065.619973
 30
0.0
  0
LWPOLYLINE
  5
13a
100
AcDbEntity
  8
R5_DOME_SHEET_1
 62
7
100
AcDbPolyline
 90
22
 70
0
 10
936.539977
 20
1062.319973
 30
0.0
 10
936.479977
 20
1062.439973
 30
0.0
 10
936.479977
 20
1063.159973
 30
0.0
 10
936.419977
 20
1063.219973
 30
0.0
 10
936.419977
 20
1063.579973
 30
0.0
 10
936.359977
 20
1063.639973
 30
0.0
 10
936.359977
 20
1063.819973
 30
0.0
 10
936.299977
 20
1063.879973
 30
0.0
 10
936.299977
 20
1064.059973
 30
0.0
 10
936.239977
 20
1064.119973
 30
0.0
 10
936.239977
 20
1064.299973
 30
0.0
 10
936.179977
 20
1064.359973
 30
0.0
 10
936.179977
 20
1064.419973
 30
0.0
 10
936.119977
 20
1064.539973
 30
0.0
 10
936.119977
 20
1064.659973
 30
0.0
 10
936.059977
 20
1064.719973
 30
0.0
 10
936.059977
 20
1064.839973
 30
0.0
 10
935.999977
 20
1064.899973
 30
0.0
 10
935.999977
 20
1064.959973
 30
0.0
 10
935.939977
 20
1065.019973
 30
0.0
 10
935.879977
 20
1065.139973
 30
0.0
 10
935.879977
 20
1065.199973
 30
0.0
  0
SPLINE
  5
13b
100
AcDbEntity
  8
R5_DOME_SHEET_1
 62
7
100
AcDbSpline
 70
8
 71
3
 72
8
 73
4
 74
0
 40
0
 40
0
 40
0
 40
0
 40
1
 40
1
 40
1
 40
1
 10
935.099977
 20
1066.459973
 30
0.0
 10
934.726977
 20
1066.802973
 30
0.0
 10
935.088977
 20
1066.555973
 30
0.0
 10
934.799977
 20
1066.819973
 30
0.0
  0
SPLINE
  5
13c
100
AcDbEntity
  8
R5_DOME_SHEET_1
 62
7
100
AcDbSpline
 70
8
 71
3
 72
8
 73
4
 74
0
 40
0
 40
0
 40
0
 40
0
 40
1
 40
1
 40
1
 40
1
 10
934.799977
 20
1066.819973
 30
0.0
 10
934.679977
 20
1066.939973
 30
0.0
 10
934.559977
 20
1067.059973
 30
0.0
 10
934.439977
 20
1067.179973
 30
0.0
  0
LWPOLYLINE
  5
13d
100
AcDbEntity
  8
R5_DOME_SHEET_1
 62
7
100
AcDbPolyline
 90
13
 70
0
 10
935.639977
 20
1065.619973
 30
0.0
 10
935.579977
 20
1065.679973
 30
0.0
 10
935.579977
 20
1065.799973
 30
0.0
 10
935.519977
 20
1065.859973
 30
0.0
 10
935.459977
 20
1065.919973
 30
0.0
 10
935.459977
 20
1065.979973
 30
0.0
 10
935.399977
 20
1066.039973
 30
0.0
 10
935.339977
 20
1066.099973
 30
0.0
 10
935.279977
 20
1066.159973
 30
0.0
 10
935.219977
 20
1066.279973
 30
0.0
 10
935.219977
 20
1066.339973
 30
0.0
 10
935.159977
 20
1066.399973
 30
0.0
 10
935.099977
 20
1066.459973
 30
0.0
  0
SPLINE
  5
13e
100
AcDbEntity
  8
R5_DOME_SHEET_1
 62
7
100
AcDbSpline
 70
8
 71
3
 72
8
 73
4
 74
0
 40
0
 40
0
 40
0
 40
0
 40
1
 40
1
 40
1
 40
1
 10
934.079977
 20
1067.479973
 30
0.0
 10
933.819977
 20
1067.723973
 30
0.0
 10
933.967977
 20
1067.657973
 30
0.0
 10
933.659977
 20
1067.779973
 30
0.0
  0
SPLINE
  5
13f
100
AcDbEntity
  8
R5_DOME_SHEET_1
 62
7
100
AcDbSpline
 70
8
 71
3
 72
8
 73
4
 74
0
 40
0
 40
0
 40
0
 40
0
 40
1
 40
1
 40
1
 40
1
 10
933.659977
 20
1067.779973
 30
0.0
 10
933.316977
 20
1068.151973
 30
0.0
 10
933.563977
 20
1067.789973
 30
0.0
 10
933.299977
 20
1068.079973
 30
0.0
  0
LWPOLYLINE
  5
140
100
AcDbEntity
  8
R5_DOME_SHEET_1
 62
7
100
AcDbPolyline
 90
7
 70
0
 10
934.439977
 20
1067.179973
 30
0.0
 10
934.379977
 20
1067.239973
 30
0.0
 10
934.319977
 20
1067.299973
 30
0.0
 10
934.259977
 20
1067.359973
 30
0.0
 10
934.199977
 20
1067.419973
 30
0.0
 10
934.139977
 20
1067.419973
 30
0.0
 10
934.079977
 20
1067.479973
 30
0.0
  0
SPLINE
  5
141
100
AcDbEntity
  8
R5_DOME_SHEET_1
 62
7
100
AcDbSpline
 70
8
 71
3
 72
8
 73
4
 74
0
 40
0
 40
0
 40
0
 40
0
 40
1
 40
1
 40
1
 40
1
 10
930.479977
 20
1068.979973
 30
0.0
 10
930.159977
 20
1068.979973
 30
0.0
 10
929.839977
 20
1068.979973
 30
0.0
 10
929.519977
 20
1068.979973
 30
0.0
  0
SPLINE
  5
142
100
AcDbEntity
  8
R5_DOME_SHEET_1
 62
7
100
AcDbSpline
 70
8
 71
3
 72
8
 73
4
 74
0
 40
0
 40
0
 40
0
 40
0
 40
1
 40
1
 40
1
 40
1
 10
929.519977
 20
1068.979973
 30
0.0
 10
929.359977
 20
1068.979973
 30
0.0
 10
929.199977
 20
1068.979973
 30
0.0
 10
929.039977
 20
1068.979973
 30
0.0
  0
LWPOLYLINE
  5
143
100
AcDbEntity
  8
R5_DOME_SHEET_1
 62
7
100
AcDbPolyline
 90
29
 70
0
 10
933.299977
 20
1068.079973
 30
0.0
 10
933.179977
 20
1068.079973
 30
0.0
 10
933.119977
 20
1068.139973
 30
0.0
 10
933.059977
 20
1068.199973
 30
0.0
 10
932.999977
 20
1068.199973
 30
0.0
 10
932.939977
 20
1068.259973
 30
0.0
 10
932.819977
 20
1068.319973
 30
0.0
 10
932.759977
 20
1068.319973
 30
0.0
 10
932.699977
 20
1068.379973
 30
0.0
 10
932.639977
 20
1068.379973
 30
0.0
 10
932.519977
 20
1068.439973
 30
0.0
 10
932.459977
 20
1068.499973
 30
0.0
 10
932.399977
 20
1068.499973
 30
0.0
 10
932.339977
 20
1068.559973
 30
0.0
 10
932.219977
 20
1068.559973
 30
0.0
 10
932.159977
 20
1068.619973
 30
0.0
 10
932.039977
 20
1068.619973
 30
0.0
 10
931.919977
 20
1068.679973
 30
0.0
 10
931.859977
 20
1068.679973
 30
0.0
 10
931.799977
 20
1068.739973
 30
0.0
 10
931.619977
 20
1068.739973
 30
0.0
 10
931.559977
 20
1068.799973
 30
0.0
 10
931.379977
 20
1068.799973
 30
0.0
 10
931.319977
 20
1068.859973
 30
0.0
 10
931.139977
 20
1068.859973
 30
0.0
 10
931.079977
 20
1068.919973
 30
0.0
 10
930.719977
 20
1068.919973
 30
0.0
 10
930.659977
 20
1068.979973
 30
0.0
 10
930.479977
 20
1068.979973
 30
0.0
  0
SPLINE
  5
144
100
AcDbEntity
  8
R5_DOME_SHEET_1
 62
7
100
AcDbSpline
 70
8
 71
3
 72
8
 73
4
 74
0
 40
0
 40
0
 40
0
 40
0
 40
1
 40
1
 40
1
 40
1
 10
925.499977
 20
1067.419973
 30
0.0
 10
925.379977
 20
1067.299973
 30
0.0
 10
925.259977
 20
1067.179973
 30
0.0
 10
925.139977
 20
1067.059973
 30
0.0
  0
SPLINE
  5
145
100
AcDbEntity
  8
R5_DOME_SHEET_1
 62
7
100
AcDbSpline
 70
8
 71
3
 72
8
 73
4
 74
0
 40
0
 40
0
 40
0
 40
0
 40
1
 40
1
 40
1
 40
1
 10
925.139977
 20
1067.059973
 30
0.0
 10
925.019977
 20
1066.939973
 30
0.0
 10
924.899977
 20
1066.819973
 30
0.0
 10
924.779977
 20
1066.699973
 30
0.0
  0
LWPOLYLINE
  5
146
100
AcDbEntity
  8
R5_DOME_SHEET_1
 62
7
100
AcDbPolyline
 90
42
 70
0
 10
929.039977
 20
1068.979973
 30
0.0
 10
928.979977
 20
1068.919973
 30
0.0
 10
928.619977
 20
1068.919973
 30
0.0
 10
928.559977
 20
1068.859973
 30
0.0
 10
928.379977
 20
1068.859973
 30
0.0
 10
928.319977
 20
1068.799973
 30
0.0
 10
928.139977
 20
1068.799973
 30
0.0
 10
928.079977
 20
1068.739973
 30
0.0
 10
927.899977
 20
1068.739973
 30
0.0
 10
927.839977
 20
1068.679973
 30
0.0
 10
927.779977
 20
1068.679973
 30
0.0
 10
927.659977
 20
1068.619973
 30
0.0
 10
927.539977
 20
1068.619973
 30
0.0
 10
927.479977
 20
1068.559973
 30
0.0
 10
927.359977
 20
1068.559973
 30
0.0
 10
927.299977
 20
1068.499973
 30
0.0
 10
927.239977
 20
1068.499973
 30
0.0
 10
927.179977
 20
1068.439973
 30
0.0
 10
927.059977
 20
1068.379973
 30
0.0
 10
926.999977
 20
1068.379973
 30
0.0
 10
926.939977
 20
1068.319973
 30
0.0
 10
926.879977
 20
1068.319973
 30
0.0
 10
926.759977
 20
1068.259973
 30
0.0
 10
926.699977
 20
1068.199973
 30
0.0
 10
926.639977
 20
1068.199973
 30
0.0
 10
926.579977
 20
1068.139973
 30
0.0
 10
926.519977
 20
1068.079973
 30
0.0
 10
926.399977
 20
1068.079973
 30
0.0
 10
926.339977
 20
1068.019973
 30
0.0
 10
926.279977
 20
1067.959973
 30
0.0
 10
926.219977
 20
1067.959973
 30
0.0
 10
926.159977
 20
1067.899973
 30
0.0
 10
926.099977
 20
1067.839973
 30
0.0
 10
926.039977
 20
1067.779973
 30
0.0
 10
925.919977
 20
1067.719973
 30
0.0
 10
925.859977
 20
1067.719973
 30
0.0
 10
925.799977
 20
1067.659973
 30
0.0
 10
925.739977
 20
1067.599973
 30
0.0
 10
925.679977
 20
1067.539973
 30
0.0
 10
925.619977
 20
1067.479973
 30
0.0
 10
925.559977
 20
1067.419973
 30
0.0
 10
925.499977
 20
1067.419973
 30
0.0
  0
SPLINE
  5
147
100
AcDbEntity
  8
R5_DOME_SHEET_1
 62
7
100
AcDbSpline
 70
8
 71
3
 72
8
 73
4
 74
0
 40
0
 40
0
 40
0
 40
0
 40
1
 40
1
 40
1
 40
1
 10
923.219977
 20
1063.159973
 30
0.0
 10
923.219977
 20
1062.999973
 30
0.0
 10
923.219977
 20
1062.839973
 30
0.0
 10
923.219977
 20
1062.679973
 30
0.0
  0
SPLINE
  5
148
100
AcDbEntity
  8
R5_DOME_SHEET_1
 62
7
100
AcDbSpline
 70
8
 71
3
 72
8
 73
4
 74
0
 40
0
 40
0
 40
0
 40
0
 40
1
 40
1
 40
1
 40
1
 10
923.219977
 20
1062.679973
 30
0.0
 10
923.219977
 20
1062.359973
 30
0.0
 10
923.219977
 20
1062.039973
 30
0.0
 10
923.219977
 20
1061.719973
 30
0.0
  0
LWPOLYLINE
  5
149
100
AcDbEntity
  8
R5_DOME_SHEET_1
 62
7
100
AcDbPolyline
 90
40
 70
0
 10
924.779977
 20
1066.699973
 30
0.0
 10
924.779977
 20
1066.639973
 30
0.0
 10
924.659977
 20
1066.519973
 30
0.0
 10
924.599977
 20
1066.459973
 30
0.0
 10
924.539977
 20
1066.399973
 30
0.0
 10
924.479977
 20
1066.339973
 30
0.0
 10
924.479977
 20
1066.279973
 30
0.0
 10
924.419977
 20
1066.159973
 30
0.0
 10
924.299977
 20
1066.039973
 30
0.0
 10
924.239977
 20
1065.979973
 30
0.0
 10
924.239977
 20
1065.919973
 30
0.0
 10
924.179977
 20
1065.859973
 30
0.0
 10
924.119977
 20
1065.799973
 30
0.0
 10
924.119977
 20
1065.679973
 30
0.0
 10
924.059977
 20
1065.619973
 30
0.0
 10
923.999977
 20
1065.559973
 30
0.0
 10
923.999977
 20
1065.499973
 30
0.0
 10
923.939977
 20
1065.439973
 30
0.0
 10
923.879977
 20
1065.319973
 30
0.0
 10
923.879977
 20
1065.259973
 30
0.0
 10
923.819977
 20
1065.199973
 30
0.0
 10
923.819977
 20
1065.139973
 30
0.0
 10
923.759977
 20
1065.019973
 30
0.0
 10
923.699977
 20
1064.959973
 30
0.0
 10
923.699977
 20
1064.899973
 30
0.0
 10
923.639977
 20
1064.839973
 30
0.0
 10
923.639977
 20
1064.719973
 30
0.0
 10
923.579977
 20
1064.659973
 30
0.0
 10
923.579977
 20
1064.539973
 30
0.0
 10
923.519977
 20
1064.419973
 30
0.0
 10
923.519977
 20
1064.359973
 30
0.0
 10
923.459977
 20
1064.299973
 30
0.0
 10
923.459977
 20
1064.119973
 30
0.0
 10
923.399977
 20
1064.059973
 30
0.0
 10
923.399977
 20
1063.879973
 30
0.0
 10
923.339977
 20
1063.819973
 30
0.0
 10
923.339977
 20
1063.639973
 30
0.0
 10
923.279977
 20
1063.579973
 30
0.0
 10
923.279977
 20
1063.219973
 30
0.0
 10
923.219977
 20
1063.159973
 30
0.0
  0
SPLINE
  5
14a
100
AcDbEntity
  8
R5_DOME_SHEET_1
 62
7
100
AcDbSpline
 70
8
 71
3
 72
8
 73
4
 74
0
 40
0
 40
0
 40
0
 40
0
 40
1
 40
1
 40
1
 40
1
 10
924.119977
 20
1058.899974
 30
0.0
 10
924.408977
 20
1058.634974
 30
0.0
 10
924.046977
 20
1058.882974
 30
0.0
 10
924.419977
 20
1058.539974
 30
0.0
  0
SPLINE
  5
14b
100
AcDbEntity
  8
R5_DOME_SHEET_1
 62
7
100
AcDbSpline
 70
8
 71
3
 72
8
 73
4
 74
0
 40
0
 40
0
 40
0
 40
0
 40
1
 40
1
 40
1
 40
1
 10
924.419977
 20
1058.539974
 30
0.0
 10
924.541977
 20
1058.231974
 30
0.0
 10
924.474977
 20
1058.378974
 30
0.0
 10
924.719977
 20
1058.119974
 30
0.0
  0
LWPOLYLINE
  5
14c
100
AcDbEntity
  8
R5_DOME_SHEET_1
 62
7
100
AcDbPolyline
 90
28
 70
0
 10
923.219977
 20
1061.719973
 30
0.0
 10
923.219977
 20
1061.539973
 30
0.0
 10
923.279977
 20
1061.479973
 30
0.0
 10
923.279977
 20
1061.119973
 30
0.0
 10
923.339977
 20
1061.059973
 30
0.0
 10
923.339977
 20
1060.879973
 30
0.0
 10
923.399977
 20
1060.819973
 30
0.0
 10
923.399977
 20
1060.639973
 30
0.0
 10
923.459977
 20
1060.579973
 30
0.0
 10
923.459977
 20
1060.399973
 30
0.0
 10
923.519977
 20
1060.339973
 30
0.0
 10
923.519977
 20
1060.279973
 30
0.0
 10
923.579977
 20
1060.159973
 30
0.0
 10
923.579977
 20
1060.039973
 30
0.0
 10
923.639977
 20
1059.979974
 30
0.0
 10
923.639977
 20
1059.859974
 30
0.0
 10
923.699977
 20
1059.799974
 30
0.0
 10
923.699977
 20
1059.739974
 30
0.0
 10
923.759977
 20
1059.679974
 30
0.0
 10
923.819977
 20
1059.559974
 30
0.0
 10
923.819977
 20
1059.499974
 30
0.0
 10
923.879977
 20
1059.439974
 30
0.0
 10
923.879977
 20
1059.379974
 30
0.0
 10
923.939977
 20
1059.259974
 30
0.0
 10
923.999977
 20
1059.199974
 30
0.0
 10
923.999977
 20
1059.139974
 30
0.0
 10
924.119977
 20
1059.019974
 30
0.0
 10
924.119977
 20
1058.899974
 30
0.0
  0
SPLINE
  5
14d
100
AcDbEntity
  8
R5_DOME_SHEET_1
 62
7
100
AcDbSpline
 70
8
 71
3
 72
8
 73
4
 74
0
 40
0
 40
0
 40
0
 40
0
 40
1
 40
1
 40
1
 40
1
 10
925.019977
 20
1057.759974
 30
0.0
 10
925.139977
 20
1057.639974
 30
0.0
 10
925.259977
 20
1057.519974
 30
0.0
 10
925.379977
 20
1057.399974
 30
0.0
  0
SPLINE
  5
14e
100
AcDbEntity
  8
R5_DOME_SHEET_1
 62
7
100
AcDbSpline
 70
8
 71
3
 72
8
 73
4
 74
0
 40
0
 40
0
 40
0
 40
0
 40
1
 40
1
 40
1
 40
1
 10
925.379977
 20
1057.399974
 30
0.0
 10
925.644977
 20
1057.109974
 30
0.0
 10
925.395977
 20
1057.471974
 30
0.0
 10
925.739977
 20
1057.099974
 30
0.0
  0
LWPOLYLINE
  5
14f
100
AcDbEntity
  8
R5_DOME_SHEET_1
 62
7
100
AcDbPolyline
 90
6
 70
0
 10
924.719977
 20
1058.119974
 30
0.0
 10
924.779977
 20
1058.059974
 30
0.0
 10
924.779977
 20
1057.999974
 30
0.0
 10
924.839977
 20
1057.939974
 30
0.0
 10
924.899977
 20
1057.879974
 30
0.0
 10
925.019977
 20
1057.759974
 30
0.0
  0
SPLINE
  5
150
100
AcDbEntity
  8
R5_DOME_SHEET_1
 62
7
100
AcDbSpline
 70
8
 71
3
 72
8
 73
4
 74
0
 40
0
 40
0
 40
0
 40
0
 40
1
 40
1
 40
1
 40
1
 10
926.579977
 20
1056.559974
 30
0.0
 10
926.694977
 20
1056.451974
 30
0.0
 10
926.878977
 20
1056.417974
 30
0.0
 10
926.999977
 20
1056.319974
 30
0.0
  0
LWPOLYLINE
  5
151
100
AcDbEntity
  8
R5_DOME_SHEET_1
 62
7
100
AcDbPolyline
 90
13
 70
0
 10
925.739977
 20
1057.099974
 30
0.0
 10
925.799977
 20
1057.039974
 30
0.0
 10
925.859977
 20
1056.979974
 30
0.0
 10
925.919977
 20
1056.979974
 30
0.0
 10
926.039977
 20
1056.919974
 30
0.0
 10
926.099977
 20
1056.859974
 30
0.0
 10
926.159977
 20
1056.799974
 30
0.0
 10
926.219977
 20
1056.739974
 30
0.0
 10
926.279977
 20
1056.739974
 30
0.0
 10
926.339977
 20
1056.679974
 30
0.0
 10
926.399977
 20
1056.619974
 30
0.0
 10
926.519977
 20
1056.619974
 30
0.0
 10
926.579977
 20
1056.559974
 30
0.0
  0
LWPOLYLINE
  5
152
100
AcDbEntity
  8
R5_DOME_SHEET_1
 62
7
100
AcDbPolyline
 90
116
 70
0
 10
926.999977
 20
1056.319974
 30
0.0
 10
927.059977
 20
1056.319974
 30
0.0
 10
927.179977
 20
1056.259974
 30
0.0
 10
927.239977
 20
1056.199974
 30
0.0
 10
927.299977
 20
1056.199974
 30
0.0
 10
927.359977
 20
1056.139974
 30
0.0
 10
927.479977
 20
1056.139974
 30
0.0
 10
927.539977
 20
1056.079974
 30
0.0
 10
927.659977
 20
1056.079974
 30
0.0
 10
927.779977
 20
1056.019974
 30
0.0
 10
927.839977
 20
1056.019974
 30
0.0
 10
927.899977
 20
1055.959974
 30
0.0
 10
928.079977
 20
1055.959974
 30
0.0
 10
928.139977
 20
1055.899974
 30
0.0
 10
928.319977
 20
1055.899974
 30
0.0
 10
928.379977
 20
1055.839974
 30
0.0
 10
928.559977
 20
1055.839974
 30
0.0
 10
928.619977
 20
1055.779974
 30
0.0
 10
928.979977
 20
1055.779974
 30
0.0
 10
929.039977
 20
1055.719974
 30
0.0
 10
929.759977
 20
1055.719974
 30
0.0
 10
929.879977
 20
1055.659974
 30
0.0
 10
929.939977
 20
1055.719974
 30
0.0
 10
930.659977
 20
1055.719974
 30
0.0
 10
930.719977
 20
1055.779974
 30
0.0
 10
931.079977
 20
1055.779974
 30
0.0
 10
931.139977
 20
1055.839974
 30
0.0
 10
931.319977
 20
1055.839974
 30
0.0
 10
931.379977
 20
1055.899974
 30
0.0
 10
931.559977
 20
1055.899974
 30
0.0
 10
931.619977
 20
1055.959974
 30
0.0
 10
931.799977
 20
1055.959974
 30
0.0
 10
931.859977
 20
1056.019974
 30
0.0
 10
931.919977
 20
1056.019974
 30
0.0
 10
932.039977
 20
1056.079974
 30
0.0
 10
932.159977
 20
1056.079974
 30
0.0
 10
932.219977
 20
1056.139974
 30
0.0
 10
932.339977
 20
1056.139974
 30
0.0
 10
932.399977
 20
1056.199974
 30
0.0
 10
932.459977
 20
1056.199974
 30
0.0
 10
932.519977
 20
1056.259974
 30
0.0
 10
932.639977
 20
1056.319974
 30
0.0
 10
932.699977
 20
1056.319974
 30
0.0
 10
932.759977
 20
1056.379974
 30
0.0
 10
932.819977
 20
1056.379974
 30
0.0
 10
932.939977
 20
1056.439974
 30
0.0
 10
932.999977
 20
1056.499974
 30
0.0
 10
933.059977
 20
1056.499974
 30
0.0
 10
933.119977
 20
1056.559974
 30
0.0
 10
933.179977
 20
1056.619974
 30
0.0
 10
933.299977
 20
1056.619974
 30
0.0
 10
933.359977
 20
1056.679974
 30
0.0
 10
933.419977
 20
1056.739974
 30
0.0
 10
933.479977
 20
1056.739974
 30
0.0
 10
933.539977
 20
1056.799974
 30
0.0
 10
933.599977
 20
1056.859974
 30
0.0
 10
933.659977
 20
1056.919974
 30
0.0
 10
933.779977
 20
1056.979974
 30
0.0
 10
933.839977
 20
1056.979974
 30
0.0
 10
933.899977
 20
1057.039974
 30
0.0
 10
933.959977
 20
1057.099974
 30
0.0
 10
934.019977
 20
1057.159974
 30
0.0
 10
934.079977
 20
1057.219974
 30
0.0
 10
934.139977
 20
1057.279974
 30
0.0
 10
934.199977
 20
1057.279974
 30
0.0
 10
934.259977
 20
1057.339974
 30
0.0
 10
934.319977
 20
1057.399974
 30
0.0
 10
934.379977
 20
1057.459974
 30
0.0
 10
934.439977
 20
1057.519974
 30
0.0
 10
934.559977
 20
1057.639974
 30
0.0
 10
934.679977
 20
1057.759974
 30
0.0
 10
934.799977
 20
1057.879974
 30
0.0
 10
934.859977
 20
1057.939974
 30
0.0
 10
934.919977
 20
1057.999974
 30
0.0
 10
934.919977
 20
1058.059974
 30
0.0
 10
934.979977
 20
1058.119974
 30
0.0
 10
935.039977
 20
1058.179974
 30
0.0
 10
935.099977
 20
1058.239974
 30
0.0
 10
935.159977
 20
1058.299974
 30
0.0
 10
935.219977
 20
1058.359974
 30
0.0
 10
935.219977
 20
1058.419974
 30
0.0
 10
935.279977
 20
1058.539974
 30
0.0
 10
935.339977
 20
1058.599974
 30
0.0
 10
935.399977
 20
1058.659974
 30
0.0
 10
935.459977
 20
1058.719974
 30
0.0
 10
935.459977
 20
1058.779974
 30
0.0
 10
935.519977
 20
1058.839974
 30
0.0
 10
935.579977
 20
1058.899974
 30
0.0
 10
935.579977
 20
1059.019974
 30
0.0
 10
935.699977
 20
1059.139974
 30
0.0
 10
935.699977
 20
1059.199974
 30
0.0
 10
935.759977
 20
1059.259974
 30
0.0
 10
935.819977
 20
1059.379974
 30
0.0
 10
935.819977
 20
1059.439974
 30
0.0
 10
935.879977
 20
1059.499974
 30
0.0
 10
935.879977
 20
1059.559974
 30
0.0
 10
935.939977
 20
1059.679974
 30
0.0
 10
935.999977
 20
1059.739974
 30
0.0
 10
935.999977
 20
1059.799974
 30
0.0
 10
936.059977
 20
1059.859974
 30
0.0
 10
936.059977
 20
1059.979974
 30
0.0
 10
936.119977
 20
1060.039973
 30
0.0
 10
936.119977
 20
1060.159973
 30
0.0
 10
936.179977
 20
1060.279973
 30
0.0
 10
936.179977
 20
1060.339973
 30
0.0
 10
936.239977
 20
1060.399973
 30
0.0
 10
936.239977
 20
1060.579973
 30
0.0
 10
936.299977
 20
1060.639973
 30
0.0
 10
936.299977
 20
1060.819973
 30
0.0
 10
936.359977
 20
1060.879973
 30
0.0
 10
936.359977
 20
1061.059973
 30
0.0
 10
936.419977
 20
1061.119973
 30
0.0
 10
936.419977
 20
1061.479973
 30
0.0
 10
936.479977
 20
1061.539973
 30
0.0
 10
936.479977
 20
1062.259973
 30
0.0
 10
936.539977
 20
1062.319973
 30
0.0
  0
SPLINE
  5
153
100
AcDbEntity
  8
R5_DOME_SHEET_1
 62
7
100
AcDbSpline
 70
8
 71
3
 72
8
 73
4
 74
0
 40
0
 40
0
 40
0
 40
0
 40
1
 40
1
 40
1
 40
1
 10
1371.119966
 20
1716.379957
 30
0.0
 10
1371.021966
 20
1716.499957
 30
0.0
 10
1370.987966
 20
1716.684957
 30
0.0
 10
1370.879966
 20
1716.799957
 30
0.0
  0
LWPOLYLINE
  5
154
100
AcDbEntity
  8
R5_DOME_SHEET_1
 62
7
100
AcDbPolyline
 90
22
 70
0
 10
1371.779966
 20
1713.499957
 30
0.0
 10
1371.719966
 20
1713.619957
 30
0.0
 10
1371.719966
 20
1714.339957
 30
0.0
 10
1371.659966
 20
1714.399957
 30
0.0
 10
1371.659966
 20
1714.759957
 30
0.0
 10
1371.599966
 20
1714.819957
 30
0.0
 10
1371.599966
 20
1714.999957
 30
0.0
 10
1371.539966
 20
1715.059957
 30
0.0
 10
1371.539966
 20
1715.239957
 30
0.0
 10
1371.479966
 20
1715.299957
 30
0.0
 10
1371.479966
 20
1715.478957
 30
0.0
 10
1371.419966
 20
1715.539957
 30
0.0
 10
1371.419966
 20
1715.599957
 30
0.0
 10
1371.359966
 20
1715.718957
 30
0.0
 10
1371.359966
 20
1715.839957
 30
0.0
 10
1371.299966
 20
1715.899957
 30
0.0
 10
1371.299966
 20
1716.019957
 30
0.0
 10
1371.239966
 20
1716.079957
 30
0.0
 10
1371.239966
 20
1716.139957
 30
0.0
 10
1371.179966
 20
1716.198957
 30
0.0
 10
1371.119966
 20
1716.319957
 30
0.0
 10
1371.119966
 20
1716.379957
 30
0.0
  0
SPLINE
  5
155
100
AcDbEntity
  8
R5_DOME_SHEET_1
 62
7
100
AcDbSpline
 70
8
 71
3
 72
8
 73
4
 74
0
 40
0
 40
0
 40
0
 40
0
 40
1
 40
1
 40
1
 40
1
 10
1370.339966
 20
1717.639957
 30
0.0
 10
1369.966966
 20
1717.982957
 30
0.0
 10
1370.328966
 20
1717.734957
 30
0.0
 10
1370.039966
 20
1717.999957
 30
0.0
  0
SPLINE
  5
156
100
AcDbEntity
  8
R5_DOME_SHEET_1
 62
7
100
AcDbSpline
 70
8
 71
3
 72
8
 73
4
 74
0
 40
0
 40
0
 40
0
 40
0
 40
1
 40
1
 40
1
 40
1
 10
1370.039966
 20
1717.999957
 30
0.0
 10
1369.919966
 20
1718.119957
 30
0.0
 10
1369.799966
 20
1718.239957
 30
0.0
 10
1369.679966
 20
1718.359957
 30
0.0
  0
LWPOLYLINE
  5
157
100
AcDbEntity
  8
R5_DOME_SHEET_1
 62
7
100
AcDbPolyline
 90
12
 70
0
 10
1370.879966
 20
1716.799957
 30
0.0
 10
1370.819966
 20
1716.859957
 30
0.0
 10
1370.819966
 20
1716.978957
 30
0.0
 10
1370.699966
 20
1717.099957
 30
0.0
 10
1370.699966
 20
1717.159957
 30
0.0
 10
1370.639966
 20
1717.218957
 30
0.0
 10
1370.579966
 20
1717.279957
 30
0.0
 10
1370.519966
 20
1717.339957
 30
0.0
 10
1370.459966
 20
1717.458957
 30
0.0
 10
1370.459966
 20
1717.519957
 30
0.0
 10
1370.399966
 20
1717.579957
 30
0.0
 10
1370.339966
 20
1717.639957
 30
0.0
  0
SPLINE
  5
158
100
AcDbEntity
  8
R5_DOME_SHEET_1
 62
7
100
AcDbSpline
 70
8
 71
3
 72
8
 73
4
 74
0
 40
0
 40
0
 40
0
 40
0
 40
1
 40
1
 40
1
 40
1
 10
1369.319966
 20
1718.659957
 30
0.0
 10
1369.059966
 20
1718.903957
 30
0.0
 10
1369.207966
 20
1718.837957
 30
0.0
 10
1368.899966
 20
1718.958957
 30
0.0
  0
SPLINE
  5
159
100
AcDbEntity
  8
R5_DOME_SHEET_1
 62
7
100
AcDbSpline
 70
8
 71
3
 72
8
 73
4
 74
0
 40
0
 40
0
 40
0
 40
0
 40
1
 40
1
 40
1
 40
1
 10
1368.899966
 20
1718.958957
 30
0.0
 10
1368.555966
 20
1719.332957
 30
0.0
 10
1368.803966
 20
1718.969957
 30
0.0
 10
1368.539966
 20
1719.259957
 30
0.0
  0
LWPOLYLINE
  5
15a
100
AcDbEntity
  8
R5_DOME_SHEET_1
 62
7
100
AcDbPolyline
 90
7
 70
0
 10
1369.679966
 20
1718.359957
 30
0.0
 10
1369.619966
 20
1718.419957
 30
0.0
 10
1369.559966
 20
1718.478957
 30
0.0
 10
1369.499966
 20
1718.539957
 30
0.0
 10
1369.439966
 20
1718.599957
 30
0.0
 10
1369.379966
 20
1718.599957
 30
0.0
 10
1369.319966
 20
1718.659957
 30
0.0
  0
SPLINE
  5
15b
100
AcDbEntity
  8
R5_DOME_SHEET_1
 62
7
100
AcDbSpline
 70
8
 71
3
 72
8
 73
4
 74
0
 40
0
 40
0
 40
0
 40
0
 40
1
 40
1
 40
1
 40
1
 10
1365.719966
 20
1720.159957
 30
0.0
 10
1365.399966
 20
1720.159957
 30
0.0
 10
1365.079966
 20
1720.159957
 30
0.0
 10
1364.759966
 20
1720.159957
 30
0.0
  0
SPLINE
  5
15c
100
AcDbEntity
  8
R5_DOME_SHEET_1
 62
7
100
AcDbSpline
 70
8
 71
3
 72
8
 73
4
 74
0
 40
0
 40
0
 40
0
 40
0
 40
1
 40
1
 40
1
 40
1
 10
1364.759966
 20
1720.159957
 30
0.0
 10
1364.599966
 20
1720.159957
 30
0.0
 10
1364.439966
 20
1720.159957
 30
0.0
 10
1364.279966
 20
1720.159957
 30
0.0
  0
LWPOLYLINE
  5
15d
100
AcDbEntity
  8
R5_DOME_SHEET_1
 62
7
100
AcDbPolyline
 90
29
 70
0
 10
1368.539966
 20
1719.259957
 30
0.0
 10
1368.419966
 20
1719.259957
 30
0.0
 10
1368.359966
 20
1719.319957
 30
0.0
 10
1368.299966
 20
1719.379957
 30
0.0
 10
1368.239966
 20
1719.379957
 30
0.0
 10
1368.179966
 20
1719.439957
 30
0.0
 10
1368.059966
 20
1719.499957
 30
0.0
 10
1367.999966
 20
1719.499957
 30
0.0
 10
1367.939966
 20
1719.559957
 30
0.0
 10
1367.879966
 20
1719.559957
 30
0.0
 10
1367.759966
 20
1719.619957
 30
0.0
 10
1367.699966
 20
1719.679957
 30
0.0
 10
1367.639966
 20
1719.679957
 30
0.0
 10
1367.579966
 20
1719.739957
 30
0.0
 10
1367.459966
 20
1719.739957
 30
0.0
 10
1367.399966
 20
1719.799957
 30
0.0
 10
1367.279966
 20
1719.799957
 30
0.0
 10
1367.159966
 20
1719.859957
 30
0.0
 10
1367.099966
 20
1719.859957
 30
0.0
 10
1367.039966
 20
1719.919957
 30
0.0
 10
1366.859966
 20
1719.919957
 30
0.0
 10
1366.799966
 20
1719.978957
 30
0.0
 10
1366.619966
 20
1719.978957
 30
0.0
 10
1366.559966
 20
1720.039957
 30
0.0
 10
1366.379966
 20
1720.039957
 30
0.0
 10
1366.319966
 20
1720.099957
 30
0.0
 10
1365.959966
 20
1720.099957
 30
0.0
 10
1365.899966
 20
1720.159957
 30
0.0
 10
1365.719966
 20
1720.159957
 30
0.0
  0
SPLINE
  5
15e
100
AcDbEntity
  8
R5_DOME_SHEET_1
 62
7
100
AcDbSpline
 70
8
 71
3
 72
8
 73
4
 74
0
 40
0
 40
0
 40
0
 40
0
 40
1
 40
1
 40
1
 40
1
 10
1360.739966
 20
1718.599957
 30
0.0
 10
1360.619966
 20
1718.479957
 30
0.0
 10
1360.499966
 20
1718.358957
 30
0.0
 10
1360.379966
 20
1718.239957
 30
0.0
  0
SPLINE
  5
15f
100
AcDbEntity
  8
R5_DOME_SHEET_1
 62
7
100
AcDbSpline
 70
8
 71
3
 72
8
 73
4
 74
0
 40
0
 40
0
 40
0
 40
0
 40
1
 40
1
 40
1
 40
1
 10
1360.379966
 20
1718.239957
 30
0.0
 10
1360.259966
 20
1718.119957
 30
0.0
 10
1360.139966
 20
1717.999957
 30
0.0
 10
1360.019966
 20
1717.879957
 30
0.0
  0
LWPOLYLINE
  5
160
100
AcDbEntity
  8
R5_DOME_SHEET_1
 62
7
100
AcDbPolyline
 90
41
 70
0
 10
1364.279966
 20
1720.159957
 30
0.0
 10
1364.219966
 20
1720.099957
 30
0.0
 10
1363.859966
 20
1720.099957
 30
0.0
 10
1363.799966
 20
1720.039957
 30
0.0
 10
1363.619966
 20
1720.039957
 30
0.0
 10
1363.559966
 20
1719.978957
 30
0.0
 10
1363.379966
 20
1719.978957
 30
0.0
 10
1363.319966
 20
1719.919957
 30
0.0
 10
1363.139966
 20
1719.919957
 30
0.0
 10
1363.079966
 20
1719.859957
 30
0.0
 10
1363.019966
 20
1719.859957
 30
0.0
 10
1362.899966
 20
1719.799957
 30
0.0
 10
1362.779966
 20
1719.799957
 30
0.0
 10
1362.719966
 20
1719.739957
 30
0.0
 10
1362.599966
 20
1719.739957
 30
0.0
 10
1362.539966
 20
1719.679957
 30
0.0
 10
1362.479966
 20
1719.679957
 30
0.0
 10
1362.419966
 20
1719.619957
 30
0.0
 10
1362.299966
 20
1719.559957
 30
0.0
 10
1362.239966
 20
1719.559957
 30
0.0
 10
1362.179966
 20
1719.499957
 30
0.0
 10
1362.119966
 20
1719.499957
 30
0.0
 10
1361.999966
 20
1719.439957
 30
0.0
 10
1361.939966
 20
1719.379957
 30
0.0
 10
1361.879966
 20
1719.379957
 30
0.0
 10
1361.819966
 20
1719.319957
 30
0.0
 10
1361.759966
 20
1719.259957
 30
0.0
 10
1361.639966
 20
1719.259957
 30
0.0
 10
1361.519966
 20
1719.139957
 30
0.0
 10
1361.459966
 20
1719.139957
 30
0.0
 10
1361.399966
 20
1719.079957
 30
0.0
 10
1361.339966
 20
1719.019957
 30
0.0
 10
1361.279966
 20
1718.958957
 30
0.0
 10
1361.159966
 20
1718.899957
 30
0.0
 10
1361.099966
 20
1718.899957
 30
0.0
 10
1361.039966
 20
1718.839957
 30
0.0
 10
1360.979966
 20
1718.779957
 30
0.0
 10
1360.919966
 20
1718.718957
 30
0.0
 10
1360.859966
 20
1718.659957
 30
0.0
 10
1360.799966
 20
1718.599957
 30
0.0
 10
1360.739966
 20
1718.599957
 30
0.0
  0
SPLINE
  5
161
100
AcDbEntity
  8
R5_DOME_SHEET_1
 62
7
100
AcDbSpline
 70
8
 71
3
 72
8
 73
4
 74
0
 40
0
 40
0
 40
0
 40
0
 40
1
 40
1
 40
1
 40
1
 10
1358.459966
 20
1714.339957
 30
0.0
 10
1358.459966
 20
1714.179957
 30
0.0
 10
1358.459966
 20
1714.019957
 30
0.0
 10
1358.459966
 20
1713.859957
 30
0.0
  0
SPLINE
  5
162
100
AcDbEntity
  8
R5_DOME_SHEET_1
 62
7
100
AcDbSpline
 70
8
 71
3
 72
8
 73
4
 74
0
 40
0
 40
0
 40
0
 40
0
 40
1
 40
1
 40
1
 40
1
 10
1358.459966
 20
1713.859957
 30
0.0
 10
1358.459966
 20
1713.539957
 30
0.0
 10
1358.459966
 20
1713.219957
 30
0.0
 10
1358.459966
 20
1712.899957
 30
0.0
  0
LWPOLYLINE
  5
163
100
AcDbEntity
  8
R5_DOME_SHEET_1
 62
7
100
AcDbPolyline
 90
40
 70
0
 10
1360.019966
 20
1717.879957
 30
0.0
 10
1360.019966
 20
1717.819957
 30
0.0
 10
1359.959966
 20
1717.759957
 30
0.0
 10
1359.899966
 20
1717.698957
 30
0.0
 10
1359.839966
 20
1717.639957
 30
0.0
 10
1359.779966
 20
1717.579957
 30
0.0
 10
1359.719966
 20
1717.519957
 30
0.0
 10
1359.719966
 20
1717.458957
 30
0.0
 10
1359.659966
 20
1717.339957
 30
0.0
 10
1359.599966
 20
1717.279957
 30
0.0
 10
1359.539966
 20
1717.218957
 30
0.0
 10
1359.479966
 20
1717.159957
 30
0.0
 10
1359.479966
 20
1717.099957
 30
0.0
 10
1359.359966
 20
1716.978957
 30
0.0
 10
1359.359966
 20
1716.859957
 30
0.0
 10
1359.239966
 20
1716.739957
 30
0.0
 10
1359.239966
 20
1716.679957
 30
0.0
 10
1359.179966
 20
1716.619957
 30
0.0
 10
1359.119966
 20
1716.499957
 30
0.0
 10
1359.119966
 20
1716.439957
 30
0.0
 10
1359.059966
 20
1716.379957
 30
0.0
 10
1359.059966
 20
1716.319957
 30
0.0
 10
1358.999966
 20
1716.198957
 30
0.0
 10
1358.939966
 20
1716.139957
 30
0.0
 10
1358.939966
 20
1716.079957
 30
0.0
 10
1358.879966
 20
1716.019957
 30
0.0
 10
1358.879966
 20
1715.899957
 30
0.0
 10
1358.819966
 20
1715.839957
 30
0.0
 10
1358.819966
 20
1715.718957
 30
0.0
 10
1358.759966
 20
1715.599957
 30
0.0
 10
1358.759966
 20
1715.539957
 30
0.0
 10
1358.699966
 20
1715.478957
 30
0.0
 10
1358.699966
 20
1715.299957
 30
0.0
 10
1358.639966
 20
1715.239957
 30
0.0
 10
1358.639966
 20
1715.059957
 30
0.0
 10
1358.579966
 20
1714.999957
 30
0.0
 10
1358.579966
 20
1714.819957
 30
0.0
 10
1358.519966
 20
1714.759957
 30
0.0
 10
1358.519966
 20
1714.399957
 30
0.0
 10
1358.459966
 20
1714.339957
 30
0.0
  0
SPLINE
  5
164
100
AcDbEntity
  8
R5_DOME_SHEET_1
 62
7
100
AcDbSpline
 70
8
 71
3
 72
8
 73
4
 74
0
 40
0
 40
0
 40
0
 40
0
 40
1
 40
1
 40
1
 40
1
 10
1359.359966
 20
1710.079957
 30
0.0
 10
1359.648966
 20
1709.814957
 30
0.0
 10
1359.287966
 20
1710.062957
 30
0.0
 10
1359.659966
 20
1709.718957
 30
0.0
  0
SPLINE
  5
165
100
AcDbEntity
  8
R5_DOME_SHEET_1
 62
7
100
AcDbSpline
 70
8
 71
3
 72
8
 73
4
 74
0
 40
0
 40
0
 40
0
 40
0
 40
1
 40
1
 40
1
 40
1
 10
1359.659966
 20
1709.718957
 30
0.0
 10
1359.781966
 20
1709.410957
 30
0.0
 10
1359.714966
 20
1709.558957
 30
0.0
 10
1359.959966
 20
1709.299957
 30
0.0
  0
LWPOLYLINE
  5
166
100
AcDbEntity
  8
R5_DOME_SHEET_1
 62
7
100
AcDbPolyline
 90
28
 70
0
 10
1358.459966
 20
1712.899957
 30
0.0
 10
1358.459966
 20
1712.718957
 30
0.0
 10
1358.519966
 20
1712.659957
 30
0.0
 10
1358.519966
 20
1712.299957
 30
0.0
 10
1358.579966
 20
1712.239957
 30
0.0
 10
1358.579966
 20
1712.059957
 30
0.0
 10
1358.639966
 20
1711.999957
 30
0.0
 10
1358.639966
 20
1711.819957
 30
0.0
 10
1358.699966
 20
1711.759957
 30
0.0
 10
1358.699966
 20
1711.579957
 30
0.0
 10
1358.759966
 20
1711.519957
 30
0.0
 10
1358.759966
 20
1711.458957
 30
0.0
 10
1358.819966
 20
1711.339957
 30
0.0
 10
1358.819966
 20
1711.218957
 30
0.0
 10
1358.879966
 20
1711.159957
 30
0.0
 10
1358.879966
 20
1711.039957
 30
0.0
 10
1358.939966
 20
1710.978957
 30
0.0
 10
1358.939966
 20
1710.919957
 30
0.0
 10
1358.999966
 20
1710.859957
 30
0.0
 10
1359.059966
 20
1710.739957
 30
0.0
 10
1359.059966
 20
1710.679957
 30
0.0
 10
1359.119966
 20
1710.619957
 30
0.0
 10
1359.119966
 20
1710.559957
 30
0.0
 10
1359.179966
 20
1710.439957
 30
0.0
 10
1359.239966
 20
1710.379957
 30
0.0
 10
1359.239966
 20
1710.319957
 30
0.0
 10
1359.359966
 20
1710.198957
 30
0.0
 10
1359.359966
 20
1710.079957
 30
0.0
  0
SPLINE
  5
167
100
AcDbEntity
  8
R5_DOME_SHEET_1
 62
7
100
AcDbSpline
 70
8
 71
3
 72
8
 73
4
 74
0
 40
0
 40
0
 40
0
 40
0
 40
1
 40
1
 40
1
 40
1
 10
1360.259966
 20
1708.939957
 30
0.0
 10
1360.379966
 20
1708.819957
 30
0.0
 10
1360.499966
 20
1708.699957
 30
0.0
 10
1360.619966
 20
1708.579957
 30
0.0
  0
SPLINE
  5
168
100
AcDbEntity
  8
R5_DOME_SHEET_1
 62
7
100
AcDbSpline
 70
8
 71
3
 72
8
 73
4
 74
0
 40
0
 40
0
 40
0
 40
0
 40
1
 40
1
 40
1
 40
1
 10
1360.619966
 20
1708.579957
 30
0.0
 10
1360.883966
 20
1708.290957
 30
0.0
 10
1360.636966
 20
1708.651957
 30
0.0
 10
1360.979966
 20
1708.279957
 30
0.0
  0
LWPOLYLINE
  5
169
100
AcDbEntity
  8
R5_DOME_SHEET_1
 62
7
100
AcDbPolyline
 90
4
 70
0
 10
1359.959966
 20
1709.299957
 30
0.0
 10
1360.019966
 20
1709.239957
 30
0.0
 10
1360.019966
 20
1709.179957
 30
0.0
 10
1360.259966
 20
1708.939957
 30
0.0
  0
SPLINE
  5
16a
100
AcDbEntity
  8
R5_DOME_SHEET_1
 62
7
100
AcDbSpline
 70
8
 71
3
 72
8
 73
4
 74
0
 40
0
 40
0
 40
0
 40
0
 40
1
 40
1
 40
1
 40
1
 10
1361.819966
 20
1707.739957
 30
0.0
 10
1361.934966
 20
1707.631957
 30
0.0
 10
1362.118966
 20
1707.597957
 30
0.0
 10
1362.239966
 20
1707.499957
 30
0.0
  0
LWPOLYLINE
  5
16b
100
AcDbEntity
  8
R5_DOME_SHEET_1
 62
7
100
AcDbPolyline
 90
12
 70
0
 10
1360.979966
 20
1708.279957
 30
0.0
 10
1361.039966
 20
1708.218957
 30
0.0
 10
1361.099966
 20
1708.159957
 30
0.0
 10
1361.159966
 20
1708.159957
 30
0.0
 10
1361.279966
 20
1708.099957
 30
0.0
 10
1361.339966
 20
1708.039957
 30
0.0
 10
1361.399966
 20
1707.978957
 30
0.0
 10
1361.459966
 20
1707.919957
 30
0.0
 10
1361.519966
 20
1707.919957
 30
0.0
 10
1361.639966
 20
1707.799957
 30
0.0
 10
1361.759966
 20
1707.799957
 30
0.0
 10
1361.819966
 20
1707.739957
 30
0.0
  0
LWPOLYLINE
  5
16c
100
AcDbEntity
  8
R5_DOME_SHEET_1
 62
7
100
AcDbPolyline
 90
114
 70
0
 10
1362.239966
 20
1707.499957
 30
0.0
 10
1362.299966
 20
1707.499957
 30
0.0
 10
1362.419966
 20
1707.439957
 30
0.0
 10
1362.479966
 20
1707.379957
 30
0.0
 10
1362.539966
 20
1707.379957
 30
0.0
 10
1362.599966
 20
1707.319957
 30
0.0
 10
1362.719966
 20
1707.319957
 30
0.0
 10
1362.779966
 20
1707.259957
 30
0.0
 10
1362.899966
 20
1707.259957
 30
0.0
 10
1363.019966
 20
1707.198957
 30
0.0
 10
1363.079966
 20
1707.198957
 30
0.0
 10
1363.139966
 20
1707.139957
 30
0.0
 10
1363.319966
 20
1707.139957
 30
0.0
 10
1363.379966
 20
1707.079957
 30
0.0
 10
1363.559966
 20
1707.079957
 30
0.0
 10
1363.619966
 20
1707.019957
 30
0.0
 10
1363.799966
 20
1707.019957
 30
0.0
 10
1363.859966
 20
1706.958957
 30
0.0
 10
1364.219966
 20
1706.958957
 30
0.0
 10
1364.279966
 20
1706.899957
 30
0.0
 10
1364.999966
 20
1706.899957
 30
0.0
 10
1365.119966
 20
1706.839957
 30
0.0
 10
1365.179966
 20
1706.899957
 30
0.0
 10
1365.899966
 20
1706.899957
 30
0.0
 10
1365.959966
 20
1706.958957
 30
0.0
 10
1366.319966
 20
1706.958957
 30
0.0
 10
1366.379966
 20
1707.019957
 30
0.0
 10
1366.559966
 20
1707.019957
 30
0.0
 10
1366.619966
 20
1707.079957
 30
0.0
 10
1366.799966
 20
1707.079957
 30
0.0
 10
1366.859966
 20
1707.139957
 30
0.0
 10
1367.039966
 20
1707.139957
 30
0.0
 10
1367.099966
 20
1707.198957
 30
0.0
 10
1367.159966
 20
1707.198957
 30
0.0
 10
1367.279966
 20
1707.259957
 30
0.0
 10
1367.399966
 20
1707.259957
 30
0.0
 10
1367.459966
 20
1707.319957
 30
0.0
 10
1367.579966
 20
1707.319957
 30
0.0
 10
1367.639966
 20
1707.379957
 30
0.0
 10
1367.699966
 20
1707.379957
 30
0.0
 10
1367.759966
 20
1707.439957
 30
0.0
 10
1367.879966
 20
1707.499957
 30
0.0
 10
1367.939966
 20
1707.499957
 30
0.0
 10
1367.999966
 20
1707.559957
 30
0.0
 10
1368.059966
 20
1707.559957
 30
0.0
 10
1368.179966
 20
1707.619957
 30
0.0
 10
1368.239966
 20
1707.679957
 30
0.0
 10
1368.299966
 20
1707.679957
 30
0.0
 10
1368.419966
 20
1707.799957
 30
0.0
 10
1368.539966
 20
1707.799957
 30
0.0
 10
1368.599966
 20
1707.859957
 30
0.0
 10
1368.659966
 20
1707.919957
 30
0.0
 10
1368.719966
 20
1707.919957
 30
0.0
 10
1368.779966
 20
1707.978957
 30
0.0
 10
1368.839966
 20
1708.039957
 30
0.0
 10
1368.899966
 20
1708.099957
 30
0.0
 10
1369.019966
 20
1708.159957
 30
0.0
 10
1369.079966
 20
1708.159957
 30
0.0
 10
1369.139966
 20
1708.218957
 30
0.0
 10
1369.199966
 20
1708.279957
 30
0.0
 10
1369.259966
 20
1708.339957
 30
0.0
 10
1369.319966
 20
1708.399957
 30
0.0
 10
1369.379966
 20
1708.458957
 30
0.0
 10
1369.439966
 20
1708.458957
 30
0.0
 10
1369.499966
 20
1708.519957
 30
0.0
 10
1369.559966
 20
1708.579957
 30
0.0
 10
1369.619966
 20
1708.639957
 30
0.0
 10
1369.679966
 20
1708.698957
 30
0.0
 10
1369.739966
 20
1708.759957
 30
0.0
 10
1369.859966
 20
1708.879957
 30
0.0
 10
1369.979966
 20
1708.999957
 30
0.0
 10
1370.099966
 20
1709.119957
 30
0.0
 10
1370.159966
 20
1709.179957
 30
0.0
 10
1370.159966
 20
1709.239957
 30
0.0
 10
1370.219966
 20
1709.299957
 30
0.0
 10
1370.279966
 20
1709.359957
 30
0.0
 10
1370.339966
 20
1709.419957
 30
0.0
 10
1370.399966
 20
1709.478957
 30
0.0
 10
1370.459966
 20
1709.539957
 30
0.0
 10
1370.459966
 20
1709.599957
 30
0.0
 10
1370.519966
 20
1709.718957
 30
0.0
 10
1370.579966
 20
1709.779957
 30
0.0
 10
1370.639966
 20
1709.839957
 30
0.0
 10
1370.699966
 20
1709.899957
 30
0.0
 10
1370.699966
 20
1709.958957
 30
0.0
 10
1370.819966
 20
1710.079957
 30
0.0
 10
1370.819966
 20
1710.198957
 30
0.0
 10
1370.939966
 20
1710.319957
 30
0.0
 10
1370.939966
 20
1710.379957
 30
0.0
 10
1370.999966
 20
1710.439957
 30
0.0
 10
1371.059966
 20
1710.559957
 30
0.0
 10
1371.059966
 20
1710.619957
 30
0.0
 10
1371.119966
 20
1710.679957
 30
0.0
 10
1371.119966
 20
1710.739957
 30
0.0
 10
1371.179966
 20
1710.859957
 30
0.0
 10
1371.239966
 20
1710.919957
 30
0.0
 10
1371.239966
 20
1710.978957
 30
0.0
 10
1371.299966
 20
1711.039957
 30
0.0
 10
1371.299966
 20
1711.159957
 30
0.0
 10
1371.359966
 20
1711.218957
 30
0.0
 10
1371.359966
 20
1711.339957
 30
0.0
 10
1371.419966
 20
1711.458957
 30
0.0
 10
1371.419966
 20
1711.519957
 30
0.0
 10
1371.479966
 20
1711.579957
 30
0.0
 10
1371.479966
 20
1711.759957
 30
0.0
 10
1371.539966
 20
1711.819957
 30
0.0
 10
1371.539966
 20
1711.999957
 30
0.0
 10
1371.599966
 20
1712.059957
 30
0.0
 10
1371.599966
 20
1712.239957
 30
0.0
 10
1371.659966
 20
1712.299957
 30
0.0
 10
1371.659966
 20
1712.659957
 30
0.0
 10
1371.719966
 20
1712.718957
 30
0.0
 10
1371.719966
 20
1713.439957
 30
0.0
 10
1371.779966
 20
1713.559957
 30
0.0
  0
LWPOLYLINE
  5
16d
100
AcDbEntity
  8
R5_DOME_SHEET_1
 62
7
100
AcDbPolyline
 90
2
 70
0
 10
412.739990
 20
1644.439959
 30
0.0
 10
412.739990
 20
1840.759954
 30
0.0
  0
LWPOLYLINE
  5
16e
100
AcDbEntity
  8
R5_DOME_SHEET_1
 62
7
100
AcDbPolyline
 90
2
 70
0
 10
376.559991
 20
1755.679956
 30
0.0
 10
412.739990
 20
1644.439959
 30
0.0
  0
LWPOLYLINE
  5
16f
100
AcDbEntity
  8
R5_DOME_SHEET_1
 62
7
100
AcDbPolyline
 90
2
 70
0
 10
376.559991
 20
1840.759954
 30
0.0
 10
376.559991
 20
1755.679956
 30
0.0
  0
LWPOLYLINE
  5
170
100
AcDbEntity
  8
R5_DOME_SHEET_1
 62
7
100
AcDbPolyline
 90
2
 70
0
 10
412.739990
 20
1840.759954
 30
0.0
 10
376.559991
 20
1840.759954
 30
0.0
  0
LWPOLYLINE
  5
171
100
AcDbEntity
  8
R5_DOME_SHEET_1
 62
7
100
AcDbPolyline
 90
2
 70
0
 10
448.859989
 20
1644.439959
 30
0.0
 10
448.859989
 20
1840.759954
 30
0.0
  0
LWPOLYLINE
  5
172
100
AcDbEntity
  8
R5_DOME_SHEET_1
 62
7
100
AcDbPolyline
 90
2
 70
0
 10
412.739990
 20
1755.679956
 30
0.0
 10
448.859989
 20
1644.439959
 30
0.0
  0
LWPOLYLINE
  5
173
100
AcDbEntity
  8
R5_DOME_SHEET_1
 62
7
100
AcDbPolyline
 90
2
 70
0
 10
412.739990
 20
1840.759954
 30
0.0
 10
412.739990
 20
1755.679956
 30
0.0
  0
LWPOLYLINE
  5
174
100
AcDbEntity
  8
R5_DOME_SHEET_1
 62
7
100
AcDbPolyline
 90
2
 70
0
 10
448.859989
 20
1840.759954
 30
0.0
 10
412.739990
 20
1840.759954
 30
0.0
  0
LWPOLYLINE
  5
175
100
AcDbEntity
  8
R5_DOME_SHEET_1
 62
7
100
AcDbPolyline
 90
2
 70
0
 10
484.919988
 20
1644.439959
 30
0.0
 10
484.919988
 20
1840.759954
 30
0.0
  0
LWPOLYLINE
  5
176
100
AcDbEntity
  8
R5_DOME_SHEET_1
 62
7
100
AcDbPolyline
 90
2
 70
0
 10
448.799989
 20
1755.679956
 30
0.0
 10
484.919988
 20
1644.439959
 30
0.0
  0
LWPOLYLINE
  5
177
100
AcDbEntity
  8
R5_DOME_SHEET_1
 62
7
100
AcDbPolyline
 90
2
 70
0
 10
448.799989
 20
1840.759954
 30
0.0
 10
448.799989
 20
1755.679956
 30
0.0
  0
LWPOLYLINE
  5
178
100
AcDbEntity
  8
R5_DOME_SHEET_1
 62
7
100
AcDbPolyline
 90
2
 70
0
 10
484.919988
 20
1840.759954
 30
0.0
 10
448.799989
 20
1840.759954
 30
0.0
  0
LWPOLYLINE
  5
179
100
AcDbEntity
  8
R5_DOME_SHEET_1
 62
7
100
AcDbPolyline
 90
2
 70
0
 10
521.099987
 20
1644.439959
 30
0.0
 10
521.099987
 20
1840.759954
 30
0.0
  0
LWPOLYLINE
  5
17a
100
AcDbEntity
  8
R5_DOME_SHEET_1
 62
7
100
AcDbPolyline
 90
2
 70
0
 10
484.979988
 20
1755.679956
 30
0.0
 10
521.099987
 20
1644.439959
 30
0.0
  0
LWPOLYLINE
  5
17b
100
AcDbEntity
  8
R5_DOME_SHEET_1
 62
7
100
AcDbPolyline
 90
2
 70
0
 10
484.979988
 20
1840.759954
 30
0.0
 10
484.979988
 20
1755.679956
 30
0.0
  0
LWPOLYLINE
  5
17c
100
AcDbEntity
  8
R5_DOME_SHEET_1
 62
7
100
AcDbPolyline
 90
2
 70
0
 10
521.099987
 20
1840.759954
 30
0.0
 10
484.979988
 20
1840.759954
 30
0.0
  0
LWPOLYLINE
  5
17d
100
AcDbEntity
  8
R5_DOME_SHEET_1
 62
7
100
AcDbPolyline
 90
2
 70
0
 10
557.219986
 20
1644.439959
 30
0.0
 10
557.219986
 20
1840.759954
 30
0.0
  0
LWPOLYLINE
  5
17e
100
AcDbEntity
  8
R5_DOME_SHEET_1
 62
7
100
AcDbPolyline
 90
2
 70
0
 10
521.099987
 20
1755.679956
 30
0.0
 10
557.219986
 20
1644.439959
 30
0.0
  0
LWPOLYLINE
  5
17f
100
AcDbEntity
  8
R5_DOME_SHEET_1
 62
7
100
AcDbPolyline
 90
2
 70
0
 10
521.099987
 20
1840.759954
 30
0.0
 10
521.099987
 20
1755.679956
 30
0.0
  0
LWPOLYLINE
  5
180
100
AcDbEntity
  8
R5_DOME_SHEET_1
 62
7
100
AcDbPolyline
 90
2
 70
0
 10
557.219986
 20
1840.759954
 30
0.0
 10
521.099987
 20
1840.759954
 30
0.0
  0
LWPOLYLINE
  5
181
100
AcDbEntity
  8
R5_DOME_SHEET_1
 62
7
100
AcDbPolyline
 90
2
 70
0
 10
593.399985
 20
1644.439959
 30
0.0
 10
593.399985
 20
1840.759954
 30
0.0
  0
LWPOLYLINE
  5
182
100
AcDbEntity
  8
R5_DOME_SHEET_1
 62
7
100
AcDbPolyline
 90
2
 70
0
 10
557.219986
 20
1755.679956
 30
0.0
 10
593.399985
 20
1644.439959
 30
0.0
  0
LWPOLYLINE
  5
183
100
AcDbEntity
  8
R5_DOME_SHEET_1
 62
7
100
AcDbPolyline
 90
2
 70
0
 10
557.219986
 20
1840.759954
 30
0.0
 10
557.219986
 20
1755.679956
 30
0.0
  0
LWPOLYLINE
  5
184
100
AcDbEntity
  8
R5_DOME_SHEET_1
 62
7
100
AcDbPolyline
 90
2
 70
0
 10
593.399985
 20
1840.759954
 30
0.0
 10
557.219986
 20
1840.759954
 30
0.0
  0
LWPOLYLINE
  5
185
100
AcDbEntity
  8
R5_DOME_SHEET_1
 62
7
100
AcDbPolyline
 90
2
 70
0
 10
629.519984
 20
1644.439959
 30
0.0
 10
629.519984
 20
1840.759954
 30
0.0
  0
LWPOLYLINE
  5
186
100
AcDbEntity
  8
R5_DOME_SHEET_1
 62
7
100
AcDbPolyline
 90
2
 70
0
 10
593.399985
 20
1755.679956
 30
0.0
 10
629.519984
 20
1644.439959
 30
0.0
  0
LWPOLYLINE
  5
187
100
AcDbEntity
  8
R5_DOME_SHEET_1
 62
7
100
AcDbPolyline
 90
2
 70
0
 10
593.399985
 20
1840.759954
 30
0.0
 10
593.399985
 20
1755.679956
 30
0.0
  0
LWPOLYLINE
  5
188
100
AcDbEntity
  8
R5_DOME_SHEET_1
 62
7
100
AcDbPolyline
 90
2
 70
0
 10
629.519984
 20
1840.759954
 30
0.0
 10
593.399985
 20
1840.759954
 30
0.0
  0
LWPOLYLINE
  5
189
100
AcDbEntity
  8
R5_DOME_SHEET_1
 62
7
100
AcDbPolyline
 90
2
 70
0
 10
665.639983
 20
1644.439959
 30
0.0
 10
665.639983
 20
1840.759954
 30
0.0
  0
LWPOLYLINE
  5
18a
100
AcDbEntity
  8
R5_DOME_SHEET_1
 62
7
100
AcDbPolyline
 90
2
 70
0
 10
629.519984
 20
1755.679956
 30
0.0
 10
665.639983
 20
1644.439959
 30
0.0
  0
LWPOLYLINE
  5
18b
100
AcDbEntity
  8
R5_DOME_SHEET_1
 62
7
100
AcDbPolyline
 90
2
 70
0
 10
629.519984
 20
1840.759954
 30
0.0
 10
629.519984
 20
1755.679956
 30
0.0
  0
LWPOLYLINE
  5
18c
100
AcDbEntity
  8
R5_DOME_SHEET_1
 62
7
100
AcDbPolyline
 90
2
 70
0
 10
665.639983
 20
1840.759954
 30
0.0
 10
629.519984
 20
1840.759954
 30
0.0
  0
LWPOLYLINE
  5
18d
100
AcDbEntity
  8
R5_DOME_SHEET_1
 62
7
100
AcDbPolyline
 90
2
 70
0
 10
701.819982
 20
1644.439959
 30
0.0
 10
701.819982
 20
1840.759954
 30
0.0
  0
LWPOLYLINE
  5
18e
100
AcDbEntity
  8
R5_DOME_SHEET_1
 62
7
100
AcDbPolyline
 90
2
 70
0
 10
665.639983
 20
1755.679956
 30
0.0
 10
701.819982
 20
1644.439959
 30
0.0
  0
LWPOLYLINE
  5
18f
100
AcDbEntity
  8
R5_DOME_SHEET_1
 62
7
100
AcDbPolyline
 90
2
 70
0
 10
665.639983
 20
1840.759954
 30
0.0
 10
665.639983
 20
1755.679956
 30
0.0
  0
LWPOLYLINE
  5
190
100
AcDbEntity
  8
R5_DOME_SHEET_1
 62
7
100
AcDbPolyline
 90
2
 70
0
 10
701.819982
 20
1840.759954
 30
0.0
 10
665.639983
 20
1840.759954
 30
0.0
  0
LWPOLYLINE
  5
191
100
AcDbEntity
  8
R5_DOME_SHEET_1
 62
7
100
AcDbPolyline
 90
2
 70
0
 10
737.939982
 20
1644.439959
 30
0.0
 10
737.939982
 20
1840.759954
 30
0.0
  0
LWPOLYLINE
  5
192
100
AcDbEntity
  8
R5_DOME_SHEET_1
 62
7
100
AcDbPolyline
 90
2
 70
0
 10
701.819982
 20
1755.679956
 30
0.0
 10
737.939982
 20
1644.439959
 30
0.0
  0
LWPOLYLINE
  5
193
100
AcDbEntity
  8
R5_DOME_SHEET_1
 62
7
100
AcDbPolyline
 90
2
 70
0
 10
701.819982
 20
1840.759954
 30
0.0
 10
701.819982
 20
1755.679956
 30
0.0
  0
LWPOLYLINE
  5
194
100
AcDbEntity
  8
R5_DOME_SHEET_1
 62
7
100
AcDbPolyline
 90
2
 70
0
 10
737.939982
 20
1840.759954
 30
0.0
 10
701.819982
 20
1840.759954
 30
0.0
  0
LWPOLYLINE
  5
195
100
AcDbEntity
  8
R5_DOME_SHEET_1
 62
7
100
AcDbPolyline
 90
2
 70
0
 10
773.999981
 20
1644.439959
 30
0.0
 10
773.999981
 20
1840.759954
 30
0.0
  0
LWPOLYLINE
  5
196
100
AcDbEntity
  8
R5_DOME_SHEET_1
 62
7
100
AcDbPolyline
 90
2
 70
0
 10
737.819982
 20
1755.679956
 30
0.0
 10
773.999981
 20
1644.439959
 30
0.0
  0
LWPOLYLINE
  5
197
100
AcDbEntity
  8
R5_DOME_SHEET_1
 62
7
100
AcDbPolyline
 90
2
 70
0
 10
737.819982
 20
1840.759954
 30
0.0
 10
737.819982
 20
1755.679956
 30
0.0
  0
LWPOLYLINE
  5
198
100
AcDbEntity
  8
R5_DOME_SHEET_1
 62
7
100
AcDbPolyline
 90
2
 70
0
 10
773.999981
 20
1840.759954
 30
0.0
 10
737.819982
 20
1840.759954
 30
0.0
  0
LWPOLYLINE
  5
199
100
AcDbEntity
  8
R5_DOME_SHEET_1
 62
7
100
AcDbPolyline
 90
2
 70
0
 10
846.179979
 20
1644.439959
 30
0.0
 10
846.179979
 20
1840.759954
 30
0.0
  0
LWPOLYLINE
  5
19a
100
AcDbEntity
  8
R5_DOME_SHEET_1
 62
7
100
AcDbPolyline
 90
2
 70
0
 10
810.059980
 20
1755.679956
 30
0.0
 10
846.179979
 20
1644.439959
 30
0.0
  0
LWPOLYLINE
  5
19b
100
AcDbEntity
  8
R5_DOME_SHEET_1
 62
7
100
AcDbPolyline
 90
2
 70
0
 10
810.059980
 20
1840.759954
 30
0.0
 10
810.059980
 20
1755.679956
 30
0.0
  0
LWPOLYLINE
  5
19c
100
AcDbEntity
  8
R5_DOME_SHEET_1
 62
7
100
AcDbPolyline
 90
2
 70
0
 10
846.179979
 20
1840.759954
 30
0.0
 10
810.059980
 20
1840.759954
 30
0.0
  0
LWPOLYLINE
  5
19d
100
AcDbEntity
  8
R5_DOME_SHEET_1
 62
7
100
AcDbPolyline
 90
2
 70
0
 10
810.119980
 20
1644.439959
 30
0.0
 10
810.119980
 20
1840.759954
 30
0.0
  0
LWPOLYLINE
  5
19e
100
AcDbEntity
  8
R5_DOME_SHEET_1
 62
7
100
AcDbPolyline
 90
2
 70
0
 10
773.999981
 20
1755.679956
 30
0.0
 10
810.119980
 20
1644.439959
 30
0.0
  0
LWPOLYLINE
  5
19f
100
AcDbEntity
  8
R5_DOME_SHEET_1
 62
7
100
AcDbPolyline
 90
2
 70
0
 10
773.999981
 20
1840.759954
 30
0.0
 10
773.999981
 20
1755.679956
 30
0.0
  0
LWPOLYLINE
  5
1a0
100
AcDbEntity
  8
R5_DOME_SHEET_1
 62
7
100
AcDbPolyline
 90
2
 70
0
 10
810.119980
 20
1840.759954
 30
0.0
 10
773.999981
 20
1840.759954
 30
0.0
  0
LWPOLYLINE
  5
1a1
100
AcDbEntity
  8
R5_DOME_SHEET_1
 62
7
100
AcDbPolyline
 90
2
 70
0
 10
954.779976
 20
1644.439959
 30
0.0
 10
954.779976
 20
1840.759954
 30
0.0
  0
LWPOLYLINE
  5
1a2
100
AcDbEntity
  8
R5_DOME_SHEET_1
 62
7
100
AcDbPolyline
 90
2
 70
0
 10
918.599977
 20
1755.679956
 30
0.0
 10
954.779976
 20
1644.439959
 30
0.0
  0
LWPOLYLINE
  5
1a3
100
AcDbEntity
  8
R5_DOME_SHEET_1
 62
7
100
AcDbPolyline
 90
2
 70
0
 10
918.599977
 20
1840.759954
 30
0.0
 10
918.599977
 20
1755.679956
 30
0.0
  0
LWPOLYLINE
  5
1a4
100
AcDbEntity
  8
R5_DOME_SHEET_1
 62
7
100
AcDbPolyline
 90
2
 70
0
 10
954.779976
 20
1840.759954
 30
0.0
 10
918.599977
 20
1840.759954
 30
0.0
  0
LWPOLYLINE
  5
1a5
100
AcDbEntity
  8
R5_DOME_SHEET_1
 62
7
100
AcDbPolyline
 90
2
 70
0
 10
882.419978
 20
1644.439959
 30
0.0
 10
882.419978
 20
1840.759954
 30
0.0
  0
LWPOLYLINE
  5
1a6
100
AcDbEntity
  8
R5_DOME_SHEET_1
 62
7
100
AcDbPolyline
 90
2
 70
0
 10
846.239979
 20
1755.679956
 30
0.0
 10
882.419978
 20
1644.439959
 30
0.0
  0
LWPOLYLINE
  5
1a7
100
AcDbEntity
  8
R5_DOME_SHEET_1
 62
7
100
AcDbPolyline
 90
2
 70
0
 10
846.239979
 20
1840.759954
 30
0.0
 10
846.239979
 20
1755.679956
 30
0.0
  0
LWPOLYLINE
  5
1a8
100
AcDbEntity
  8
R5_DOME_SHEET_1
 62
7
100
AcDbPolyline
 90
2
 70
0
 10
882.419978
 20
1840.759954
 30
0.0
 10
846.239979
 20
1840.759954
 30
0.0
  0
LWPOLYLINE
  5
1a9
100
AcDbEntity
  8
R5_DOME_SHEET_1
 62
7
100
AcDbPolyline
 90
2
 70
0
 10
918.599977
 20
1644.439959
 30
0.0
 10
918.599977
 20
1840.759954
 30
0.0
  0
LWPOLYLINE
  5
1aa
100
AcDbEntity
  8
R5_DOME_SHEET_1
 62
7
100
AcDbPolyline
 90
2
 70
0
 10
882.479978
 20
1755.679956
 30
0.0
 10
918.599977
 20
1644.439959
 30
0.0
  0
LWPOLYLINE
  5
1ab
100
AcDbEntity
  8
R5_DOME_SHEET_1
 62
7
100
AcDbPolyline
 90
2
 70
0
 10
882.479978
 20
1840.759954
 30
0.0
 10
882.479978
 20
1755.679956
 30
0.0
  0
LWPOLYLINE
  5
1ac
100
AcDbEntity
  8
R5_DOME_SHEET_1
 62
7
100
AcDbPolyline
 90
2
 70
0
 10
918.599977
 20
1840.759954
 30
0.0
 10
882.479978
 20
1840.759954
 30
0.0
  0
LWPOLYLINE
  5
1ad
100
AcDbEntity
  8
R5_DOME_SHEET_1
 62
7
100
AcDbPolyline
 90
2
 70
0
 10
379.079991
 20
1382.059965
 30
0.0
 10
437.699989
 20
1492.279963
 30
0.0
  0
LWPOLYLINE
  5
1ae
100
AcDbEntity
  8
R5_DOME_SHEET_1
 62
7
100
AcDbPolyline
 90
3
 70
0
 10
379.079991
 20
1382.059965
 30
0.0
 10
379.079991
 20
1573.759961
 30
0.0
 10
437.699989
 20
1573.759961
 30
0.0
  0
LWPOLYLINE
  5
1af
100
AcDbEntity
  8
R5_DOME_SHEET_1
 62
7
100
AcDbPolyline
 90
2
 70
0
 10
437.699989
 20
1492.279963
 30
0.0
 10
437.699989
 20
1573.759961
 30
0.0
  0
LWPOLYLINE
  5
1b0
100
AcDbEntity
  8
R5_DOME_SHEET_1
 62
7
100
AcDbPolyline
 90
2
 70
0
 10
437.699989
 20
1382.059965
 30
0.0
 10
496.259988
 20
1492.279963
 30
0.0
  0
LWPOLYLINE
  5
1b1
100
AcDbEntity
  8
R5_DOME_SHEET_1
 62
7
100
AcDbPolyline
 90
3
 70
0
 10
437.699989
 20
1382.059965
 30
0.0
 10
437.699989
 20
1573.759961
 30
0.0
 10
496.259988
 20
1573.759961
 30
0.0
  0
LWPOLYLINE
  5
1b2
100
AcDbEntity
  8
R5_DOME_SHEET_1
 62
7
100
AcDbPolyline
 90
2
 70
0
 10
496.259988
 20
1492.279963
 30
0.0
 10
496.259988
 20
1573.759961
 30
0.0
  0
LWPOLYLINE
  5
1b3
100
AcDbEntity
  8
R5_DOME_SHEET_1
 62
7
100
AcDbPolyline
 90
2
 70
0
 10
496.319988
 20
1382.059965
 30
0.0
 10
554.879986
 20
1492.279963
 30
0.0
  0
LWPOLYLINE
  5
1b4
100
AcDbEntity
  8
R5_DOME_SHEET_1
 62
7
100
AcDbPolyline
 90
3
 70
0
 10
496.319988
 20
1382.059965
 30
0.0
 10
496.319988
 20
1573.759961
 30
0.0
 10
554.879986
 20
1573.759961
 30
0.0
  0
LWPOLYLINE
  5
1b5
100
AcDbEntity
  8
R5_DOME_SHEET_1
 62
7
100
AcDbPolyline
 90
2
 70
0
 10
554.879986
 20
1492.279963
 30
0.0
 10
554.879986
 20
1573.759961
 30
0.0
  0
LWPOLYLINE
  5
1b6
100
AcDbEntity
  8
R5_DOME_SHEET_1
 62
7
100
AcDbPolyline
 90
2
 70
0
 10
554.819986
 20
1382.059965
 30
0.0
 10
613.379985
 20
1492.279963
 30
0.0
  0
LWPOLYLINE
  5
1b7
100
AcDbEntity
  8
R5_DOME_SHEET_1
 62
7
100
AcDbPolyline
 90
3
 70
0
 10
554.819986
 20
1382.059965
 30
0.0
 10
554.819986
 20
1573.759961
 30
0.0
 10
613.379985
 20
1573.759961
 30
0.0
  0
LWPOLYLINE
  5
1b8
100
AcDbEntity
  8
R5_DOME_SHEET_1
 62
7
100
AcDbPolyline
 90
2
 70
0
 10
613.379985
 20
1492.279963
 30
0.0
 10
613.379985
 20
1573.759961
 30
0.0
  0
LWPOLYLINE
  5
1b9
100
AcDbEntity
  8
R5_DOME_SHEET_1
 62
7
100
AcDbPolyline
 90
2
 70
0
 10
613.379985
 20
1382.059965
 30
0.0
 10
671.939983
 20
1492.279963
 30
0.0
  0
LWPOLYLINE
  5
1ba
100
AcDbEntity
  8
R5_DOME_SHEET_1
 62
7
100
AcDbPolyline
 90
3
 70
0
 10
613.379985
 20
1382.059965
 30
0.0
 10
613.379985
 20
1573.759961
 30
0.0
 10
671.939983
 20
1573.759961
 30
0.0
  0
LWPOLYLINE
  5
1bb
100
AcDbEntity
  8
R5_DOME_SHEET_1
 62
7
100
AcDbPolyline
 90
2
 70
0
 10
671.939983
 20
1492.279963
 30
0.0
 10
671.939983
 20
1573.759961
 30
0.0
  0
LWPOLYLINE
  5
1bc
100
AcDbEntity
  8
R5_DOME_SHEET_1
 62
7
100
AcDbPolyline
 90
2
 70
0
 10
671.939983
 20
1382.059965
 30
0.0
 10
730.499982
 20
1492.279963
 30
0.0
  0
LWPOLYLINE
  5
1bd
100
AcDbEntity
  8
R5_DOME_SHEET_1
 62
7
100
AcDbPolyline
 90
3
 70
0
 10
671.939983
 20
1382.059965
 30
0.0
 10
671.939983
 20
1573.759961
 30
0.0
 10
730.499982
 20
1573.759961
 30
0.0
  0
LWPOLYLINE
  5
1be
100
AcDbEntity
  8
R5_DOME_SHEET_1
 62
7
100
AcDbPolyline
 90
2
 70
0
 10
730.499982
 20
1492.279963
 30
0.0
 10
730.499982
 20
1573.759961
 30
0.0
  0
LWPOLYLINE
  5
1bf
100
AcDbEntity
  8
R5_DOME_SHEET_1
 62
7
100
AcDbPolyline
 90
2
 70
0
 10
730.499982
 20
1382.059965
 30
0.0
 10
789.059980
 20
1492.279963
 30
0.0
  0
LWPOLYLINE
  5
1c0
100
AcDbEntity
  8
R5_DOME_SHEET_1
 62
7
100
AcDbPolyline
 90
3
 70
0
 10
730.499982
 20
1382.059965
 30
0.0
 10
730.499982
 20
1573.759961
 30
0.0
 10
789.059980
 20
1573.759961
 30
0.0
  0
LWPOLYLINE
  5
1c1
100
AcDbEntity
  8
R5_DOME_SHEET_1
 62
7
100
AcDbPolyline
 90
2
 70
0
 10
789.059980
 20
1492.279963
 30
0.0
 10
789.059980
 20
1573.759961
 30
0.0
  0
LWPOLYLINE
  5
1c2
100
AcDbEntity
  8
R5_DOME_SHEET_1
 62
7
100
AcDbPolyline
 90
2
 70
0
 10
789.119980
 20
1382.059965
 30
0.0
 10
847.679979
 20
1492.279963
 30
0.0
  0
LWPOLYLINE
  5
1c3
100
AcDbEntity
  8
R5_DOME_SHEET_1
 62
7
100
AcDbPolyline
 90
3
 70
0
 10
789.119980
 20
1382.059965
 30
0.0
 10
789.119980
 20
1573.759961
 30
0.0
 10
847.679979
 20
1573.759961
 30
0.0
  0
LWPOLYLINE
  5
1c4
100
AcDbEntity
  8
R5_DOME_SHEET_1
 62
7
100
AcDbPolyline
 90
2
 70
0
 10
847.679979
 20
1492.279963
 30
0.0
 10
847.679979
 20
1573.759961
 30
0.0
  0
LWPOLYLINE
  5
1c5
100
AcDbEntity
  8
R5_DOME_SHEET_1
 62
7
100
AcDbPolyline
 90
2
 70
0
 10
847.679979
 20
1382.059965
 30
0.0
 10
906.239977
 20
1492.279963
 30
0.0
  0
LWPOLYLINE
  5
1c6
100
AcDbEntity
  8
R5_DOME_SHEET_1
 62
7
100
AcDbPolyline
 90
3
 70
0
 10
847.679979
 20
1382.059965
 30
0.0
 10
847.679979
 20
1573.759961
 30
0.0
 10
906.239977
 20
1573.759961
 30
0.0
  0
LWPOLYLINE
  5
1c7
100
AcDbEntity
  8
R5_DOME_SHEET_1
 62
7
100
AcDbPolyline
 90
2
 70
0
 10
906.239977
 20
1492.279963
 30
0.0
 10
906.239977
 20
1573.759961
 30
0.0
  0
LWPOLYLINE
  5
1c8
100
AcDbEntity
  8
R5_DOME_SHEET_1
 62
7
100
AcDbPolyline
 90
2
 70
0
 10
906.239977
 20
1382.059965
 30
0.0
 10
964.799976
 20
1492.279963
 30
0.0
  0
LWPOLYLINE
  5
1c9
100
AcDbEntity
  8
R5_DOME_SHEET_1
 62
7
100
AcDbPolyline
 90
3
 70
0
 10
906.239977
 20
1382.059965
 30
0.0
 10
906.239977
 20
1573.759961
 30
0.0
 10
964.799976
 20
1573.759961
 30
0.0
  0
LWPOLYLINE
  5
1ca
100
AcDbEntity
  8
R5_DOME_SHEET_1
 62
7
100
AcDbPolyline
 90
2
 70
0
 10
964.799976
 20
1492.279963
 30
0.0
 10
964.799976
 20
1573.759961
 30
0.0
  0
LWPOLYLINE
  5
1cb
100
AcDbEntity
  8
R5_DOME_SHEET_1
 62
7
100
AcDbPolyline
 90
2
 70
0
 10
964.739976
 20
1382.059965
 30
0.0
 10
1023.359974
 20
1492.279963
 30
0.0
  0
LWPOLYLINE
  5
1cc
100
AcDbEntity
  8
R5_DOME_SHEET_1
 62
7
100
AcDbPolyline
 90
3
 70
0
 10
964.739976
 20
1382.059965
 30
0.0
 10
964.739976
 20
1573.759961
 30
0.0
 10
1023.359974
 20
1573.759961
 30
0.0
  0
LWPOLYLINE
  5
1cd
100
AcDbEntity
  8
R5_DOME_SHEET_1
 62
7
100
AcDbPolyline
 90
2
 70
0
 10
1023.359974
 20
1492.279963
 30
0.0
 10
1023.359974
 20
1573.759961
 30
0.0
  0
LWPOLYLINE
  5
1ce
100
AcDbEntity
  8
R5_DOME_SHEET_1
 62
7
100
AcDbPolyline
 90
2
 70
0
 10
1023.359974
 20
1382.059965
 30
0.0
 10
1081.919973
 20
1492.279963
 30
0.0
  0
LWPOLYLINE
  5
1cf
100
AcDbEntity
  8
R5_DOME_SHEET_1
 62
7
100
AcDbPolyline
 90
3
 70
0
 10
1023.359974
 20
1382.059965
 30
0.0
 10
1023.359974
 20
1573.759961
 30
0.0
 10
1081.919973
 20
1573.759961
 30
0.0
  0
LWPOLYLINE
  5
1d0
100
AcDbEntity
  8
R5_DOME_SHEET_1
 62
7
100
AcDbPolyline
 90
2
 70
0
 10
1081.919973
 20
1492.279963
 30
0.0
 10
1081.919973
 20
1573.759961
 30
0.0
  0
LWPOLYLINE
  5
1d1
100
AcDbEntity
  8
R5_DOME_SHEET_1
 62
7
100
AcDbPolyline
 90
2
 70
0
 10
1081.919973
 20
1382.059965
 30
0.0
 10
1140.479971
 20
1492.279963
 30
0.0
  0
LWPOLYLINE
  5
1d2
100
AcDbEntity
  8
R5_DOME_SHEET_1
 62
7
100
AcDbPolyline
 90
3
 70
0
 10
1081.919973
 20
1382.059965
 30
0.0
 10
1081.919973
 20
1573.759961
 30
0.0
 10
1140.479971
 20
1573.759961
 30
0.0
  0
LWPOLYLINE
  5
1d3
100
AcDbEntity
  8
R5_DOME_SHEET_1
 62
7
100
AcDbPolyline
 90
2
 70
0
 10
1140.479971
 20
1492.279963
 30
0.0
 10
1140.479971
 20
1573.759961
 30
0.0
  0
LWPOLYLINE
  5
1d4
100
AcDbEntity
  8
R5_DOME_SHEET_1
 62
7
100
AcDbPolyline
 90
2
 70
0
 10
1140.479971
 20
1382.059965
 30
0.0
 10
1199.039970
 20
1492.279963
 30
0.0
  0
LWPOLYLINE
  5
1d5
100
AcDbEntity
  8
R5_DOME_SHEET_1
 62
7
100
AcDbPolyline
 90
3
 70
0
 10
1140.479971
 20
1382.059965
 30
0.0
 10
1140.479971
 20
1573.759961
 30
0.0
 10
1199.039970
 20
1573.759961
 30
0.0
  0
LWPOLYLINE
  5
1d6
100
AcDbEntity
  8
R5_DOME_SHEET_1
 62
7
100
AcDbPolyline
 90
2
 70
0
 10
1199.039970
 20
1492.279963
 30
0.0
 10
1199.039970
 20
1573.759961
 30
0.0
  0
LWPOLYLINE
  5
1d7
100
AcDbEntity
  8
R5_DOME_SHEET_1
 62
7
100
AcDbPolyline
 90
2
 70
0
 10
1198.979970
 20
1382.059965
 30
0.0
 10
1257.539969
 20
1492.279963
 30
0.0
  0
LWPOLYLINE
  5
1d8
100
AcDbEntity
  8
R5_DOME_SHEET_1
 62
7
100
AcDbPolyline
 90
3
 70
0
 10
1198.979970
 20
1382.059965
 30
0.0
 10
1198.979970
 20
1573.759961
 30
0.0
 10
1257.539969
 20
1573.759961
 30
0.0
  0
LWPOLYLINE
  5
1d9
100
AcDbEntity
  8
R5_DOME_SHEET_1
 62
7
100
AcDbPolyline
 90
2
 70
0
 10
1257.539969
 20
1492.279963
 30
0.0
 10
1257.539969
 20
1573.759961
 30
0.0
  0
LWPOLYLINE
  5
1da
100
AcDbEntity
  8
R5_DOME_SHEET_1
 62
7
100
AcDbPolyline
 90
2
 70
0
 10
1257.539969
 20
1382.059965
 30
0.0
 10
1316.159967
 20
1492.279963
 30
0.0
  0
LWPOLYLINE
  5
1db
100
AcDbEntity
  8
R5_DOME_SHEET_1
 62
7
100
AcDbPolyline
 90
3
 70
0
 10
1257.539969
 20
1382.059965
 30
0.0
 10
1257.539969
 20
1573.759961
 30
0.0
 10
1316.159967
 20
1573.759961
 30
0.0
  0
LWPOLYLINE
  5
1dc
100
AcDbEntity
  8
R5_DOME_SHEET_1
 62
7
100
AcDbPolyline
 90
2
 70
0
 10
1316.159967
 20
1492.279963
 30
0.0
 10
1316.159967
 20
1573.759961
 30
0.0
  0
LWPOLYLINE
  5
1dd
100
AcDbEntity
  8
R5_DOME_SHEET_1
 62
7
100
AcDbPolyline
 90
2
 70
0
 10
169.319996
 20
878.479978
 30
0.0
 10
84.239998
 20
878.479978
 30
0.0
  0
LWPOLYLINE
  5
1de
100
AcDbEntity
  8
R5_DOME_SHEET_1
 62
7
100
AcDbPolyline
 90
2
 70
0
 10
169.319996
 20
759.919981
 30
0.0
 10
169.319996
 20
878.479978
 30
0.0
  0
LWPOLYLINE
  5
1df
100
AcDbEntity
  8
R5_DOME_SHEET_1
 62
7
100
AcDbPolyline
 90
2
 70
0
 10
84.239998
 20
759.919981
 30
0.0
 10
169.319996
 20
759.919981
 30
0.0
  0
LWPOLYLINE
  5
1e0
100
AcDbEntity
  8
R5_DOME_SHEET_1
 62
7
100
AcDbPolyline
 90
2
 70
0
 10
84.239998
 20
878.479978
 30
0.0
 10
84.239998
 20
759.919981
 30
0.0
  0
LWPOLYLINE
  5
1e1
100
AcDbEntity
  8
R5_DOME_SHEET_1
 62
7
100
AcDbPolyline
 90
2
 70
0
 10
254.519994
 20
878.479978
 30
0.0
 10
169.439996
 20
878.479978
 30
0.0
  0
LWPOLYLINE
  5
1e2
100
AcDbEntity
  8
R5_DOME_SHEET_1
 62
7
100
AcDbPolyline
 90
2
 70
0
 10
254.519994
 20
759.919981
 30
0.0
 10
254.519994
 20
878.479978
 30
0.0
  0
LWPOLYLINE
  5
1e3
100
AcDbEntity
  8
R5_DOME_SHEET_1
 62
7
100
AcDbPolyline
 90
2
 70
0
 10
169.439996
 20
759.919981
 30
0.0
 10
254.519994
 20
759.919981
 30
0.0
  0
LWPOLYLINE
  5
1e4
100
AcDbEntity
  8
R5_DOME_SHEET_1
 62
7
100
AcDbPolyline
 90
2
 70
0
 10
169.439996
 20
878.479978
 30
0.0
 10
169.439996
 20
759.919981
 30
0.0
  0
LWPOLYLINE
  5
1e5
100
AcDbEntity
  8
R5_DOME_SHEET_1
 62
7
100
AcDbPolyline
 90
2
 70
0
 10
339.359992
 20
878.479978
 30
0.0
 10
254.279994
 20
878.479978
 30
0.0
  0
LWPOLYLINE
  5
1e6
100
AcDbEntity
  8
R5_DOME_SHEET_1
 62
7
100
AcDbPolyline
 90
2
 70
0
 10
339.359992
 20
759.919981
 30
0.0
 10
339.359992
 20
878.479978
 30
0.0
  0
LWPOLYLINE
  5
1e7
100
AcDbEntity
  8
R5_DOME_SHEET_1
 62
7
100
AcDbPolyline
 90
2
 70
0
 10
254.279994
 20
759.919981
 30
0.0
 10
339.359992
 20
759.919981
 30
0.0
  0
LWPOLYLINE
  5
1e8
100
AcDbEntity
  8
R5_DOME_SHEET_1
 62
7
100
AcDbPolyline
 90
2
 70
0
 10
254.279994
 20
878.479978
 30
0.0
 10
254.279994
 20
759.919981
 30
0.0
  0
LWPOLYLINE
  5
1e9
100
AcDbEntity
  8
R5_DOME_SHEET_1
 62
7
100
AcDbPolyline
 90
2
 70
0
 10
424.379989
 20
878.479978
 30
0.0
 10
339.299992
 20
878.479978
 30
0.0
  0
LWPOLYLINE
  5
1ea
100
AcDbEntity
  8
R5_DOME_SHEET_1
 62
7
100
AcDbPolyline
 90
2
 70
0
 10
424.379989
 20
759.919981
 30
0.0
 10
424.379989
 20
878.479978
 30
0.0
  0
LWPOLYLINE
  5
1eb
100
AcDbEntity
  8
R5_DOME_SHEET_1
 62
7
100
AcDbPolyline
 90
2
 70
0
 10
339.299992
 20
759.919981
 30
0.0
 10
424.379989
 20
759.919981
 30
0.0
  0
LWPOLYLINE
  5
1ec
100
AcDbEntity
  8
R5_DOME_SHEET_1
 62
7
100
AcDbPolyline
 90
2
 70
0
 10
339.299992
 20
878.479978
 30
0.0
 10
339.299992
 20
759.919981
 30
0.0
  0
LWPOLYLINE
  5
1ed
100
AcDbEntity
  8
R5_DOME_SHEET_1
 62
7
100
AcDbPolyline
 90
2
 70
0
 10
509.699987
 20
878.479978
 30
0.0
 10
424.619989
 20
878.479978
 30
0.0
  0
LWPOLYLINE
  5
1ee
100
AcDbEntity
  8
R5_DOME_SHEET_1
 62
7
100
AcDbPolyline
 90
2
 70
0
 10
509.699987
 20
759.919981
 30
0.0
 10
509.699987
 20
878.479978
 30
0.0
  0
LWPOLYLINE
  5
1ef
100
AcDbEntity
  8
R5_DOME_SHEET_1
 62
7
100
AcDbPolyline
 90
2
 70
0
 10
424.619989
 20
759.919981
 30
0.0
 10
509.699987
 20
759.919981
 30
0.0
  0
LWPOLYLINE
  5
1f0
100
AcDbEntity
  8
R5_DOME_SHEET_1
 62
7
100
AcDbPolyline
 90
2
 70
0
 10
424.619989
 20
878.479978
 30
0.0
 10
424.619989
 20
759.919981
 30
0.0
  0
LWPOLYLINE
  5
1f1
100
AcDbEntity
  8
R5_DOME_SHEET_1
 62
7
100
AcDbPolyline
 90
2
 70
0
 10
594.959985
 20
878.479978
 30
0.0
 10
509.939987
 20
878.479978
 30
0.0
  0
LWPOLYLINE
  5
1f2
100
AcDbEntity
  8
R5_DOME_SHEET_1
 62
7
100
AcDbPolyline
 90
2
 70
0
 10
594.959985
 20
759.919981
 30
0.0
 10
594.959985
 20
878.479978
 30
0.0
  0
LWPOLYLINE
  5
1f3
100
AcDbEntity
  8
R5_DOME_SHEET_1
 62
7
100
AcDbPolyline
 90
2
 70
0
 10
509.939987
 20
759.919981
 30
0.0
 10
594.959985
 20
759.919981
 30
0.0
  0
LWPOLYLINE
  5
1f4
100
AcDbEntity
  8
R5_DOME_SHEET_1
 62
7
100
AcDbPolyline
 90
2
 70
0
 10
509.939987
 20
878.479978
 30
0.0
 10
509.939987
 20
759.919981
 30
0.0
  0
LWPOLYLINE
  5
1f5
100
AcDbEntity
  8
R5_DOME_SHEET_1
 62
7
100
AcDbPolyline
 90
2
 70
0
 10
680.039983
 20
878.479978
 30
0.0
 10
594.959985
 20
878.479978
 30
0.0
  0
LWPOLYLINE
  5
1f6
100
AcDbEntity
  8
R5_DOME_SHEET_1
 62
7
100
AcDbPolyline
 90
2
 70
0
 10
680.039983
 20
759.919981
 30
0.0
 10
680.039983
 20
878.479978
 30
0.0
  0
LWPOLYLINE
  5
1f7
100
AcDbEntity
  8
R5_DOME_SHEET_1
 62
7
100
AcDbPolyline
 90
2
 70
0
 10
594.959985
 20
759.919981
 30
0.0
 10
680.039983
 20
759.919981
 30
0.0
  0
LWPOLYLINE
  5
1f8
100
AcDbEntity
  8
R5_DOME_SHEET_1
 62
7
100
AcDbPolyline
 90
2
 70
0
 10
594.959985
 20
878.479978
 30
0.0
 10
594.959985
 20
759.919981
 30
0.0
  0
LWPOLYLINE
  5
1f9
100
AcDbEntity
  8
R5_DOME_SHEET_1
 62
7
100
AcDbPolyline
 90
2
 70
0
 10
764.879981
 20
878.479978
 30
0.0
 10
679.799983
 20
878.479978
 30
0.0
  0
LWPOLYLINE
  5
1fa
100
AcDbEntity
  8
R5_DOME_SHEET_1
 62
7
100
AcDbPolyline
 90
2
 70
0
 10
764.879981
 20
759.919981
 30
0.0
 10
764.879981
 20
878.479978
 30
0.0
  0
LWPOLYLINE
  5
1fb
100
AcDbEntity
  8
R5_DOME_SHEET_1
 62
7
100
AcDbPolyline
 90
2
 70
0
 10
679.799983
 20
759.919981
 30
0.0
 10
764.879981
 20
759.919981
 30
0.0
  0
LWPOLYLINE
  5
1fc
100
AcDbEntity
  8
R5_DOME_SHEET_1
 62
7
100
AcDbPolyline
 90
2
 70
0
 10
679.799983
 20
878.479978
 30
0.0
 10
679.799983
 20
759.919981
 30
0.0
  0
LWPOLYLINE
  5
1fd
100
AcDbEntity
  8
R5_DOME_SHEET_1
 62
7
100
AcDbPolyline
 90
2
 70
0
 10
850.079979
 20
878.479978
 30
0.0
 10
765.059981
 20
878.479978
 30
0.0
  0
LWPOLYLINE
  5
1fe
100
AcDbEntity
  8
R5_DOME_SHEET_1
 62
7
100
AcDbPolyline
 90
2
 70
0
 10
850.079979
 20
759.919981
 30
0.0
 10
850.079979
 20
878.479978
 30
0.0
  0
LWPOLYLINE
  5
1ff
100
AcDbEntity
  8
R5_DOME_SHEET_1
 62
7
100
AcDbPolyline
 90
2
 70
0
 10
765.059981
 20
759.919981
 30
0.0
 10
850.079979
 20
759.919981
 30
0.0
  0
LWPOLYLINE
  5
200
100
AcDbEntity
  8
R5_DOME_SHEET_1
 62
7
100
AcDbPolyline
 90
2
 70
0
 10
765.059981
 20
878.479978
 30
0.0
 10
765.059981
 20
759.919981
 30
0.0
  0
LWPOLYLINE
  5
201
100
AcDbEntity
  8
R5_DOME_SHEET_1
 62
7
100
AcDbPolyline
 90
2
 70
0
 10
935.099977
 20
878.479978
 30
0.0
 10
850.079979
 20
878.479978
 30
0.0
  0
LWPOLYLINE
  5
202
100
AcDbEntity
  8
R5_DOME_SHEET_1
 62
7
100
AcDbPolyline
 90
2
 70
0
 10
935.099977
 20
759.919981
 30
0.0
 10
935.099977
 20
878.479978
 30
0.0
  0
LWPOLYLINE
  5
203
100
AcDbEntity
  8
R5_DOME_SHEET_1
 62
7
100
AcDbPolyline
 90
2
 70
0
 10
850.079979
 20
759.919981
 30
0.0
 10
935.099977
 20
759.919981
 30
0.0
  0
LWPOLYLINE
  5
204
100
AcDbEntity
  8
R5_DOME_SHEET_1
 62
7
100
AcDbPolyline
 90
2
 70
0
 10
850.079979
 20
878.479978
 30
0.0
 10
850.079979
 20
759.919981
 30
0.0
  0
LWPOLYLINE
  5
205
100
AcDbEntity
  8
R5_DOME_SHEET_1
 62
7
100
AcDbPolyline
 90
2
 70
0
 10
1020.179974
 20
878.479978
 30
0.0
 10
935.099977
 20
878.479978
 30
0.0
  0
LWPOLYLINE
  5
206
100
AcDbEntity
  8
R5_DOME_SHEET_1
 62
7
100
AcDbPolyline
 90
2
 70
0
 10
1020.179974
 20
759.919981
 30
0.0
 10
1020.179974
 20
878.479978
 30
0.0
  0
LWPOLYLINE
  5
207
100
AcDbEntity
  8
R5_DOME_SHEET_1
 62
7
100
AcDbPolyline
 90
2
 70
0
 10
935.099977
 20
759.919981
 30
0.0
 10
1020.179974
 20
759.919981
 30
0.0
  0
LWPOLYLINE
  5
208
100
AcDbEntity
  8
R5_DOME_SHEET_1
 62
7
100
AcDbPolyline
 90
2
 70
0
 10
935.099977
 20
878.479978
 30
0.0
 10
935.099977
 20
759.919981
 30
0.0
  0
LWPOLYLINE
  5
209
100
AcDbEntity
  8
R5_DOME_SHEET_1
 62
7
100
AcDbPolyline
 90
2
 70
0
 10
1105.559972
 20
878.479978
 30
0.0
 10
1020.479974
 20
878.479978
 30
0.0
  0
LWPOLYLINE
  5
20a
100
AcDbEntity
  8
R5_DOME_SHEET_1
 62
7
100
AcDbPolyline
 90
2
 70
0
 10
1105.559972
 20
759.919981
 30
0.0
 10
1105.559972
 20
878.479978
 30
0.0
  0
LWPOLYLINE
  5
20b
100
AcDbEntity
  8
R5_DOME_SHEET_1
 62
7
100
AcDbPolyline
 90
2
 70
0
 10
1020.479974
 20
759.919981
 30
0.0
 10
1105.559972
 20
759.919981
 30
0.0
  0
LWPOLYLINE
  5
20c
100
AcDbEntity
  8
R5_DOME_SHEET_1
 62
7
100
AcDbPolyline
 90
2
 70
0
 10
1020.479974
 20
878.479978
 30
0.0
 10
1020.479974
 20
759.919981
 30
0.0
  0
LWPOLYLINE
  5
20d
100
AcDbEntity
  8
R5_DOME_SHEET_1
 62
7
100
AcDbPolyline
 90
2
 70
0
 10
1190.699970
 20
878.479978
 30
0.0
 10
1105.679972
 20
878.479978
 30
0.0
  0
LWPOLYLINE
  5
20e
100
AcDbEntity
  8
R5_DOME_SHEET_1
 62
7
100
AcDbPolyline
 90
2
 70
0
 10
1190.699970
 20
759.919981
 30
0.0
 10
1190.699970
 20
878.479978
 30
0.0
  0
LWPOLYLINE
  5
20f
100
AcDbEntity
  8
R5_DOME_SHEET_1
 62
7
100
AcDbPolyline
 90
2
 70
0
 10
1105.679972
 20
759.919981
 30
0.0
 10
1190.699970
 20
759.919981
 30
0.0
  0
LWPOLYLINE
  5
210
100
AcDbEntity
  8
R5_DOME_SHEET_1
 62
7
100
AcDbPolyline
 90
2
 70
0
 10
1105.679972
 20
878.479978
 30
0.0
 10
1105.679972
 20
759.919981
 30
0.0
  0
LWPOLYLINE
  5
211
100
AcDbEntity
  8
R5_DOME_SHEET_1
 62
7
100
AcDbPolyline
 90
2
 70
0
 10
1275.959968
 20
878.479978
 30
0.0
 10
1190.879970
 20
878.479978
 30
0.0
  0
LWPOLYLINE
  5
212
100
AcDbEntity
  8
R5_DOME_SHEET_1
 62
7
100
AcDbPolyline
 90
2
 70
0
 10
1275.959968
 20
759.919981
 30
0.0
 10
1275.959968
 20
878.479978
 30
0.0
  0
LWPOLYLINE
  5
213
100
AcDbEntity
  8
R5_DOME_SHEET_1
 62
7
100
AcDbPolyline
 90
2
 70
0
 10
1190.879970
 20
759.919981
 30
0.0
 10
1275.959968
 20
759.919981
 30
0.0
  0
LWPOLYLINE
  5
214
100
AcDbEntity
  8
R5_DOME_SHEET_1
 62
7
100
AcDbPolyline
 90
2
 70
0
 10
1190.879970
 20
878.479978
 30
0.0
 10
1190.879970
 20
759.919981
 30
0.0
  0
LWPOLYLINE
  5
215
100
AcDbEntity
  8
R5_DOME_SHEET_1
 62
7
100
AcDbPolyline
 90
2
 70
0
 10
1361.039966
 20
878.479978
 30
0.0
 10
1276.019968
 20
878.479978
 30
0.0
  0
LWPOLYLINE
  5
216
100
AcDbEntity
  8
R5_DOME_SHEET_1
 62
7
100
AcDbPolyline
 90
2
 70
0
 10
1361.039966
 20
759.919981
 30
0.0
 10
1361.039966
 20
878.479978
 30
0.0
  0
LWPOLYLINE
  5
217
100
AcDbEntity
  8
R5_DOME_SHEET_1
 62
7
100
AcDbPolyline
 90
2
 70
0
 10
1276.019968
 20
759.919981
 30
0.0
 10
1361.039966
 20
759.919981
 30
0.0
  0
LWPOLYLINE
  5
218
100
AcDbEntity
  8
R5_DOME_SHEET_1
 62
7
100
AcDbPolyline
 90
2
 70
0
 10
1276.019968
 20
878.479978
 30
0.0
 10
1276.019968
 20
759.919981
 30
0.0
  0
LWPOLYLINE
  5
219
100
AcDbEntity
  8
R5_DOME_SHEET_1
 62
7
100
AcDbPolyline
 90
2
 70
0
 10
1445.939964
 20
878.479978
 30
0.0
 10
1360.859966
 20
878.479978
 30
0.0
  0
LWPOLYLINE
  5
21a
100
AcDbEntity
  8
R5_DOME_SHEET_1
 62
7
100
AcDbPolyline
 90
2
 70
0
 10
1445.939964
 20
759.919981
 30
0.0
 10
1445.939964
 20
878.479978
 30
0.0
  0
LWPOLYLINE
  5
21b
100
AcDbEntity
  8
R5_DOME_SHEET_1
 62
7
100
AcDbPolyline
 90
2
 70
0
 10
1360.859966
 20
759.919981
 30
0.0
 10
1445.939964
 20
759.919981
 30
0.0
  0
LWPOLYLINE
  5
21c
100
AcDbEntity
  8
R5_DOME_SHEET_1
 62
7
100
AcDbPolyline
 90
2
 70
0
 10
1360.859966
 20
878.479978
 30
0.0
 10
1360.859966
 20
759.919981
 30
0.0
  0
LWPOLYLINE
  5
21d
100
AcDbEntity
  8
R5_DOME_SHEET_1
 62
7
100
AcDbPolyline
 90
2
 70
0
 10
236.579994
 20
182.779995
 30
0.0
 10
147.119996
 20
182.779995
 30
0.0
  0
LWPOLYLINE
  5
21e
100
AcDbEntity
  8
R5_DOME_SHEET_1
 62
7
100
AcDbPolyline
 90
2
 70
0
 10
147.119996
 20
641.539984
 30
0.0
 10
147.119996
 20
182.779995
 30
0.0
  0
LWPOLYLINE
  5
21f
100
AcDbEntity
  8
R5_DOME_SHEET_1
 62
7
100
AcDbPolyline
 90
2
 70
0
 10
236.579994
 20
182.779995
 30
0.0
 10
147.119996
 20
641.539984
 30
0.0
  0
LWPOLYLINE
  5
220
100
AcDbEntity
  8
R5_DOME_SHEET_1
 62
7
100
AcDbPolyline
 90
2
 70
0
 10
777.719981
 20
182.779995
 30
0.0
 10
688.199983
 20
182.779995
 30
0.0
  0
LWPOLYLINE
  5
221
100
AcDbEntity
  8
R5_DOME_SHEET_1
 62
7
100
AcDbPolyline
 90
2
 70
0
 10
688.199983
 20
641.539984
 30
0.0
 10
688.199983
 20
182.779995
 30
0.0
  0
LWPOLYLINE
  5
222
100
AcDbEntity
  8
R5_DOME_SHEET_1
 62
7
100
AcDbPolyline
 90
2
 70
0
 10
777.719981
 20
182.779995
 30
0.0
 10
688.199983
 20
641.539984
 30
0.0
  0
LWPOLYLINE
  5
223
100
AcDbEntity
  8
R5_DOME_SHEET_1
 62
7
100
AcDbPolyline
 90
2
 70
0
 10
1120.919972
 20
182.779995
 30
0.0
 10
1031.459974
 20
182.779995
 30
0.0
  0
LWPOLYLINE
  5
224
100
AcDbEntity
  8
R5_DOME_SHEET_1
 62
7
100
AcDbPolyline
 90
2
 70
0
 10
1031.459974
 20
641.539984
 30
0.0
 10
1031.459974
 20
182.779995
 30
0.0
  0
LWPOLYLINE
  5
225
100
AcDbEntity
  8
R5_DOME_SHEET_1
 62
7
100
AcDbPolyline
 90
2
 70
0
 10
1120.919972
 20
182.779995
 30
0.0
 10
1031.459974
 20
641.539984
 30
0.0
  0
LWPOLYLINE
  5
226
100
AcDbEntity
  8
R5_DOME_SHEET_1
 62
7
100
AcDbPolyline
 90
2
 70
0
 10
1472.279963
 20
182.779995
 30
0.0
 10
1382.759965
 20
182.779995
 30
0.0
  0
LWPOLYLINE
  5
227
100
AcDbEntity
  8
R5_DOME_SHEET_1
 62
7
100
AcDbPolyline
 90
2
 70
0
 10
1382.759965
 20
641.539984
 30
0.0
 10
1382.759965
 20
182.779995
 30
0.0
  0
LWPOLYLINE
  5
228
100
AcDbEntity
  8
R5_DOME_SHEET_1
 62
7
100
AcDbPolyline
 90
2
 70
0
 10
1472.279963
 20
182.779995
 30
0.0
 10
1382.759965
 20
641.539984
 30
0.0
  0
LWPOLYLINE
  5
229
100
AcDbEntity
  8
R5_DOME_SHEET_1
 62
7
100
AcDbPolyline
 90
2
 70
0
 10
422.339989
 20
182.779995
 30
0.0
 10
332.879992
 20
182.779995
 30
0.0
  0
LWPOLYLINE
  5
22a
100
AcDbEntity
  8
R5_DOME_SHEET_1
 62
7
100
AcDbPolyline
 90
2
 70
0
 10
332.879992
 20
641.539984
 30
0.0
 10
332.879992
 20
182.779995
 30
0.0
  0
LWPOLYLINE
  5
22b
100
AcDbEntity
  8
R5_DOME_SHEET_1
 62
7
100
AcDbPolyline
 90
2
 70
0
 10
422.339989
 20
182.779995
 30
0.0
 10
332.879992
 20
641.539984
 30
0.0
  0
LWPOLYLINE
  5
22c
100
AcDbEntity
  8
R5_DOME_SHEET_1
 62
7
100
AcDbPolyline
 90
2
 70
0
 10
599.999985
 20
182.779995
 30
0.0
 10
510.539987
 20
182.779995
 30
0.0
  0
LWPOLYLINE
  5
22d
100
AcDbEntity
  8
R5_DOME_SHEET_1
 62
7
100
AcDbPolyline
 90
2
 70
0
 10
510.539987
 20
641.539984
 30
0.0
 10
510.539987
 20
182.779995
 30
0.0
  0
LWPOLYLINE
  5
22e
100
AcDbEntity
  8
R5_DOME_SHEET_1
 62
7
100
AcDbPolyline
 90
2
 70
0
 10
599.999985
 20
182.779995
 30
0.0
 10
510.539987
 20
641.539984
 30
0.0
  0
LWPOLYLINE
  5
22f
100
AcDbEntity
  8
R5_DOME_SHEET_1
 62
7
100
AcDbPolyline
 90
2
 70
0
 10
947.279976
 20
182.779995
 30
0.0
 10
857.819979
 20
182.779995
 30
0.0
  0
LWPOLYLINE
  5
230
100
AcDbEntity
  8
R5_DOME_SHEET_1
 62
7
100
AcDbPolyline
 90
2
 70
0
 10
857.819979
 20
641.539984
 30
0.0
 10
857.819979
 20
182.779995
 30
0.0
  0
LWPOLYLINE
  5
231
100
AcDbEntity
  8
R5_DOME_SHEET_1
 62
7
100
AcDbPolyline
 90
2
 70
0
 10
947.279976
 20
182.779995
 30
0.0
 10
857.819979
 20
641.539984
 30
0.0
  0
LWPOLYLINE
  5
232
100
AcDbEntity
  8
R5_DOME_SHEET_1
 62
7
100
AcDbPolyline
 90
2
 70
0
 10
1302.659967
 20
182.779995
 30
0.0
 10
1213.139970
 20
182.779995
 30
0.0
  0
LWPOLYLINE
  5
233
100
AcDbEntity
  8
R5_DOME_SHEET_1
 62
7
100
AcDbPolyline
 90
2
 70
0
 10
1213.139970
 20
641.539984
 30
0.0
 10
1213.139970
 20
182.779995
 30
0.0
  0
LWPOLYLINE
  5
234
100
AcDbEntity
  8
R5_DOME_SHEET_1
 62
7
100
AcDbPolyline
 90
2
 70
0
 10
1302.659967
 20
182.779995
 30
0.0
 10
1213.139970
 20
641.539984
 30
0.0
  0
LWPOLYLINE
  5
235
100
AcDbEntity
  8
R5_DOME_SHEET_1
 62
7
100
AcDbPolyline
 90
2
 70
0
 10
1031.339974
 20
2100.139947
 30
0.0
 10
1040.759974
 20
2122.999947
 30
0.0
  0
LWPOLYLINE
  5
236
100
AcDbEntity
  8
R5_DOME_SHEET_1
 62
7
100
AcDbPolyline
 90
2
 70
0
 10
1042.139974
 20
2126.299947
 30
0.0
 10
1043.519974
 20
2129.599947
 30
0.0
  0
LWPOLYLINE
  5
237
100
AcDbEntity
  8
R5_DOME_SHEET_1
 62
7
100
AcDbPolyline
 90
2
 70
0
 10
1044.899974
 20
2132.958947
 30
0.0
 10
1061.399973
 20
2172.858946
 30
0.0
  0
LWPOLYLINE
  5
238
100
AcDbEntity
  8
R5_DOME_SHEET_1
 62
7
100
AcDbPolyline
 90
2
 70
0
 10
1062.779973
 20
2176.218946
 30
0.0
 10
1064.159973
 20
2179.519946
 30
0.0
  0
LWPOLYLINE
  5
239
100
AcDbEntity
  8
R5_DOME_SHEET_1
 62
7
100
AcDbPolyline
 90
2
 70
0
 10
1065.539973
 20
2182.819945
 30
0.0
 10
1074.959973
 20
2205.678945
 30
0.0
  0
LWPOLYLINE
  5
23a
100
AcDbEntity
  8
R5_DOME_SHEET_1
 62
7
100
AcDbPolyline
 90
2
 70
0
 10
826.079979
 20
2142.619946
 30
0.0
 10
826.079979
 20
2167.339946
 30
0.0
  0
LWPOLYLINE
  5
23b
100
AcDbEntity
  8
R5_DOME_SHEET_1
 62
7
100
AcDbPolyline
 90
2
 70
0
 10
826.079979
 20
2170.938946
 30
0.0
 10
826.079979
 20
2174.539946
 30
0.0
  0
LWPOLYLINE
  5
23c
100
AcDbEntity
  8
R5_DOME_SHEET_1
 62
7
100
AcDbPolyline
 90
2
 70
0
 10
826.079979
 20
2178.139946
 30
0.0
 10
826.079979
 20
2221.338944
 30
0.0
  0
LWPOLYLINE
  5
23d
100
AcDbEntity
  8
R5_DOME_SHEET_1
 62
7
100
AcDbPolyline
 90
2
 70
0
 10
826.079979
 20
2224.938944
 30
0.0
 10
826.079979
 20
2228.539944
 30
0.0
  0
LWPOLYLINE
  5
23e
100
AcDbEntity
  8
R5_DOME_SHEET_1
 62
7
100
AcDbPolyline
 90
2
 70
0
 10
826.079979
 20
2232.139944
 30
0.0
 10
826.079979
 20
2256.858944
 30
0.0
  0
LWPOLYLINE
  5
23f
100
AcDbEntity
  8
R5_DOME_SHEET_1
 62
7
100
AcDbPolyline
 90
2
 70
0
 10
817.559980
 20
2142.619946
 30
0.0
 10
817.559980
 20
2167.339946
 30
0.0
  0
LWPOLYLINE
  5
240
100
AcDbEntity
  8
R5_DOME_SHEET_1
 62
7
100
AcDbPolyline
 90
2
 70
0
 10
817.559980
 20
2170.938946
 30
0.0
 10
817.559980
 20
2174.539946
 30
0.0
  0
LWPOLYLINE
  5
241
100
AcDbEntity
  8
R5_DOME_SHEET_1
 62
7
100
AcDbPolyline
 90
2
 70
0
 10
817.559980
 20
2178.139946
 30
0.0
 10
817.559980
 20
2221.338944
 30
0.0
  0
LWPOLYLINE
  5
242
100
AcDbEntity
  8
R5_DOME_SHEET_1
 62
7
100
AcDbPolyline
 90
2
 70
0
 10
817.559980
 20
2224.938944
 30
0.0
 10
817.559980
 20
2228.539944
 30
0.0
  0
LWPOLYLINE
  5
243
100
AcDbEntity
  8
R5_DOME_SHEET_1
 62
7
100
AcDbPolyline
 90
2
 70
0
 10
817.559980
 20
2232.139944
 30
0.0
 10
817.559980
 20
2256.858944
 30
0.0
  0
LWPOLYLINE
  5
244
100
AcDbEntity
  8
R5_DOME_SHEET_1
 62
7
100
AcDbPolyline
 90
2
 70
0
 10
1023.479974
 20
2103.378947
 30
0.0
 10
1032.899974
 20
2126.239947
 30
0.0
  0
LWPOLYLINE
  5
245
100
AcDbEntity
  8
R5_DOME_SHEET_1
 62
7
100
AcDbPolyline
 90
2
 70
0
 10
1034.279974
 20
2129.539947
 30
0.0
 10
1035.659974
 20
2132.839947
 30
0.0
  0
LWPOLYLINE
  5
246
100
AcDbEntity
  8
R5_DOME_SHEET_1
 62
7
100
AcDbPolyline
 90
2
 70
0
 10
1037.039974
 20
2136.198947
 30
0.0
 10
1053.539974
 20
2176.099946
 30
0.0
  0
LWPOLYLINE
  5
247
100
AcDbEntity
  8
R5_DOME_SHEET_1
 62
7
100
AcDbPolyline
 90
2
 70
0
 10
1054.919974
 20
2179.458946
 30
0.0
 10
1056.299974
 20
2182.759945
 30
0.0
  0
LWPOLYLINE
  5
248
100
AcDbEntity
  8
R5_DOME_SHEET_1
 62
7
100
AcDbPolyline
 90
2
 70
0
 10
1057.679974
 20
2186.059945
 30
0.0
 10
1067.099973
 20
2208.918945
 30
0.0
  0
LWPOLYLINE
  5
249
100
AcDbEntity
  8
R5_DOME_SHEET_1
 62
7
100
AcDbPolyline
 90
2
 70
0
 10
1204.679970
 20
1982.299950
 30
0.0
 10
1222.139969
 20
1999.819950
 30
0.0
  0
LWPOLYLINE
  5
24a
100
AcDbEntity
  8
R5_DOME_SHEET_1
 62
7
100
AcDbPolyline
 90
2
 70
0
 10
1224.659969
 20
2002.338950
 30
0.0
 10
1227.239969
 20
2004.918950
 30
0.0
  0
LWPOLYLINE
  5
24b
100
AcDbEntity
  8
R5_DOME_SHEET_1
 62
7
100
AcDbPolyline
 90
2
 70
0
 10
1229.759969
 20
2007.438950
 30
0.0
 10
1260.299968
 20
2037.978949
 30
0.0
  0
LWPOLYLINE
  5
24c
100
AcDbEntity
  8
R5_DOME_SHEET_1
 62
7
100
AcDbPolyline
 90
2
 70
0
 10
1262.819968
 20
2040.499949
 30
0.0
 10
1265.399968
 20
2043.079949
 30
0.0
  0
LWPOLYLINE
  5
24d
100
AcDbEntity
  8
R5_DOME_SHEET_1
 62
7
100
AcDbPolyline
 90
2
 70
0
 10
1267.919968
 20
2045.598949
 30
0.0
 10
1285.439968
 20
2063.059948
 30
0.0
  0
LWPOLYLINE
  5
24e
100
AcDbEntity
  8
R5_DOME_SHEET_1
 62
7
100
AcDbPolyline
 90
2
 70
0
 10
1198.679970
 20
1988.299950
 30
0.0
 10
1216.139970
 20
2005.819950
 30
0.0
  0
LWPOLYLINE
  5
24f
100
AcDbEntity
  8
R5_DOME_SHEET_1
 62
7
100
AcDbPolyline
 90
2
 70
0
 10
1218.659970
 20
2008.338950
 30
0.0
 10
1221.239969
 20
2010.918950
 30
0.0
  0
LWPOLYLINE
  5
250
100
AcDbEntity
  8
R5_DOME_SHEET_1
 62
7
100
AcDbPolyline
 90
2
 70
0
 10
1223.759969
 20
2013.438950
 30
0.0
 10
1254.299969
 20
2043.978949
 30
0.0
  0
LWPOLYLINE
  5
251
100
AcDbEntity
  8
R5_DOME_SHEET_1
 62
7
100
AcDbPolyline
 90
2
 70
0
 10
1256.819969
 20
2046.499949
 30
0.0
 10
1259.399969
 20
2049.079949
 30
0.0
  0
LWPOLYLINE
  5
252
100
AcDbEntity
  8
R5_DOME_SHEET_1
 62
7
100
AcDbPolyline
 90
2
 70
0
 10
1261.919968
 20
2051.599949
 30
0.0
 10
1279.439968
 20
2069.059948
 30
0.0
  0
LWPOLYLINE
  5
253
100
AcDbEntity
  8
R5_DOME_SHEET_1
 62
7
100
AcDbPolyline
 90
2
 70
0
 10
1319.759967
 20
1807.099955
 30
0.0
 10
1342.559966
 20
1816.579955
 30
0.0
  0
LWPOLYLINE
  5
254
100
AcDbEntity
  8
R5_DOME_SHEET_1
 62
7
100
AcDbPolyline
 90
2
 70
0
 10
1345.859966
 20
1817.958955
 30
0.0
 10
1349.159966
 20
1819.339955
 30
0.0
  0
LWPOLYLINE
  5
255
100
AcDbEntity
  8
R5_DOME_SHEET_1
 62
7
100
AcDbPolyline
 90
2
 70
0
 10
1352.519966
 20
1820.718954
 30
0.0
 10
1392.419965
 20
1837.218954
 30
0.0
  0
LWPOLYLINE
  5
256
100
AcDbEntity
  8
R5_DOME_SHEET_1
 62
7
100
AcDbPolyline
 90
2
 70
0
 10
1395.779965
 20
1838.599954
 30
0.0
 10
1399.079965
 20
1839.978954
 30
0.0
  0
LWPOLYLINE
  5
257
100
AcDbEntity
  8
R5_DOME_SHEET_1
 62
7
100
AcDbPolyline
 90
2
 70
0
 10
1402.379965
 20
1841.359954
 30
0.0
 10
1425.239964
 20
1850.779954
 30
0.0
  0
LWPOLYLINE
  5
258
100
AcDbEntity
  8
R5_DOME_SHEET_1
 62
7
100
AcDbPolyline
 90
2
 70
0
 10
1316.519967
 20
1814.958955
 30
0.0
 10
1339.319967
 20
1824.439954
 30
0.0
  0
LWPOLYLINE
  5
259
100
AcDbEntity
  8
R5_DOME_SHEET_1
 62
7
100
AcDbPolyline
 90
2
 70
0
 10
1342.619966
 20
1825.819954
 30
0.0
 10
1345.919966
 20
1827.199954
 30
0.0
  0
LWPOLYLINE
  5
25a
100
AcDbEntity
  8
R5_DOME_SHEET_1
 62
7
100
AcDbPolyline
 90
2
 70
0
 10
1349.279966
 20
1828.579954
 30
0.0
 10
1389.179965
 20
1845.079954
 30
0.0
  0
LWPOLYLINE
  5
25b
100
AcDbEntity
  8
R5_DOME_SHEET_1
 62
7
100
AcDbPolyline
 90
2
 70
0
 10
1392.539965
 20
1846.458954
 30
0.0
 10
1395.839965
 20
1847.839954
 30
0.0
  0
LWPOLYLINE
  5
25c
100
AcDbEntity
  8
R5_DOME_SHEET_1
 62
7
100
AcDbPolyline
 90
2
 70
0
 10
1399.139965
 20
1849.218954
 30
0.0
 10
1421.999964
 20
1858.639954
 30
0.0
  0
LWPOLYLINE
  5
25d
100
AcDbEntity
  8
R5_DOME_SHEET_1
 62
7
100
AcDbPolyline
 90
2
 70
0
 10
1359.059966
 20
1601.179960
 30
0.0
 10
1383.719965
 20
1601.179960
 30
0.0
  0
LWPOLYLINE
  5
25e
100
AcDbEntity
  8
R5_DOME_SHEET_1
 62
7
100
AcDbPolyline
 90
2
 70
0
 10
1387.319965
 20
1601.179960
 30
0.0
 10
1390.919965
 20
1601.179960
 30
0.0
  0
LWPOLYLINE
  5
25f
100
AcDbEntity
  8
R5_DOME_SHEET_1
 62
7
100
AcDbPolyline
 90
2
 70
0
 10
1394.519965
 20
1601.179960
 30
0.0
 10
1437.719964
 20
1601.179960
 30
0.0
  0
LWPOLYLINE
  5
260
100
AcDbEntity
  8
R5_DOME_SHEET_1
 62
7
100
AcDbPolyline
 90
2
 70
0
 10
1441.319964
 20
1601.179960
 30
0.0
 10
1444.919964
 20
1601.179960
 30
0.0
  0
LWPOLYLINE
  5
261
100
AcDbEntity
  8
R5_DOME_SHEET_1
 62
7
100
AcDbPolyline
 90
2
 70
0
 10
1448.519964
 20
1601.179960
 30
0.0
 10
1473.239963
 20
1601.179960
 30
0.0
  0
LWPOLYLINE
  5
262
100
AcDbEntity
  8
R5_DOME_SHEET_1
 62
7
100
AcDbPolyline
 90
2
 70
0
 10
1359.059966
 20
1609.699960
 30
0.0
 10
1383.719965
 20
1609.699960
 30
0.0
  0
LWPOLYLINE
  5
263
100
AcDbEntity
  8
R5_DOME_SHEET_1
 62
7
100
AcDbPolyline
 90
2
 70
0
 10
1387.319965
 20
1609.699960
 30
0.0
 10
1390.919965
 20
1609.699960
 30
0.0
  0
LWPOLYLINE
  5
264
100
AcDbEntity
  8
R5_DOME_SHEET_1
 62
7
100
AcDbPolyline
 90
2
 70
0
 10
1394.519965
 20
1609.699960
 30
0.0
 10
1437.719964
 20
1609.699960
 30
0.0
  0
LWPOLYLINE
  5
265
100
AcDbEntity
  8
R5_DOME_SHEET_1
 62
7
100
AcDbPolyline
 90
2
 70
0
 10
1441.319964
 20
1609.699960
 30
0.0
 10
1444.919964
 20
1609.699960
 30
0.0
  0
LWPOLYLINE
  5
266
100
AcDbEntity
  8
R5_DOME_SHEET_1
 62
7
100
AcDbPolyline
 90
2
 70
0
 10
1448.519964
 20
1609.699960
 30
0.0
 10
1473.239963
 20
1609.699960
 30
0.0
  0
LWPOLYLINE
  5
267
100
AcDbEntity
  8
R5_DOME_SHEET_1
 62
7
100
AcDbPolyline
 90
2
 70
0
 10
1316.519967
 20
1395.919965
 30
0.0
 10
1339.319967
 20
1386.499965
 30
0.0
  0
LWPOLYLINE
  5
268
100
AcDbEntity
  8
R5_DOME_SHEET_1
 62
7
100
AcDbPolyline
 90
2
 70
0
 10
1342.619966
 20
1385.119965
 30
0.0
 10
1345.919966
 20
1383.739965
 30
0.0
  0
LWPOLYLINE
  5
269
100
AcDbEntity
  8
R5_DOME_SHEET_1
 62
7
100
AcDbPolyline
 90
2
 70
0
 10
1349.279966
 20
1382.359965
 30
0.0
 10
1389.179965
 20
1365.859966
 30
0.0
  0
LWPOLYLINE
  5
26a
100
AcDbEntity
  8
R5_DOME_SHEET_1
 62
7
100
AcDbPolyline
 90
2
 70
0
 10
1392.539965
 20
1364.479966
 30
0.0
 10
1395.839965
 20
1363.099966
 30
0.0
  0
LWPOLYLINE
  5
26b
100
AcDbEntity
  8
R5_DOME_SHEET_1
 62
7
100
AcDbPolyline
 90
2
 70
0
 10
1399.139965
 20
1361.719966
 30
0.0
 10
1421.999964
 20
1352.299966
 30
0.0
  0
LWPOLYLINE
  5
26c
100
AcDbEntity
  8
R5_DOME_SHEET_1
 62
7
100
AcDbPolyline
 90
2
 70
0
 10
1319.759967
 20
1403.779965
 30
0.0
 10
1342.559966
 20
1394.359965
 30
0.0
  0
LWPOLYLINE
  5
26d
100
AcDbEntity
  8
R5_DOME_SHEET_1
 62
7
100
AcDbPolyline
 90
2
 70
0
 10
1345.859966
 20
1392.979965
 30
0.0
 10
1349.159966
 20
1391.599965
 30
0.0
  0
LWPOLYLINE
  5
26e
100
AcDbEntity
  8
R5_DOME_SHEET_1
 62
7
100
AcDbPolyline
 90
2
 70
0
 10
1352.519966
 20
1390.219965
 30
0.0
 10
1392.419965
 20
1373.719966
 30
0.0
  0
LWPOLYLINE
  5
26f
100
AcDbEntity
  8
R5_DOME_SHEET_1
 62
7
100
AcDbPolyline
 90
2
 70
0
 10
1395.779965
 20
1372.339966
 30
0.0
 10
1399.079965
 20
1370.959966
 30
0.0
  0
LWPOLYLINE
  5
270
100
AcDbEntity
  8
R5_DOME_SHEET_1
 62
7
100
AcDbPolyline
 90
2
 70
0
 10
1402.379965
 20
1369.579966
 30
0.0
 10
1425.239964
 20
1360.159966
 30
0.0
  0
LWPOLYLINE
  5
271
100
AcDbEntity
  8
R5_DOME_SHEET_1
 62
7
100
AcDbPolyline
 90
2
 70
0
 10
1198.679970
 20
1222.579969
 30
0.0
 10
1216.139970
 20
1205.119970
 30
0.0
  0
LWPOLYLINE
  5
272
100
AcDbEntity
  8
R5_DOME_SHEET_1
 62
7
100
AcDbPolyline
 90
2
 70
0
 10
1218.659970
 20
1202.599970
 30
0.0
 10
1221.239969
 20
1200.019970
 30
0.0
  0
LWPOLYLINE
  5
273
100
AcDbEntity
  8
R5_DOME_SHEET_1
 62
7
100
AcDbPolyline
 90
2
 70
0
 10
1223.759969
 20
1197.499970
 30
0.0
 10
1254.299969
 20
1166.959971
 30
0.0
  0
LWPOLYLINE
  5
274
100
AcDbEntity
  8
R5_DOME_SHEET_1
 62
7
100
AcDbPolyline
 90
2
 70
0
 10
1256.819969
 20
1164.439971
 30
0.0
 10
1259.399969
 20
1161.859971
 30
0.0
  0
LWPOLYLINE
  5
275
100
AcDbEntity
  8
R5_DOME_SHEET_1
 62
7
100
AcDbPolyline
 90
2
 70
0
 10
1261.919968
 20
1159.339971
 30
0.0
 10
1279.439968
 20
1141.819971
 30
0.0
  0
LWPOLYLINE
  5
276
100
AcDbEntity
  8
R5_DOME_SHEET_1
 62
7
100
AcDbPolyline
 90
2
 70
0
 10
1204.679970
 20
1228.579969
 30
0.0
 10
1222.139969
 20
1211.119970
 30
0.0
  0
LWPOLYLINE
  5
277
100
AcDbEntity
  8
R5_DOME_SHEET_1
 62
7
100
AcDbPolyline
 90
2
 70
0
 10
1224.659969
 20
1208.599970
 30
0.0
 10
1227.239969
 20
1206.019970
 30
0.0
  0
LWPOLYLINE
  5
278
100
AcDbEntity
  8
R5_DOME_SHEET_1
 62
7
100
AcDbPolyline
 90
2
 70
0
 10
1229.759969
 20
1203.499970
 30
0.0
 10
1260.299968
 20
1172.959971
 30
0.0
  0
LWPOLYLINE
  5
279
100
AcDbEntity
  8
R5_DOME_SHEET_1
 62
7
100
AcDbPolyline
 90
2
 70
0
 10
1262.819968
 20
1170.439971
 30
0.0
 10
1265.399968
 20
1167.859971
 30
0.0
  0
LWPOLYLINE
  5
27a
100
AcDbEntity
  8
R5_DOME_SHEET_1
 62
7
100
AcDbPolyline
 90
2
 70
0
 10
1267.919968
 20
1165.339971
 30
0.0
 10
1285.439968
 20
1147.819971
 30
0.0
  0
LWPOLYLINE
  5
27b
100
AcDbEntity
  8
R5_DOME_SHEET_1
 62
7
100
AcDbPolyline
 90
2
 70
0
 10
1023.479974
 20
1107.499972
 30
0.0
 10
1032.899974
 20
1084.699973
 30
0.0
  0
LWPOLYLINE
  5
27c
100
AcDbEntity
  8
R5_DOME_SHEET_1
 62
7
100
AcDbPolyline
 90
2
 70
0
 10
1034.279974
 20
1081.399973
 30
0.0
 10
1035.659974
 20
1078.039973
 30
0.0
  0
LWPOLYLINE
  5
27d
100
AcDbEntity
  8
R5_DOME_SHEET_1
 62
7
100
AcDbPolyline
 90
2
 70
0
 10
1037.039974
 20
1074.739973
 30
0.0
 10
1053.539974
 20
1034.779974
 30
0.0
  0
LWPOLYLINE
  5
27e
100
AcDbEntity
  8
R5_DOME_SHEET_1
 62
7
100
AcDbPolyline
 90
2
 70
0
 10
1054.919974
 20
1031.479974
 30
0.0
 10
1056.299974
 20
1028.119974
 30
0.0
  0
LWPOLYLINE
  5
27f
100
AcDbEntity
  8
R5_DOME_SHEET_1
 62
7
100
AcDbPolyline
 90
2
 70
0
 10
1057.679974
 20
1024.819974
 30
0.0
 10
1067.099973
 20
1001.959975
 30
0.0
  0
LWPOLYLINE
  5
280
100
AcDbEntity
  8
R5_DOME_SHEET_1
 62
7
100
AcDbPolyline
 90
2
 70
0
 10
1031.339974
 20
1110.739972
 30
0.0
 10
1040.759974
 20
1087.939973
 30
0.0
  0
LWPOLYLINE
  5
281
100
AcDbEntity
  8
R5_DOME_SHEET_1
 62
7
100
AcDbPolyline
 90
2
 70
0
 10
1042.139974
 20
1084.639973
 30
0.0
 10
1043.519974
 20
1081.279973
 30
0.0
  0
LWPOLYLINE
  5
282
100
AcDbEntity
  8
R5_DOME_SHEET_1
 62
7
100
AcDbPolyline
 90
2
 70
0
 10
1044.899974
 20
1077.979973
 30
0.0
 10
1061.399973
 20
1038.019974
 30
0.0
  0
LWPOLYLINE
  5
283
100
AcDbEntity
  8
R5_DOME_SHEET_1
 62
7
100
AcDbPolyline
 90
2
 70
0
 10
1062.779973
 20
1034.719974
 30
0.0
 10
1064.159973
 20
1031.359974
 30
0.0
  0
LWPOLYLINE
  5
284
100
AcDbEntity
  8
R5_DOME_SHEET_1
 62
7
100
AcDbPolyline
 90
2
 70
0
 10
1065.539973
 20
1028.059974
 30
0.0
 10
1074.959973
 20
1005.199975
 30
0.0
  0
LWPOLYLINE
  5
285
100
AcDbEntity
  8
R5_DOME_SHEET_1
 62
7
100
AcDbPolyline
 90
2
 70
0
 10
817.559980
 20
1068.199973
 30
0.0
 10
817.559980
 20
1043.539974
 30
0.0
  0
LWPOLYLINE
  5
286
100
AcDbEntity
  8
R5_DOME_SHEET_1
 62
7
100
AcDbPolyline
 90
2
 70
0
 10
817.559980
 20
1039.939974
 30
0.0
 10
817.559980
 20
1036.339974
 30
0.0
  0
LWPOLYLINE
  5
287
100
AcDbEntity
  8
R5_DOME_SHEET_1
 62
7
100
AcDbPolyline
 90
2
 70
0
 10
817.559980
 20
1032.739974
 30
0.0
 10
817.559980
 20
989.539975
 30
0.0
  0
LWPOLYLINE
  5
288
100
AcDbEntity
  8
R5_DOME_SHEET_1
 62
7
100
AcDbPolyline
 90
2
 70
0
 10
817.559980
 20
985.939975
 30
0.0
 10
817.559980
 20
982.339975
 30
0.0
  0
LWPOLYLINE
  5
289
100
AcDbEntity
  8
R5_DOME_SHEET_1
 62
7
100
AcDbPolyline
 90
2
 70
0
 10
817.559980
 20
978.739976
 30
0.0
 10
817.559980
 20
954.019976
 30
0.0
  0
LWPOLYLINE
  5
28a
100
AcDbEntity
  8
R5_DOME_SHEET_1
 62
7
100
AcDbPolyline
 90
2
 70
0
 10
826.079979
 20
1068.199973
 30
0.0
 10
826.079979
 20
1043.539974
 30
0.0
  0
LWPOLYLINE
  5
28b
100
AcDbEntity
  8
R5_DOME_SHEET_1
 62
7
100
AcDbPolyline
 90
2
 70
0
 10
826.079979
 20
1039.939974
 30
0.0
 10
826.079979
 20
1036.339974
 30
0.0
  0
LWPOLYLINE
  5
28c
100
AcDbEntity
  8
R5_DOME_SHEET_1
 62
7
100
AcDbPolyline
 90
2
 70
0
 10
826.079979
 20
1032.739974
 30
0.0
 10
826.079979
 20
989.539975
 30
0.0
  0
LWPOLYLINE
  5
28d
100
AcDbEntity
  8
R5_DOME_SHEET_1
 62
7
100
AcDbPolyline
 90
2
 70
0
 10
826.079979
 20
985.939975
 30
0.0
 10
826.079979
 20
982.339975
 30
0.0
  0
LWPOLYLINE
  5
28e
100
AcDbEntity
  8
R5_DOME_SHEET_1
 62
7
100
AcDbPolyline
 90
2
 70
0
 10
826.079979
 20
978.739976
 30
0.0
 10
826.079979
 20
954.019976
 30
0.0
  0
LWPOLYLINE
  5
28f
100
AcDbEntity
  8
R5_DOME_SHEET_1
 62
7
100
AcDbPolyline
 90
2
 70
0
 10
612.299985
 20
1110.739972
 30
0.0
 10
602.819985
 20
1087.939973
 30
0.0
  0
LWPOLYLINE
  5
290
100
AcDbEntity
  8
R5_DOME_SHEET_1
 62
7
100
AcDbPolyline
 90
2
 70
0
 10
601.439985
 20
1084.639973
 30
0.0
 10
600.059985
 20
1081.279973
 30
0.0
  0
LWPOLYLINE
  5
291
100
AcDbEntity
  8
R5_DOME_SHEET_1
 62
7
100
AcDbPolyline
 90
2
 70
0
 10
598.679985
 20
1077.979973
 30
0.0
 10
582.179985
 20
1038.019974
 30
0.0
  0
LWPOLYLINE
  5
292
100
AcDbEntity
  8
R5_DOME_SHEET_1
 62
7
100
AcDbPolyline
 90
2
 70
0
 10
580.799985
 20
1034.719974
 30
0.0
 10
579.419986
 20
1031.359974
 30
0.0
  0
LWPOLYLINE
  5
293
100
AcDbEntity
  8
R5_DOME_SHEET_1
 62
7
100
AcDbPolyline
 90
2
 70
0
 10
578.039986
 20
1028.059974
 30
0.0
 10
568.559986
 20
1005.199975
 30
0.0
  0
LWPOLYLINE
  5
294
100
AcDbEntity
  8
R5_DOME_SHEET_1
 62
7
100
AcDbPolyline
 90
2
 70
0
 10
620.159984
 20
1107.499972
 30
0.0
 10
610.679985
 20
1084.699973
 30
0.0
  0
LWPOLYLINE
  5
295
100
AcDbEntity
  8
R5_DOME_SHEET_1
 62
7
100
AcDbPolyline
 90
2
 70
0
 10
609.299985
 20
1081.399973
 30
0.0
 10
607.919985
 20
1078.039973
 30
0.0
  0
LWPOLYLINE
  5
296
100
AcDbEntity
  8
R5_DOME_SHEET_1
 62
7
100
AcDbPolyline
 90
2
 70
0
 10
606.539985
 20
1074.739973
 30
0.0
 10
590.039985
 20
1034.779974
 30
0.0
  0
LWPOLYLINE
  5
297
100
AcDbEntity
  8
R5_DOME_SHEET_1
 62
7
100
AcDbPolyline
 90
2
 70
0
 10
588.659985
 20
1031.479974
 30
0.0
 10
587.279985
 20
1028.119974
 30
0.0
  0
LWPOLYLINE
  5
298
100
AcDbEntity
  8
R5_DOME_SHEET_1
 62
7
100
AcDbPolyline
 90
2
 70
0
 10
585.899985
 20
1024.819974
 30
0.0
 10
576.419986
 20
1001.959975
 30
0.0
  0
LWPOLYLINE
  5
299
100
AcDbEntity
  8
R5_DOME_SHEET_1
 62
7
100
AcDbPolyline
 90
2
 70
0
 10
438.959989
 20
1228.579969
 30
0.0
 10
421.439989
 20
1211.119970
 30
0.0
  0
LWPOLYLINE
  5
29a
100
AcDbEntity
  8
R5_DOME_SHEET_1
 62
7
100
AcDbPolyline
 90
2
 70
0
 10
418.919990
 20
1208.599970
 30
0.0
 10
416.339990
 20
1206.019970
 30
0.0
  0
LWPOLYLINE
  5
29b
100
AcDbEntity
  8
R5_DOME_SHEET_1
 62
7
100
AcDbPolyline
 90
2
 70
0
 10
413.819990
 20
1203.499970
 30
0.0
 10
383.279990
 20
1172.959971
 30
0.0
  0
LWPOLYLINE
  5
29c
100
AcDbEntity
  8
R5_DOME_SHEET_1
 62
7
100
AcDbPolyline
 90
2
 70
0
 10
380.759990
 20
1170.439971
 30
0.0
 10
378.179991
 20
1167.859971
 30
0.0
  0
LWPOLYLINE
  5
29d
100
AcDbEntity
  8
R5_DOME_SHEET_1
 62
7
100
AcDbPolyline
 90
2
 70
0
 10
375.659991
 20
1165.339971
 30
0.0
 10
358.199991
 20
1147.819971
 30
0.0
  0
LWPOLYLINE
  5
29e
100
AcDbEntity
  8
R5_DOME_SHEET_1
 62
7
100
AcDbPolyline
 90
2
 70
0
 10
444.959989
 20
1222.579969
 30
0.0
 10
427.439989
 20
1205.119970
 30
0.0
  0
LWPOLYLINE
  5
29f
100
AcDbEntity
  8
R5_DOME_SHEET_1
 62
7
100
AcDbPolyline
 90
2
 70
0
 10
424.919989
 20
1202.599970
 30
0.0
 10
422.339989
 20
1200.019970
 30
0.0
  0
LWPOLYLINE
  5
2a0
100
AcDbEntity
  8
R5_DOME_SHEET_1
 62
7
100
AcDbPolyline
 90
2
 70
0
 10
419.819990
 20
1197.499970
 30
0.0
 10
389.279990
 20
1166.959971
 30
0.0
  0
LWPOLYLINE
  5
2a1
100
AcDbEntity
  8
R5_DOME_SHEET_1
 62
7
100
AcDbPolyline
 90
2
 70
0
 10
386.759990
 20
1164.439971
 30
0.0
 10
384.179990
 20
1161.859971
 30
0.0
  0
LWPOLYLINE
  5
2a2
100
AcDbEntity
  8
R5_DOME_SHEET_1
 62
7
100
AcDbPolyline
 90
2
 70
0
 10
381.659990
 20
1159.339971
 30
0.0
 10
364.199991
 20
1141.819971
 30
0.0
  0
LWPOLYLINE
  5
2a3
100
AcDbEntity
  8
R5_DOME_SHEET_1
 62
7
100
AcDbPolyline
 90
2
 70
0
 10
323.879992
 20
1403.779965
 30
0.0
 10
301.019992
 20
1394.359965
 30
0.0
  0
LWPOLYLINE
  5
2a4
100
AcDbEntity
  8
R5_DOME_SHEET_1
 62
7
100
AcDbPolyline
 90
2
 70
0
 10
297.719993
 20
1392.979965
 30
0.0
 10
294.359993
 20
1391.599965
 30
0.0
  0
LWPOLYLINE
  5
2a5
100
AcDbEntity
  8
R5_DOME_SHEET_1
 62
7
100
AcDbPolyline
 90
2
 70
0
 10
291.059993
 20
1390.219965
 30
0.0
 10
251.099994
 20
1373.719966
 30
0.0
  0
LWPOLYLINE
  5
2a6
100
AcDbEntity
  8
R5_DOME_SHEET_1
 62
7
100
AcDbPolyline
 90
2
 70
0
 10
247.799994
 20
1372.339966
 30
0.0
 10
244.439994
 20
1370.959966
 30
0.0
  0
LWPOLYLINE
  5
2a7
100
AcDbEntity
  8
R5_DOME_SHEET_1
 62
7
100
AcDbPolyline
 90
2
 70
0
 10
241.139994
 20
1369.579966
 30
0.0
 10
218.339995
 20
1360.159966
 30
0.0
  0
LWPOLYLINE
  5
2a8
100
AcDbEntity
  8
R5_DOME_SHEET_1
 62
7
100
AcDbPolyline
 90
2
 70
0
 10
327.119992
 20
1395.919965
 30
0.0
 10
304.259992
 20
1386.499965
 30
0.0
  0
LWPOLYLINE
  5
2a9
100
AcDbEntity
  8
R5_DOME_SHEET_1
 62
7
100
AcDbPolyline
 90
2
 70
0
 10
300.959992
 20
1385.119965
 30
0.0
 10
297.659993
 20
1383.739965
 30
0.0
  0
LWPOLYLINE
  5
2aa
100
AcDbEntity
  8
R5_DOME_SHEET_1
 62
7
100
AcDbPolyline
 90
2
 70
0
 10
294.299993
 20
1382.359965
 30
0.0
 10
254.399994
 20
1365.859966
 30
0.0
  0
LWPOLYLINE
  5
2ab
100
AcDbEntity
  8
R5_DOME_SHEET_1
 62
7
100
AcDbPolyline
 90
2
 70
0
 10
251.039994
 20
1364.479966
 30
0.0
 10
247.739994
 20
1363.099966
 30
0.0
  0
LWPOLYLINE
  5
2ac
100
AcDbEntity
  8
R5_DOME_SHEET_1
 62
7
100
AcDbPolyline
 90
2
 70
0
 10
244.439994
 20
1361.719966
 30
0.0
 10
221.579994
 20
1352.299966
 30
0.0
  0
LWPOLYLINE
  5
2ad
100
AcDbEntity
  8
R5_DOME_SHEET_1
 62
7
100
AcDbPolyline
 90
2
 70
0
 10
284.579993
 20
1609.699960
 30
0.0
 10
259.859994
 20
1609.699960
 30
0.0
  0
LWPOLYLINE
  5
2ae
100
AcDbEntity
  8
R5_DOME_SHEET_1
 62
7
100
AcDbPolyline
 90
2
 70
0
 10
256.259994
 20
1609.699960
 30
0.0
 10
252.659994
 20
1609.699960
 30
0.0
  0
LWPOLYLINE
  5
2af
100
AcDbEntity
  8
R5_DOME_SHEET_1
 62
7
100
AcDbPolyline
 90
2
 70
0
 10
249.059994
 20
1609.699960
 30
0.0
 10
205.859995
 20
1609.699960
 30
0.0
  0
LWPOLYLINE
  5
2b0
100
AcDbEntity
  8
R5_DOME_SHEET_1
 62
7
100
AcDbPolyline
 90
2
 70
0
 10
202.259995
 20
1609.699960
 30
0.0
 10
198.659995
 20
1609.699960
 30
0.0
  0
LWPOLYLINE
  5
2b1
100
AcDbEntity
  8
R5_DOME_SHEET_1
 62
7
100
AcDbPolyline
 90
2
 70
0
 10
195.059995
 20
1609.699960
 30
0.0
 10
170.399996
 20
1609.699960
 30
0.0
  0
LWPOLYLINE
  5
2b2
100
AcDbEntity
  8
R5_DOME_SHEET_1
 62
7
100
AcDbPolyline
 90
2
 70
0
 10
284.579993
 20
1601.179960
 30
0.0
 10
259.859994
 20
1601.179960
 30
0.0
  0
LWPOLYLINE
  5
2b3
100
AcDbEntity
  8
R5_DOME_SHEET_1
 62
7
100
AcDbPolyline
 90
2
 70
0
 10
256.259994
 20
1601.179960
 30
0.0
 10
252.659994
 20
1601.179960
 30
0.0
  0
LWPOLYLINE
  5
2b4
100
AcDbEntity
  8
R5_DOME_SHEET_1
 62
7
100
AcDbPolyline
 90
2
 70
0
 10
249.059994
 20
1601.179960
 30
0.0
 10
205.859995
 20
1601.179960
 30
0.0
  0
LWPOLYLINE
  5
2b5
100
AcDbEntity
  8
R5_DOME_SHEET_1
 62
7
100
AcDbPolyline
 90
2
 70
0
 10
202.259995
 20
1601.179960
 30
0.0
 10
198.659995
 20
1601.179960
 30
0.0
  0
LWPOLYLINE
  5
2b6
100
AcDbEntity
  8
R5_DOME_SHEET_1
 62
7
100
AcDbPolyline
 90
2
 70
0
 10
195.059995
 20
1601.179960
 30
0.0
 10
170.399996
 20
1601.179960
 30
0.0
  0
LWPOLYLINE
  5
2b7
100
AcDbEntity
  8
R5_DOME_SHEET_1
 62
7
100
AcDbPolyline
 90
2
 70
0
 10
327.119992
 20
1814.958955
 30
0.0
 10
304.259992
 20
1824.439954
 30
0.0
  0
LWPOLYLINE
  5
2b8
100
AcDbEntity
  8
R5_DOME_SHEET_1
 62
7
100
AcDbPolyline
 90
2
 70
0
 10
300.959992
 20
1825.819954
 30
0.0
 10
297.659993
 20
1827.199954
 30
0.0
  0
LWPOLYLINE
  5
2b9
100
AcDbEntity
  8
R5_DOME_SHEET_1
 62
7
100
AcDbPolyline
 90
2
 70
0
 10
294.299993
 20
1828.579954
 30
0.0
 10
254.399994
 20
1845.079954
 30
0.0
  0
LWPOLYLINE
  5
2ba
100
AcDbEntity
  8
R5_DOME_SHEET_1
 62
7
100
AcDbPolyline
 90
2
 70
0
 10
251.039994
 20
1846.458954
 30
0.0
 10
247.739994
 20
1847.839954
 30
0.0
  0
LWPOLYLINE
  5
2bb
100
AcDbEntity
  8
R5_DOME_SHEET_1
 62
7
100
AcDbPolyline
 90
2
 70
0
 10
244.439994
 20
1849.218954
 30
0.0
 10
221.579994
 20
1858.639954
 30
0.0
  0
LWPOLYLINE
  5
2bc
100
AcDbEntity
  8
R5_DOME_SHEET_1
 62
7
100
AcDbPolyline
 90
2
 70
0
 10
323.879992
 20
1807.099955
 30
0.0
 10
301.019992
 20
1816.579955
 30
0.0
  0
LWPOLYLINE
  5
2bd
100
AcDbEntity
  8
R5_DOME_SHEET_1
 62
7
100
AcDbPolyline
 90
2
 70
0
 10
297.719993
 20
1817.958955
 30
0.0
 10
294.359993
 20
1819.339955
 30
0.0
  0
LWPOLYLINE
  5
2be
100
AcDbEntity
  8
R5_DOME_SHEET_1
 62
7
100
AcDbPolyline
 90
2
 70
0
 10
291.059993
 20
1820.718954
 30
0.0
 10
251.099994
 20
1837.218954
 30
0.0
  0
LWPOLYLINE
  5
2bf
100
AcDbEntity
  8
R5_DOME_SHEET_1
 62
7
100
AcDbPolyline
 90
2
 70
0
 10
247.799994
 20
1838.599954
 30
0.0
 10
244.439994
 20
1839.978954
 30
0.0
  0
LWPOLYLINE
  5
2c0
100
AcDbEntity
  8
R5_DOME_SHEET_1
 62
7
100
AcDbPolyline
 90
2
 70
0
 10
241.139994
 20
1841.359954
 30
0.0
 10
218.339995
 20
1850.839954
 30
0.0
  0
LWPOLYLINE
  5
2c1
100
AcDbEntity
  8
R5_DOME_SHEET_1
 62
7
100
AcDbPolyline
 90
2
 70
0
 10
444.959989
 20
1988.299950
 30
0.0
 10
427.439989
 20
2005.819950
 30
0.0
  0
LWPOLYLINE
  5
2c2
100
AcDbEntity
  8
R5_DOME_SHEET_1
 62
7
100
AcDbPolyline
 90
2
 70
0
 10
424.919989
 20
2008.338950
 30
0.0
 10
422.339989
 20
2010.918950
 30
0.0
  0
LWPOLYLINE
  5
2c3
100
AcDbEntity
  8
R5_DOME_SHEET_1
 62
7
100
AcDbPolyline
 90
2
 70
0
 10
419.819990
 20
2013.438950
 30
0.0
 10
389.279990
 20
2043.978949
 30
0.0
  0
LWPOLYLINE
  5
2c4
100
AcDbEntity
  8
R5_DOME_SHEET_1
 62
7
100
AcDbPolyline
 90
2
 70
0
 10
386.759990
 20
2046.499949
 30
0.0
 10
384.179990
 20
2049.079949
 30
0.0
  0
LWPOLYLINE
  5
2c5
100
AcDbEntity
  8
R5_DOME_SHEET_1
 62
7
100
AcDbPolyline
 90
2
 70
0
 10
381.659990
 20
2051.599949
 30
0.0
 10
364.199991
 20
2069.059948
 30
0.0
  0
LWPOLYLINE
  5
2c6
100
AcDbEntity
  8
R5_DOME_SHEET_1
 62
7
100
AcDbPolyline
 90
2
 70
0
 10
438.959989
 20
1982.299950
 30
0.0
 10
421.439989
 20
1999.819950
 30
0.0
  0
LWPOLYLINE
  5
2c7
100
AcDbEntity
  8
R5_DOME_SHEET_1
 62
7
100
AcDbPolyline
 90
2
 70
0
 10
418.919990
 20
2002.338950
 30
0.0
 10
416.339990
 20
2004.918950
 30
0.0
  0
LWPOLYLINE
  5
2c8
100
AcDbEntity
  8
R5_DOME_SHEET_1
 62
7
100
AcDbPolyline
 90
2
 70
0
 10
413.819990
 20
2007.438950
 30
0.0
 10
383.279990
 20
2037.978949
 30
0.0
  0
LWPOLYLINE
  5
2c9
100
AcDbEntity
  8
R5_DOME_SHEET_1
 62
7
100
AcDbPolyline
 90
2
 70
0
 10
380.759990
 20
2040.499949
 30
0.0
 10
378.179991
 20
2043.079949
 30
0.0
  0
LWPOLYLINE
  5
2ca
100
AcDbEntity
  8
R5_DOME_SHEET_1
 62
7
100
AcDbPolyline
 90
2
 70
0
 10
375.659991
 20
2045.598949
 30
0.0
 10
358.199991
 20
2063.059948
 30
0.0
  0
LWPOLYLINE
  5
2cb
100
AcDbEntity
  8
R5_DOME_SHEET_1
 62
7
100
AcDbPolyline
 90
2
 70
0
 10
620.159984
 20
2103.378947
 30
0.0
 10
610.679985
 20
2126.239947
 30
0.0
  0
LWPOLYLINE
  5
2cc
100
AcDbEntity
  8
R5_DOME_SHEET_1
 62
7
100
AcDbPolyline
 90
2
 70
0
 10
609.299985
 20
2129.539947
 30
0.0
 10
607.919985
 20
2132.839947
 30
0.0
  0
LWPOLYLINE
  5
2cd
100
AcDbEntity
  8
R5_DOME_SHEET_1
 62
7
100
AcDbPolyline
 90
2
 70
0
 10
606.539985
 20
2136.198947
 30
0.0
 10
590.039985
 20
2176.099946
 30
0.0
  0
LWPOLYLINE
  5
2ce
100
AcDbEntity
  8
R5_DOME_SHEET_1
 62
7
100
AcDbPolyline
 90
2
 70
0
 10
588.659985
 20
2179.458946
 30
0.0
 10
587.279985
 20
2182.759945
 30
0.0
  0
LWPOLYLINE
  5
2cf
100
AcDbEntity
  8
R5_DOME_SHEET_1
 62
7
100
AcDbPolyline
 90
2
 70
0
 10
585.899985
 20
2186.059945
 30
0.0
 10
576.479986
 20
2208.918945
 30
0.0
  0
LWPOLYLINE
  5
2d0
100
AcDbEntity
  8
R5_DOME_SHEET_1
 62
7
100
AcDbPolyline
 90
2
 70
0
 10
612.299985
 20
2100.139947
 30
0.0
 10
602.819985
 20
2122.999947
 30
0.0
  0
LWPOLYLINE
  5
2d1
100
AcDbEntity
  8
R5_DOME_SHEET_1
 62
7
100
AcDbPolyline
 90
2
 70
0
 10
601.439985
 20
2126.299947
 30
0.0
 10
600.059985
 20
2129.599947
 30
0.0
  0
LWPOLYLINE
  5
2d2
100
AcDbEntity
  8
R5_DOME_SHEET_1
 62
7
100
AcDbPolyline
 90
2
 70
0
 10
598.679985
 20
2132.958947
 30
0.0
 10
582.179985
 20
2172.858946
 30
0.0
  0
LWPOLYLINE
  5
2d3
100
AcDbEntity
  8
R5_DOME_SHEET_1
 62
7
100
AcDbPolyline
 90
2
 70
0
 10
580.799985
 20
2176.218946
 30
0.0
 10
579.419986
 20
2179.519946
 30
0.0
  0
LWPOLYLINE
  5
2d4
100
AcDbEntity
  8
R5_DOME_SHEET_1
 62
7
100
AcDbPolyline
 90
2
 70
0
 10
578.039986
 20
2182.819945
 30
0.0
 10
568.619986
 20
2205.678945
 30
0.0
  0
LWPOLYLINE
  5
2d5
100
AcDbEntity
  8
R5_DOME_SHEET_1
 62
7
100
AcDbPolyline
 90
2
 70
0
 10
821.819979
 20
1605.439960
 30
0.0
 10
821.819979
 20
1612.519960
 30
0.0
  0
LWPOLYLINE
  5
2d6
100
AcDbEntity
  8
R5_DOME_SHEET_1
 62
7
100
AcDbPolyline
 90
2
 70
0
 10
821.819979
 20
1605.439960
 30
0.0
 10
814.739980
 20
1605.439960
 30
0.0
  0
LWPOLYLINE
  5
2d7
100
AcDbEntity
  8
R5_DOME_SHEET_1
 62
7
100
AcDbPolyline
 90
2
 70
0
 10
821.819979
 20
1605.439960
 30
0.0
 10
821.819979
 20
1598.359960
 30
0.0
  0
LWPOLYLINE
  5
2d8
100
AcDbEntity
  8
R5_DOME_SHEET_1
 62
7
100
AcDbPolyline
 90
2
 70
0
 10
821.819979
 20
1605.439960
 30
0.0
 10
828.899979
 20
1605.439960
 30
0.0
  0
LWPOLYLINE
  5
2d9
100
AcDbEntity
  8
R5_DOME_SHEET_1
 62
7
100
AcDbPolyline
 90
2
 70
0
 10
821.819979
 20
1619.599960
 30
0.0
 10
821.819979
 20
1666.399958
 30
0.0
  0
LWPOLYLINE
  5
2da
100
AcDbEntity
  8
R5_DOME_SHEET_1
 62
7
100
AcDbPolyline
 90
2
 70
0
 10
821.819979
 20
1669.999958
 30
0.0
 10
821.819979
 20
1673.599958
 30
0.0
  0
LWPOLYLINE
  5
2db
100
AcDbEntity
  8
R5_DOME_SHEET_1
 62
7
100
AcDbPolyline
 90
2
 70
0
 10
821.819979
 20
1677.199958
 30
0.0
 10
821.819979
 20
1720.399957
 30
0.0
  0
LWPOLYLINE
  5
2dc
100
AcDbEntity
  8
R5_DOME_SHEET_1
 62
7
100
AcDbPolyline
 90
2
 70
0
 10
821.819979
 20
1723.999957
 30
0.0
 10
821.819979
 20
1727.599957
 30
0.0
  0
LWPOLYLINE
  5
2dd
100
AcDbEntity
  8
R5_DOME_SHEET_1
 62
7
100
AcDbPolyline
 90
2
 70
0
 10
821.819979
 20
1731.198957
 30
0.0
 10
821.819979
 20
1774.399956
 30
0.0
  0
LWPOLYLINE
  5
2de
100
AcDbEntity
  8
R5_DOME_SHEET_1
 62
7
100
AcDbPolyline
 90
2
 70
0
 10
821.819979
 20
1777.999956
 30
0.0
 10
821.819979
 20
1781.599955
 30
0.0
  0
LWPOLYLINE
  5
2df
100
AcDbEntity
  8
R5_DOME_SHEET_1
 62
7
100
AcDbPolyline
 90
2
 70
0
 10
821.819979
 20
1785.199955
 30
0.0
 10
821.819979
 20
1828.399954
 30
0.0
  0
LWPOLYLINE
  5
2e0
100
AcDbEntity
  8
R5_DOME_SHEET_1
 62
7
100
AcDbPolyline
 90
2
 70
0
 10
821.819979
 20
1831.999954
 30
0.0
 10
821.819979
 20
1835.599954
 30
0.0
  0
LWPOLYLINE
  5
2e1
100
AcDbEntity
  8
R5_DOME_SHEET_1
 62
7
100
AcDbPolyline
 90
2
 70
0
 10
821.819979
 20
1839.199954
 30
0.0
 10
821.819979
 20
1882.399953
 30
0.0
  0
LWPOLYLINE
  5
2e2
100
AcDbEntity
  8
R5_DOME_SHEET_1
 62
7
100
AcDbPolyline
 90
2
 70
0
 10
821.819979
 20
1885.999953
 30
0.0
 10
821.819979
 20
1889.599953
 30
0.0
  0
LWPOLYLINE
  5
2e3
100
AcDbEntity
  8
R5_DOME_SHEET_1
 62
7
100
AcDbPolyline
 90
2
 70
0
 10
821.819979
 20
1893.198953
 30
0.0
 10
821.819979
 20
1936.398952
 30
0.0
  0
LWPOLYLINE
  5
2e4
100
AcDbEntity
  8
R5_DOME_SHEET_1
 62
7
100
AcDbPolyline
 90
2
 70
0
 10
821.819979
 20
1939.999951
 30
0.0
 10
821.819979
 20
1943.598951
 30
0.0
  0
LWPOLYLINE
  5
2e5
100
AcDbEntity
  8
R5_DOME_SHEET_1
 62
7
100
AcDbPolyline
 90
2
 70
0
 10
821.819979
 20
1947.198951
 30
0.0
 10
821.819979
 20
1990.398950
 30
0.0
  0
LWPOLYLINE
  5
2e6
100
AcDbEntity
  8
R5_DOME_SHEET_1
 62
7
100
AcDbPolyline
 90
2
 70
0
 10
821.819979
 20
1993.999950
 30
0.0
 10
821.819979
 20
1997.598950
 30
0.0
  0
LWPOLYLINE
  5
2e7
100
AcDbEntity
  8
R5_DOME_SHEET_1
 62
7
100
AcDbPolyline
 90
2
 70
0
 10
821.819979
 20
2001.198950
 30
0.0
 10
821.819979
 20
2044.399949
 30
0.0
  0
LWPOLYLINE
  5
2e8
100
AcDbEntity
  8
R5_DOME_SHEET_1
 62
7
100
AcDbPolyline
 90
2
 70
0
 10
821.819979
 20
2047.999949
 30
0.0
 10
821.819979
 20
2051.599949
 30
0.0
  0
LWPOLYLINE
  5
2e9
100
AcDbEntity
  8
R5_DOME_SHEET_1
 62
7
100
AcDbPolyline
 90
2
 70
0
 10
821.819979
 20
2055.198949
 30
0.0
 10
821.819979
 20
2098.398948
 30
0.0
  0
LWPOLYLINE
  5
2ea
100
AcDbEntity
  8
R5_DOME_SHEET_1
 62
7
100
AcDbPolyline
 90
2
 70
0
 10
821.819979
 20
2101.999947
 30
0.0
 10
821.819979
 20
2105.599947
 30
0.0
  0
LWPOLYLINE
  5
2eb
100
AcDbEntity
  8
R5_DOME_SHEET_1
 62
7
100
AcDbPolyline
 90
2
 70
0
 10
821.819979
 20
2109.198947
 30
0.0
 10
821.819979
 20
2152.398946
 30
0.0
  0
LWPOLYLINE
  5
2ec
100
AcDbEntity
  8
R5_DOME_SHEET_1
 62
7
100
AcDbPolyline
 90
2
 70
0
 10
821.819979
 20
2155.999946
 30
0.0
 10
821.819979
 20
2159.599946
 30
0.0
  0
LWPOLYLINE
  5
2ed
100
AcDbEntity
  8
R5_DOME_SHEET_1
 62
7
100
AcDbPolyline
 90
2
 70
0
 10
821.819979
 20
2163.198946
 30
0.0
 10
821.819979
 20
2206.398945
 30
0.0
  0
LWPOLYLINE
  5
2ee
100
AcDbEntity
  8
R5_DOME_SHEET_1
 62
7
100
AcDbPolyline
 90
2
 70
0
 10
821.819979
 20
2209.999945
 30
0.0
 10
821.819979
 20
2213.599945
 30
0.0
  0
LWPOLYLINE
  5
2ef
100
AcDbEntity
  8
R5_DOME_SHEET_1
 62
7
100
AcDbPolyline
 90
3
 70
0
 10
821.819979
 20
2217.198945
 30
0.0
 10
821.819979
 20
2260.398943
 30
0.0
 10
821.819979
 20
2263.938943
 30
0.0
  0
LWPOLYLINE
  5
2f0
100
AcDbEntity
  8
R5_DOME_SHEET_1
 62
7
100
AcDbPolyline
 90
2
 70
0
 10
807.659980
 20
1605.439960
 30
0.0
 10
760.859981
 20
1605.439960
 30
0.0
  0
LWPOLYLINE
  5
2f1
100
AcDbEntity
  8
R5_DOME_SHEET_1
 62
7
100
AcDbPolyline
 90
2
 70
0
 10
757.259981
 20
1605.439960
 30
0.0
 10
753.659981
 20
1605.439960
 30
0.0
  0
LWPOLYLINE
  5
2f2
100
AcDbEntity
  8
R5_DOME_SHEET_1
 62
7
100
AcDbPolyline
 90
2
 70
0
 10
750.059981
 20
1605.439960
 30
0.0
 10
706.859982
 20
1605.439960
 30
0.0
  0
LWPOLYLINE
  5
2f3
100
AcDbEntity
  8
R5_DOME_SHEET_1
 62
7
100
AcDbPolyline
 90
2
 70
0
 10
703.259982
 20
1605.439960
 30
0.0
 10
699.659983
 20
1605.439960
 30
0.0
  0
LWPOLYLINE
  5
2f4
100
AcDbEntity
  8
R5_DOME_SHEET_1
 62
7
100
AcDbPolyline
 90
2
 70
0
 10
696.059983
 20
1605.439960
 30
0.0
 10
652.859984
 20
1605.439960
 30
0.0
  0
LWPOLYLINE
  5
2f5
100
AcDbEntity
  8
R5_DOME_SHEET_1
 62
7
100
AcDbPolyline
 90
2
 70
0
 10
649.259984
 20
1605.439960
 30
0.0
 10
645.659984
 20
1605.439960
 30
0.0
  0
LWPOLYLINE
  5
2f6
100
AcDbEntity
  8
R5_DOME_SHEET_1
 62
7
100
AcDbPolyline
 90
2
 70
0
 10
642.059984
 20
1605.439960
 30
0.0
 10
598.859985
 20
1605.439960
 30
0.0
  0
LWPOLYLINE
  5
2f7
100
AcDbEntity
  8
R5_DOME_SHEET_1
 62
7
100
AcDbPolyline
 90
2
 70
0
 10
595.259985
 20
1605.439960
 30
0.0
 10
591.659985
 20
1605.439960
 30
0.0
  0
LWPOLYLINE
  5
2f8
100
AcDbEntity
  8
R5_DOME_SHEET_1
 62
7
100
AcDbPolyline
 90
2
 70
0
 10
588.059985
 20
1605.439960
 30
0.0
 10
544.859986
 20
1605.439960
 30
0.0
  0
LWPOLYLINE
  5
2f9
100
AcDbEntity
  8
R5_DOME_SHEET_1
 62
7
100
AcDbPolyline
 90
2
 70
0
 10
541.259986
 20
1605.439960
 30
0.0
 10
537.659987
 20
1605.439960
 30
0.0
  0
LWPOLYLINE
  5
2fa
100
AcDbEntity
  8
R5_DOME_SHEET_1
 62
7
100
AcDbPolyline
 90
2
 70
0
 10
534.059987
 20
1605.439960
 30
0.0
 10
490.859988
 20
1605.439960
 30
0.0
  0
LWPOLYLINE
  5
2fb
100
AcDbEntity
  8
R5_DOME_SHEET_1
 62
7
100
AcDbPolyline
 90
2
 70
0
 10
487.259988
 20
1605.439960
 30
0.0
 10
483.659988
 20
1605.439960
 30
0.0
  0
LWPOLYLINE
  5
2fc
100
AcDbEntity
  8
R5_DOME_SHEET_1
 62
7
100
AcDbPolyline
 90
2
 70
0
 10
480.059988
 20
1605.439960
 30
0.0
 10
436.859989
 20
1605.439960
 30
0.0
  0
LWPOLYLINE
  5
2fd
100
AcDbEntity
  8
R5_DOME_SHEET_1
 62
7
100
AcDbPolyline
 90
2
 70
0
 10
433.259989
 20
1605.439960
 30
0.0
 10
429.659989
 20
1605.439960
 30
0.0
  0
LWPOLYLINE
  5
2fe
100
AcDbEntity
  8
R5_DOME_SHEET_1
 62
7
100
AcDbPolyline
 90
2
 70
0
 10
426.059989
 20
1605.439960
 30
0.0
 10
382.859990
 20
1605.439960
 30
0.0
  0
LWPOLYLINE
  5
2ff
100
AcDbEntity
  8
R5_DOME_SHEET_1
 62
7
100
AcDbPolyline
 90
2
 70
0
 10
379.259991
 20
1605.439960
 30
0.0
 10
375.659991
 20
1605.439960
 30
0.0
  0
LWPOLYLINE
  5
300
100
AcDbEntity
  8
R5_DOME_SHEET_1
 62
7
100
AcDbPolyline
 90
2
 70
0
 10
372.059991
 20
1605.439960
 30
0.0
 10
328.859992
 20
1605.439960
 30
0.0
  0
LWPOLYLINE
  5
301
100
AcDbEntity
  8
R5_DOME_SHEET_1
 62
7
100
AcDbPolyline
 90
2
 70
0
 10
325.259992
 20
1605.439960
 30
0.0
 10
321.659992
 20
1605.439960
 30
0.0
  0
LWPOLYLINE
  5
302
100
AcDbEntity
  8
R5_DOME_SHEET_1
 62
7
100
AcDbPolyline
 90
2
 70
0
 10
318.059992
 20
1605.439960
 30
0.0
 10
274.859993
 20
1605.439960
 30
0.0
  0
LWPOLYLINE
  5
303
100
AcDbEntity
  8
R5_DOME_SHEET_1
 62
7
100
AcDbPolyline
 90
2
 70
0
 10
271.259993
 20
1605.439960
 30
0.0
 10
267.659993
 20
1605.439960
 30
0.0
  0
LWPOLYLINE
  5
304
100
AcDbEntity
  8
R5_DOME_SHEET_1
 62
7
100
AcDbPolyline
 90
2
 70
0
 10
264.059993
 20
1605.439960
 30
0.0
 10
220.859994
 20
1605.439960
 30
0.0
  0
LWPOLYLINE
  5
305
100
AcDbEntity
  8
R5_DOME_SHEET_1
 62
7
100
AcDbPolyline
 90
2
 70
0
 10
217.259995
 20
1605.439960
 30
0.0
 10
213.659995
 20
1605.439960
 30
0.0
  0
LWPOLYLINE
  5
306
100
AcDbEntity
  8
R5_DOME_SHEET_1
 62
7
100
AcDbPolyline
 90
3
 70
0
 10
210.059995
 20
1605.439960
 30
0.0
 10
166.859996
 20
1605.439960
 30
0.0
 10
163.319996
 20
1605.439960
 30
0.0
  0
LWPOLYLINE
  5
307
100
AcDbEntity
  8
R5_DOME_SHEET_1
 62
7
100
AcDbPolyline
 90
2
 70
0
 10
821.819979
 20
1591.279960
 30
0.0
 10
821.819979
 20
1544.539961
 30
0.0
  0
LWPOLYLINE
  5
308
100
AcDbEntity
  8
R5_DOME_SHEET_1
 62
7
100
AcDbPolyline
 90
2
 70
0
 10
821.819979
 20
1540.939961
 30
0.0
 10
821.819979
 20
1537.339962
 30
0.0
  0
LWPOLYLINE
  5
309
100
AcDbEntity
  8
R5_DOME_SHEET_1
 62
7
100
AcDbPolyline
 90
2
 70
0
 10
821.819979
 20
1533.739962
 30
0.0
 10
821.819979
 20
1490.539963
 30
0.0
  0
LWPOLYLINE
  5
30a
100
AcDbEntity
  8
R5_DOME_SHEET_1
 62
7
100
AcDbPolyline
 90
2
 70
0
 10
821.819979
 20
1486.939963
 30
0.0
 10
821.819979
 20
1483.339963
 30
0.0
  0
LWPOLYLINE
  5
30b
100
AcDbEntity
  8
R5_DOME_SHEET_1
 62
7
100
AcDbPolyline
 90
2
 70
0
 10
821.819979
 20
1479.739963
 30
0.0
 10
821.819979
 20
1436.539964
 30
0.0
  0
LWPOLYLINE
  5
30c
100
AcDbEntity
  8
R5_DOME_SHEET_1
 62
7
100
AcDbPolyline
 90
2
 70
0
 10
821.819979
 20
1432.939964
 30
0.0
 10
821.819979
 20
1429.339964
 30
0.0
  0
LWPOLYLINE
  5
30d
100
AcDbEntity
  8
R5_DOME_SHEET_1
 62
7
100
AcDbPolyline
 90
2
 70
0
 10
821.819979
 20
1425.739964
 30
0.0
 10
821.819979
 20
1382.539965
 30
0.0
  0
LWPOLYLINE
  5
30e
100
AcDbEntity
  8
R5_DOME_SHEET_1
 62
7
100
AcDbPolyline
 90
2
 70
0
 10
821.819979
 20
1378.939966
 30
0.0
 10
821.819979
 20
1375.339966
 30
0.0
  0
LWPOLYLINE
  5
30f
100
AcDbEntity
  8
R5_DOME_SHEET_1
 62
7
100
AcDbPolyline
 90
2
 70
0
 10
821.819979
 20
1371.739966
 30
0.0
 10
821.819979
 20
1328.539967
 30
0.0
  0
LWPOLYLINE
  5
310
100
AcDbEntity
  8
R5_DOME_SHEET_1
 62
7
100
AcDbPolyline
 90
2
 70
0
 10
821.819979
 20
1324.939967
 30
0.0
 10
821.819979
 20
1321.339967
 30
0.0
  0
LWPOLYLINE
  5
311
100
AcDbEntity
  8
R5_DOME_SHEET_1
 62
7
100
AcDbPolyline
 90
2
 70
0
 10
821.819979
 20
1317.739967
 30
0.0
 10
821.819979
 20
1274.539968
 30
0.0
  0
LWPOLYLINE
  5
312
100
AcDbEntity
  8
R5_DOME_SHEET_1
 62
7
100
AcDbPolyline
 90
2
 70
0
 10
821.819979
 20
1270.939968
 30
0.0
 10
821.819979
 20
1267.339968
 30
0.0
  0
LWPOLYLINE
  5
313
100
AcDbEntity
  8
R5_DOME_SHEET_1
 62
7
100
AcDbPolyline
 90
2
 70
0
 10
821.819979
 20
1263.739968
 30
0.0
 10
821.819979
 20
1220.539969
 30
0.0
  0
LWPOLYLINE
  5
314
100
AcDbEntity
  8
R5_DOME_SHEET_1
 62
7
100
AcDbPolyline
 90
2
 70
0
 10
821.819979
 20
1216.939970
 30
0.0
 10
821.819979
 20
1213.339970
 30
0.0
  0
LWPOLYLINE
  5
315
100
AcDbEntity
  8
R5_DOME_SHEET_1
 62
7
100
AcDbPolyline
 90
2
 70
0
 10
821.819979
 20
1209.739970
 30
0.0
 10
821.819979
 20
1166.539971
 30
0.0
  0
LWPOLYLINE
  5
316
100
AcDbEntity
  8
R5_DOME_SHEET_1
 62
7
100
AcDbPolyline
 90
2
 70
0
 10
821.819979
 20
1162.939971
 30
0.0
 10
821.819979
 20
1159.339971
 30
0.0
  0
LWPOLYLINE
  5
317
100
AcDbEntity
  8
R5_DOME_SHEET_1
 62
7
100
AcDbPolyline
 90
2
 70
0
 10
821.819979
 20
1155.739971
 30
0.0
 10
821.819979
 20
1112.539972
 30
0.0
  0
LWPOLYLINE
  5
318
100
AcDbEntity
  8
R5_DOME_SHEET_1
 62
7
100
AcDbPolyline
 90
2
 70
0
 10
821.819979
 20
1108.939972
 30
0.0
 10
821.819979
 20
1105.339972
 30
0.0
  0
LWPOLYLINE
  5
319
100
AcDbEntity
  8
R5_DOME_SHEET_1
 62
7
100
AcDbPolyline
 90
2
 70
0
 10
821.819979
 20
1101.739972
 30
0.0
 10
821.819979
 20
1058.539974
 30
0.0
  0
LWPOLYLINE
  5
31a
100
AcDbEntity
  8
R5_DOME_SHEET_1
 62
7
100
AcDbPolyline
 90
2
 70
0
 10
821.819979
 20
1054.939974
 30
0.0
 10
821.819979
 20
1051.339974
 30
0.0
  0
LWPOLYLINE
  5
31b
100
AcDbEntity
  8
R5_DOME_SHEET_1
 62
7
100
AcDbPolyline
 90
2
 70
0
 10
821.819979
 20
1047.739974
 30
0.0
 10
821.819979
 20
1004.539975
 30
0.0
  0
LWPOLYLINE
  5
31c
100
AcDbEntity
  8
R5_DOME_SHEET_1
 62
7
100
AcDbPolyline
 90
2
 70
0
 10
821.819979
 20
1000.939975
 30
0.0
 10
821.819979
 20
997.339975
 30
0.0
  0
LWPOLYLINE
  5
31d
100
AcDbEntity
  8
R5_DOME_SHEET_1
 62
7
100
AcDbPolyline
 90
3
 70
0
 10
821.819979
 20
993.739975
 30
0.0
 10
821.819979
 20
950.539976
 30
0.0
 10
821.819979
 20
946.939976
 30
0.0
  0
LWPOLYLINE
  5
31e
100
AcDbEntity
  8
R5_DOME_SHEET_1
 62
7
100
AcDbPolyline
 90
2
 70
0
 10
835.979979
 20
1605.439960
 30
0.0
 10
882.719978
 20
1605.439960
 30
0.0
  0
LWPOLYLINE
  5
31f
100
AcDbEntity
  8
R5_DOME_SHEET_1
 62
7
100
AcDbPolyline
 90
2
 70
0
 10
886.319978
 20
1605.439960
 30
0.0
 10
889.919978
 20
1605.439960
 30
0.0
  0
LWPOLYLINE
  5
320
100
AcDbEntity
  8
R5_DOME_SHEET_1
 62
7
100
AcDbPolyline
 90
2
 70
0
 10
893.519978
 20
1605.439960
 30
0.0
 10
936.719977
 20
1605.439960
 30
0.0
  0
LWPOLYLINE
  5
321
100
AcDbEntity
  8
R5_DOME_SHEET_1
 62
7
100
AcDbPolyline
 90
2
 70
0
 10
940.319976
 20
1605.439960
 30
0.0
 10
943.919976
 20
1605.439960
 30
0.0
  0
LWPOLYLINE
  5
322
100
AcDbEntity
  8
R5_DOME_SHEET_1
 62
7
100
AcDbPolyline
 90
2
 70
0
 10
947.519976
 20
1605.439960
 30
0.0
 10
990.719975
 20
1605.439960
 30
0.0
  0
LWPOLYLINE
  5
323
100
AcDbEntity
  8
R5_DOME_SHEET_1
 62
7
100
AcDbPolyline
 90
2
 70
0
 10
994.319975
 20
1605.439960
 30
0.0
 10
997.919975
 20
1605.439960
 30
0.0
  0
LWPOLYLINE
  5
324
100
AcDbEntity
  8
R5_DOME_SHEET_1
 62
7
100
AcDbPolyline
 90
2
 70
0
 10
1001.519975
 20
1605.439960
 30
0.0
 10
1044.719974
 20
1605.439960
 30
0.0
  0
LWPOLYLINE
  5
325
100
AcDbEntity
  8
R5_DOME_SHEET_1
 62
7
100
AcDbPolyline
 90
2
 70
0
 10
1048.319974
 20
1605.439960
 30
0.0
 10
1051.919974
 20
1605.439960
 30
0.0
  0
LWPOLYLINE
  5
326
100
AcDbEntity
  8
R5_DOME_SHEET_1
 62
7
100
AcDbPolyline
 90
2
 70
0
 10
1055.519974
 20
1605.439960
 30
0.0
 10
1098.719973
 20
1605.439960
 30
0.0
  0
LWPOLYLINE
  5
327
100
AcDbEntity
  8
R5_DOME_SHEET_1
 62
7
100
AcDbPolyline
 90
2
 70
0
 10
1102.319972
 20
1605.439960
 30
0.0
 10
1105.919972
 20
1605.439960
 30
0.0
  0
LWPOLYLINE
  5
328
100
AcDbEntity
  8
R5_DOME_SHEET_1
 62
7
100
AcDbPolyline
 90
2
 70
0
 10
1109.519972
 20
1605.439960
 30
0.0
 10
1152.719971
 20
1605.439960
 30
0.0
  0
LWPOLYLINE
  5
329
100
AcDbEntity
  8
R5_DOME_SHEET_1
 62
7
100
AcDbPolyline
 90
2
 70
0
 10
1156.319971
 20
1605.439960
 30
0.0
 10
1159.919971
 20
1605.439960
 30
0.0
  0
LWPOLYLINE
  5
32a
100
AcDbEntity
  8
R5_DOME_SHEET_1
 62
7
100
AcDbPolyline
 90
2
 70
0
 10
1163.519971
 20
1605.439960
 30
0.0
 10
1206.719970
 20
1605.439960
 30
0.0
  0
LWPOLYLINE
  5
32b
100
AcDbEntity
  8
R5_DOME_SHEET_1
 62
7
100
AcDbPolyline
 90
2
 70
0
 10
1210.319970
 20
1605.439960
 30
0.0
 10
1213.919970
 20
1605.439960
 30
0.0
  0
LWPOLYLINE
  5
32c
100
AcDbEntity
  8
R5_DOME_SHEET_1
 62
7
100
AcDbPolyline
 90
2
 70
0
 10
1217.519970
 20
1605.439960
 30
0.0
 10
1260.719968
 20
1605.439960
 30
0.0
  0
LWPOLYLINE
  5
32d
100
AcDbEntity
  8
R5_DOME_SHEET_1
 62
7
100
AcDbPolyline
 90
2
 70
0
 10
1264.319968
 20
1605.439960
 30
0.0
 10
1267.919968
 20
1605.439960
 30
0.0
  0
LWPOLYLINE
  5
32e
100
AcDbEntity
  8
R5_DOME_SHEET_1
 62
7
100
AcDbPolyline
 90
2
 70
0
 10
1271.519968
 20
1605.439960
 30
0.0
 10
1314.719967
 20
1605.439960
 30
0.0
  0
LWPOLYLINE
  5
32f
100
AcDbEntity
  8
R5_DOME_SHEET_1
 62
7
100
AcDbPolyline
 90
2
 70
0
 10
1318.319967
 20
1605.439960
 30
0.0
 10
1321.919967
 20
1605.439960
 30
0.0
  0
LWPOLYLINE
  5
330
100
AcDbEntity
  8
R5_DOME_SHEET_1
 62
7
100
AcDbPolyline
 90
2
 70
0
 10
1325.519967
 20
1605.439960
 30
0.0
 10
1368.719966
 20
1605.439960
 30
0.0
  0
LWPOLYLINE
  5
331
100
AcDbEntity
  8
R5_DOME_SHEET_1
 62
7
100
AcDbPolyline
 90
2
 70
0
 10
1372.319966
 20
1605.439960
 30
0.0
 10
1375.919966
 20
1605.439960
 30
0.0
  0
LWPOLYLINE
  5
332
100
AcDbEntity
  8
R5_DOME_SHEET_1
 62
7
100
AcDbPolyline
 90
2
 70
0
 10
1379.519966
 20
1605.439960
 30
0.0
 10
1422.719964
 20
1605.439960
 30
0.0
  0
LWPOLYLINE
  5
333
100
AcDbEntity
  8
R5_DOME_SHEET_1
 62
7
100
AcDbPolyline
 90
2
 70
0
 10
1426.319964
 20
1605.439960
 30
0.0
 10
1429.919964
 20
1605.439960
 30
0.0
  0
LWPOLYLINE
  5
334
100
AcDbEntity
  8
R5_DOME_SHEET_1
 62
7
100
AcDbPolyline
 90
3
 70
0
 10
1433.519964
 20
1605.439960
 30
0.0
 10
1476.719963
 20
1605.439960
 30
0.0
 10
1480.319963
 20
1605.439960
 30
0.0
  0
LWPOLYLINE
  5
335
100
AcDbEntity
  8
R5_DOME_SHEET_1
 62
7
100
AcDbPolyline
 90
2
 70
0
 10
278.519993
 20
1497.379963
 30
0.0
 10
278.519993
 20
1504.458962
 30
0.0
  0
LWPOLYLINE
  5
336
100
AcDbEntity
  8
R5_DOME_SHEET_1
 62
7
100
AcDbPolyline
 90
2
 70
0
 10
278.519993
 20
1497.379963
 30
0.0
 10
271.439993
 20
1497.379963
 30
0.0
  0
LWPOLYLINE
  5
337
100
AcDbEntity
  8
R5_DOME_SHEET_1
 62
7
100
AcDbPolyline
 90
2
 70
0
 10
278.519993
 20
1497.379963
 30
0.0
 10
278.519993
 20
1490.239963
 30
0.0
  0
LWPOLYLINE
  5
338
100
AcDbEntity
  8
R5_DOME_SHEET_1
 62
7
100
AcDbPolyline
 90
2
 70
0
 10
278.519993
 20
1497.379963
 30
0.0
 10
285.599993
 20
1497.379963
 30
0.0
  0
LWPOLYLINE
  5
339
100
AcDbEntity
  8
R5_DOME_SHEET_1
 62
7
100
AcDbPolyline
 90
2
 70
0
 10
278.519993
 20
1504.458962
 30
0.0
 10
278.519993
 20
1511.119962
 30
0.0
  0
LWPOLYLINE
  5
33a
100
AcDbEntity
  8
R5_DOME_SHEET_1
 62
7
100
AcDbPolyline
 90
2
 70
0
 10
271.439993
 20
1497.379963
 30
0.0
 10
264.779993
 20
1497.379963
 30
0.0
  0
LWPOLYLINE
  5
33b
100
AcDbEntity
  8
R5_DOME_SHEET_1
 62
7
100
AcDbPolyline
 90
2
 70
0
 10
278.519993
 20
1490.239963
 30
0.0
 10
278.519993
 20
1483.579963
 30
0.0
  0
LWPOLYLINE
  5
33c
100
AcDbEntity
  8
R5_DOME_SHEET_1
 62
7
100
AcDbPolyline
 90
2
 70
0
 10
285.599993
 20
1497.379963
 30
0.0
 10
292.259993
 20
1497.379963
 30
0.0
  0
LWPOLYLINE
  5
33d
100
AcDbEntity
  8
R5_DOME_SHEET_1
 62
7
100
AcDbPolyline
 90
2
 70
0
 10
713.759982
 20
2148.619946
 30
0.0
 10
713.759982
 20
2155.698946
 30
0.0
  0
LWPOLYLINE
  5
33e
100
AcDbEntity
  8
R5_DOME_SHEET_1
 62
7
100
AcDbPolyline
 90
2
 70
0
 10
713.759982
 20
2148.619946
 30
0.0
 10
706.679982
 20
2148.619946
 30
0.0
  0
LWPOLYLINE
  5
33f
100
AcDbEntity
  8
R5_DOME_SHEET_1
 62
7
100
AcDbPolyline
 90
2
 70
0
 10
713.759982
 20
2148.619946
 30
0.0
 10
713.759982
 20
2141.539946
 30
0.0
  0
LWPOLYLINE
  5
340
100
AcDbEntity
  8
R5_DOME_SHEET_1
 62
7
100
AcDbPolyline
 90
2
 70
0
 10
713.759982
 20
2148.619946
 30
0.0
 10
720.839982
 20
2148.619946
 30
0.0
  0
LWPOLYLINE
  5
341
100
AcDbEntity
  8
R5_DOME_SHEET_1
 62
7
100
AcDbPolyline
 90
2
 70
0
 10
713.759982
 20
2155.698946
 30
0.0
 10
713.759982
 20
2162.358946
 30
0.0
  0
LWPOLYLINE
  5
342
100
AcDbEntity
  8
R5_DOME_SHEET_1
 62
7
100
AcDbPolyline
 90
2
 70
0
 10
706.679982
 20
2148.619946
 30
0.0
 10
700.019982
 20
2148.619946
 30
0.0
  0
LWPOLYLINE
  5
343
100
AcDbEntity
  8
R5_DOME_SHEET_1
 62
7
100
AcDbPolyline
 90
2
 70
0
 10
713.759982
 20
2141.539946
 30
0.0
 10
713.759982
 20
2134.878947
 30
0.0
  0
LWPOLYLINE
  5
344
100
AcDbEntity
  8
R5_DOME_SHEET_1
 62
7
100
AcDbPolyline
 90
2
 70
0
 10
720.839982
 20
2148.619946
 30
0.0
 10
727.499982
 20
2148.619946
 30
0.0
  0
LWPOLYLINE
  5
345
100
AcDbEntity
  8
R5_DOME_SHEET_1
 62
7
100
AcDbPolyline
 90
2
 70
0
 10
929.879977
 20
1062.319973
 30
0.0
 10
929.879977
 20
1069.399973
 30
0.0
  0
LWPOLYLINE
  5
346
100
AcDbEntity
  8
R5_DOME_SHEET_1
 62
7
100
AcDbPolyline
 90
2
 70
0
 10
929.879977
 20
1062.319973
 30
0.0
 10
922.739977
 20
1062.319973
 30
0.0
  0
LWPOLYLINE
  5
347
100
AcDbEntity
  8
R5_DOME_SHEET_1
 62
7
100
AcDbPolyline
 90
2
 70
0
 10
929.879977
 20
1062.319973
 30
0.0
 10
929.879977
 20
1055.179974
 30
0.0
  0
LWPOLYLINE
  5
348
100
AcDbEntity
  8
R5_DOME_SHEET_1
 62
7
100
AcDbPolyline
 90
2
 70
0
 10
929.879977
 20
1062.319973
 30
0.0
 10
936.959977
 20
1062.319973
 30
0.0
  0
LWPOLYLINE
  5
349
100
AcDbEntity
  8
R5_DOME_SHEET_1
 62
7
100
AcDbPolyline
 90
2
 70
0
 10
929.879977
 20
1069.399973
 30
0.0
 10
929.879977
 20
1076.059973
 30
0.0
  0
LWPOLYLINE
  5
34a
100
AcDbEntity
  8
R5_DOME_SHEET_1
 62
7
100
AcDbPolyline
 90
2
 70
0
 10
922.739977
 20
1062.319973
 30
0.0
 10
916.079977
 20
1062.319973
 30
0.0
  0
LWPOLYLINE
  5
34b
100
AcDbEntity
  8
R5_DOME_SHEET_1
 62
7
100
AcDbPolyline
 90
2
 70
0
 10
929.879977
 20
1055.179974
 30
0.0
 10
929.879977
 20
1048.519974
 30
0.0
  0
LWPOLYLINE
  5
34c
100
AcDbEntity
  8
R5_DOME_SHEET_1
 62
7
100
AcDbPolyline
 90
2
 70
0
 10
936.959977
 20
1062.319973
 30
0.0
 10
943.619976
 20
1062.319973
 30
0.0
  0
LWPOLYLINE
  5
34d
100
AcDbEntity
  8
R5_DOME_SHEET_1
 62
7
100
AcDbPolyline
 90
2
 70
0
 10
1365.119966
 20
1713.499957
 30
0.0
 10
1365.119966
 20
1720.579957
 30
0.0
  0
LWPOLYLINE
  5
34e
100
AcDbEntity
  8
R5_DOME_SHEET_1
 62
7
100
AcDbPolyline
 90
2
 70
0
 10
1365.119966
 20
1713.499957
 30
0.0
 10
1358.039966
 20
1713.499957
 30
0.0
  0
LWPOLYLINE
  5
34f
100
AcDbEntity
  8
R5_DOME_SHEET_1
 62
7
100
AcDbPolyline
 90
2
 70
0
 10
1365.119966
 20
1713.499957
 30
0.0
 10
1365.119966
 20
1706.419957
 30
0.0
  0
LWPOLYLINE
  5
350
100
AcDbEntity
  8
R5_DOME_SHEET_1
 62
7
100
AcDbPolyline
 90
2
 70
0
 10
1365.119966
 20
1713.499957
 30
0.0
 10
1372.199966
 20
1713.499957
 30
0.0
  0
LWPOLYLINE
  5
351
100
AcDbEntity
  8
R5_DOME_SHEET_1
 62
7
100
AcDbPolyline
 90
2
 70
0
 10
1365.119966
 20
1720.579957
 30
0.0
 10
1365.119966
 20
1727.239957
 30
0.0
  0
LWPOLYLINE
  5
352
100
AcDbEntity
  8
R5_DOME_SHEET_1
 62
7
100
AcDbPolyline
 90
2
 70
0
 10
1358.039966
 20
1713.499957
 30
0.0
 10
1351.379966
 20
1713.499957
 30
0.0
  0
LWPOLYLINE
  5
353
100
AcDbEntity
  8
R5_DOME_SHEET_1
 62
7
100
AcDbPolyline
 90
2
 70
0
 10
1365.119966
 20
1706.419957
 30
0.0
 10
1365.119966
 20
1699.759958
 30
0.0
  0
LWPOLYLINE
  5
354
100
AcDbEntity
  8
R5_DOME_SHEET_1
 62
7
100
AcDbPolyline
 90
2
 70
0
 10
1372.199966
 20
1713.499957
 30
0.0
 10
1378.859966
 20
1713.499957
 30
0.0
  0
ENDSEC
  0
SECTION
  2
OBJECTS
  0
DICTIONARY
  5
C
330
0
100
AcDbDictionary
  3
ACAD_GROUP
350
D
  3
ACAD_MLINESTYLE
350
17
  0
DICTIONARY
  5
D
330
C
100
AcDbDictionary
  0
DICTIONARY
  5
1A
330
C
100
AcDbDictionary
  0
DICTIONARY
  5
17
330
C
100
AcDbDictionary
  3
STANDARD
350
18
  0
DICTIONARY
  5
19
330
C
100
AcDbDictionary
  0
ENDSEC
  0
EOF
